<?xml version="1.0" encoding="UTF-8"?>
<svg version="1.1" xmlns="http://www.w3.org/2000/svg" width="251" height="201">
<path d="M0 0 C82.83 0 165.66 0 251 0 C251 66.33 251 132.66 251 201 C168.17 201 85.34 201 0 201 C0 134.67 0 68.34 0 0 Z " fill="#127CB9" transform="translate(0,0)"/>
<path d="M0 0 C17.82 0 35.64 0 54 0 C51.42036472 1.71975685 49.05405945 2.91174003 46.25 4.1875 C37.34315387 8.64740549 32.71318976 14.83977568 29 24 C27.98946144 27.28610324 27.86728267 30.29093844 27.85282898 33.72193909 C27.84567368 34.88952255 27.83851837 36.05710602 27.83114624 37.2600708 C27.82845734 38.5375116 27.82576843 39.81495239 27.82299805 41.13110352 C27.8167298 42.49314038 27.81008268 43.85517555 27.80308533 45.21720886 C27.78207832 49.68776263 27.77168328 54.15831659 27.76171875 58.62890625 C27.75766937 60.17149307 27.75355239 61.71407972 27.74936867 63.25666618 C27.73032115 70.50805632 27.7160915 77.75943634 27.7077567 85.01084667 C27.69799791 93.36194128 27.6717123 101.71276988 27.63125581 110.06377083 C27.6010122 116.53021413 27.58627988 122.99658156 27.58297569 129.46309417 C27.5806338 133.31945007 27.57178709 137.17552166 27.54651451 141.03180122 C27.52308498 144.66560055 27.51905948 148.29893141 27.52927589 151.93278694 C27.53000054 153.88564213 27.51101263 155.83847432 27.49121094 157.79122925 C27.55090144 167.99769942 29.61882795 177.14033345 36.16796875 185.21484375 C45.62137097 194.42636788 56.11326485 195.29991114 68.6394043 195.30639648 C70.01996809 195.31402724 71.40052767 195.3224563 72.78108215 195.33161926 C76.51689976 195.35348384 80.25263555 195.36235255 83.98850989 195.36744571 C86.32792412 195.37109954 88.66731726 195.37734495 91.0067234 195.3844471 C99.18377235 195.40891596 107.36075812 195.42198744 115.5378418 195.42553711 C123.13428724 195.42916797 130.7303276 195.45903743 138.32664937 195.50094169 C144.86876372 195.53575245 151.41074454 195.55108742 157.95295078 195.55178314 C161.85126205 195.55257245 165.74916036 195.56114959 169.64737511 195.58978081 C173.31906811 195.61614687 176.99001125 195.61806521 180.66175652 195.60212517 C182.63228997 195.59947463 184.60281007 195.62136848 186.57321167 195.64431763 C196.9121376 195.56027964 205.74752226 193.31364133 213.5 186.1875 C219.45976623 179.63299618 222.1111825 172.92173405 222.14717102 164.11947632 C222.15432632 162.91679108 222.16148163 161.71410583 222.16885376 160.47497559 C222.17154266 159.15856079 222.17423157 157.842146 222.17700195 156.48583984 C222.18326989 155.08277214 222.18991699 153.6797061 222.19691467 152.27664185 C222.21792255 147.67141875 222.22831571 143.06619545 222.23828125 138.4609375 C222.24233038 136.87251392 222.24644735 135.2840905 222.25063133 133.69566727 C222.26967779 126.23017077 222.28390856 118.76468411 222.2922433 111.29916799 C222.3020065 102.69733473 222.32830418 94.09575943 222.36874419 85.494017 C222.39896714 78.83565891 222.41371811 72.17737448 222.41702431 65.51894915 C222.41936824 61.54693368 222.42824207 57.57519395 222.45348549 53.60325241 C222.4768791 49.86193842 222.48095465 46.12107951 222.47072411 42.37971115 C222.46999786 40.36583286 222.48901044 38.3519771 222.50878906 36.3381958 C222.44490812 25.11821885 219.92768642 17.09763116 212.14453125 8.91015625 C207.14701386 4.45881563 201.39381226 2.59845307 195 1 C195 0.67 195 0.34 195 0 C213.48 0 231.96 0 251 0 C251 66.33 251 132.66 251 201 C168.17 201 85.34 201 0 201 C0 134.67 0 68.34 0 0 Z " fill="#F8F8F8" transform="translate(0,0)"/>
<path d="M0 0 C7.61076343 5.99028988 10.36046838 15.29016666 11.6550293 24.53515625 C12.34982422 31.00394634 12.24870016 37.47415465 12.22265625 43.97265625 C12.22078719 45.32742765 12.2193656 46.68219973 12.21836853 48.03697205 C12.21458172 51.57308881 12.20478499 55.10916338 12.19366455 58.64526367 C12.18336717 62.26545633 12.1787981 65.88565613 12.17382812 69.50585938 C12.16369154 76.58727664 12.14411028 83.66857859 12.125 90.75 C2.225 90.75 -7.675 90.75 -17.875 90.75 C-17.93107422 84.73458984 -17.93107422 84.73458984 -17.98828125 78.59765625 C-18.02644906 75.37858114 -18.06752128 72.1595719 -18.1105423 68.94055939 C-18.15500741 65.55439052 -18.19448131 62.16833979 -18.22143555 58.78198242 C-18.25513115 54.88691389 -18.30745705 50.99246297 -18.36328125 47.09765625 C-18.36967117 45.8973024 -18.3760611 44.69694855 -18.38264465 43.46022034 C-18.49817871 32.20530579 -18.49817871 32.20530579 -23.875 22.75 C-29.53925198 19.91787401 -34.73882075 20.07354324 -40.625 21.9375 C-45.38365841 24.59136719 -47.30001086 26.94519466 -48.95458984 32.13867188 C-50.29542544 37.81856686 -50.2301933 43.53443244 -50.2890625 49.34375 C-50.30842865 50.53101685 -50.3277948 51.71828369 -50.3477478 52.94152832 C-50.40723652 56.71094719 -50.45380624 60.4803971 -50.5 64.25 C-50.538208 66.81511704 -50.57726136 69.38022163 -50.6171875 71.9453125 C-50.71449403 78.21347469 -50.79430811 84.48151408 -50.875 90.75 C-60.445 90.75 -70.015 90.75 -79.875 90.75 C-79.875 59.4 -79.875 28.05 -79.875 -4.25 C-70.635 -4.25 -61.395 -4.25 -51.875 -4.25 C-51.545 -0.29 -51.215 3.67 -50.875 7.75 C-49.92625 6.533125 -48.9775 5.31625 -48 4.0625 C-35.91403171 -9.79214658 -14.72458616 -9.34140412 0 0 Z " fill="#F7F8F8" transform="translate(183.875,77.25)"/>
<path d="M0 0 C9.57 0 19.14 0 29 0 C30.87788672 1.87788672 30.12008587 4.59165909 30.12442017 7.08978271 C30.12082489 7.96515686 30.11722961 8.84053101 30.11352539 9.74243164 C30.11367142 10.6594133 30.11381744 11.57639496 30.1139679 12.52116394 C30.1132684 15.56751836 30.10547428 18.61381245 30.09765625 21.66015625 C30.0957922 23.76622993 30.09436824 25.87230403 30.09336853 27.9783783 C30.08954231 33.53342883 30.07971114 39.08845341 30.06866455 44.64349365 C30.05845267 50.3072474 30.05387139 55.97100533 30.04882812 61.63476562 C30.03808896 72.75652369 30.02049132 83.87825563 30 95 C20.1 95 10.2 95 0 95 C0 63.65 0 32.3 0 0 Z " fill="#F6F6F6" transform="translate(56,73)"/>
<path d="M0 0 C4.47870656 2.15937638 7.18198188 4.92952939 10 9 C11.5302087 13.59062609 11.9413765 18.37540138 10.28125 23.00390625 C7.83000444 27.58022356 4.61895495 30.69052253 0 33 C-5.35350081 33.66729189 -10.70486528 34.24014129 -15.56640625 31.61328125 C-19.89943138 27.93459878 -22.63831944 24.66457476 -23.20703125 18.90234375 C-23.435018 13.8444155 -22.92275975 10.28671431 -20 6 C-13.71210448 -0.18728919 -8.63214577 -0.81350065 0 0 Z " fill="#F4F6F6" transform="translate(77,27)"/>
<path d="M0 0 C1.65 0 3.3 0 5 0 C5 1.65 5 3.3 5 5 C2.50907189 6.24546405 1.58919267 5.7767578 -1 5 C-0.67 3.35 -0.34 1.7 0 0 Z M-12 1 C-11.67 1 -11.34 1 -11 1 C-10.67 4.3 -10.34 7.6 -10 11 C-8.68 11 -7.36 11 -6 11 C-6 9.35 -6 7.7 -6 6 C-4.35 5.67 -2.7 5.34 -1 5 C-1 6.98 -1 8.96 -1 11 C-2.32 11.33 -3.64 11.66 -5 12 C-5 13.32 -5 14.64 -5 16 C-2.36 16 0.28 16 3 16 C2.01 16.66 1.02 17.32 0 18 C-0.72382467 20.05925139 -0.72382467 20.05925139 -1 22 C-1.61875 22.061875 -2.2375 22.12375 -2.875 22.1875 C-5.27761141 22.828919 -5.27761141 22.828919 -6.25 25.5625 C-6.4975 26.366875 -6.745 27.17125 -7 28 C-8.32 28 -9.64 28 -11 28 C-11 33.61 -11 39.22 -11 45 C-9.02 44.505 -9.02 44.505 -7 44 C-6.67 42.35 -6.34 40.7 -6 39 C-4.35 39 -2.7 39 -1 39 C-1 37.02 -1 35.04 -1 33 C0.65 33 2.3 33 4 33 C4.33 31.35 4.66 29.7 5 28 C6.65 28 8.3 28 10 28 C10 29.65 10 31.3 10 33 C7.525 33.495 7.525 33.495 5 34 C5 35.65 5 37.3 5 39 C7.475 38.505 7.475 38.505 10 38 C10.33 36.68 10.66 35.36 11 34 C12.65 34 14.3 34 16 34 C16 39.28 16 44.56 16 50 C14.35 50 12.7 50 11 50 C10.34 51.98 9.68 53.96 9 56 C7.68 56 6.36 56 5 56 C5 54.02 5 52.04 5 50 C3.35 50 1.7 50 0 50 C-0.33 48.35 -0.66 46.7 -1 45 C-2.65 45 -4.3 45 -6 45 C-6 46.65 -6 48.3 -6 50 C-4.35 50 -2.7 50 -1 50 C-1 51.65 -1 53.3 -1 55 C-1.61875 55.2475 -2.2375 55.495 -2.875 55.75 C-5.38710296 57.22770762 -5.76107344 58.43955177 -7 61 C-8.485 61.495 -8.485 61.495 -10 62 C-10.33 87.41 -10.66 112.82 -11 139 C-11.33 139 -11.66 139 -12 139 C-12 93.46 -12 47.92 -12 1 Z " fill="#F6F6F6" transform="translate(235,28)"/>
<path d="M0 0 C0.33 0 0.66 0 1 0 C1.04953687 4.19920237 1.08578411 8.39824869 1.10986328 12.59765625 C1.11990427 14.02542078 1.13353981 15.45316483 1.15087891 16.88085938 C1.17521152 18.93624941 1.18650202 20.99136692 1.1953125 23.046875 C1.20578613 24.28276367 1.21625977 25.51865234 1.22705078 26.79199219 C1.01298081 29.81659371 0.59653159 31.46985651 -1 34 C-2.65 34 -4.3 34 -6 34 C-6 35.65 -6 37.3 -6 39 C-6.61875 39.2475 -7.2375 39.495 -7.875 39.75 C-10.35068687 41.20628639 -10.95125002 42.37812506 -12 45 C-13.65 45 -15.3 45 -17 45 C-17 46.65 -17 48.3 -17 50 C-15.02 50 -13.04 50 -11 50 C-11 48.35 -11 46.7 -11 45 C-9.35 45 -7.7 45 -6 45 C-6 46.65 -6 48.3 -6 50 C-4.02 50 -2.04 50 0 50 C0 48.35 0 46.7 0 45 C0.33 45 0.66 45 1 45 C1 46.98 1 48.96 1 51 C-8.24 51 -17.48 51 -27 51 C-27 43.41 -27 35.82 -27 28 C-25.68 28 -24.36 28 -23 28 C-22.67 26.35 -22.34 24.7 -22 23 C-20.35 22.67 -18.7 22.34 -17 22 C-17 23.98 -17 25.96 -17 28 C-15.35 27.67 -13.7 27.34 -12 27 C-11.67 25.68 -11.34 24.36 -11 23 C-9.68 22.67 -8.36 22.34 -7 22 C-6.67 20.35 -6.34 18.7 -6 17 C-7.65 17 -9.3 17 -11 17 C-11 15.35 -11 13.7 -11 12 C-10.38125 11.938125 -9.7625 11.87625 -9.125 11.8125 C-8.42375 11.544375 -7.7225 11.27625 -7 11 C-6.67 10.175 -6.34 9.35 -6 8.5 C-5.67 7.675 -5.34 6.85 -5 6 C-2.875 5.1875 -2.875 5.1875 -1 5 C-0.67 3.35 -0.34 1.7 0 0 Z " fill="#F9F9F8" transform="translate(84,117)"/>
<path d="M0 0 C9.24 0 18.48 0 28 0 C28 12.54 28 25.08 28 38 C27.67 38 27.34 38 27 38 C27 36.02 27 34.04 27 32 C25.02 32 23.04 32 21 32 C21 30.02 21 28.04 21 26 C22.65 26 24.3 26 26 26 C26.33 24.35 26.66 22.7 27 21 C25.02 21 23.04 21 21 21 C20.505 18.525 20.505 18.525 20 16 C18.68 16 17.36 16 16 16 C15.67 17.65 15.34 19.3 15 21 C13.35 21 11.7 21 10 21 C10 22.65 10 24.3 10 26 C7.50907189 27.24546405 6.58919267 26.7767578 4 26 C4 27.98 4 29.96 4 32 C2.68 32 1.36 32 0 32 C0 21.44 0 10.88 0 0 Z M21 10 C21 11.65 21 13.3 21 15 C22.65 15 24.3 15 26 15 C26.33 14.34 26.66 13.68 27 13 C26.67 12.01 26.34 11.02 26 10 C24.35 10 22.7 10 21 10 Z " fill="#F9F9F9" transform="translate(57,74)"/>
<path d="M0 0 C4.38769081 8.02704846 3.13324156 18.34337382 3.09765625 27.22265625 C3.09578719 28.57742765 3.0943656 29.93219973 3.09336853 31.28697205 C3.08958172 34.82308881 3.07978499 38.35916338 3.06866455 41.89526367 C3.05836717 45.51545644 3.05385321 49.13565613 3.04882812 52.75585938 C3.03815862 59.83725667 3.02112928 66.91862555 3 74 C2.67 74 2.34 74 2 74 C2 66.41 2 58.82 2 51 C0.02 51.495 0.02 51.495 -2 52 C-2.33 52.825 -2.66 53.65 -3 54.5 C-3.33 55.325 -3.66 56.15 -4 57 C-6.125 57.8125 -6.125 57.8125 -8 58 C-8.33 59.32 -8.66 60.64 -9 62 C-10.65 62 -12.3 62 -14 62 C-14 60.35 -14 58.7 -14 57 C-12.35 57 -10.7 57 -9 57 C-9.020625 56.195625 -9.04125 55.39125 -9.0625 54.5625 C-9 52 -9 52 -8 51 C-6.33382885 50.95936168 -4.66611905 50.957279 -3 51 C-3 49.35 -3 47.7 -3 46 C-1.35 46 0.3 46 2 46 C1.67 36.76 1.34 27.52 1 18 C-0.32 18 -1.64 18 -3 18 C-3.33 19.65 -3.66 21.3 -4 23 C-5.65 23 -7.3 23 -9 23 C-9 21.35 -9 19.7 -9 18 C-7.35 17.67 -5.7 17.34 -4 17 C-3.67 15.35 -3.34 13.7 -3 12 C-4.98 12 -6.96 12 -9 12 C-9 10.35 -9 8.7 -9 7 C-7.35 6.67 -5.7 6.34 -4 6 C-3.67 4.35 -3.34 2.7 -3 1 C-2.01 0.67 -1.02 0.34 0 0 Z M-27 19 C-26.67 19 -26.34 19 -26 19 C-26 23.95 -26 28.9 -26 34 C-24.02 34 -22.04 34 -20 34 C-20 35.98 -20 37.96 -20 40 C-21.98 40 -23.96 40 -26 40 C-26 51.22 -26 62.44 -26 74 C-26.33 74 -26.66 74 -27 74 C-27 55.85 -27 37.7 -27 19 Z M-14 23 C-12.35 23 -10.7 23 -9 23 C-9 24.65 -9 26.3 -9 28 C-10.65 28.33 -12.3 28.66 -14 29 C-14.33 30.65 -14.66 32.3 -15 34 C-16.65 34 -18.3 34 -20 34 C-20 32.35 -20 30.7 -20 29 C-18.35 28.67 -16.7 28.34 -15 28 C-14.67 26.35 -14.34 24.7 -14 23 Z " fill="#F1F2F2" transform="translate(193,94)"/>
<path d="M0 0 C9.24 0 18.48 0 28 0 C28 0.33 28 0.66 28 1 C19.42 1 10.84 1 2 1 C1.97699357 5.46580397 1.95709523 9.9314007 1.94506836 14.3972168 C1.94005234 15.91512755 1.93323797 17.4330335 1.92456055 18.95092773 C1.91237503 21.13787016 1.90674428 23.32474846 1.90234375 25.51171875 C1.89710693 26.82615967 1.89187012 28.14060059 1.88647461 29.49487305 C1.98322448 32.48205125 2.29656236 35.10592611 3 38 C4.32 38.33 5.64 38.66 7 39 C7.5625 40.9375 7.5625 40.9375 8 43 C7.505 43.495 7.505 43.495 7 44 C5.35 44 3.7 44 2 44 C2 53.24 2 62.48 2 72 C4.475 71.505 4.475 71.505 7 71 C7.33 69.68 7.66 68.36 8 67 C9.65 67 11.3 67 13 67 C13 68.65 13 70.3 13 72 C11.02 72.495 11.02 72.495 9 73 C8.67 74.65 8.34 76.3 8 78 C9.65 78 11.3 78 13 78 C12.979375 77.195625 12.95875 76.39125 12.9375 75.5625 C13 73 13 73 14 72 C15.66617115 71.95936168 17.33388095 71.957279 19 72 C19 70.35 19 68.7 19 67 C21.475 66.505 21.475 66.505 24 66 C24.33 64.68 24.66 63.36 25 62 C26.98 61.505 26.98 61.505 29 61 C29 62.98 29 64.96 29 67 C27.68 67 26.36 67 25 67 C24.67 68.65 24.34 70.3 24 72 C23.38125 72.061875 22.7625 72.12375 22.125 72.1875 C21.42375 72.455625 20.7225 72.72375 20 73 C19.67 73.825 19.34 74.65 19 75.5 C18.67 76.325 18.34 77.15 18 78 C15.875 78.8125 15.875 78.8125 14 79 C13.67 80.32 13.34 81.64 13 83 C12.38125 83.061875 11.7625 83.12375 11.125 83.1875 C8.72238859 83.828919 8.72238859 83.828919 7.75 86.5625 C7.5025 87.366875 7.255 88.17125 7 89 C5.35 89 3.7 89 2 89 C2 87.35 2 85.7 2 84 C4.475 83.505 4.475 83.505 7 83 C7 81.35 7 79.7 7 78 C5.35 78 3.7 78 2 78 C1.67 83.61 1.34 89.22 1 95 C0.67 95 0.34 95 0 95 C0 63.65 0 32.3 0 0 Z " fill="#F1F1F1" transform="translate(104,73)"/>
<path d="M0 0 C1.65 0 3.3 0 5 0 C5 1.65 5 3.3 5 5 C2.50907189 6.24546405 1.58919267 5.7767578 -1 5 C-0.67 3.35 -0.34 1.7 0 0 Z M-12 1 C-11.67 1 -11.34 1 -11 1 C-10.67 4.3 -10.34 7.6 -10 11 C-8.68 11 -7.36 11 -6 11 C-6 9.35 -6 7.7 -6 6 C-4.35 5.67 -2.7 5.34 -1 5 C-1 6.98 -1 8.96 -1 11 C-2.32 11.33 -3.64 11.66 -5 12 C-5 13.32 -5 14.64 -5 16 C-2.36 16 0.28 16 3 16 C2.01 16.66 1.02 17.32 0 18 C-0.72382467 20.05925139 -0.72382467 20.05925139 -1 22 C-1.61875 22.061875 -2.2375 22.12375 -2.875 22.1875 C-5.27761141 22.828919 -5.27761141 22.828919 -6.25 25.5625 C-6.4975 26.366875 -6.745 27.17125 -7 28 C-8.32 28 -9.64 28 -11 28 C-11 64.63 -11 101.26 -11 139 C-11.33 139 -11.66 139 -12 139 C-12 93.46 -12 47.92 -12 1 Z " fill="#D0E1E8" transform="translate(235,28)"/>
<path d="M0 0 C43.89 0 87.78 0 133 0 C133 0.33 133 0.66 133 1 C119.47 1 105.94 1 92 1 C92 2.32 92 3.64 92 5 C78.8 5 65.6 5 52 5 C52 4.01 52 3.02 52 2 C34.84 1.67 17.68 1.34 0 1 C0 0.67 0 0.34 0 0 Z " fill="#D3EAED" transform="translate(59,196)"/>
<path d="M0 0 C1.65 0 3.3 0 5 0 C5 1.65 5 3.3 5 5 C4.38125 5.061875 3.7625 5.12375 3.125 5.1875 C2.42375 5.455625 1.7225 5.72375 1 6 C0.67 6.825 0.34 7.65 0 8.5 C-0.33 9.325 -0.66 10.15 -1 11 C-2.33333333 11.33333333 -3.66666667 11.66666667 -5 12 C-5.33 12.825 -5.66 13.65 -6 14.5 C-6.495 15.7375 -6.495 15.7375 -7 17 C-9.125 17.8125 -9.125 17.8125 -11 18 C-11.33 19.32 -11.66 20.64 -12 22 C-13.32 22.33 -14.64 22.66 -16 23 C-16 24.32 -16 25.64 -16 27 C-14.68 27.33 -13.36 27.66 -12 28 C-12.020625 27.195625 -12.04125 26.39125 -12.0625 25.5625 C-12 23 -12 23 -11 22 C-9.33382885 21.95936168 -7.66611905 21.957279 -6 22 C-6 23.65 -6 25.3 -6 27 C-6.804375 27.2475 -7.60875 27.495 -8.4375 27.75 C-11.171081 28.72238859 -11.171081 28.72238859 -11.8125 31.125 C-11.874375 31.74375 -11.93625 32.3625 -12 33 C-12.61875 33.061875 -13.2375 33.12375 -13.875 33.1875 C-16.27761141 33.828919 -16.27761141 33.828919 -17.25 36.5625 C-17.4975 37.366875 -17.745 38.17125 -18 39 C-19.32 39 -20.64 39 -22 39 C-22 33.39 -22 27.78 -22 22 C-20.35 22 -18.7 22 -17 22 C-17 20.35 -17 18.7 -17 17 C-15.35 16.67 -13.7 16.34 -12 16 C-11.67 14.35 -11.34 12.7 -11 11 C-9.35 11 -7.7 11 -6 11 C-6 9.35 -6 7.7 -6 6 C-5.195625 5.7525 -4.39125 5.505 -3.5625 5.25 C-0.828919 4.27761141 -0.828919 4.27761141 -0.1875 1.875 C-0.0946875 0.946875 -0.0946875 0.946875 0 0 Z " fill="#F2F2F2" transform="translate(246,84)"/>
<path d="M0 0 C9.57 0 19.14 0 29 0 C29 0.33 29 0.66 29 1 C19.76 1 10.52 1 1 1 C1 11.56 1 22.12 1 33 C2.32 33 3.64 33 5 33 C5 34.65 5 36.3 5 38 C3.02 38.495 3.02 38.495 1 39 C1 57.48 1 75.96 1 95 C0.67 95 0.34 95 0 95 C0 63.65 0 32.3 0 0 Z M22 11 C23.65 11 25.3 11 27 11 C27.5625 12.9375 27.5625 12.9375 28 15 C27 16 27 16 24.4375 16.0625 C23.2309375 16.0315625 23.2309375 16.0315625 22 16 C22 14.35 22 12.7 22 11 Z M22 16 C22 17.98 22 19.96 22 22 C20.35 22 18.7 22 17 22 C17 23.65 17 25.3 17 27 C16.21625 27.2475 15.4325 27.495 14.625 27.75 C11.67682892 29.15389099 11.0975223 30.00675737 10 33 C8.35 33 6.7 33 5 33 C5 31.02 5 29.04 5 27 C6.65 27 8.3 27 10 27 C10.33 25.35 10.66 23.7 11 22 C12.65 21.67 14.3 21.34 16 21 C16.33 19.68 16.66 18.36 17 17 C20.875 16 20.875 16 22 16 Z " fill="#DAE8EE" transform="translate(56,73)"/>
<path d="M0 0 C0.33 0 0.66 0 1 0 C1 31.02 1 62.04 1 94 C0.34 93.67 -0.32 93.34 -1 93 C-2.99960012 92.960008 -5.00047242 92.95653201 -7 93 C-7 91.35 -7 89.7 -7 88 C-8.65 88 -10.3 88 -12 88 C-12 89.65 -12 91.3 -12 93 C-13.98 93 -15.96 93 -18 93 C-18 91.35 -18 89.7 -18 88 C-17.21625 87.9175 -16.4325 87.835 -15.625 87.75 C-14.75875 87.5025 -13.8925 87.255 -13 87 C-12.30062468 85.68352881 -11.63270867 84.34977849 -11 83 C-8.875 82.25 -8.875 82.25 -7 82 C-7 80.35 -7 78.7 -7 77 C-4.525 76.505 -4.525 76.505 -2 76 C-0.82945265 72.48835795 -0.83933774 69.66503216 -0.79467773 65.95825195 C-0.78477814 65.24580322 -0.77487854 64.53335449 -0.76467896 63.79931641 C-0.733105 61.44567176 -0.70832281 59.09200694 -0.68359375 56.73828125 C-0.66302067 55.10588559 -0.64202411 53.47349521 -0.62062073 51.84111023 C-0.56543656 47.54544354 -0.51601117 43.24972906 -0.46777344 38.95397949 C-0.41753173 34.57018788 -0.3618596 30.18646562 -0.30664062 25.80273438 C-0.19910375 17.20188157 -0.09764886 8.60097072 0 0 Z " fill="#D6E6EB" transform="translate(85,74)"/>
<path d="M0 0 C1.65 0 3.3 0 5 0 C5 1.65 5 3.3 5 5 C3.35 5 1.7 5 0 5 C0.020625 5.804375 0.04125 6.60875 0.0625 7.4375 C0 10 0 10 -1 11 C-2.66617115 11.04063832 -4.33388095 11.042721 -6 11 C-6 12.65 -6 14.3 -6 16 C-7.65 16.33 -9.3 16.66 -11 17 C-11.33 18.65 -11.66 20.3 -12 22 C-13.65 22 -15.3 22 -17 22 C-17 23.65 -17 25.3 -17 27 C-17.804375 27.2475 -18.60875 27.495 -19.4375 27.75 C-22.171081 28.72238859 -22.171081 28.72238859 -22.8125 31.125 C-22.874375 31.74375 -22.93625 32.3625 -23 33 C-24.98 33 -26.96 33 -29 33 C-29 31.35 -29 29.7 -29 28 C-30.65 27.67 -32.3 27.34 -34 27 C-34 25.35 -34 23.7 -34 22 C-32.35 22 -30.7 22 -29 22 C-28.67 23.65 -28.34 25.3 -28 27 C-26.68 27 -25.36 27 -24 27 C-23.62875 25.7934375 -23.62875 25.7934375 -23.25 24.5625 C-22.63125 23.2940625 -22.63125 23.2940625 -22 22 C-20.66666667 21.66666667 -19.33333333 21.33333333 -18 21 C-16.70339566 18.50965614 -16.70339566 18.50965614 -16 16 C-14.68 16 -13.36 16 -12 16 C-11.67 14.35 -11.34 12.7 -11 11 C-9.68 10.67 -8.36 10.34 -7 10 C-6.67 8.35 -6.34 6.7 -6 5 C-4.35 5 -2.7 5 -1 5 C-0.67 3.35 -0.34 1.7 0 0 Z " fill="#FCFCFC" transform="translate(246,168)"/>
<path d="M0 0 C9.24 0 18.48 0 28 0 C28 0.33 28 0.66 28 1 C19.42 1 10.84 1 2 1 C1.97699357 5.46580397 1.95709523 9.9314007 1.94506836 14.3972168 C1.94005234 15.91512755 1.93323797 17.4330335 1.92456055 18.95092773 C1.91237503 21.13787016 1.90674428 23.32474846 1.90234375 25.51171875 C1.89710693 26.82615967 1.89187012 28.14060059 1.88647461 29.49487305 C1.98322448 32.48205125 2.29656236 35.10592611 3 38 C4.32 38.33 5.64 38.66 7 39 C7.5625 40.9375 7.5625 40.9375 8 43 C7 44 7 44 4.4375 44.0625 C3.633125 44.041875 2.82875 44.02125 2 44 C2.00523682 45.11858398 2.01047363 46.23716797 2.01586914 47.38964844 C2.03415712 51.59422994 2.04551777 55.79880802 2.05493164 60.00341797 C2.05991803 61.81299432 2.06670954 63.62256674 2.07543945 65.43212891 C2.12197817 75.33666213 2.1159229 85.14163264 1 95 C0.67 95 0.34 95 0 95 C0 63.65 0 32.3 0 0 Z " fill="#D3EAF1" transform="translate(104,73)"/>
<path d="M0 0 C1.65 0 3.3 0 5 0 C5 1.65 5 3.3 5 5 C3.35 5 1.7 5 0 5 C0 6.98 0 8.96 0 11 C1.65 11 3.3 11 5 11 C5.33 9.35 5.66 7.7 6 6 C7.32 5.67 8.64 5.34 10 5 C10 6.98 10 8.96 10 11 C8.68 11.33 7.36 11.66 6 12 C5.67 13.32 5.34 14.64 5 16 C3.35 16 1.7 16 0 16 C-0.33 14.68 -0.66 13.36 -1 12 C-2.65 11.67 -4.3 11.34 -6 11 C-6 12.65 -6 14.3 -6 16 C-7.98 16 -9.96 16 -12 16 C-11.67 14.35 -11.34 12.7 -11 11 C-9.68 10.67 -8.36 10.34 -7 10 C-6.67 8.35 -6.34 6.7 -6 5 C-4.35 4.67 -2.7 4.34 -1 4 C-0.67 2.68 -0.34 1.36 0 0 Z M-12 16 C-11.61781233 17.65614657 -11.28604898 19.32457024 -11 21 C-12 22 -12 22 -14.5625 22.0625 C-15.7690625 22.0315625 -15.7690625 22.0315625 -17 22 C-17 20.35 -17 18.7 -17 17 C-15 16 -15 16 -12 16 Z " fill="#FDFDFD" transform="translate(123,112)"/>
<path d="M0 0 C1.65 0 3.3 0 5 0 C5 1.65 5 3.3 5 5 C2.92446352 5.5534764 1.15634036 6 -1 6 C-1 7.65 -1 9.3 -1 11 C-1.639375 11.103125 -2.27875 11.20625 -2.9375 11.3125 C-3.618125 11.539375 -4.29875 11.76625 -5 12 C-5.33 12.99 -5.66 13.98 -6 15 C-3.525 15.99 -3.525 15.99 -1 17 C-1 18.65 -1 20.3 -1 22 C-1.61875 22.061875 -2.2375 22.12375 -2.875 22.1875 C-5.27761141 22.828919 -5.27761141 22.828919 -6.25 25.5625 C-6.4975 26.366875 -6.745 27.17125 -7 28 C-8.65 28 -10.3 28 -12 28 C-12.33 24.37 -12.66 20.74 -13 17 C-12.67 17 -12.34 17 -12 17 C-12 18.65 -12 20.3 -12 22 C-10.35 21.67 -8.7 21.34 -7 21 C-7 19.68 -7 18.36 -7 17 C-8.65 16.67 -10.3 16.34 -12 16 C-12 14.35 -12 12.7 -12 11 C-10.35 10.67 -8.7 10.34 -7 10 C-6.67 8.68 -6.34 7.36 -6 6 C-5.38125 5.938125 -4.7625 5.87625 -4.125 5.8125 C-1.72238859 5.171081 -1.72238859 5.171081 -0.75 2.4375 C-0.37875 1.2309375 -0.37875 1.2309375 0 0 Z " fill="#FCFCFC" transform="translate(118,95)"/>
<path d="M0 0 C1.98 0 3.96 0 6 0 C6 1.65 6 3.3 6 5 C4.34385343 5.38218767 2.67542976 5.71395102 1 6 C0 5 0 5 -0.0625 2.4375 C-0.041875 1.633125 -0.02125 0.82875 0 0 Z M0 5 C0.33 6.65 0.66 8.3 1 10 C2.65 10.33 4.3 10.66 6 11 C6 12.98 6 14.96 6 17 C4.35 17.33 2.7 17.66 1 18 C0.67 19.32 0.34 20.64 0 22 C-1.65 22.33 -3.3 22.66 -5 23 C-5 24.65 -5 26.3 -5 28 C-6.98 28 -8.96 28 -11 28 C-10.67 26.02 -10.34 24.04 -10 22 C-8.68 21.67 -7.36 21.34 -6 21 C-5.67 19.68 -5.34 18.36 -5 17 C-3.68 16.67 -2.36 16.34 -1 16 C-0.67 14.35 -0.34 12.7 0 11 C-1.65 11 -3.3 11 -5 11 C-5 9.35 -5 7.7 -5 6 C-1.125 5 -1.125 5 0 5 Z " fill="#FCFDFC" transform="translate(234,0)"/>
<path d="M0 0 C0.66 0.66 1.32 1.32 2 2 C1.34 3.65 0.68 5.3 0 7 C-1.65 7 -3.3 7 -5 7 C-5 8.65 -5 10.3 -5 12 C-6.65 12 -8.3 12 -10 12 C-9.979375 12.804375 -9.95875 13.60875 -9.9375 14.4375 C-10 17 -10 17 -11 18 C-12.66617115 18.04063832 -14.33388095 18.042721 -16 18 C-16 19.65 -16 21.3 -16 23 C-17.98 23 -19.96 23 -22 23 C-21.67 19.7 -21.34 16.4 -21 13 C-17.66203244 12.16550811 -14.39305036 11.53980347 -11 11 C-10.67 9.68 -10.34 8.36 -10 7 C-8.68 6.67 -7.36 6.34 -6 6 C-5.67 4.35 -5.34 2.7 -5 1 C-2.625 0.375 -2.625 0.375 0 0 Z " fill="#FAFAFA" transform="translate(189,105)"/>
<path d="M0 0 C0.33 0 0.66 0 1 0 C1 20.13 1 40.26 1 61 C0.67 61 0.34 61 0 61 C0 53.41 0 45.82 0 38 C-1.98 38.495 -1.98 38.495 -4 39 C-4.33 39.825 -4.66 40.65 -5 41.5 C-5.33 42.325 -5.66 43.15 -6 44 C-8.125 44.8125 -8.125 44.8125 -10 45 C-10.33 46.32 -10.66 47.64 -11 49 C-12.65 49 -14.3 49 -16 49 C-16 47.35 -16 45.7 -16 44 C-14.35 44 -12.7 44 -11 44 C-11.020625 43.195625 -11.04125 42.39125 -11.0625 41.5625 C-11 39 -11 39 -10 38 C-8.33382885 37.95936168 -6.66611905 37.957279 -5 38 C-5 36.35 -5 34.7 -5 33 C-3.35 33 -1.7 33 0 33 C0 22.11 0 11.22 0 0 Z " fill="#CFDFE7" transform="translate(195,107)"/>
<path d="M0 0 C1.65 0 3.3 0 5 0 C5 1.65 5 3.3 5 5 C3.35 5 1.7 5 0 5 C0 6.98 0 8.96 0 11 C-1.98 11 -3.96 11 -6 11 C-6 12.65 -6 14.3 -6 16 C-7.32 16.33 -8.64 16.66 -10 17 C-10.33 18.65 -10.66 20.3 -11 22 C-12.98 22 -14.96 22 -17 22 C-17 20.02 -17 18.04 -17 16 C-15.35 15.67 -13.7 15.34 -12 15 C-11.67 13.68 -11.34 12.36 -11 11 C-10.38125 10.938125 -9.7625 10.87625 -9.125 10.8125 C-8.073125 10.4103125 -8.073125 10.4103125 -7 10 C-6.67 9.175 -6.34 8.35 -6 7.5 C-5.67 6.675 -5.34 5.85 -5 5 C-2.875 4.1875 -2.875 4.1875 -1 4 C-0.67 2.68 -0.34 1.36 0 0 Z " fill="#FDFDFD" transform="translate(17,140)"/>
<path d="M0 0 C1.65 0 3.3 0 5 0 C5 1.65 5 3.3 5 5 C3.35 5 1.7 5 0 5 C0 6.98 0 8.96 0 11 C-1.98 11 -3.96 11 -6 11 C-6 12.65 -6 14.3 -6 16 C-7.32 16.33 -8.64 16.66 -10 17 C-10.33 18.65 -10.66 20.3 -11 22 C-12.98 22 -14.96 22 -17 22 C-17 20.02 -17 18.04 -17 16 C-15.35 15.67 -13.7 15.34 -12 15 C-11.67 13.68 -11.34 12.36 -11 11 C-10.38125 10.938125 -9.7625 10.87625 -9.125 10.8125 C-8.073125 10.4103125 -8.073125 10.4103125 -7 10 C-6.67 9.175 -6.34 8.35 -6 7.5 C-5.67 6.675 -5.34 5.85 -5 5 C-2.875 4.1875 -2.875 4.1875 -1 4 C-0.67 2.68 -0.34 1.36 0 0 Z " fill="#FDFDFD" transform="translate(17,73)"/>
<path d="M0 0 C1.2065625 0.0309375 1.2065625 0.0309375 2.4375 0.0625 C2.4375 1.7125 2.4375 3.3625 2.4375 5.0625 C1.633125 5.31 0.82875 5.5575 0 5.8125 C-2.733581 6.78488859 -2.733581 6.78488859 -3.375 9.1875 C-3.4678125 10.115625 -3.4678125 10.115625 -3.5625 11.0625 C-4.18125 11.124375 -4.8 11.18625 -5.4375 11.25 C-6.13875 11.518125 -6.84 11.78625 -7.5625 12.0625 C-8.0575 13.3 -8.0575 13.3 -8.5625 14.5625 C-9.0575 15.8 -9.0575 15.8 -9.5625 17.0625 C-10.89583333 17.39583333 -12.22916667 17.72916667 -13.5625 18.0625 C-14.85910434 20.55284386 -14.85910434 20.55284386 -15.5625 23.0625 C-16.8825 22.7325 -18.2025 22.4025 -19.5625 22.0625 C-19.8925 20.4125 -20.2225 18.7625 -20.5625 17.0625 C-18.5825 17.0625 -16.6025 17.0625 -14.5625 17.0625 C-14.2325 15.4125 -13.9025 13.7625 -13.5625 12.0625 C-11.9125 11.7325 -10.2625 11.4025 -8.5625 11.0625 C-8.5625 9.4125 -8.5625 7.7625 -8.5625 6.0625 C-7.5725 5.7325 -6.5825 5.4025 -5.5625 5.0625 C-4.9025 5.3925 -4.2425 5.7225 -3.5625 6.0625 C-3.583125 5.258125 -3.60375 4.45375 -3.625 3.625 C-3.54067676 0.16774696 -3.45725304 0.08432324 0 0 Z " fill="#F0F0F0" transform="translate(237.5625,172.9375)"/>
<path d="M0 0 C1.32 0 2.64 0 4 0 C4 1.98 4 3.96 4 6 C2.35 6 0.7 6 -1 6 C-1.33 7.65 -1.66 9.3 -2 11 C-3.32 11 -4.64 11 -6 11 C-6.33 12.98 -6.66 14.96 -7 17 C-8.65 17.33 -10.3 17.66 -12 18 C-12.33 19.65 -12.66 21.3 -13 23 C-14.65 22.67 -16.3 22.34 -18 22 C-17.67 20.35 -17.34 18.7 -17 17 C-15.68 17 -14.36 17 -13 17 C-13 15.02 -13 13.04 -13 11 C-11.35 11 -9.7 11 -8 11 C-7.67 9.35 -7.34 7.7 -7 6 C-6.21625 5.938125 -5.4325 5.87625 -4.625 5.8125 C-3.75875 5.544375 -2.8925 5.27625 -2 5 C-0.62533375 2.52363988 -0.62533375 2.52363988 0 0 Z " fill="#FCFCFC" transform="translate(247,22)"/>
<path d="M0 0 C0.33 0 0.66 0 1 0 C1 4.95 1 9.9 1 15 C2.98 15 4.96 15 7 15 C7 16.98 7 18.96 7 21 C5.02 21 3.04 21 1 21 C1 32.22 1 43.44 1 55 C0.67 55 0.34 55 0 55 C0 36.85 0 18.7 0 0 Z M12 9 C13 12 13 12 12 15 C10.35 15 8.7 15 7 15 C7 13.35 7 11.7 7 10 C8.65 9.67 10.3 9.34 12 9 Z " fill="#E3EBEE" transform="translate(166,113)"/>
<path d="M0 0 C0 1.98 0 3.96 0 6 C-0.639375 6.2475 -1.27875 6.495 -1.9375 6.75 C-4.18741541 7.81562433 -4.18741541 7.81562433 -4.75 10.125 C-4.8325 10.74375 -4.915 11.3625 -5 12 C-6.65 12 -8.3 12 -10 12 C-10 13.65 -10 15.3 -10 17 C-11.65 17.33 -13.3 17.66 -15 18 C-15.33 19.65 -15.66 21.3 -16 23 C-17.65 23 -19.3 23 -21 23 C-21 21.35 -21 19.7 -21 18 C-19.35 17.67 -17.7 17.34 -16 17 C-15.67 15.35 -15.34 13.7 -15 12 C-14.38125 11.938125 -13.7625 11.87625 -13.125 11.8125 C-10.72238859 11.171081 -10.72238859 11.171081 -9.75 8.4375 C-9.37875 7.2309375 -9.37875 7.2309375 -9 6 C-7.68 6 -6.36 6 -5 6 C-4.67 4.35 -4.34 2.7 -4 1 C-1 0 -1 0 0 0 Z " fill="#FDFDFC" transform="translate(133,128)"/>
<path d="M0 0 C0 1.65 0 3.3 0 5 C-1.65 5 -3.3 5 -5 5 C-5 6.98 -5 8.96 -5 11 C-6.65 11 -8.3 11 -10 11 C-10.33 12.65 -10.66 14.3 -11 16 C-12.65 16 -14.3 16 -16 16 C-16.6875 14.25 -16.6875 14.25 -17 12 C-13.50384052 6.1117314 -7.14006447 0 0 0 Z " fill="#EFF2F2" transform="translate(150,73)"/>
<path d="M0 0 C0.99 0.66 1.98 1.32 3 2 C3 3.32 3 4.64 3 6 C2.01 6 1.02 6 0 6 C0.020625 6.804375 0.04125 7.60875 0.0625 8.4375 C0 11 0 11 -1 12 C-2.66617115 12.04063832 -4.33388095 12.042721 -6 12 C-6 13.65 -6 15.3 -6 17 C-7.65 17 -9.3 17 -11 17 C-11 18.65 -11 20.3 -11 22 C-12.65 22.33 -14.3 22.66 -16 23 C-16.33 21.35 -16.66 19.7 -17 18 C-15.35 17.67 -13.7 17.34 -12 17 C-11.67 15.35 -11.34 13.7 -11 12 C-9.68 11.67 -8.36 11.34 -7 11 C-6.67 9.35 -6.34 7.7 -6 6 C-4.35 5.67 -2.7 5.34 -1 5 C-0.67 3.35 -0.34 1.7 0 0 Z " fill="#FBFCFC" transform="translate(190,89)"/>
<path d="M0 0 C1.32 0 2.64 0 4 0 C4 1.65 4 3.3 4 5 C2.35 5 0.7 5 -1 5 C-0.67 3.35 -0.34 1.7 0 0 Z M-1 5 C-1 6.98 -1 8.96 -1 11 C-1.61875 11.061875 -2.2375 11.12375 -2.875 11.1875 C-3.57625 11.455625 -4.2775 11.72375 -5 12 C-5.33 12.825 -5.66 13.65 -6 14.5 C-6.495 15.7375 -6.495 15.7375 -7 17 C-9.125 17.8125 -9.125 17.8125 -11 18 C-11.33 19.32 -11.66 20.64 -12 22 C-13.65 22 -15.3 22 -17 22 C-17 20.35 -17 18.7 -17 17 C-15.35 17 -13.7 17 -12 17 C-12 15.02 -12 13.04 -12 11 C-10.02 11 -8.04 11 -6 11 C-6 9.35 -6 7.7 -6 6 C-2.125 5 -2.125 5 -1 5 Z " fill="#F0F0F0" transform="translate(23,162)"/>
<path d="M0 0 C1.32 0 2.64 0 4 0 C4 1.65 4 3.3 4 5 C2.35 5 0.7 5 -1 5 C-0.67 3.35 -0.34 1.7 0 0 Z M-1 5 C-1 6.98 -1 8.96 -1 11 C-1.61875 11.061875 -2.2375 11.12375 -2.875 11.1875 C-3.57625 11.455625 -4.2775 11.72375 -5 12 C-5.33 12.825 -5.66 13.65 -6 14.5 C-6.495 15.7375 -6.495 15.7375 -7 17 C-9.125 17.8125 -9.125 17.8125 -11 18 C-11.33 19.32 -11.66 20.64 -12 22 C-13.65 22 -15.3 22 -17 22 C-17 20.35 -17 18.7 -17 17 C-15.35 17 -13.7 17 -12 17 C-12 15.02 -12 13.04 -12 11 C-10.02 11 -8.04 11 -6 11 C-6 9.35 -6 7.7 -6 6 C-2.125 5 -2.125 5 -1 5 Z " fill="#F0F0F0" transform="translate(23,95)"/>
<path d="M0 0 C2.95037525 2.74690109 5.40045191 5.26772111 7 9 C5.8 14.2 5.8 14.2 4 16 C2.33382885 16.04063832 0.66611905 16.042721 -1 16 C-1.33 14.35 -1.66 12.7 -2 11 C-3.32 10.67 -4.64 10.34 -6 10 C-6 8.35 -6 6.7 -6 5 C-4.35 5 -2.7 5 -1 5 C-0.67 3.35 -0.34 1.7 0 0 Z " fill="#EFF1F3" transform="translate(185,79)"/>
<path d="M0 0 C1.65 0 3.3 0 5 0 C5.33 1.65 5.66 3.3 6 5 C5.195625 5.2475 4.39125 5.495 3.5625 5.75 C2.2940625 6.36875 2.2940625 6.36875 1 7 C0.835 7.66 0.67 8.32 0.5 9 C0.335 9.66 0.17 10.32 0 11 C-1.65204456 11.70211894 -3.31923769 12.36971413 -5 13 C-5.33 13.99 -5.66 14.98 -6 16 C-7.65 16 -9.3 16 -11 16 C-11 14.35 -11 12.7 -11 11 C-9.35 10.67 -7.7 10.34 -6 10 C-6 8.35 -6 6.7 -6 5 C-4.02 5 -2.04 5 0 5 C0 3.35 0 1.7 0 0 Z " fill="#F1F1F1" transform="translate(117,123)"/>
<path d="M0 0 C0.99 0 1.98 0 3 0 C3 1.98 3 3.96 3 6 C1.68 6 0.36 6 -1 6 C-1.66 7.98 -2.32 9.96 -3 12 C-4.32 12 -5.64 12 -7 12 C-7 13.65 -7 15.3 -7 17 C-8.98 17 -10.96 17 -13 17 C-13 15.02 -13 13.04 -13 11 C-11.35 11 -9.7 11 -8 11 C-7.67 9.35 -7.34 7.7 -7 6 C-6.401875 5.938125 -5.80375 5.87625 -5.1875 5.8125 C-2.14898647 4.68390926 -1.60629777 2.7237223 0 0 Z " fill="#FCFCFC" transform="translate(24,156)"/>
<path d="M0 0 C0.99 0 1.98 0 3 0 C3 1.98 3 3.96 3 6 C1.68 6 0.36 6 -1 6 C-1.66 7.98 -2.32 9.96 -3 12 C-4.32 12 -5.64 12 -7 12 C-7 13.65 -7 15.3 -7 17 C-8.98 17 -10.96 17 -13 17 C-13 15.02 -13 13.04 -13 11 C-11.35 11 -9.7 11 -8 11 C-7.67 9.35 -7.34 7.7 -7 6 C-6.401875 5.938125 -5.80375 5.87625 -5.1875 5.8125 C-2.14898647 4.68390926 -1.60629777 2.7237223 0 0 Z " fill="#FCFCFC" transform="translate(24,89)"/>
<path d="M0 0 C3.63 0 7.26 0 11 0 C11 1.65 11 3.3 11 5 C9.35 5.33 7.7 5.66 6 6 C5.67 7.65 5.34 9.3 5 11 C3.35 11 1.7 11 0 11 C0 7.37 0 3.74 0 0 Z " fill="#F0F0F0" transform="translate(0,0)"/>
<path d="M0 0 C1.65 0 3.3 0 5 0 C5 1.65 5 3.3 5 5 C2.50907189 6.24546405 1.58919267 5.7767578 -1 5 C-0.67 3.35 -0.34 1.7 0 0 Z M-1 5 C-1 6.98 -1 8.96 -1 11 C-1.61875 11.061875 -2.2375 11.12375 -2.875 11.1875 C-5.27761141 11.828919 -5.27761141 11.828919 -6.25 14.5625 C-6.4975 15.366875 -6.745 16.17125 -7 17 C-8.65 17 -10.3 17 -12 17 C-12 15.02 -12 13.04 -12 11 C-10.02 11 -8.04 11 -6 11 C-6 9.35 -6 7.7 -6 6 C-2.125 5 -2.125 5 -1 5 Z " fill="#F0F0F0" transform="translate(12,162)"/>
<path d="M0 0 C1.65 0 3.3 0 5 0 C5 1.65 5 3.3 5 5 C2.50907189 6.24546405 1.58919267 5.7767578 -1 5 C-0.67 3.35 -0.34 1.7 0 0 Z M-1 5 C-1 6.98 -1 8.96 -1 11 C-1.61875 11.061875 -2.2375 11.12375 -2.875 11.1875 C-5.27761141 11.828919 -5.27761141 11.828919 -6.25 14.5625 C-6.4975 15.366875 -6.745 16.17125 -7 17 C-8.65 17 -10.3 17 -12 17 C-12 15.02 -12 13.04 -12 11 C-10.02 11 -8.04 11 -6 11 C-6 9.35 -6 7.7 -6 6 C-2.125 5 -2.125 5 -1 5 Z " fill="#F0F0F0" transform="translate(12,95)"/>
<path d="M0 0 C1.32 0 2.64 0 4 0 C4.33 1.32 4.66 2.64 5 4 C6.65 4.33 8.3 4.66 10 5 C10 6.98 10 8.96 10 11 C8.35 11 6.7 11 5 11 C4.67 12.65 4.34 14.3 4 16 C2.35 16 0.7 16 -1 16 C-1 14.35 -1 12.7 -1 11 C0.32 10.67 1.64 10.34 3 10 C3.33 8.35 3.66 6.7 4 5 C2.35 5 0.7 5 -1 5 C-0.67 3.35 -0.34 1.7 0 0 Z " fill="#FDFDFD" transform="translate(241,140)"/>
<path d="M0 0 C1.65 0 3.3 0 5 0 C5 1.98 5 3.96 5 6 C3.35 6 1.7 6 0 6 C-0.33 7.65 -0.66 9.3 -1 11 C-2.32 11.33 -3.64 11.66 -5 12 C-5.33 13.65 -5.66 15.3 -6 17 C-7.65 17 -9.3 17 -11 17 C-11.33 15.68 -11.66 14.36 -12 13 C-8.125 11 -8.125 11 -7 11 C-6.67 9.35 -6.34 7.7 -6 6 C-4.35 5.67 -2.7 5.34 -1 5 C-0.67 3.35 -0.34 1.7 0 0 Z " fill="#F1F1F1" transform="translate(246,106)"/>
<path d="M0 0 C0.33 0 0.66 0 1 0 C1.54241113 6.64453639 0.94958619 10.55597579 -3 16 C-5.79015621 18.6506484 -8.09775683 20.59631967 -12 21 C-12.66 20.67 -13.32 20.34 -14 20 C-14 19.01 -14 18.02 -14 17 C-12.35 17 -10.7 17 -9 17 C-9.020625 16.195625 -9.04125 15.39125 -9.0625 14.5625 C-9 12 -9 12 -8 11 C-6.33382885 10.95936168 -4.66611905 10.957279 -3 11 C-3 9.35 -3 7.7 -3 6 C-2.01 6 -1.02 6 0 6 C0 4.02 0 2.04 0 0 Z " fill="#EDF1F2" transform="translate(87,39)"/>
<path d="M0 0 C1.32 0 2.64 0 4 0 C4 1.98 4 3.96 4 6 C2.35 6 0.7 6 -1 6 C-1 7.65 -1 9.3 -1 11 C-2.65 11.33 -4.3 11.66 -6 12 C-6.33 13.65 -6.66 15.3 -7 17 C-8.65 17 -10.3 17 -12 17 C-12 15.35 -12 13.7 -12 12 C-10.35 11.67 -8.7 11.34 -7 11 C-6.67 9.35 -6.34 7.7 -6 6 C-5.38125 5.938125 -4.7625 5.87625 -4.125 5.8125 C-1.72238859 5.171081 -1.72238859 5.171081 -0.75 2.4375 C-0.37875 1.2309375 -0.37875 1.2309375 0 0 Z " fill="#FDFDFD" transform="translate(191,134)"/>
<path d="M0 0 C1.65 0 3.3 0 5 0 C5 1.65 5 3.3 5 5 C3.35 5.33 1.7 5.66 0 6 C0 7.65 0 9.3 0 11 C-1.98 11 -3.96 11 -6 11 C-6 12.65 -6 14.3 -6 16 C-7.9375 16.5625 -7.9375 16.5625 -10 17 C-11 16 -11 16 -11.0625 13.4375 C-11.041875 12.633125 -11.02125 11.82875 -11 11 C-10.071875 10.87625 -10.071875 10.87625 -9.125 10.75 C-6.81653196 10.21189267 -6.81653196 10.21189267 -6 8 C-5 6 -5 6 -2.875 5.25 C-2.25625 5.1675 -1.6375 5.085 -1 5 C-0.67 3.35 -0.34 1.7 0 0 Z " fill="#FDFDFD" transform="translate(73,95)"/>
<path d="M0 0 C1.65 0 3.3 0 5 0 C5 1.65 5 3.3 5 5 C2.50907189 6.24546405 1.58919267 5.7767578 -1 5 C-0.67 3.35 -0.34 1.7 0 0 Z M-1 5 C-1 6.98 -1 8.96 -1 11 C-2.65 11 -4.3 11 -6 11 C-6 12.65 -6 14.3 -6 16 C-7.65 16.33 -9.3 16.66 -11 17 C-11 15.02 -11 13.04 -11 11 C-9.68 10.67 -8.36 10.34 -7 10 C-6.67 8.68 -6.34 7.36 -6 6 C-2.125 5 -2.125 5 -1 5 Z " fill="#FDFDFD" transform="translate(235,56)"/>
<path d="M0 0 C1.65 0 3.3 0 5 0 C5 1.65 5 3.3 5 5 C6.98 5 8.96 5 11 5 C11 3.35 11 1.7 11 0 C12.65 0 14.3 0 16 0 C16 1.65 16 3.3 16 5 C17.98 5 19.96 5 22 5 C22 3.35 22 1.7 22 0 C22.33 0 22.66 0 23 0 C23 1.98 23 3.96 23 6 C13.76 6 4.52 6 -5 6 C-3.68 5.34 -2.36 4.68 -1 4 C-0.19471111 1.94999129 -0.19471111 1.94999129 0 0 Z " fill="#FCFEFC" transform="translate(62,162)"/>
<path d="M0 0 C1.32 0 2.64 0 4 0 C4 1.65 4 3.3 4 5 C2.35 5 0.7 5 -1 5 C-0.67 3.35 -0.34 1.7 0 0 Z M-1 5 C-1 6.98 -1 8.96 -1 11 C-1.61875 11.061875 -2.2375 11.12375 -2.875 11.1875 C-5.27761141 11.828919 -5.27761141 11.828919 -6.25 14.5625 C-6.4975 15.366875 -6.745 16.17125 -7 17 C-8.65 16.67 -10.3 16.34 -12 16 C-11.67 14.35 -11.34 12.7 -11 11 C-9.35 11 -7.7 11 -6 11 C-6 9.35 -6 7.7 -6 6 C-2.125 5 -2.125 5 -1 5 Z " fill="#F0F0F0" transform="translate(23,28)"/>
<path d="M0 0 C0 1.65 0 3.3 0 5 C-1.65 5.33 -3.3 5.66 -5 6 C-5.33 7.65 -5.66 9.3 -6 11 C-7.98 11 -9.96 11 -12 11 C-11.91689058 8.1742798 -11.40452306 6.45455618 -9.515625 4.33203125 C-4.69997031 0 -4.69997031 0 0 0 Z " fill="#F3F7F8" transform="translate(67,28)"/>
<path d="M0 0 C0.928125 0.103125 1.85625 0.20625 2.8125 0.3125 C3.1425 1.9625 3.4725 3.6125 3.8125 5.3125 C3.008125 5.56 2.20375 5.8075 1.375 6.0625 C-1.358581 7.03488859 -1.358581 7.03488859 -2 9.4375 C-2.061875 10.05625 -2.12375 10.675 -2.1875 11.3125 C-3.8375 11.3125 -5.4875 11.3125 -7.1875 11.3125 C-5.93980627 0.58233395 -5.93980627 0.58233395 0 0 Z " fill="#F2F6F6" transform="translate(225.1875,172.6875)"/>
<path d="M0 0 C1.65 0 3.3 0 5 0 C5.33 1.65 5.66 3.3 6 5 C4.824375 5.37125 4.824375 5.37125 3.625 5.75 C0.67682892 7.15389099 0.0975223 8.00675737 -1 11 C-2.32 11 -3.64 11 -5 11 C-5.33 9.02 -5.66 7.04 -6 5 C-4.02 5 -2.04 5 0 5 C0 3.35 0 1.7 0 0 Z " fill="#F1F1F1" transform="translate(184,123)"/>
<path d="M0 0 C1.98 0 3.96 0 6 0 C6 1.65 6 3.3 6 5 C5.195625 5.2475 4.39125 5.495 3.5625 5.75 C0.828919 6.72238859 0.828919 6.72238859 0.1875 9.125 C0.125625 9.74375 0.06375 10.3625 0 11 C-1.66611905 11.042721 -3.33382885 11.04063832 -5 11 C-6 10 -6 10 -6.0625 7.4375 C-6.041875 6.633125 -6.02125 5.82875 -6 5 C-4.35 5 -2.7 5 -1 5 C-0.67 3.35 -0.34 1.7 0 0 Z " fill="#F1F1F1" transform="translate(240,0)"/>
<path d="M0 0 C1.65 0 3.3 0 5 0 C5 1.65 5 3.3 5 5 C4.195625 5.2475 3.39125 5.495 2.5625 5.75 C-0.171081 6.72238859 -0.171081 6.72238859 -0.8125 9.125 C-0.874375 9.74375 -0.93625 10.3625 -1 11 C-2.65 11 -4.3 11 -6 11 C-6 9.35 -6 7.7 -6 6 C-4.35 5.67 -2.7 5.34 -1 5 C-0.67 3.35 -0.34 1.7 0 0 Z " fill="#FDFDFD" transform="translate(23,190)"/>
<path d="M0 0 C1.65 0 3.3 0 5 0 C5.042721 1.66611905 5.04063832 3.33382885 5 5 C4 6 4 6 1.4375 6.0625 C0.2309375 6.0315625 0.2309375 6.0315625 -1 6 C-1 7.65 -1 9.3 -1 11 C-2.65 11 -4.3 11 -6 11 C-6 9.35 -6 7.7 -6 6 C-4.35 5.67 -2.7 5.34 -1 5 C-0.67 3.35 -0.34 1.7 0 0 Z " fill="#FDFDFD" transform="translate(12,190)"/>
<path d="M0 0 C1.65 0 3.3 0 5 0 C5 1.65 5 3.3 5 5 C4.38125 5.061875 3.7625 5.12375 3.125 5.1875 C0.72238859 5.828919 0.72238859 5.828919 -0.25 8.5625 C-0.4975 9.366875 -0.745 10.17125 -1 11 C-2.65 11 -4.3 11 -6 11 C-6 9.02 -6 7.04 -6 5 C-4.35 4.67 -2.7 4.34 -1 4 C-0.67 2.68 -0.34 1.36 0 0 Z " fill="#FDFDFD" transform="translate(6,140)"/>
<path d="M0 0 C2.97 0.495 2.97 0.495 6 1 C5.67 2.65 5.34 4.3 5 6 C4.01 6.33 3.02 6.66 2 7 C0.78130071 9.50447516 0.78130071 9.50447516 0 12 C-1.65 12 -3.3 12 -5 12 C-5 10.02 -5 8.04 -5 6 C-3.35 6 -1.7 6 0 6 C0 4.02 0 2.04 0 0 Z " fill="#EFF1F1" transform="translate(128,111)"/>
<path d="M0 0 C1.65 0 3.3 0 5 0 C5 1.65 5 3.3 5 5 C4.38125 5.061875 3.7625 5.12375 3.125 5.1875 C0.72238859 5.828919 0.72238859 5.828919 -0.25 8.5625 C-0.4975 9.366875 -0.745 10.17125 -1 11 C-2.65 11 -4.3 11 -6 11 C-6 9.02 -6 7.04 -6 5 C-4.35 4.67 -2.7 4.34 -1 4 C-0.67 2.68 -0.34 1.36 0 0 Z " fill="#FDFDFD" transform="translate(6,73)"/>
<path d="M0 0 C1.65 0 3.3 0 5 0 C5 1.65 5 3.3 5 5 C3.35 5.33 1.7 5.66 0 6 C0 7.65 0 9.3 0 11 C-1.66611905 11.042721 -3.33382885 11.04063832 -5 11 C-6 10 -6 10 -6.0625 7.4375 C-6.041875 6.633125 -6.02125 5.82875 -6 5 C-4.35 5 -2.7 5 -1 5 C-0.67 3.35 -0.34 1.7 0 0 Z " fill="#F0F0F0" transform="translate(240,123)"/>
<path d="M0 0 C1.65 0 3.3 0 5 0 C5 1.65 5 3.3 5 5 C4.195625 5.2475 3.39125 5.495 2.5625 5.75 C-0.171081 6.72238859 -0.171081 6.72238859 -0.8125 9.125 C-0.874375 9.74375 -0.93625 10.3625 -1 11 C-2.65 11 -4.3 11 -6 11 C-6 9.35 -6 7.7 -6 6 C-5.38125 5.938125 -4.7625 5.87625 -4.125 5.8125 C-1.72238859 5.171081 -1.72238859 5.171081 -0.75 2.4375 C-0.5025 1.633125 -0.255 0.82875 0 0 Z " fill="#FCFCFC" transform="translate(12,56)"/>
<path d="M0 0 C1.65 0 3.3 0 5 0 C5 1.98 5 3.96 5 6 C3.68 6 2.36 6 1 6 C1 7.65 1 9.3 1 11 C-0.65 11.33 -2.3 11.66 -4 12 C-4.33 10.35 -4.66 8.7 -5 7 C-3.35 6.67 -1.7 6.34 0 6 C0 4.02 0 2.04 0 0 Z " fill="#FCFCFC" transform="translate(22,33)"/>
<path d="M0 0 C1.32 0 2.64 0 4 0 C4 1.98 4 3.96 4 6 C2.35 6 0.7 6 -1 6 C-1 7.65 -1 9.3 -1 11 C-2.98 11 -4.96 11 -7 11 C-7 9.35 -7 7.7 -7 6 C-6.21625 5.938125 -5.4325 5.87625 -4.625 5.8125 C-3.75875 5.544375 -2.8925 5.27625 -2 5 C-0.62533375 2.52363988 -0.62533375 2.52363988 0 0 Z " fill="#FDFDFD" transform="translate(7,173)"/>
<path d="M0 0 C1.32 0 2.64 0 4 0 C4 1.98 4 3.96 4 6 C2.35 6 0.7 6 -1 6 C-1 7.65 -1 9.3 -1 11 C-2.98 11 -4.96 11 -7 11 C-7 9.35 -7 7.7 -7 6 C-6.21625 5.938125 -5.4325 5.87625 -4.625 5.8125 C-3.75875 5.544375 -2.8925 5.27625 -2 5 C-0.62533375 2.52363988 -0.62533375 2.52363988 0 0 Z " fill="#FDFDFD" transform="translate(7,106)"/>
<path d="M0 0 C1.65 0 3.3 0 5 0 C5 3.54709938 4.42237322 4.01780191 2.125 6.5625 C1.59132813 7.16191406 1.05765625 7.76132813 0.5078125 8.37890625 C-0.63671654 9.60942322 -1.81169896 10.81169896 -3 12 C-3.99 11.67 -4.98 11.34 -6 11 C-6 9.02 -6 7.04 -6 5 C-4.35 4.67 -2.7 4.34 -1 4 C-0.67 2.68 -0.34 1.36 0 0 Z " fill="#EBEFF1" transform="translate(34,6)"/>
<path d="M0 0 C1.98 0 3.96 0 6 0 C6 1.65 6 3.3 6 5 C5.195625 5.2475 4.39125 5.495 3.5625 5.75 C0.828919 6.72238859 0.828919 6.72238859 0.1875 9.125 C0.125625 9.74375 0.06375 10.3625 0 11 C-1.65 11 -3.3 11 -5 11 C-5 9.35 -5 7.7 -5 6 C-3.68 5.67 -2.36 5.34 -1 5 C-0.67 3.35 -0.34 1.7 0 0 Z " fill="#FDFDFC" transform="translate(223,0)"/>
<path d="M0 0 C1.65 0 3.3 0 5 0 C5 1.65 5 3.3 5 5 C3.35 5.33 1.7 5.66 0 6 C0 7.65 0 9.3 0 11 C-1.98 11 -3.96 11 -6 11 C-5.67 9.35 -5.34 7.7 -5 6 C-3.68 5.67 -2.36 5.34 -1 5 C-0.67 3.35 -0.34 1.7 0 0 Z " fill="#F0F0F0" transform="translate(229,190)"/>
<path d="M0 0 C1.32 0 2.64 0 4 0 C4 1.65 4 3.3 4 5 C2.35 5.33 0.7 5.66 -1 6 C-1 7.65 -1 9.3 -1 11 C-2.98 11 -4.96 11 -7 11 C-7 9.35 -7 7.7 -7 6 C-6.21625 5.938125 -5.4325 5.87625 -4.625 5.8125 C-3.75875 5.544375 -2.8925 5.27625 -2 5 C-0.62533375 2.52363988 -0.62533375 2.52363988 0 0 Z " fill="#FDFDFD" transform="translate(7,162)"/>
<path d="M0 0 C1.65 0 3.3 0 5 0 C5 1.65 5 3.3 5 5 C3.68 5.33 2.36 5.66 1 6 C0.67 7.65 0.34 9.3 0 11 C-1.65 11 -3.3 11 -5 11 C-5.33 9.35 -5.66 7.7 -6 6 C-4.35 5.67 -2.7 5.34 -1 5 C-0.67 3.35 -0.34 1.7 0 0 Z " fill="#F0F0F0" transform="translate(123,151)"/>
<path d="M0 0 C1.32 0 2.64 0 4 0 C4 1.65 4 3.3 4 5 C2.35 5.33 0.7 5.66 -1 6 C-1 7.65 -1 9.3 -1 11 C-2.98 11 -4.96 11 -7 11 C-7 9.35 -7 7.7 -7 6 C-6.21625 5.938125 -5.4325 5.87625 -4.625 5.8125 C-3.75875 5.544375 -2.8925 5.27625 -2 5 C-0.62533375 2.52363988 -0.62533375 2.52363988 0 0 Z " fill="#FDFDFD" transform="translate(7,95)"/>
<path d="M0 0 C1.65 0 3.3 0 5 0 C5 1.65 5 3.3 5 5 C3.35 5.33 1.7 5.66 0 6 C0 7.65 0 9.3 0 11 C-1.98 11 -3.96 11 -6 11 C-5.67 9.35 -5.34 7.7 -5 6 C-3.68 5.67 -2.36 5.34 -1 5 C-0.67 3.35 -0.34 1.7 0 0 Z " fill="#F0F0F0" transform="translate(17,0)"/>
<path d="M0 0 C3.96 1.98 3.96 1.98 8 4 C7.67 4.66 7.34 5.32 7 6 C4.36 6 1.72 6 -1 6 C-0.67 4.02 -0.34 2.04 0 0 Z M-1 6 C-1 7.98 -1 9.96 -1 12 C-2.65 12 -4.3 12 -6 12 C-6 10.35 -6 8.7 -6 7 C-2.125 6 -2.125 6 -1 6 Z " fill="#ECEFEF" transform="translate(40,189)"/>
<path d="M0 0 C1.65 0 3.3 0 5 0 C5 1.65 5 3.3 5 5 C3.35 5.33 1.7 5.66 0 6 C0 7.65 0 9.3 0 11 C-1.98 11 -3.96 11 -6 11 C-6 9.35 -6 7.7 -6 6 C-4.35 5.67 -2.7 5.34 -1 5 C-0.67 3.35 -0.34 1.7 0 0 Z " fill="#F0F0F0" transform="translate(17,190)"/>
<path d="M0 0 C1.65 0 3.3 0 5 0 C5 1.65 5 3.3 5 5 C3.68 5.33 2.36 5.66 1 6 C0.67 7.65 0.34 9.3 0 11 C-1.65 11 -3.3 11 -5 11 C-5.33 9.35 -5.66 7.7 -6 6 C-4.35 5.67 -2.7 5.34 -1 5 C-0.67 3.35 -0.34 1.7 0 0 Z " fill="#F0F0F0" transform="translate(17,179)"/>
<path d="M0 0 C1.65 0 3.3 0 5 0 C5 1.65 5 3.3 5 5 C4.38125 5.061875 3.7625 5.12375 3.125 5.1875 C0.72238859 5.828919 0.72238859 5.828919 -0.25 8.5625 C-0.4975 9.366875 -0.745 10.17125 -1 11 C-2.65 11 -4.3 11 -6 11 C-6 9.35 -6 7.7 -6 6 C-4.35 5.67 -2.7 5.34 -1 5 C-0.67 3.35 -0.34 1.7 0 0 Z " fill="#F0F0F0" transform="translate(190,151)"/>
<path d="M0 0 C1.65 0 3.3 0 5 0 C5 1.65 5 3.3 5 5 C3.68 5.33 2.36 5.66 1 6 C0.67 7.65 0.34 9.3 0 11 C-1.65 11 -3.3 11 -5 11 C-5.33 9.35 -5.66 7.7 -6 6 C-4.35 5.67 -2.7 5.34 -1 5 C-0.67 3.35 -0.34 1.7 0 0 Z " fill="#F0F0F0" transform="translate(17,112)"/>
<path d="M0 0 C1.65 0 3.3 0 5 0 C5.33 1.65 5.66 3.3 6 5 C5.195625 5.2475 4.39125 5.495 3.5625 5.75 C0.828919 6.72238859 0.828919 6.72238859 0.1875 9.125 C0.125625 9.74375 0.06375 10.3625 0 11 C-1.65 11 -3.3 11 -5 11 C-4.67 9.35 -4.34 7.7 -4 6 C-2.68 6 -1.36 6 0 6 C0 4.02 0 2.04 0 0 Z " fill="#F0F0F0" transform="translate(78,39)"/>
<path d="M0 0 C1.32 0 2.64 0 4 0 C4 1.65 4 3.3 4 5 C2.35 5.33 0.7 5.66 -1 6 C-1 7.65 -1 9.3 -1 11 C-2.98 11 -4.96 11 -7 11 C-7 9.35 -7 7.7 -7 6 C-6.21625 5.938125 -5.4325 5.87625 -4.625 5.8125 C-3.75875 5.544375 -2.8925 5.27625 -2 5 C-0.62533375 2.52363988 -0.62533375 2.52363988 0 0 Z " fill="#FDFDFD" transform="translate(7,28)"/>
<path d="M0 0 C1.65 0 3.3 0 5 0 C5 1.65 5 3.3 5 5 C4.38125 5.061875 3.7625 5.12375 3.125 5.1875 C0.72238859 5.828919 0.72238859 5.828919 -0.25 8.5625 C-0.4975 9.366875 -0.745 10.17125 -1 11 C-2.65 11 -4.3 11 -6 11 C-6 9.35 -6 7.7 -6 6 C-5.195625 5.7525 -4.39125 5.505 -3.5625 5.25 C-0.828919 4.27761141 -0.828919 4.27761141 -0.1875 1.875 C-0.125625 1.25625 -0.06375 0.6375 0 0 Z " fill="#F0F0F0" transform="translate(246,17)"/>
<path d="M0 0 C1.65 0 3.3 0 5 0 C5 1.65 5 3.3 5 5 C3.68 5.33 2.36 5.66 1 6 C0.67 7.65 0.34 9.3 0 11 C-1.98 11 -3.96 11 -6 11 C-6 9.35 -6 7.7 -6 6 C-4.35 5.67 -2.7 5.34 -1 5 C-0.67 3.35 -0.34 1.7 0 0 Z " fill="#EFEFEF" transform="translate(6,190)"/>
<path d="M0 0 C1.32 0 2.64 0 4 0 C4 1.98 4 3.96 4 6 C2.35 6 0.7 6 -1 6 C-1.33 7.65 -1.66 9.3 -2 11 C-3.65 11 -5.3 11 -7 11 C-7 9.35 -7 7.7 -7 6 C-6.21625 5.938125 -5.4325 5.87625 -4.625 5.8125 C-3.75875 5.544375 -2.8925 5.27625 -2 5 C-0.62533375 2.52363988 -0.62533375 2.52363988 0 0 Z " fill="#FDFDFD" transform="translate(247,156)"/>
<path d="M0 0 C1.65 0 3.3 0 5 0 C5 1.65 5 3.3 5 5 C3.35 5.33 1.7 5.66 0 6 C-0.33 7.65 -0.66 9.3 -1 11 C-2.32 11 -3.64 11 -5 11 C-5 9.02 -5 7.04 -5 5 C-3.68 5 -2.36 5 -1 5 C-0.67 3.35 -0.34 1.7 0 0 Z " fill="#F1F1F0" transform="translate(229,123)"/>
<path d="M0 0 C1.65 0 3.3 0 5 0 C5 1.65 5 3.3 5 5 C3.35 5.33 1.7 5.66 0 6 C-0.33 7.65 -0.66 9.3 -1 11 C-2.32 11 -3.64 11 -5 11 C-5 9.02 -5 7.04 -5 5 C-3.68 5 -2.36 5 -1 5 C-0.67 3.35 -0.34 1.7 0 0 Z " fill="#F0F0F0" transform="translate(229,56)"/>
<path d="M0 0 C1.65 0 3.3 0 5 0 C5 1.65 5 3.3 5 5 C2.50907189 6.24546405 1.58919267 5.7767578 -1 5 C-0.67 3.35 -0.34 1.7 0 0 Z M-1 5 C-1 6.98 -1 8.96 -1 11 C-2.65 11 -4.3 11 -6 11 C-6 9.35 -6 7.7 -6 6 C-2.125 5 -2.125 5 -1 5 Z " fill="#FDFDFD" transform="translate(235,190)"/>
<path d="M0 0 C1.65 0 3.3 0 5 0 C5 1.65 5 3.3 5 5 C4.38125 5.061875 3.7625 5.12375 3.125 5.1875 C0.72238859 5.828919 0.72238859 5.828919 -0.25 8.5625 C-0.4975 9.366875 -0.745 10.17125 -1 11 C-2.65 11 -4.3 11 -6 11 C-6 9.35 -6 7.7 -6 6 C-4.35 5.67 -2.7 5.34 -1 5 C-0.67 3.35 -0.34 1.7 0 0 Z " fill="#F0F0F0" transform="translate(246,173)"/>
<path d="M0 0 C1.32 0 2.64 0 4 0 C4 1.65 4 3.3 4 5 C2.35 5.33 0.7 5.66 -1 6 C-1 7.65 -1 9.3 -1 11 C-2.65 11 -4.3 11 -6 11 C-6 9.02 -6 7.04 -6 5 C-5.38125 4.9175 -4.7625 4.835 -4.125 4.75 C-1.81562433 4.18741541 -1.81562433 4.18741541 -0.75 1.9375 C-0.5025 1.298125 -0.255 0.65875 0 0 Z " fill="#FDFDFD" transform="translate(230,151)"/>
<path d="M0 0 C1.65 0 3.3 0 5 0 C5 1.65 5 3.3 5 5 C3.35 5 1.7 5 0 5 C0 6.98 0 8.96 0 11 C-1.65 11 -3.3 11 -5 11 C-5 9.02 -5 7.04 -5 5 C-3.68 4.67 -2.36 4.34 -1 4 C-0.67 2.68 -0.34 1.36 0 0 Z " fill="#FDFDFD" transform="translate(229,140)"/>
<path d="M0 0 C1.32 0 2.64 0 4 0 C4 1.98 4 3.96 4 6 C2.35 6 0.7 6 -1 6 C-1.33 7.65 -1.66 9.3 -2 11 C-3.65 11 -5.3 11 -7 11 C-6.67 9.35 -6.34 7.7 -6 6 C-5.38125 5.938125 -4.7625 5.87625 -4.125 5.8125 C-1.72238859 5.171081 -1.72238859 5.171081 -0.75 2.4375 C-0.5025 1.633125 -0.255 0.82875 0 0 Z " fill="#FDFDFD" transform="translate(247,89)"/>
<path d="M0 0 C1.65 0 3.3 0 5 0 C5 1.65 5 3.3 5 5 C4.38125 5.061875 3.7625 5.12375 3.125 5.1875 C0.72238859 5.828919 0.72238859 5.828919 -0.25 8.5625 C-0.4975 9.366875 -0.745 10.17125 -1 11 C-2.32 11 -3.64 11 -5 11 C-5 9.02 -5 7.04 -5 5 C-3.35 5 -1.7 5 0 5 C0 3.35 0 1.7 0 0 Z " fill="#F1F1F0" transform="translate(229,90)"/>
<path d="M0 0 C1.32 0.33 2.64 0.66 4 1 C4 2.65 4 4.3 4 6 C2.35 6.33 0.7 6.66 -1 7 C-1.33 8.32 -1.66 9.64 -2 11 C-3.65 11 -5.3 11 -7 11 C-7 9.35 -7 7.7 -7 6 C-6.21625 5.938125 -5.4325 5.87625 -4.625 5.8125 C-3.75875 5.544375 -2.8925 5.27625 -2 5 C-0.62533375 2.52363988 -0.62533375 2.52363988 0 0 Z " fill="#FDFDFD" transform="translate(180,89)"/>
<path d="M0 0 C1.65 0 3.3 0 5 0 C5 1.65 5 3.3 5 5 C3.35 5.33 1.7 5.66 0 6 C-0.33 7.65 -0.66 9.3 -1 11 C-2.65 10.67 -4.3 10.34 -6 10 C-5.67 8.68 -5.34 7.36 -5 6 C-3.68 5.67 -2.36 5.34 -1 5 C-0.67 3.35 -0.34 1.7 0 0 Z " fill="#F0F0F0" transform="translate(17,56)"/>
<path d="M0 0 C1.32 0 2.64 0 4 0 C4 1.65 4 3.3 4 5 C2.35 5.33 0.7 5.66 -1 6 C-1 7.65 -1 9.3 -1 11 C-2.65 11.33 -4.3 11.66 -6 12 C-6 9.69 -6 7.38 -6 5 C-4.68 5 -3.36 5 -2 5 C-1.34 3.35 -0.68 1.7 0 0 Z " fill="#FDFDFD" transform="translate(230,28)"/>
<path d="M0 0 C1.65 0 3.3 0 5 0 C5 1.65 5 3.3 5 5 C4.38125 5.061875 3.7625 5.12375 3.125 5.1875 C0.72238859 5.828919 0.72238859 5.828919 -0.25 8.5625 C-0.4975 9.366875 -0.745 10.17125 -1 11 C-2.32 10.67 -3.64 10.34 -5 10 C-5.33 8.35 -5.66 6.7 -6 5 C-4.02 5 -2.04 5 0 5 C0 3.35 0 1.7 0 0 Z " fill="#EFF0F0" transform="translate(229,23)"/>
<path d="M0 0 C2.475 0.495 2.475 0.495 5 1 C5 2.65 5 4.3 5 6 C3.35 6 1.7 6 0 6 C0 4.02 0 2.04 0 0 Z M-5 6 C-3.35 6 -1.7 6 0 6 C0 7.65 0 9.3 0 11 C-1.65 11 -3.3 11 -5 11 C-5 9.35 -5 7.7 -5 6 Z " fill="#F1F0F0" transform="translate(128,156)"/>
<path d="M0 0 C1.98 0 3.96 0 6 0 C5.67 1.65 5.34 3.3 5 5 C3.35 5 1.7 5 0 5 C0 3.35 0 1.7 0 0 Z M0 5 C0 6.98 0 8.96 0 11 C-1.65 11 -3.3 11 -5 11 C-5 9.35 -5 7.7 -5 6 C-1.125 5 -1.125 5 0 5 Z " fill="#F0F0F0" transform="translate(78,95)"/>
<path d="M0 0 C1.98 0 3.96 0 6 0 C6 1.32 6 2.64 6 4 C4.35 4.33 2.7 4.66 1 5 C0.67 6.65 0.34 8.3 0 10 C-1.65 10 -3.3 10 -5 10 C-5 8.35 -5 6.7 -5 5 C-3.35 4.67 -1.7 4.34 0 4 C0 2.68 0 1.36 0 0 Z " fill="#FDFDFD" transform="translate(117,74)"/>
<path d="M0 0 C0.33 0 0.66 0 1 0 C1 2.31 1 4.62 1 7 C-0.65 7 -2.3 7 -4 7 C-4 8.65 -4 10.3 -4 12 C-5.65 12 -7.3 12 -9 12 C-9 11.34 -9 10.68 -9 10 C-9.66 9.67 -10.32 9.34 -11 9 C-9.6696875 8.1646875 -9.6696875 8.1646875 -8.3125 7.3125 C-5.1546162 5.22470479 -2.63872497 2.71411712 0 0 Z " fill="#E6ECEE" transform="translate(216,183)"/>
<path d="M0 0 C1.65 0 3.3 0 5 0 C5 1.65 5 3.3 5 5 C3.02 5 1.04 5 -1 5 C-0.67 3.35 -0.34 1.7 0 0 Z M-6 5 C-4.35 5 -2.7 5 -1 5 C-1 6.65 -1 8.3 -1 10 C-2.65 10.33 -4.3 10.66 -6 11 C-6 9.02 -6 7.04 -6 5 Z " fill="#F0F0F0" transform="translate(179,140)"/>
<path d="M0 0 C1.32 0 2.64 0 4 0 C4 1.65 4 3.3 4 5 C2.35 5 0.7 5 -1 5 C-1 6.65 -1 8.3 -1 10 C-2.65 10.33 -4.3 10.66 -6 11 C-6 9.35 -6 7.7 -6 6 C-5.38125 5.7525 -4.7625 5.505 -4.125 5.25 C-1.64931313 3.79371361 -1.04874998 2.62187494 0 0 Z " fill="#FDFDFD" transform="translate(68,34)"/>
<path d="M0 0 C5.61 0 11.22 0 17 0 C17 1.65 17 3.3 17 5 C14.53870625 5.87823436 13.3063126 6.09761018 10.78125 5.29296875 C10.0284375 4.92816406 9.275625 4.56335938 8.5 4.1875 C7.7471875 3.83042969 6.994375 3.47335937 6.21875 3.10546875 C4.1448955 2.07219265 2.0723961 1.03619805 0 0 Z " fill="#E7EDF0" transform="translate(195,0)"/>
<path d="M0 0 C1.65 0 3.3 0 5 0 C5 1.65 5 3.3 5 5 C4.071875 5.12375 4.071875 5.12375 3.125 5.25 C2.42375 5.4975 1.7225 5.745 1 6 C0.690625 6.66 0.38125 7.32 0.0625 8 C-0.288125 8.66 -0.63875 9.32 -1 10 C-3.625 10.75 -3.625 10.75 -6 11 C-5.67 9.02 -5.34 7.04 -5 5 C-3.35 5 -1.7 5 0 5 C0 3.35 0 1.7 0 0 Z " fill="#F0F0F0" transform="translate(229,157)"/>
<path d="M0 0 C1.65 0 3.3 0 5 0 C5 1.65 5 3.3 5 5 C2.50907189 6.24546405 1.58919267 5.7767578 -1 5 C-0.67 3.35 -0.34 1.7 0 0 Z M-5 5 C-3.68 5 -2.36 5 -1 5 C-1 6.98 -1 8.96 -1 11 C-2.32 11 -3.64 11 -5 11 C-5 9.02 -5 7.04 -5 5 Z " fill="#FDFDFD" transform="translate(62,95)"/>
<path d="M0 0 C1.32 0 2.64 0 4 0 C4 1.65 4 3.3 4 5 C2.68 5.33 1.36 5.66 0 6 C-0.33 7.65 -0.66 9.3 -1 11 C-2.65 11 -4.3 11 -6 11 C-6 9.35 -6 7.7 -6 6 C-5.38125 5.938125 -4.7625 5.87625 -4.125 5.8125 C-1.72238859 5.171081 -1.72238859 5.171081 -0.75 2.4375 C-0.5025 1.633125 -0.255 0.82875 0 0 Z " fill="#FDFDFD" transform="translate(230,95)"/>
<path d="M0 0 C1.65 0 3.3 0 5 0 C5 1.65 5 3.3 5 5 C3.35 5 1.7 5 0 5 C0 3.35 0 1.7 0 0 Z M0 5 C0 6.98 0 8.96 0 11 C-1.65 11 -3.3 11 -5 11 C-5 9.35 -5 7.7 -5 6 C-1.125 5 -1.125 5 0 5 Z " fill="#EFEFEF" transform="translate(28,0)"/>
<path d="M0 0 C0.99 0 1.98 0 3 0 C3.1875 2.375 3.1875 2.375 3 5 C2.01 5.66 1.02 6.32 0 7 C-0.165 7.680625 -0.33 8.36125 -0.5 9.0625 C-0.7475 10.0215625 -0.7475 10.0215625 -1 11 C-1.99 11.33 -2.98 11.66 -4 12 C-4.66 11.67 -5.32 11.34 -6 11 C-6 9.35 -6 7.7 -6 6 C-4.35 6 -2.7 6 -1 6 C-1.020625 5.195625 -1.04125 4.39125 -1.0625 3.5625 C-1 1 -1 1 0 0 Z " fill="#F1F1F0" transform="translate(129,78)"/>
<path d="M0 0 C4.95 0 9.9 0 15 0 C12.50742747 1.66171502 10.20483487 2.9387679 7.5 4.1875 C6.7265625 4.55230469 5.953125 4.91710937 5.15625 5.29296875 C3 6 3 6 0 5 C0 3.35 0 1.7 0 0 Z " fill="#EAEDEE" transform="translate(39,0)"/>
<path d="M0 0 C1.32 0 2.64 0 4 0 C4 1.32 4 2.64 4 4 C3.01 4.33 2.02 4.66 1 5 C0.67 6.65 0.34 8.3 0 10 C-1.65 10 -3.3 10 -5 10 C-5 8.35 -5 6.7 -5 5 C-3.35 4.67 -1.7 4.34 0 4 C0 2.68 0 1.36 0 0 Z " fill="#FDFDFD" transform="translate(128,74)"/>
<path d="M0 0 C4.875 2.75 4.875 2.75 6 5 C4.02 5 2.04 5 0 5 C0 3.35 0 1.7 0 0 Z M0 5 C0 6.98 0 8.96 0 11 C-1.65 11 -3.3 11 -5 11 C-5 9.35 -5 7.7 -5 6 C-1.125 5 -1.125 5 0 5 Z " fill="#E9EDEE" transform="translate(78,28)"/>
<path d="M0 0 C0 0.66 0 1.32 0 2 C-1.32 2 -2.64 2 -4 2 C-4 3.65 -4 5.3 -4 7 C-5.98 7 -7.96 7 -10 7 C-10 5.02 -10 3.04 -10 1 C-2.25 0 -2.25 0 0 0 Z " fill="#FBFBFB" transform="translate(49,194)"/>
<path d="M0 0 C0.66 0 1.32 0 2 0 C2.33 1.65 2.66 3.3 3 5 C4.32 5.33 5.64 5.66 7 6 C7.5625 7.9375 7.5625 7.9375 8 10 C7 11 7 11 4.4375 11.0625 C3.633125 11.041875 2.82875 11.02125 2 11 C0.57741188 7.17679443 -0.24042276 4.08718695 0 0 Z " fill="#ECF0EF" transform="translate(104,106)"/>
<path d="M0 0 C0.66 0.66 1.32 1.32 2 2 C1.625 4.625 1.625 4.625 1 7 C-0.98 7 -2.96 7 -5 7 C-5 5.35 -5 3.7 -5 2 C-3.35 1.34 -1.7 0.68 0 0 Z " fill="#FCFCFC" transform="translate(150,88)"/>
<path d="M0 0 C1.98 0 3.96 0 6 0 C6 1.98 6 3.96 6 6 C4.02 6 2.04 6 0 6 C0 4.02 0 2.04 0 0 Z " fill="#FDFDFC" transform="translate(167,145)"/>
<path d="M0 0 C0.33 0 0.66 0 1 0 C0.85957123 1.64630328 0.71250671 3.29204179 0.5625 4.9375 C0.48128906 5.85402344 0.40007812 6.77054688 0.31640625 7.71484375 C0 10 0 10 -1 11 C-2.66617115 11.04063832 -4.33388095 11.042721 -6 11 C-5.67 9.35 -5.34 7.7 -5 6 C-3.68 5.67 -2.36 5.34 -1 5 C-0.67 3.35 -0.34 1.7 0 0 Z " fill="#F2F0F0" transform="translate(84,134)"/>
<path d="M0 0 C1.98 0 3.96 0 6 0 C6.042721 1.66611905 6.04063832 3.33382885 6 5 C5 6 5 6 2.4375 6.0625 C1.2309375 6.0315625 1.2309375 6.0315625 0 6 C0 4.02 0 2.04 0 0 Z " fill="#FCFCFC" transform="translate(0,56)"/>
<path d="M0 0 C1.65 0 3.3 0 5 0 C5 1.98 5 3.96 5 6 C2.69 6.33 0.38 6.66 -2 7 C-2.33 6.34 -2.66 5.68 -3 5 C-2.01 5 -1.02 5 0 5 C0 3.35 0 1.7 0 0 Z " fill="#FCFDFC" transform="translate(212,0)"/>
<path d="M0 0 C1.98 0 3.96 0 6 0 C6.042721 1.66611905 6.04063832 3.33382885 6 5 C5 6 5 6 2.4375 6.0625 C1.2309375 6.0315625 1.2309375 6.0315625 0 6 C0 4.02 0 2.04 0 0 Z " fill="#FDFDFD" transform="translate(0,0)"/>
<path d="M0 0 C1.98 0 3.96 0 6 0 C6 1.98 6 3.96 6 6 C3.03 5.505 3.03 5.505 0 5 C0 3.35 0 1.7 0 0 Z " fill="#FDFDFC" transform="translate(167,134)"/>
<path d="M0 0 C1.67542976 0.28604898 3.34385343 0.61781233 5 1 C5.33 1.99 5.66 2.98 6 4 C5.34 4 4.68 4 4 4 C4 4.66 4 5.32 4 6 C2.35 6 0.7 6 -1 6 C-1.042721 4.33388095 -1.04063832 2.66617115 -1 1 C-0.67 0.67 -0.34 0.34 0 0 Z " fill="#FCFCFC" transform="translate(180,78)"/>
<path d="M0 0 C2.97 0.495 2.97 0.495 6 1 C6 2.65 6 4.3 6 6 C4.02 6 2.04 6 0 6 C0 4.02 0 2.04 0 0 Z " fill="#F1F1F0" transform="translate(167,139)"/>
<path d="M0 0 C1.65 0 3.3 0 5 0 C5.38218767 1.65614657 5.71395102 3.32457024 6 5 C5 6 5 6 2.4375 6.0625 C1.2309375 6.0315625 1.2309375 6.0315625 0 6 C0 4.02 0 2.04 0 0 Z " fill="#F0F0F0" transform="translate(0,184)"/>
<path d="M0 0 C1.65 0 3.3 0 5 0 C5.38218767 1.65614657 5.71395102 3.32457024 6 5 C5 6 5 6 2.4375 6.0625 C1.2309375 6.0315625 1.2309375 6.0315625 0 6 C0 4.02 0 2.04 0 0 Z " fill="#F0F0F0" transform="translate(0,117)"/>
<path d="M0 0 C1.65 0 3.3 0 5 0 C5.38218767 1.65614657 5.71395102 3.32457024 6 5 C5 6 5 6 2.4375 6.0625 C1.2309375 6.0315625 1.2309375 6.0315625 0 6 C0 4.02 0 2.04 0 0 Z " fill="#F0F0F0" transform="translate(0,50)"/>
<path d="M0 0 C1.65 0 3.3 0 5 0 C5 1.98 5 3.96 5 6 C3.35 6 1.7 6 0 6 C0 4.02 0 2.04 0 0 Z " fill="#F0F0F0" transform="translate(246,184)"/>
<path d="M0 0 C1.98 0 3.96 0 6 0 C6 1.65 6 3.3 6 5 C4.02 5 2.04 5 0 5 C0 3.35 0 1.7 0 0 Z " fill="#F0F0F0" transform="translate(78,162)"/>
<path d="M0 0 C0.042721 1.66611905 0.04063832 3.33382885 0 5 C-1 6 -1 6 -3.5625 6.0625 C-4.7690625 6.0315625 -4.7690625 6.0315625 -6 6 C-6 4.35 -6 2.7 -6 1 C-1.125 0 -1.125 0 0 0 Z " fill="#FDFDFD" transform="translate(112,139)"/>
<path d="M0 0 C1.65 0 3.3 0 5 0 C5 1.98 5 3.96 5 6 C3.35 6 1.7 6 0 6 C0 4.02 0 2.04 0 0 Z " fill="#F0F0F0" transform="translate(246,117)"/>
<path d="M0 0 C1.65 0 3.3 0 5 0 C5 1.98 5 3.96 5 6 C3.35 6 1.7 6 0 6 C0 4.02 0 2.04 0 0 Z " fill="#F1F1EF" transform="translate(190,117)"/>
<path d="M0 0 C2.97 0.495 2.97 0.495 6 1 C6 2.65 6 4.3 6 6 C4.33388095 6.042721 2.66617115 6.04063832 1 6 C0 5 0 5 -0.0625 2.4375 C-0.041875 1.633125 -0.02125 0.82875 0 0 Z " fill="#F0F0F0" transform="translate(234,72)"/>
<path d="M0 0 C1.65 0 3.3 0 5 0 C5 1.98 5 3.96 5 6 C3.35 6 1.7 6 0 6 C0 4.02 0 2.04 0 0 Z " fill="#F0F0F0" transform="translate(246,50)"/>
<path d="M0 0 C1.65 0 3.3 0 5 0 C5 1.98 5 3.96 5 6 C3.35 6 1.7 6 0 6 C0 4.02 0 2.04 0 0 Z " fill="#FEFEFE" transform="translate(246,0)"/>
<path d="M0 0 C0.66 0 1.32 0 2 0 C2 0.66 2 1.32 2 2 C3.32 2 4.64 2 6 2 C6 3.65 6 5.3 6 7 C4.35 7 2.7 7 1 7 C0.67 4.69 0.34 2.38 0 0 Z " fill="#ECEEEF" transform="translate(200,194)"/>
<path d="M0 0 C1.65 0 3.3 0 5 0 C5 1.65 5 3.3 5 5 C3.35 5.33 1.7 5.66 0 6 C0 4.02 0 2.04 0 0 Z " fill="#F0F0F0" transform="translate(240,145)"/>
<path d="M0 0 C1.65 0 3.3 0 5 0 C5 1.65 5 3.3 5 5 C3.35 5.33 1.7 5.66 0 6 C0 4.02 0 2.04 0 0 Z " fill="#F0F0F0" transform="translate(17,145)"/>
<path d="M0 0 C1.98 0 3.96 0 6 0 C5.67 1.65 5.34 3.3 5 5 C3.35 5 1.7 5 0 5 C0 3.35 0 1.7 0 0 Z " fill="#F0F0F0" transform="translate(78,106)"/>
<path d="M0 0 C1.32 0 2.64 0 4 0 C4 1.98 4 3.96 4 6 C2.35 6 0.7 6 -1 6 C-1.042721 4.33388095 -1.04063832 2.66617115 -1 1 C-0.67 0.67 -0.34 0.34 0 0 Z " fill="#FDFDFD" transform="translate(74,106)"/>
<path d="M0 0 C1.65 0 3.3 0 5 0 C5 1.65 5 3.3 5 5 C3.35 5.33 1.7 5.66 0 6 C0 4.02 0 2.04 0 0 Z " fill="#F0F0F0" transform="translate(240,78)"/>
<path d="M0 0 C1.65 0 3.3 0 5 0 C5 1.65 5 3.3 5 5 C3.35 5.33 1.7 5.66 0 6 C0 4.02 0 2.04 0 0 Z " fill="#F0F0F0" transform="translate(17,78)"/>
<path d="M0 0 C1.65 0 3.3 0 5 0 C5 1.65 5 3.3 5 5 C3.02 5 1.04 5 -1 5 C-0.67 3.35 -0.34 1.7 0 0 Z " fill="#FDFDFD" transform="translate(56,45)"/>
<path d="M0 0 C1.32 0 2.64 0 4 0 C4 1.98 4 3.96 4 6 C2.35 6 0.7 6 -1 6 C-1.042721 4.33388095 -1.04063832 2.66617115 -1 1 C-0.67 0.67 -0.34 0.34 0 0 Z " fill="#FDFDFD" transform="translate(74,39)"/>
<path d="M0 0 C0 1.65 0 3.3 0 5 C-1.65 5.33 -3.3 5.66 -5 6 C-5.33 4.68 -5.66 3.36 -6 2 C-1.125 0 -1.125 0 0 0 Z " fill="#F0F0F0" transform="translate(84,128)"/>
<path d="M0 0 C1.32 0 2.64 0 4 0 C4 1.65 4 3.3 4 5 C2.35 5.33 0.7 5.66 -1 6 C-1.042721 4.33388095 -1.04063832 2.66617115 -1 1 C-0.67 0.67 -0.34 0.34 0 0 Z " fill="#F0F0F0" transform="translate(74,78)"/>
<path d="M0 0 C1.98 0 3.96 0 6 0 C5.67 1.65 5.34 3.3 5 5 C3.35 4.67 1.7 4.34 0 4 C0 2.68 0 1.36 0 0 Z " fill="#F0F0F0" transform="translate(156,73)"/>
<path d="M0 0 C1.32 0 2.64 0 4 0 C4 1.65 4 3.3 4 5 C1 6 1 6 -2 5 C-1.34 3.35 -0.68 1.7 0 0 Z " fill="#FBFCFC" transform="translate(63,28)"/>
<path d="M0 0 C0.33 0 0.66 0 1 0 C1 2.31 1 4.62 1 7 C-0.65 7 -2.3 7 -4 7 C-4 5.35 -4 3.7 -4 2 C-2.68 2 -1.36 2 0 2 C0 1.34 0 0.68 0 0 Z " fill="#EEEFEF" transform="translate(49,194)"/>
<path d="M0 0 C1.24546405 2.49092811 0.7767578 3.41080733 0 6 C-1.65 6 -3.3 6 -5 6 C-5 4.35 -5 2.7 -5 1 C-3.35 0.67 -1.7 0.34 0 0 Z " fill="#FEFEFE" transform="translate(39,189)"/>
<path d="M0 0 C1.65 0 3.3 0 5 0 C5 1.65 5 3.3 5 5 C3.02 5 1.04 5 -1 5 C-0.67 3.35 -0.34 1.7 0 0 Z " fill="#EFEFEF" transform="translate(112,162)"/>
<path d="M0 0 C1.32 0 2.64 0 4 0 C4 1.65 4 3.3 4 5 C2.68 5.33 1.36 5.66 0 6 C-0.38218767 4.34385343 -0.71395102 2.67542976 -1 1 C-0.67 0.67 -0.34 0.34 0 0 Z " fill="#F2F1F0" transform="translate(129,145)"/>
<path d="M0 0 C1.65 0 3.3 0 5 0 C5.33 1.32 5.66 2.64 6 4 C5.01 4.66 4.02 5.32 3 6 C2.01 5.67 1.02 5.34 0 5 C0 3.35 0 1.7 0 0 Z " fill="#FDFDFD" transform="translate(17,17)"/>
<path d="M0 0 C1.65 0 3.3 0 5 0 C5 1.65 5 3.3 5 5 C3.02 5 1.04 5 -1 5 C-0.67 3.35 -0.34 1.7 0 0 Z " fill="#F0F0EF" transform="translate(179,162)"/>
<path d="M0 0 C1.65 0 3.3 0 5 0 C5 1.65 5 3.3 5 5 C4.01 5.495 4.01 5.495 3 6 C2.01 5.67 1.02 5.34 0 5 C0 3.35 0 1.7 0 0 Z " fill="#FDFDFD" transform="translate(62,151)"/>
<path d="M0 0 C1.65 0 3.3 0 5 0 C5.5625 1.9375 5.5625 1.9375 6 4 C5 5 5 5 2.4375 5.0625 C1.2309375 5.0315625 1.2309375 5.0315625 0 5 C0 3.35 0 1.7 0 0 Z " fill="#EFEFEF" transform="translate(0,129)"/>
<path d="M0 0 C1.65 0 3.3 0 5 0 C5 1.65 5 3.3 5 5 C4.01 5.495 4.01 5.495 3 6 C2.01 5.67 1.02 5.34 0 5 C0 3.35 0 1.7 0 0 Z " fill="#F0F0F0" transform="translate(179,106)"/>
<path d="M0 0 C1.65 0 3.3 0 5 0 C5.5625 1.9375 5.5625 1.9375 6 4 C5 5 5 5 2.4375 5.0625 C1.2309375 5.0315625 1.2309375 5.0315625 0 5 C0 3.35 0 1.7 0 0 Z " fill="#EFEFEF" transform="translate(106,101)"/>
<path d="M0 0 C1.65 0 3.3 0 5 0 C5 1.65 5 3.3 5 5 C3.35 5 1.7 5 0 5 C0 3.35 0 1.7 0 0 Z " fill="#EFEFEF" transform="translate(123,95)"/>
<path d="M0 0 C1.65 0 3.3 0 5 0 C5 1.65 5 3.3 5 5 C4.01 5.495 4.01 5.495 3 6 C2.01 5.67 1.02 5.34 0 5 C0 3.35 0 1.7 0 0 Z " fill="#FEFEFD" transform="translate(140,84)"/>
<path d="M0 0 C1.65 0 3.3 0 5 0 C5 1.65 5 3.3 5 5 C4.01 5.495 4.01 5.495 3 6 C2.01 5.67 1.02 5.34 0 5 C0 3.35 0 1.7 0 0 Z " fill="#FDFDFD" transform="translate(62,84)"/>
<path d="M0 0 C1.65 0 3.3 0 5 0 C5 1.65 5 3.3 5 5 C4.01 5.495 4.01 5.495 3 6 C2.01 5.67 1.02 5.34 0 5 C0 3.35 0 1.7 0 0 Z " fill="#F0F0F0" transform="translate(6,67)"/>
<path d="M0 0 C1.65 0 3.3 0 5 0 C5 1.65 5 3.3 5 5 C4.01 5.495 4.01 5.495 3 6 C2.01 5.67 1.02 5.34 0 5 C0 3.35 0 1.7 0 0 Z " fill="#FDFDFD" transform="translate(224,56)"/>
<path d="M0 0 C2.97 0.495 2.97 0.495 6 1 C6 2.65 6 4.3 6 6 C6.66 6.33 7.32 6.66 8 7 C7.01 7 6.02 7 5 7 C0 1.53488372 0 1.53488372 0 0 Z " fill="#E7EDEF" transform="translate(55,50)"/>
<path d="M0 0 C1.65 0 3.3 0 5 0 C5.5625 1.9375 5.5625 1.9375 6 4 C5 5 5 5 2.4375 5.0625 C1.2309375 5.0315625 1.2309375 5.0315625 0 5 C0 3.35 0 1.7 0 0 Z " fill="#EFEFEF" transform="translate(0,17)"/>
<path d="M0 0 C1.65 0 3.3 0 5 0 C5 1.65 5 3.3 5 5 C3.35 5 1.7 5 0 5 C0 3.35 0 1.7 0 0 Z " fill="#EFEFEF" transform="translate(246,196)"/>
<path d="M0 0 C1.65 0 3.3 0 5 0 C5 1.65 5 3.3 5 5 C3.35 5 1.7 5 0 5 C0 3.35 0 1.7 0 0 Z " fill="#EFEFEF" transform="translate(212,196)"/>
<path d="M0 0 C1.65 0 3.3 0 5 0 C5 1.65 5 3.3 5 5 C3.35 5 1.7 5 0 5 C0 3.35 0 1.7 0 0 Z " fill="#FEFEFE" transform="translate(28,196)"/>
<path d="M0 0 C1.98 0.495 1.98 0.495 4 1 C4 2.65 4 4.3 4 6 C2.35 6 0.7 6 -1 6 C-0.67 4.02 -0.34 2.04 0 0 Z " fill="#E9EDEE" transform="translate(219,178)"/>
<path d="M0 0 C1.65 0 3.3 0 5 0 C5 1.65 5 3.3 5 5 C3.35 5 1.7 5 0 5 C0 3.35 0 1.7 0 0 Z " fill="#EFEFEF" transform="translate(240,168)"/>
<path d="M0 0 C1.65 0 3.3 0 5 0 C5 1.65 5 3.3 5 5 C3.35 5 1.7 5 0 5 C0 3.35 0 1.7 0 0 Z " fill="#EFEFEF" transform="translate(246,162)"/>
<path d="M0 0 C1.65 0 3.3 0 5 0 C5 1.65 5 3.3 5 5 C3.35 5 1.7 5 0 5 C0 3.35 0 1.7 0 0 Z " fill="#EFEFEE" transform="translate(190,162)"/>
<path d="M0 0 C1.65 0 3.3 0 5 0 C5 1.65 5 3.3 5 5 C3.35 5 1.7 5 0 5 C0 3.35 0 1.7 0 0 Z " fill="#EFEFEF" transform="translate(168,162)"/>
<path d="M0 0 C0 1.65 0 3.3 0 5 C-1.65 5.33 -3.3 5.66 -5 6 C-5 4.35 -5 2.7 -5 1 C-1.125 0 -1.125 0 0 0 Z " fill="#F1F1EF" transform="translate(62,161)"/>
<path d="M0 0 C1.65 0 3.3 0 5 0 C5 1.65 5 3.3 5 5 C3.35 5 1.7 5 0 5 C0 3.35 0 1.7 0 0 Z " fill="#EFEFEF" transform="translate(0,162)"/>
<path d="M0 0 C1.65 0 3.3 0 5 0 C5 1.65 5 3.3 5 5 C3.35 5 1.7 5 0 5 C0 3.35 0 1.7 0 0 Z " fill="#FEFEFE" transform="translate(173,151)"/>
<path d="M0 0 C1.65 0 3.3 0 5 0 C5 1.65 5 3.3 5 5 C3.35 5 1.7 5 0 5 C0 3.35 0 1.7 0 0 Z " fill="#EFEFEF" transform="translate(246,140)"/>
<path d="M0 0 C1.32 0 2.64 0 4 0 C4.5625 1.9375 4.5625 1.9375 5 4 C4 5 4 5 1.4375 5.0625 C0.2309375 5.0315625 0.2309375 5.0315625 -1 5 C-0.67 3.35 -0.34 1.7 0 0 Z " fill="#EFEFEF" transform="translate(68,140)"/>
<path d="M0 0 C1.65 0 3.3 0 5 0 C5 1.65 5 3.3 5 5 C3.35 5 1.7 5 0 5 C0 3.35 0 1.7 0 0 Z " fill="#EFEFEF" transform="translate(0,140)"/>
<path d="M0 0 C1.65 0 3.3 0 5 0 C5 1.65 5 3.3 5 5 C3.35 5 1.7 5 0 5 C0 3.35 0 1.7 0 0 Z " fill="#EFEFEF" transform="translate(229,134)"/>
<path d="M0 0 C1.65 0 3.3 0 5 0 C5 1.65 5 3.3 5 5 C3.35 5 1.7 5 0 5 C0 3.35 0 1.7 0 0 Z " fill="#EFEFEF" transform="translate(173,134)"/>
<path d="M0 0 C1.32 0 2.64 0 4 0 C4 1.65 4 3.3 4 5 C3.01 5.495 3.01 5.495 2 6 C1.01 5.67 0.02 5.34 -1 5 C-0.67 3.35 -0.34 1.7 0 0 Z " fill="#F0F0F0" transform="translate(74,134)"/>
<path d="M0 0 C1.32 0 2.64 0 4 0 C4 1.65 4 3.3 4 5 C3.01 5.495 3.01 5.495 2 6 C1.01 5.67 0.02 5.34 -1 5 C-0.67 3.35 -0.34 1.7 0 0 Z " fill="#F0F0F0" transform="translate(7,134)"/>
<path d="M0 0 C1.65 0 3.3 0 5 0 C5 1.65 5 3.3 5 5 C3.35 5 1.7 5 0 5 C0 3.35 0 1.7 0 0 Z " fill="#EFEFEF" transform="translate(246,129)"/>
<path d="M0 0 C1.65 0 3.3 0 5 0 C5 1.65 5 3.3 5 5 C3.35 5 1.7 5 0 5 C0 3.35 0 1.7 0 0 Z " fill="#F0F0EF" transform="translate(190,129)"/>
<path d="M0 0 C1.65 0 3.3 0 5 0 C5 1.65 5 3.3 5 5 C3.35 5 1.7 5 0 5 C0 3.35 0 1.7 0 0 Z " fill="#EFEFEF" transform="translate(123,129)"/>
<path d="M0 0 C1.65 0 3.3 0 5 0 C5 1.65 5 3.3 5 5 C3.35 5 1.7 5 0 5 C0 3.35 0 1.7 0 0 Z " fill="#EFEFEF" transform="translate(6,123)"/>
<path d="M0 0 C1.32 0 2.64 0 4 0 C4 1.65 4 3.3 4 5 C2.68 5.33 1.36 5.66 0 6 C-1.125 2.25 -1.125 2.25 0 0 Z " fill="#F1F1F0" transform="translate(23,117)"/>
<path d="M0 0 C1.65 0 3.3 0 5 0 C5 1.65 5 3.3 5 5 C3.35 5 1.7 5 0 5 C0 3.35 0 1.7 0 0 Z " fill="#EFEFEF" transform="translate(123,106)"/>
<path d="M0 0 C1.65 0 3.3 0 5 0 C5 1.65 5 3.3 5 5 C3.35 5 1.7 5 0 5 C0 3.35 0 1.7 0 0 Z " fill="#EFEFEF" transform="translate(246,95)"/>
<path d="M0 0 C1.65 0 3.3 0 5 0 C5 1.65 5 3.3 5 5 C3.35 5 1.7 5 0 5 C0 3.35 0 1.7 0 0 Z " fill="#EFEFEF" transform="translate(179,95)"/>
<path d="M0 0 C1.32 0 2.64 0 4 0 C4 1.65 4 3.3 4 5 C2.35 5.33 0.7 5.66 -1 6 C-1.042721 4.33388095 -1.04063832 2.66617115 -1 1 C-0.67 0.67 -0.34 0.34 0 0 Z " fill="#FDFEFE" transform="translate(163,95)"/>
<path d="M0 0 C1.65 0 3.3 0 5 0 C5 1.65 5 3.3 5 5 C3.35 5 1.7 5 0 5 C0 3.35 0 1.7 0 0 Z " fill="#EFEFEF" transform="translate(112,95)"/>
<path d="M0 0 C1.65 0 3.3 0 5 0 C5 1.65 5 3.3 5 5 C3.35 5 1.7 5 0 5 C0 3.35 0 1.7 0 0 Z " fill="#EFEFEF" transform="translate(0,95)"/>
<path d="M0 0 C1.32 0 2.64 0 4 0 C4.33 1.65 4.66 3.3 5 5 C3.35 5 1.7 5 0 5 C-0.5625 3.0625 -0.5625 3.0625 -1 1 C-0.67 0.67 -0.34 0.34 0 0 Z " fill="#F0F0F0" transform="translate(118,90)"/>
<path d="M0 0 C1.65 0 3.3 0 5 0 C5 1.65 5 3.3 5 5 C3.35 5 1.7 5 0 5 C0 3.35 0 1.7 0 0 Z " fill="#EFEFEF" transform="translate(106,90)"/>
<path d="M0 0 C1.65 0 3.3 0 5 0 C5 1.65 5 3.3 5 5 C3.35 5 1.7 5 0 5 C0 3.35 0 1.7 0 0 Z " fill="#FEFEFE" transform="translate(173,84)"/>
<path d="M0 0 C1.65 0 3.3 0 5 0 C5 1.65 5 3.3 5 5 C3.35 5 1.7 5 0 5 C0 3.35 0 1.7 0 0 Z " fill="#FDFDFD" transform="translate(106,84)"/>
<path d="M0 0 C1.65 0 3.3 0 5 0 C5 1.65 5 3.3 5 5 C3.35 5 1.7 5 0 5 C0 3.35 0 1.7 0 0 Z " fill="#EFEFEF" transform="translate(67,84)"/>
<path d="M0 0 C2.475 0.495 2.475 0.495 5 1 C5 2.32 5 3.64 5 5 C3.35 5 1.7 5 0 5 C0 3.35 0 1.7 0 0 Z " fill="#F8FBFC" transform="translate(173,73)"/>
<path d="M0 0 C0 1.65 0 3.3 0 5 C-1.65 5 -3.3 5 -5 5 C-5 4.34 -5 3.68 -5 3 C-5.66 2.67 -6.32 2.34 -7 2 C-4.35261084 0.5393715 -3.10551666 0 0 0 Z " fill="#E2EAED" transform="translate(150,73)"/>
<path d="M0 0 C1.65 0 3.3 0 5 0 C5 1.65 5 3.3 5 5 C3.35 5 1.7 5 0 5 C0 3.35 0 1.7 0 0 Z " fill="#EFEFEF" transform="translate(246,73)"/>
<path d="M0 0 C1.65 0 3.3 0 5 0 C5 1.65 5 3.3 5 5 C3.35 5 1.7 5 0 5 C0 3.35 0 1.7 0 0 Z " fill="#EFEFEF" transform="translate(0,73)"/>
<path d="M0 0 C1.65 0 3.3 0 5 0 C5 1.65 5 3.3 5 5 C3.35 5 1.7 5 0 5 C0 3.35 0 1.7 0 0 Z " fill="#EFEFEF" transform="translate(229,67)"/>
<path d="M0 0 C1.65 0 3.3 0 5 0 C5 1.65 5 3.3 5 5 C3.35 5 1.7 5 0 5 C0 3.35 0 1.7 0 0 Z " fill="#EFEFEF" transform="translate(246,62)"/>
<path d="M0 0 C0.33 0 0.66 0 1 0 C1.05422947 1.4370809 1.09289723 2.87475462 1.125 4.3125 C1.14820312 5.11300781 1.17140625 5.91351563 1.1953125 6.73828125 C1 9 1 9 -1 12 C-1.66 11.67 -2.32 11.34 -3 11 C-3 9.35 -3 7.7 -3 6 C-2.01 6 -1.02 6 0 6 C0 4.02 0 2.04 0 0 Z " fill="#DAE8ED" transform="translate(87,39)"/>
<path d="M0 0 C1.65 0 3.3 0 5 0 C5 1.65 5 3.3 5 5 C3.35 5 1.7 5 0 5 C0 3.35 0 1.7 0 0 Z " fill="#EFEFEF" transform="translate(6,45)"/>
<path d="M0 0 C1.65 0 3.3 0 5 0 C5 1.65 5 3.3 5 5 C3.35 5 1.7 5 0 5 C0 3.35 0 1.7 0 0 Z " fill="#EFEFEF" transform="translate(246,39)"/>
<path d="M0 0 C1.65 0 3.3 0 5 0 C5 1.65 5 3.3 5 5 C3.35 5 1.7 5 0 5 C0 3.35 0 1.7 0 0 Z " fill="#EFEFEF" transform="translate(246,28)"/>
<path d="M0 0 C1.65 0 3.3 0 5 0 C5 1.65 5 3.3 5 5 C3.35 5 1.7 5 0 5 C0 3.35 0 1.7 0 0 Z " fill="#FEFEFE" transform="translate(73,28)"/>
<path d="M0 0 C1.65 0 3.3 0 5 0 C5 1.65 5 3.3 5 5 C3.35 5 1.7 5 0 5 C0 3.35 0 1.7 0 0 Z " fill="#EFEFEF" transform="translate(0,28)"/>
<path d="M0 0 C1.65 0 3.3 0 5 0 C5 1.65 5 3.3 5 5 C3.35 5 1.7 5 0 5 C0 3.35 0 1.7 0 0 Z " fill="#FEFEFE" transform="translate(240,17)"/>
<path d="M0 0 C1.65 0 3.3 0 5 0 C5 1.65 5 3.3 5 5 C3.35 5 1.7 5 0 5 C0 3.35 0 1.7 0 0 Z " fill="#EFEFEF" transform="translate(246,6)"/>
<path d="M0 0 C1.98 0 3.96 0 6 0 C6 1.32 6 2.64 6 4 C4.02 4 2.04 4 0 4 C0 2.68 0 1.36 0 0 Z " fill="#FDFDFD" transform="translate(184,197)"/>
<path d="M0 0 C1.98 0 3.96 0 6 0 C6 1.32 6 2.64 6 4 C4.02 4 2.04 4 0 4 C0 2.68 0 1.36 0 0 Z " fill="#F0F0F0" transform="translate(167,197)"/>
<path d="M0 0 C1.98 0 3.96 0 6 0 C6 1.32 6 2.64 6 4 C4.02 4 2.04 4 0 4 C0 2.68 0 1.36 0 0 Z " fill="#FDFDFD" transform="translate(139,197)"/>
<path d="M0 0 C1.98 0 3.96 0 6 0 C6 1.32 6 2.64 6 4 C4.02 4 2.04 4 0 4 C0 2.68 0 1.36 0 0 Z " fill="#FDFDFD" transform="translate(128,197)"/>
<path d="M0 0 C1.98 0 3.96 0 6 0 C6 1.32 6 2.64 6 4 C4.02 4 2.04 4 0 4 C0 2.68 0 1.36 0 0 Z " fill="#FDFDFD" transform="translate(117,197)"/>
<path d="M0 0 C1.98 0 3.96 0 6 0 C6 1.32 6 2.64 6 4 C4.02 4 2.04 4 0 4 C0 2.68 0 1.36 0 0 Z " fill="#F0F0F0" transform="translate(78,197)"/>
<path d="M0 0 C1.98 0 3.96 0 6 0 C6 1.32 6 2.64 6 4 C4.02 4 2.04 4 0 4 C0 2.68 0 1.36 0 0 Z " fill="#FDFDFD" transform="translate(61,197)"/>
<path d="M0 0 C1.32 0 2.64 0 4 0 C4 1.65 4 3.3 4 5 C2.35 5 0.7 5 -1 5 C-0.67 3.35 -0.34 1.7 0 0 Z " fill="#FEFEFE" transform="translate(230,162)"/>
<path d="M0 0 C1.32 0 2.64 0 4 0 C4 1.65 4 3.3 4 5 C2.35 5 0.7 5 -1 5 C-0.67 3.35 -0.34 1.7 0 0 Z " fill="#EFEFEF" transform="translate(174,157)"/>
<path d="M0 0 C1.65 0 3.3 0 5 0 C4.67 1.65 4.34 3.3 4 5 C2.68 5 1.36 5 0 5 C0 3.35 0 1.7 0 0 Z " fill="#F1F0EF" transform="translate(224,140)"/>
<path d="M0 0 C1.32 0 2.64 0 4 0 C4 1.65 4 3.3 4 5 C2.35 5 0.7 5 -1 5 C-0.67 3.35 -0.34 1.7 0 0 Z " fill="#FEFEFE" transform="translate(174,140)"/>
<path d="M0 0 C1.32 0 2.64 0 4 0 C4 1.65 4 3.3 4 5 C2.35 5 0.7 5 -1 5 C-0.67 3.35 -0.34 1.7 0 0 Z " fill="#EFEFEF" transform="translate(185,134)"/>
<path d="M0 0 C1.32 0 2.64 0 4 0 C4 1.65 4 3.3 4 5 C2.35 5 0.7 5 -1 5 C-0.67 3.35 -0.34 1.7 0 0 Z " fill="#F0F0F0" transform="translate(118,134)"/>
<path d="M0 0 C1.32 0 2.64 0 4 0 C4.33 1.65 4.66 3.3 5 5 C3.35 5.33 1.7 5.66 0 6 C0 4.02 0 2.04 0 0 Z " fill="#FDFDFC" transform="translate(57,134)"/>
<path d="M0 0 C1.32 0 2.64 0 4 0 C4 1.65 4 3.3 4 5 C2.35 5 0.7 5 -1 5 C-0.67 3.35 -0.34 1.7 0 0 Z " fill="#EFEFEF" transform="translate(74,112)"/>
<path d="M0 0 C1.32 0 2.64 0 4 0 C4 1.65 4 3.3 4 5 C2.35 5 0.7 5 -1 5 C-0.67 3.35 -0.34 1.7 0 0 Z " fill="#EFEFEF" transform="translate(241,101)"/>
<path d="M0 0 C1.32 0 2.64 0 4 0 C4 1.65 4 3.3 4 5 C2.35 5 0.7 5 -1 5 C-0.67 3.35 -0.34 1.7 0 0 Z " fill="#EFEFEF" transform="translate(174,90)"/>
<path d="M0 0 C1.32 0 2.64 0 4 0 C4 1.98 4 3.96 4 6 C2.68 6 1.36 6 0 6 C0 4.02 0 2.04 0 0 Z " fill="#FDFEFC" transform="translate(57,89)"/>
<path d="M0 0 C1.65 0 3.3 0 5 0 C4.67 1.65 4.34 3.3 4 5 C2.68 5 1.36 5 0 5 C0 3.35 0 1.7 0 0 Z " fill="#EFEFEF" transform="translate(157,84)"/>
<path d="M0 0 C0.99 0 1.98 0 3 0 C3.33 1.65 3.66 3.3 4 5 C2.35 5.33 0.7 5.66 -1 6 C-1.042721 4.33388095 -1.04063832 2.66617115 -1 1 C-0.67 0.67 -0.34 0.34 0 0 Z " fill="#F1F0EF" transform="translate(225,50)"/>
<path d="M0 0 C1.98 0.495 1.98 0.495 4 1 C3.67 2.65 3.34 4.3 3 6 C2.01 6 1.02 6 0 6 C-1.125 2.25 -1.125 2.25 0 0 Z " fill="#F1F1F0" transform="translate(23,50)"/>
<path d="M0 0 C1.32 0 2.64 0 4 0 C4 1.65 4 3.3 4 5 C2.35 5 0.7 5 -1 5 C-0.67 3.35 -0.34 1.7 0 0 Z " fill="#EFEFEF" transform="translate(241,34)"/>
<path d="M0 0 C1.32 0 2.64 0 4 0 C4 1.65 4 3.3 4 5 C2.35 5 0.7 5 -1 5 C-0.67 3.35 -0.34 1.7 0 0 Z " fill="#FEFEFE" transform="translate(241,6)"/>
<path d="M0 0 C1.2065625 0.0309375 1.2065625 0.0309375 2.4375 0.0625 C2.4375 1.7125 2.4375 3.3625 2.4375 5.0625 C1.4475 5.0625 0.4575 5.0625 -0.5625 5.0625 C-2.25 3.0625 -2.25 3.0625 -3.5625 1.0625 C-2.5625 0.0625 -2.5625 0.0625 0 0 Z " fill="#E7EBEE" transform="translate(214.5625,5.9375)"/>
<path d="M0 0 C0 1.65 0 3.3 0 5 C-1.65 5 -3.3 5 -5 5 C-5 3.68 -5 2.36 -5 1 C-3 0 -3 0 0 0 Z " fill="#EDEFF0" transform="translate(195,196)"/>
<path d="M0 0 C1.65 0 3.3 0 5 0 C5 1.32 5 2.64 5 4 C3.02 4 1.04 4 -1 4 C-0.67 2.68 -0.34 1.36 0 0 Z " fill="#F0F0F0" transform="translate(112,197)"/>
<path d="M0 0 C1.98 1.65 3.96 3.3 6 5 C5.67 5.66 5.34 6.32 5 7 C3.35 7 1.7 7 0 7 C0 4.69 0 2.38 0 0 Z " fill="#E5ECEE" transform="translate(34,183)"/>
<path d="M0 0 C1.32 0 2.64 0 4 0 C4 1.65 4 3.3 4 5 C2.35 4.67 0.7 4.34 -1 4 C-0.67 2.68 -0.34 1.36 0 0 Z " fill="#F1F0EF" transform="translate(23,140)"/>
<path d="M0 0 C1.98 0 3.96 0 6 0 C5.67 1.32 5.34 2.64 5 4 C3.35 4 1.7 4 0 4 C0 2.68 0 1.36 0 0 Z " fill="#FDFDFD" transform="translate(106,74)"/>
<path d="M0 0 C1.32 0 2.64 0 4 0 C4 1.65 4 3.3 4 5 C2.35 4.67 0.7 4.34 -1 4 C-0.67 2.68 -0.34 1.36 0 0 Z " fill="#F0F1EF" transform="translate(23,73)"/>
<path d="M0 0 C1.98 0.495 1.98 0.495 4 1 C4 2.32 4 3.64 4 5 C2.35 5 0.7 5 -1 5 C-0.67 3.35 -0.34 1.7 0 0 Z " fill="#EEEFF0" transform="translate(57,196)"/>
<path d="M0 0 C1.65 0 3.3 0 5 0 C5 1.65 5 3.3 5 5 C3.68 5 2.36 5 1 5 C0.67 3.35 0.34 1.7 0 0 Z " fill="#EFEFEF" transform="translate(223,173)"/>
<path d="M0 0 C1.32 0.33 2.64 0.66 4 1 C4.33 2.32 4.66 3.64 5 5 C3.35 5.33 1.7 5.66 0 6 C0 4.02 0 2.04 0 0 Z " fill="#FDFEFC" transform="translate(57,156)"/>
<path d="M0 0 C1.32 0.66 2.64 1.32 4 2 C3.67 3.32 3.34 4.64 3 6 C1.68 6 0.36 6 -1 6 C-1.042721 4.33388095 -1.04063832 2.66617115 -1 1 C-0.67 0.67 -0.34 0.34 0 0 Z " fill="#F0F1EF" transform="translate(58,139)"/>
<path d="M0 0 C1.32 0 2.64 0 4 0 C4 1.65 4 3.3 4 5 C2.68 5 1.36 5 0 5 C-0.5625 3.0625 -0.5625 3.0625 -1 1 C-0.67 0.67 -0.34 0.34 0 0 Z " fill="#F1F1F0" transform="translate(23,129)"/>
<path d="M0 0 C1.32 0 2.64 0 4 0 C4 1.65 4 3.3 4 5 C2.68 5 1.36 5 0 5 C0 3.35 0 1.7 0 0 Z " fill="#F2F0F0" transform="translate(129,123)"/>
<path d="M0 0 C1.32 0 2.64 0 4 0 C4 1.65 4 3.3 4 5 C2.35 4.67 0.7 4.34 -1 4 C-0.67 2.68 -0.34 1.36 0 0 Z " fill="#F1F0EF" transform="translate(23,106)"/>
<path d="M0 0 C1.32 0 2.64 0 4 0 C4 1.65 4 3.3 4 5 C2.68 5 1.36 5 0 5 C0 3.35 0 1.7 0 0 Z " fill="#F0F0EF" transform="translate(57,95)"/>
<path d="M0 0 C1.65 0 3.3 0 5 0 C4.67 1.65 4.34 3.3 4 5 C2.68 5 1.36 5 0 5 C0 3.35 0 1.7 0 0 Z " fill="#F0F0EF" transform="translate(224,73)"/>
<path d="M0 0 C1.32 0 2.64 0 4 0 C4 1.65 4 3.3 4 5 C2.35 4.67 0.7 4.34 -1 4 C-0.67 2.68 -0.34 1.36 0 0 Z " fill="#F0F1EF" transform="translate(23,39)"/>
<path d="M0 0 C1.98 0 3.96 0 6 0 C5.67 1.32 5.34 2.64 5 4 C3.35 4 1.7 4 0 4 C0 2.68 0 1.36 0 0 Z " fill="#FEFEFE" transform="translate(106,197)"/>
<path d="M0 0 C1.32 0 2.64 0 4 0 C4 1.65 4 3.3 4 5 C2.68 5.33 1.36 5.66 0 6 C0 4.02 0 2.04 0 0 Z " fill="#FEFEFD" transform="translate(57,123)"/>
<path d="M0 0 C1.32 0 2.64 0 4 0 C4.33 1.32 4.66 2.64 5 4 C3.35 4.33 1.7 4.66 0 5 C0 3.35 0 1.7 0 0 Z " fill="#F0F0F0" transform="translate(57,84)"/>
<path d="M0 0 C1.32 0 2.64 0 4 0 C3.67 1.65 3.34 3.3 3 5 C2.01 5 1.02 5 0 5 C-0.5625 3.0625 -0.5625 3.0625 -1 1 C-0.67 0.67 -0.34 0.34 0 0 Z " fill="#F1F1F0" transform="translate(23,62)"/>
<path d="M0 0 C1.65 0 3.3 0 5 0 C5 0.99 5 1.98 5 3 C4.01 3.66 3.02 4.32 2 5 C1.34 4.67 0.68 4.34 0 4 C0 2.68 0 1.36 0 0 Z " fill="#E3E9EC" transform="translate(34,6)"/>
<path d="M0 0 C1.65 0 3.3 0 5 0 C5 1.32 5 2.64 5 4 C3.35 4 1.7 4 0 4 C0 2.68 0 1.36 0 0 Z " fill="#EFEFEF" transform="translate(179,197)"/>
<path d="M0 0 C1.65 0 3.3 0 5 0 C5 1.32 5 2.64 5 4 C3.35 4 1.7 4 0 4 C0 2.68 0 1.36 0 0 Z " fill="#FEFEFE" transform="translate(162,197)"/>
<path d="M0 0 C1.65 0 3.3 0 5 0 C5 1.32 5 2.64 5 4 C3.35 4 1.7 4 0 4 C0 2.68 0 1.36 0 0 Z " fill="#FEFEFE" transform="translate(151,197)"/>
<path d="M0 0 C1.65 0 3.3 0 5 0 C5 1.32 5 2.64 5 4 C3.35 4 1.7 4 0 4 C0 2.68 0 1.36 0 0 Z " fill="#EFEFEF" transform="translate(134,197)"/>
<path d="M0 0 C1.65 0 3.3 0 5 0 C5 1.32 5 2.64 5 4 C3.35 4 1.7 4 0 4 C0 2.68 0 1.36 0 0 Z " fill="#EFEFEF" transform="translate(123,197)"/>
<path d="M0 0 C1.65 0 3.3 0 5 0 C5 1.32 5 2.64 5 4 C3.35 4 1.7 4 0 4 C0 2.68 0 1.36 0 0 Z " fill="#EFEFEF" transform="translate(101,197)"/>
<path d="M0 0 C1.65 0 3.3 0 5 0 C5 1.32 5 2.64 5 4 C3.35 4 1.7 4 0 4 C0 2.68 0 1.36 0 0 Z " fill="#FEFEFE" transform="translate(84,197)"/>
<path d="M0 0 C1.65 0 3.3 0 5 0 C5 1.32 5 2.64 5 4 C3.35 4 1.7 4 0 4 C0 2.68 0 1.36 0 0 Z " fill="#FFFFFF" transform="translate(73,197)"/>
<path d="M0 0 C1.32 0 2.64 0 4 0 C4 1.65 4 3.3 4 5 C2.68 5 1.36 5 0 5 C0 3.35 0 1.7 0 0 Z " fill="#FFFFFD" transform="translate(57,112)"/>
<path d="M0 0 C1.65 0 3.3 0 5 0 C5 1.32 5 2.64 5 4 C3.35 4 1.7 4 0 4 C0 2.68 0 1.36 0 0 Z " fill="#FEFEFE" transform="translate(73,74)"/>
<path d="M0 0 C3.3 0 6.6 0 10 0 C6.81237635 2.12508244 4.73487777 2.5020163 1 3 C0.67 2.01 0.34 1.02 0 0 Z " fill="#F2F7F8" transform="translate(44,0)"/>
<path d="M0 0 C1.32 0 2.64 0 4 0 C4 1.32 4 2.64 4 4 C2.35 4 0.7 4 -1 4 C-0.67 2.68 -0.34 1.36 0 0 Z " fill="#F0F0F0" transform="translate(68,74)"/>
<path d="M0 0 C1.32 0 2.64 0 4 0 C4 1.32 4 2.64 4 4 C2.68 4.33 1.36 4.66 0 5 C0 3.35 0 1.7 0 0 Z " fill="#F0F0EE" transform="translate(57,129)"/>
<path d="M0 0 C1.65 0 3.3 0 5 0 C5 1.65 5 3.3 5 5 C4.01 5 3.02 5 2 5 C1.34 3.35 0.68 1.7 0 0 Z " fill="#E6ECED" transform="translate(162,101)"/>
<path d="M0 0 C1 3 1 3 0 6 C-0.99 6 -1.98 6 -3 6 C-3 4.35 -3 2.7 -3 1 C-2.01 0.67 -1.02 0.34 0 0 Z " fill="#E4E9EC" transform="translate(193,94)"/>
<path d="M0 0 C1.32 0 2.64 0 4 0 C4 1.65 4 3.3 4 5 C2.02 4.34 0.04 3.68 -2 3 C-1.34 2.67 -0.68 2.34 0 2 C0 1.34 0 0.68 0 0 Z " fill="#E2EBED" transform="translate(157,95)"/>
<path d="M0 0 C2.475 0.495 2.475 0.495 5 1 C4.67 1.99 4.34 2.98 4 4 C2.68 4 1.36 4 0 4 C0 2.68 0 1.36 0 0 Z " fill="#EFF0EE" transform="translate(57,74)"/>
</svg>
