<?xml version="1.0" encoding="UTF-8"?>
<svg version="1.1" xmlns="http://www.w3.org/2000/svg" width="225" height="225">
<path d="M0 0 C74.25 0 148.5 0 225 0 C225 74.25 225 148.5 225 225 C150.75 225 76.5 225 0 225 C0 150.75 0 76.5 0 0 Z " fill="#FCF9FA" transform="translate(0,0)"/>
<path d="M0 0 C74.25 0 148.5 0 225 0 C225 74.25 225 148.5 225 225 C150.75 225 76.5 225 0 225 C0 150.75 0 76.5 0 0 Z M40.484375 44.0859375 C29.6843217 58.01232201 28.37334945 73.50553646 28.46875 90.5 C28.46604437 92.23242407 28.46215316 93.96484665 28.45715332 95.69726562 C28.45130844 99.30093057 28.459657 102.90419475 28.47851562 106.5078125 C28.50130228 111.07979251 28.48815189 115.65083261 28.46422577 120.22277832 C28.44963061 123.79206158 28.45443581 127.36112945 28.46473694 130.93041992 C28.46736656 132.61417762 28.46427057 134.29795623 28.45481873 135.98168945 C28.38907651 150.97583255 30.25688978 164.79863176 38 178 C38.66 178 39.32 178 40 178 C40.26425781 178.598125 40.52851562 179.19625 40.80078125 179.8125 C42.04922285 182.08978762 43.21292097 183.3371966 45.1875 185 C45.73792969 185.474375 46.28835937 185.94875 46.85546875 186.4375 C59.90275131 195.9437168 74.95679409 196.61850373 90.5 196.53125 C92.23242407 196.53395563 93.96484665 196.53784684 95.69726562 196.54284668 C99.30093057 196.54869156 102.90419475 196.540343 106.5078125 196.52148438 C111.07979251 196.49869772 115.65083261 196.51184811 120.22277832 196.53577423 C123.79206158 196.55036939 127.36112945 196.54556419 130.93041992 196.53526306 C132.61417762 196.53263344 134.29795623 196.53572943 135.98168945 196.54518127 C153.37000572 196.6214208 169.87087169 194.22919763 183.15234375 182.00390625 C192.76093402 171.58275021 196.12376027 157.9313967 196.17700195 144.11547852 C196.18685875 142.98206779 196.18685875 142.98206779 196.19691467 141.82575989 C196.21650089 139.343474 196.2282812 136.86124837 196.23828125 134.37890625 C196.24235678 133.52269117 196.2464323 132.6664761 196.25063133 131.78431511 C196.27143603 127.24659346 196.2857583 122.70890148 196.29516602 118.17114258 C196.30618098 113.52838669 196.34053983 108.88611657 196.38033772 104.24353123 C196.4067268 100.63568855 196.41487769 97.02795742 196.41844749 93.42002678 C196.42326107 91.71111736 196.43472163 90.00221109 196.45348549 88.2933979 C196.62725233 71.41105613 194.78035105 55.76023499 182.93359375 42.7265625 C169.37666381 29.67892689 151.49723713 28.52771028 133.6875 28.6015625 C131.94360228 28.59953537 130.1997054 28.59661865 128.45581055 28.59286499 C124.82169429 28.58847166 121.18780102 28.59477526 117.55371094 28.60888672 C112.93104799 28.6259768 108.30890788 28.61611941 103.68626404 28.59816933 C100.09139169 28.58724999 96.4966402 28.59081488 92.90176392 28.5985527 C91.19878068 28.60053228 89.49578591 28.5981758 87.79281616 28.59111404 C70.64846641 28.53559616 52.6472941 30.41770663 40.484375 44.0859375 Z " fill="#F23575" transform="translate(0,0)"/>
<path d="M0 0 C1.74099838 -0.006443 3.48199572 -0.01317242 5.22299194 -0.02017212 C8.8623912 -0.0320976 12.50169589 -0.035858 16.14111328 -0.03466797 C20.76027841 -0.03446542 25.37882391 -0.06172265 29.99784279 -0.09621239 C33.59283117 -0.11866784 37.18767502 -0.12249981 40.78272629 -0.12144852 C42.48325095 -0.12377828 44.18378126 -0.1324499 45.88423538 -0.14811325 C62.67347979 -0.28825492 79.982586 1.65281383 92.8984375 13.5859375 C105.43170587 27.40851338 106.71053843 44.27914148 106.546875 62.046875 C106.54448185 63.79366926 106.54358709 65.54046614 106.5440979 67.28726196 C106.54099904 70.9161228 106.52465416 74.54458037 106.49755859 78.17333984 C106.46342999 82.79950323 106.45593624 87.42522952 106.45744896 92.05150414 C106.45690279 95.64625128 106.44589868 99.24090499 106.43144608 102.83562088 C106.42513462 104.54107587 106.42115261 106.24654128 106.41965866 107.95200729 C106.38794813 125.20844106 104.55708808 141.23862037 92.0859375 154.3359375 C78.82953164 166.9036989 61.37511669 167.65680535 44.171875 167.671875 C42.43087662 167.678318 40.68987928 167.68504742 38.94888306 167.69204712 C35.3094838 167.7039726 31.67017911 167.707733 28.03076172 167.70654297 C23.41159659 167.70634042 18.79305109 167.73359765 14.17403221 167.76808739 C10.57904383 167.79054284 6.98419998 167.79437481 3.38914871 167.79332352 C1.68862405 167.79565328 -0.01190626 167.8043249 -1.71236038 167.81998825 C-18.95860451 167.96394455 -34.95245564 165.86898783 -48.1015625 153.5234375 C-49.9140625 151.3359375 -49.9140625 151.3359375 -49.9140625 149.3359375 C-50.5740625 149.3359375 -51.2340625 149.3359375 -51.9140625 149.3359375 C-52.86854415 147.44859676 -53.80148401 145.55036286 -54.7265625 143.6484375 C-55.24863281 142.59269531 -55.77070312 141.53695312 -56.30859375 140.44921875 C-61.141293 128.98601646 -61.37618274 117.33295748 -61.34765625 105.12890625 C-61.35223198 103.39219461 -61.35754162 101.65548477 -61.36354065 99.91877747 C-61.37241851 96.29725746 -61.37011081 92.67595858 -61.36010742 89.05444336 C-61.34863803 84.45887018 -61.36882545 79.8640678 -61.39802456 75.2685957 C-61.4165487 71.68646046 -61.41606197 68.10450436 -61.41038704 64.52233315 C-61.41023573 62.8301924 -61.41611915 61.13803798 -61.42867851 59.44594383 C-61.53604133 42.61217387 -59.57469852 27.16870549 -47.91796875 14.09765625 C-34.4273188 0.95355511 -17.72285208 0.01552482 0 0 Z M-38.1640625 26.4609375 C-44.62600207 34.52515636 -46.02540091 45.00166998 -46.05932617 55.02709961 C-46.06570602 56.31631821 -46.07208588 57.6055368 -46.07865906 58.93382263 C-46.08018922 60.32697512 -46.08130238 61.72012811 -46.08203125 63.11328125 C-46.08525227 64.56710339 -46.08861695 66.02092521 -46.09211731 67.4747467 C-46.0980895 70.52003732 -46.09995944 73.56529965 -46.09936523 76.6105957 C-46.09926432 80.46626579 -46.11285123 84.32174878 -46.13013744 88.17737484 C-46.14139942 91.18301686 -46.14328007 94.18861588 -46.14275551 97.19427681 C-46.14391691 98.61288656 -46.1482318 100.03149812 -46.15608788 101.45008659 C-46.66152879 121.98813585 -46.66152879 121.98813585 -38.9140625 140.3359375 C-38.42035156 140.98046875 -37.92664063 141.625 -37.41796875 142.2890625 C-30.9577179 149.66335363 -22.52193241 151.31751624 -13.14614868 152.12774658 C-7.23462633 152.50853014 -1.32423256 152.49880938 4.59765625 152.50390625 C5.97850069 152.50713197 7.35934481 152.51049694 8.7401886 152.51399231 C11.62033885 152.51993872 14.50045929 152.52183693 17.38061523 152.52124023 C21.02318373 152.52113899 24.66555567 152.53477228 28.30807781 152.55201244 C31.15758596 152.56327789 34.00704881 152.56515503 36.85657692 152.56463051 C38.83690981 152.56634291 40.81722856 152.5770883 42.79753113 152.58818054 C63.34968845 152.71689889 63.34968845 152.71689889 81.0390625 143.6171875 C89.4028577 135.04254032 91.1946889 123.80027188 91.23120117 112.21411133 C91.23455978 111.53986115 91.2379184 110.86561096 91.24137878 110.17092896 C91.25080718 107.96158966 91.25282803 105.75232686 91.25390625 103.54296875 C91.25712534 101.98988312 91.26048989 100.43679779 91.26399231 98.88371277 C91.26996398 95.63332416 91.27183432 92.38296206 91.27124023 89.13256836 C91.27113893 84.99850108 91.28476722 80.86460676 91.30201244 76.73058033 C91.31321693 73.52265161 91.31515684 70.31476352 91.31463051 67.10681725 C91.31579886 65.58442275 91.32015504 64.06202679 91.32796288 62.53965187 C91.59606238 42.43027232 91.59606238 42.43027232 82.19140625 25.33203125 C69.95705227 14.1269537 53.82159003 15.01732367 38.10546875 15.03515625 C36.63490177 15.03125082 35.16433588 15.02691252 33.69377136 15.02217102 C30.64257106 15.01479383 27.59148667 15.01493923 24.5402832 15.02026367 C20.66765349 15.02607736 16.7954991 15.00904014 12.92294788 14.985919 C9.89683858 14.97106352 6.87084109 14.97032534 3.84470177 14.97342873 C2.41802713 14.97292243 0.99134505 14.96781803 -0.4352932 14.95761681 C-14.45231421 14.86956647 -28.00200352 15.92063811 -38.1640625 26.4609375 Z " fill="#FDFBFC" transform="translate(89.9140625,28.6640625)"/>
<path d="M0 0 C2.4375 0.9375 2.4375 0.9375 3.6875 2.875 C4.74445075 7.19088222 5.11102823 11.51294835 5.4375 15.9375 C5.1075 15.9375 4.7775 15.9375 4.4375 15.9375 C4.26821761 18.62485788 4.1020047 21.31234884 3.9375 24 C3.88980469 24.75216797 3.84210938 25.50433594 3.79296875 26.27929688 C3.51676996 30.83657694 3.29495028 35.36996949 3.4375 39.9375 C3.7675 40.2675 4.0975 40.5975 4.4375 40.9375 C4.50929964 42.45678038 4.52142007 43.97917482 4.5 45.5 C4.49097656 46.32628906 4.48195312 47.15257812 4.47265625 48.00390625 C4.45525391 48.96103516 4.45525391 48.96103516 4.4375 49.9375 C4.1075 49.9375 3.7775 49.9375 3.4375 49.9375 C3.40862764 53.74998426 3.39074508 57.5624407 3.375 61.375 C3.36662109 62.46361328 3.35824219 63.55222656 3.34960938 64.67382812 C3.34638672 65.70830078 3.34316406 66.74277344 3.33984375 67.80859375 C3.33460693 68.76693115 3.32937012 69.72526855 3.32397461 70.71264648 C3.1869687 72.91035339 3.1869687 72.91035339 4.4375 73.9375 C4.4375 71.2975 4.4375 68.6575 4.4375 65.9375 C5.0975 65.6075 5.7575 65.2775 6.4375 64.9375 C6.69136715 78.44887398 6.69136715 78.44887398 5.4375 83.9375 C4.7775 84.5975 4.1175 85.2575 3.4375 85.9375 C3.06411823 90.07541057 3.06411823 90.07541057 4.5703125 93.83203125 C5.4375 95.9375 5.4375 95.9375 4.8203125 98.26953125 C0.50925496 106.77115092 -4.81900669 112.04715263 -13.5625 115.9375 C-23.83089744 118.02552936 -34.29365267 118.22647208 -44.73828125 118.16796875 C-46.12395688 118.16677055 -47.50963333 118.16632513 -48.89530945 118.1665802 C-51.76660419 118.16503548 -54.63777069 118.15690032 -57.5090332 118.14331055 C-61.1575093 118.12624297 -64.80584673 118.12249985 -68.4543581 118.12325573 C-71.30365784 118.12298182 -74.15292833 118.11746677 -77.00221825 118.11025429 C-78.99108403 118.10560821 -80.97995582 118.10380834 -82.96882629 118.10209656 C-110.56655848 117.95881719 -110.56655848 117.95881719 -120.5625 108.625 C-133.99428786 93.26504795 -129.78830127 68.02986618 -129.5625 48.9375 C-128.9025 48.9375 -128.2425 48.9375 -127.5625 48.9375 C-127.2325 49.9275 -126.9025 50.9175 -126.5625 51.9375 C-126.5625 50.9475 -126.5625 49.9575 -126.5625 48.9375 C-120.9525 48.9375 -115.3425 48.9375 -109.5625 48.9375 C-109.2325 50.5875 -108.9025 52.2375 -108.5625 53.9375 C-108.2325 54.9275 -107.9025 55.9175 -107.5625 56.9375 C-105.5825 56.4425 -105.5825 56.4425 -103.5625 55.9375 C-103.24539062 56.96488281 -102.92828125 57.99226563 -102.6015625 59.05078125 C-98.33874776 72.02442876 -92.24696745 80.83244799 -80.08203125 87.81640625 C-69.69670343 92.4374746 -56.77462401 92.62576084 -45.9375 89.3125 C-40.77777035 87.27277216 -36.61779762 84.71341386 -32.5625 80.9375 C-31.87285156 80.30070312 -31.18320313 79.66390625 -30.47265625 79.0078125 C-22.85810525 71.26564333 -18.9302005 61.03637078 -18.37109375 50.2421875 C-18.4340316 45.36965387 -19.51341565 40.78765062 -20.625 36.0625 C-21.01789365 34.37903336 -21.40492226 32.6941836 -21.78515625 31.0078125 C-21.95797119 30.27320801 -22.13078613 29.53860352 -22.30883789 28.78173828 C-22.5625 26.9375 -22.5625 26.9375 -21.5625 24.9375 C-21.871875 24.0403125 -21.871875 24.0403125 -22.1875 23.125 C-22.5625 20.9375 -22.5625 20.9375 -21.46484375 18.32421875 C-19.5625 15.9375 -19.5625 15.9375 -16.71484375 15.4140625 C-15.12349609 15.48753906 -15.12349609 15.48753906 -13.5 15.5625 C-11.90478516 15.61277344 -11.90478516 15.61277344 -10.27734375 15.6640625 C-7.5625 15.9375 -7.5625 15.9375 -5.5625 16.9375 C-5.748125 15.761875 -5.93375 14.58625 -6.125 13.375 C-6.61494778 9.37731011 -6.51047911 5.88741297 -5.5625 1.9375 C-2.5625 -0.0625 -2.5625 -0.0625 0 0 Z " fill="#FE3E34" transform="translate(173.5625,63.0625)"/>
<path d="M0 0 C1.47195499 -0.00135168 2.94390955 -0.00329637 4.41586304 -0.00579834 C7.49033895 -0.00873152 10.56469795 -0.00451433 13.63916016 0.00488281 C17.53175615 0.01621556 21.42407433 0.00974574 25.31665993 -0.00226212 C28.35576365 -0.009582 31.39480447 -0.00714607 34.43391037 -0.00200653 C35.86646942 -0.00069464 37.29903464 -0.00222876 38.73158646 -0.00696564 C69.52382628 -0.08640087 69.52382628 -0.08640087 79.6640625 9.01953125 C90.53259262 20.32188925 89.87174339 34.54210965 89.87890625 49.2265625 C89.88212564 50.78301015 89.88549021 52.3394575 89.88899231 53.89590454 C89.89495746 57.14870912 89.89683487 60.40148722 89.89624023 63.65429688 C89.89613868 67.79862101 89.90979625 71.94277358 89.92701244 76.08705711 C89.93819258 79.29919192 89.94015762 82.511286 89.93963051 85.72343826 C89.94080137 87.25027686 89.94517221 88.77711683 89.95296288 90.303936 C89.99079765 98.48304201 89.82340747 106.3104389 87.7109375 114.265625 C85.25387193 112.09381242 84.74778669 111.62674709 84.3984375 108.203125 C84.7109375 105.265625 84.7109375 105.265625 86.7109375 103.265625 C88.02346456 97.40878254 87.80561489 91.23030048 87.7109375 85.265625 C87.3809375 87.905625 87.0509375 90.545625 86.7109375 93.265625 C86.0509375 92.935625 85.3909375 92.605625 84.7109375 92.265625 C84.7109375 84.345625 84.7109375 76.425625 84.7109375 68.265625 C85.0409375 68.265625 85.3709375 68.265625 85.7109375 68.265625 C85.7315625 66.96625 85.7521875 65.666875 85.7734375 64.328125 C85.79083984 63.23177734 85.79083984 63.23177734 85.80859375 62.11328125 C85.91654934 60.24830359 85.91654934 60.24830359 84.7109375 59.265625 C83.78329812 38.12090377 83.78329812 38.12090377 86.7109375 32.265625 C86.46384179 30.21501467 86.14101246 28.17309829 85.7734375 26.140625 C85.57878906 25.04492188 85.38414062 23.94921875 85.18359375 22.8203125 C85.02761719 21.97726563 84.87164062 21.13421875 84.7109375 20.265625 C82.4009375 20.595625 80.0909375 20.925625 77.7109375 21.265625 C77.54273199 23.20299201 77.37642655 25.14052406 77.2109375 27.078125 C77.118125 28.15707031 77.0253125 29.23601562 76.9296875 30.34765625 C76.67355912 33.27653311 76.67355912 33.27653311 76.7109375 36.265625 C72.0909375 36.265625 67.4709375 36.265625 62.7109375 36.265625 C60.60151955 41.11530912 60.60151955 41.11530912 61.7109375 45.265625 C61.2734375 48.015625 61.2734375 48.015625 60.7109375 50.265625 C58.4835613 47.54327631 56.4634439 44.87254693 54.5859375 41.890625 C47.96910674 32.63109659 36.59013326 28.14685624 25.7109375 26.265625 C13.19047036 25.37130592 2.23685965 29.24757992 -7.47265625 37.01171875 C-16.53380003 45.25067935 -20.20958442 55.60219568 -20.8515625 67.515625 C-20.89474609 68.26070313 -20.93792969 69.00578125 -20.98242188 69.7734375 C-21.08802975 71.603974 -21.18900451 73.43477676 -21.2890625 75.265625 C-23.1640625 75.890625 -23.1640625 75.890625 -25.2890625 76.265625 C-25.9490625 75.605625 -26.6090625 74.945625 -27.2890625 74.265625 C-27.2890625 72.285625 -27.2890625 70.305625 -27.2890625 68.265625 C-32.8990625 68.265625 -38.5090625 68.265625 -44.2890625 68.265625 C-44.2890625 69.255625 -44.2890625 70.245625 -44.2890625 71.265625 C-44.9490625 70.935625 -45.6090625 70.605625 -46.2890625 70.265625 C-45.7940625 69.275625 -45.7940625 69.275625 -45.2890625 68.265625 C-45.9490625 68.265625 -46.6090625 68.265625 -47.2890625 68.265625 C-47.36432703 63.53746862 -47.41817869 58.80967578 -47.45385742 54.08105469 C-47.46876152 52.47910473 -47.48909197 50.8771942 -47.51538086 49.27539062 C-47.7386716 35.3000175 -47.91813886 20.2869321 -37.65625 9.55859375 C-27.11907621 -0.15167179 -13.54525815 -0.04434881 0 0 Z " fill="#FB03CD" transform="translate(91.2890625,43.734375)"/>
<path d="M0 0 C7.11059333 3.57941672 12.37785687 8.18606665 15.75390625 15.44921875 C18.05844034 22.52841629 18.41227702 31.57837403 15.19140625 38.38671875 C14.078125 40.21484375 14.078125 40.21484375 12.87890625 41.88671875 C12.30076172 42.71429688 12.30076172 42.71429688 11.7109375 43.55859375 C7.81154118 48.6568336 2.90240626 51.84719794 -3.12109375 53.88671875 C-13.07524672 55.17914311 -20.8407468 53.5833958 -29.12109375 47.88671875 C-35.13229579 42.88730319 -37.60973528 36.61520632 -38.4375 28.9609375 C-38.77507725 20.39083123 -36.78988894 12.76535822 -30.8359375 6.3046875 C-21.95127804 -1.04185324 -11.04591084 -3.94003077 0 0 Z " fill="#FE0A63" transform="translate(123.12109375,86.11328125)"/>
<path d="M0 0 C23.76 0 47.52 0 72 0 C72 0.33 72 0.66 72 1 C70.865625 1.28875 69.73125 1.5775 68.5625 1.875 C66.7990625 2.431875 66.7990625 2.431875 65 3 C64.67 3.66 64.34 4.32 64 5 C62.68 5 61.36 5 60 5 C60 5.66 60 6.32 60 7 C58.89591797 6.98259766 58.89591797 6.98259766 57.76953125 6.96484375 C56.79371094 6.95582031 55.81789062 6.94679688 54.8125 6.9375 C53.84957031 6.92589844 52.88664062 6.91429687 51.89453125 6.90234375 C49.05991423 6.91574907 49.05991423 6.91574907 46.57421875 7.50390625 C42.20496823 8.34593177 37.80825339 8.0139354 33.375 7.9375 C30.418894 7.9922427 27.86271042 8.3060096 25 9 C24.67 11.31 24.34 13.62 24 16 C21.69 16.33 19.38 16.66 17 17 C16.67 19.31 16.34 21.62 16 24 C13.69 24.33 11.38 24.66 9 25 C8.93941406 26.08539062 8.87882813 27.17078125 8.81640625 28.2890625 C8.73193936 29.73438486 8.64729449 31.17969682 8.5625 32.625 C8.50352539 33.69427734 8.50352539 33.69427734 8.44335938 34.78515625 C8.25079694 38.01428018 7.98461772 41.08425065 7.40234375 44.2734375 C6.99338533 47.04482561 7.26930257 48.35941066 8 51 C8.06790675 53.24907152 8.08499984 55.50001605 8.0625 57.75 C8.05347656 58.92046875 8.04445313 60.0909375 8.03515625 61.296875 C8.02355469 62.18890625 8.01195312 63.0809375 8 64 C7.34 63.01 6.68 62.02 6 61 C5.525625 61.66 5.05125 62.32 4.5625 63 C3.7890625 63.99 3.7890625 63.99 3 65 C2.67 65 2.34 65 2 65 C1.67 67.64 1.34 70.28 1 73 C0.67 73 0.34 73 0 73 C0 48.91 0 24.82 0 0 Z " fill="#840FF6" transform="translate(0,0)"/>
<path d="M0 0 C0.79339783 0.00565979 1.58679565 0.01131958 2.40423584 0.01715088 C4.93156973 0.03949353 7.45747165 0.08968324 9.984375 0.140625 C11.70050032 0.16069286 13.41664792 0.17894313 15.1328125 0.1953125 C19.3338828 0.23935105 23.53388635 0.30836174 27.734375 0.390625 C27.734375 1.050625 27.734375 1.710625 27.734375 2.390625 C28.683125 2.225625 29.631875 2.060625 30.609375 1.890625 C33.734375 1.390625 33.734375 1.390625 35.734375 1.390625 C36.724375 1.060625 37.714375 0.730625 38.734375 0.390625 C39.229375 1.380625 39.229375 1.380625 39.734375 2.390625 C42.85171952 3.51138877 45.80743541 3.49396288 49.09375 3.453125 C50.12757812 3.44539063 51.16140625 3.43765625 52.2265625 3.4296875 C54.38281475 3.40383316 56.5390648 3.37779422 58.6953125 3.3515625 C64.48578205 3.30845727 70.00918807 3.50557195 75.734375 4.390625 C75.734375 3.070625 75.734375 1.750625 75.734375 0.390625 C83.654375 0.390625 91.574375 0.390625 99.734375 0.390625 C99.074375 1.710625 98.414375 3.030625 97.734375 4.390625 C98.394375 4.390625 99.054375 4.390625 99.734375 4.390625 C99.734375 5.710625 99.734375 7.030625 99.734375 8.390625 C101.054375 8.390625 102.374375 8.390625 103.734375 8.390625 C107.734375 8.390625 111.734375 8.390625 115.734375 8.390625 C115.734375 11.030625 115.734375 13.670625 115.734375 16.390625 C117.714375 16.390625 119.694375 16.390625 121.734375 16.390625 C124.82806776 21.95927197 124.83607504 26.14765809 123.734375 32.390625 C121.89793692 30.13039352 120.07518463 27.8816732 118.4140625 25.48828125 C110.7880427 14.6326629 99.83738889 9.32076214 86.95568848 6.81796265 C79.92429352 5.88518172 72.7962472 6.0832335 65.71484375 6.08984375 C63.96665853 6.08594789 62.21847424 6.08161141 60.47029114 6.07685852 C56.81829756 6.06942924 53.1664007 6.06966325 49.5144043 6.07495117 C44.86813945 6.0807368 40.22227441 6.06382062 35.57607555 6.0406065 C31.96834556 6.02576886 28.36070959 6.02501107 24.75295448 6.02811623 C23.0415906 6.02760789 21.33022076 6.02246335 19.61888695 6.01230431 C3.56152183 5.92867446 -12.21872292 7.33561452 -24.71875 18.6015625 C-37.55808319 32.53461667 -38.69959701 48.81053869 -39.08984375 66.921875 C-39.19337444 71.48038667 -39.60520777 75.88045855 -40.265625 80.390625 C-41.255625 80.390625 -42.245625 80.390625 -43.265625 80.390625 C-43.265625 73.130625 -43.265625 65.870625 -43.265625 58.390625 C-42.935625 58.390625 -42.605625 58.390625 -42.265625 58.390625 C-42.265625 56.740625 -42.265625 55.090625 -42.265625 53.390625 C-42.925625 54.380625 -43.585625 55.370625 -44.265625 56.390625 C-44.265625 48.470625 -44.265625 40.550625 -44.265625 32.390625 C-42.265625 32.390625 -42.265625 32.390625 -40.640625 33.890625 C-40.186875 34.385625 -39.733125 34.880625 -39.265625 35.390625 C-39.265625 34.400625 -39.265625 33.410625 -39.265625 32.390625 C-38.275625 32.390625 -37.285625 32.390625 -36.265625 32.390625 C-36.265625 27.110625 -36.265625 21.830625 -36.265625 16.390625 C-33.625625 16.390625 -30.985625 16.390625 -28.265625 16.390625 C-28.265625 13.750625 -28.265625 11.110625 -28.265625 8.390625 C-22.985625 8.390625 -17.705625 8.390625 -12.265625 8.390625 C-12.265625 7.070625 -12.265625 5.750625 -12.265625 4.390625 C-9.09326797 -0.36895477 -5.26139359 -0.1416545 0 0 Z " fill="#CF05E3" transform="translate(68.265625,23.609375)"/>
<path d="M0 0 C9.57 0 19.14 0 29 0 C30.10167598 6.61005587 30.10167598 6.61005587 28.625 9.875 C26.08131336 16.62331934 26.25367027 23.87099069 26 31 C24.125 31.625 24.125 31.625 22 32 C21.34 31.34 20.68 30.68 20 30 C20 28.02 20 26.04 20 24 C14.39 24 8.78 24 3 24 C3 24.99 3 25.98 3 27 C2.34 26.67 1.68 26.34 1 26 C1.33 25.34 1.66 24.68 2 24 C1.34 24 0.68 24 0 24 C0 16.08 0 8.16 0 0 Z " fill="#FC0976" transform="translate(44,88)"/>
<path d="M0 0 C4.91128067 -0.04949353 9.82241566 -0.08576382 14.73388672 -0.10986328 C16.40415985 -0.1199115 18.07441542 -0.13355236 19.74462891 -0.15087891 C22.14750504 -0.17517926 24.55014827 -0.18649487 26.953125 -0.1953125 C27.69806213 -0.20563507 28.44299927 -0.21595764 29.21051025 -0.22659302 C32.96927642 -0.22740368 35.81173711 -0.10367118 39 2 C39 2.99 39 3.98 39 5 C39.66 5 40.32 5 41 5 C41.33 3.68 41.66 2.36 42 1 C44.475 1.495 44.475 1.495 47 2 C44.79394719 4.26790476 42.47441028 6.32881124 40.0625 8.375 C36.99326539 11.04024029 34.45896143 13.75065811 32 17 C30.68505488 18.35147138 29.35735142 19.69112542 28 21 C27.67 19.68 27.34 18.36 27 17 C14.13 16.505 14.13 16.505 1 16 C0.67 16.66 0.34 17.32 0 18 C-1.28365387 15.43269226 -1.13275635 13.55347003 -1.125 10.6875 C-1.12757812 9.74261719 -1.13015625 8.79773438 -1.1328125 7.82421875 C-1.00518007 5.11015257 -0.56125648 2.65217373 0 0 Z " fill="#FC06B7" transform="translate(45,72)"/>
<path d="M0 0 C0.33 0 0.66 0 1 0 C1 15.84 1 31.68 1 48 C-15.17 48 -31.34 48 -48 48 C-48 47.67 -48 47.34 -48 47 C-46.98421875 46.85304687 -45.9684375 46.70609375 -44.921875 46.5546875 C-31.69546468 44.47208039 -20.09007667 40.38118161 -11 30 C-4.39169891 20.78959985 -1.24105977 11.16953791 0 0 Z " fill="#FCFDFD" transform="translate(224,177)"/>
<path d="M0 0 C0.33 0 0.66 0 1 0 C1.19335938 1.09699219 1.38671875 2.19398438 1.5859375 3.32421875 C1.84868175 4.77869582 2.11171801 6.23312017 2.375 7.6875 C2.50132813 8.40873047 2.62765625 9.12996094 2.7578125 9.87304688 C3.47900844 13.82159462 4.45757592 17.27806364 6 21 C6 21.99 6 22.98 6 24 C6.66 24 7.32 24 8 24 C9.04683665 25.63765405 10.03953169 27.31024309 11 29 C17.864403 39.08831786 29.16330327 45.08882104 41 47.5 C42.32985245 47.69247864 43.66245931 47.87139032 45 48 C45 48.33 45 48.66 45 49 C30.15 49 15.3 49 0 49 C0 32.83 0 16.66 0 0 Z " fill="#FDFCF9" transform="translate(0,176)"/>
<path d="M0 0 C15.18 0 30.36 0 46 0 C46 0.33 46 0.66 46 1 C45.11699219 1.14695313 44.23398437 1.29390625 43.32421875 1.4453125 C29.26046336 4.07376947 17.30027795 9.95892317 8.92578125 21.9765625 C4.41896077 29.743033 2.38893623 37.17694797 1 46 C0.67 46 0.34 46 0 46 C0 30.82 0 15.64 0 0 Z " fill="#FDFCFD" transform="translate(0,0)"/>
<path d="M0 0 C14.85 0 29.7 0 45 0 C45 14.52 45 29.04 45 44 C44.67 44 44.34 44 44 44 C43.78085938 43.11699219 43.56171875 42.23398437 43.3359375 41.32421875 C39.84578611 28.11555636 34.95622982 16.42834905 22.796875 9.05859375 C15.53488079 5.11106379 8.12922189 2.5633119 0 1 C0 0.67 0 0.34 0 0 Z " fill="#FCFBFD" transform="translate(180,0)"/>
<path d="M0 0 C2.64 0 5.28 0 8 0 C8 10 8 10 6.9375 13.25 C5.90401792 17.38392831 6.33043116 19.82711685 7 24 C8.17124292 36.50987121 8.18625051 49.05079215 8.18530273 61.60498047 C8.18752874 64.91776672 8.20586726 68.2302394 8.22460938 71.54296875 C8.227537 73.65104054 8.22952601 75.75911389 8.23046875 77.8671875 C8.23765427 78.85661346 8.24483978 79.84603943 8.25224304 80.865448 C8.24916641 81.77464996 8.24608978 82.68385193 8.24291992 83.62060547 C8.24434494 84.42061981 8.24576996 85.22063416 8.24723816 86.04489136 C8 88 8 88 6 90 C5.83318891 93.08347826 5.83318891 93.08347826 6 96 C6.66 96 7.32 96 8 96 C8 108.25 8 108.25 7 112 C7 111.34 7 110.68 7 110 C6.34 110 5.68 110 5 110 C4.67 109.34 4.34 108.68 4 108 C3.67 108.99 3.34 109.98 3 111 C2.34 111 1.68 111 1 111 C1.92675365 103.45357746 1.92675365 103.45357746 2.50970459 99.84365845 C3.01301901 95.89793781 3.15481677 92.03690868 3.16113281 88.06787109 C3.16609772 87.30744507 3.17106262 86.54701904 3.17617798 85.7635498 C3.19068991 83.26683621 3.19758424 80.77018621 3.203125 78.2734375 C3.20736607 76.98349821 3.20736607 76.98349821 3.21169281 75.66749954 C3.22664325 71.11377917 3.23589807 66.56009012 3.24023438 62.00634766 C3.24570355 57.33648226 3.26971062 52.6669107 3.29820633 47.99713707 C3.31696465 44.37654828 3.32204534 40.7560283 3.32357025 37.13539505 C3.32656915 35.41564966 3.33450245 33.69590467 3.34775543 31.97620773 C3.41348206 22.78977701 3.09571963 14.42386898 0.64471436 5.48550415 C0 3 0 3 0 0 Z " fill="#FA0473" transform="translate(192,56)"/>
<path d="M0 0 C2.14781884 0.46024689 3.88809287 0.93622383 5.80566406 2.02905273 C8.48872441 3.21625022 10.43204436 3.21295329 13.359375 3.16015625 C14.91011719 3.1437207 14.91011719 3.1437207 16.4921875 3.12695312 C17.56726563 3.10568359 18.64234375 3.08441406 19.75 3.0625 C26.61283291 2.94978924 33.20805092 2.94183402 40 4 C40 2.68 40 1.36 40 0 C47.92 0 55.84 0 64 0 C63.34 1.32 62.68 2.64 62 4 C62.66 4 63.32 4 64 4 C64 5.32 64 6.64 64 8 C65.32 8 66.64 8 68 8 C72 8 76 8 80 8 C80 10.64 80 13.28 80 16 C81.98 16 83.96 16 86 16 C89.09369276 21.56864697 89.10170004 25.75703309 88 32 C86.16356192 29.73976852 84.34080963 27.4910482 82.6796875 25.09765625 C74.9427504 14.08414742 63.95634707 8.97288158 50.92800903 6.43408203 C45.56243181 5.63862661 40.18899957 5.63925318 34.7734375 5.5859375 C33.54460846 5.56657135 32.31577942 5.5472052 31.04971313 5.5272522 C27.15821079 5.46788605 23.26667816 5.42124348 19.375 5.375 C16.72264397 5.33678068 14.07029982 5.2977267 11.41796875 5.2578125 C4.9454187 5.16222011 -1.52720406 5.0770491 -8 5 C-8 4.01 -8 3.02 -8 2 C-2.25 1 -2.25 1 0 1 C0 0.67 0 0.34 0 0 Z " fill="#FA04B8" transform="translate(104,24)"/>
<path d="M0 0 C18.77199404 -0.68608303 36.200309 0.68854161 50.75 14.0625 C58.10246152 21.90336561 62.81651553 31.30033427 64 42 C61.61435923 41.42415568 59.33317216 40.77772405 57 40 C57.020625 39.195625 57.04125 38.39125 57.0625 37.5625 C57.29633621 35.06645115 57.29633621 35.06645115 56 34 C55.92794489 32.31391034 55.91613932 30.62499341 55.9375 28.9375 C55.94652344 28.01839844 55.95554688 27.09929688 55.96484375 26.15234375 C55.97644531 25.44207031 55.98804688 24.73179688 56 24 C53.36 24 50.72 24 48 24 C48 21.36 48 18.72 48 16 C46.02 16 44.04 16 42 16 C40.23537317 12.91190305 40 11.76687864 40 8 C38.02966797 8.01740234 38.02966797 8.01740234 36.01953125 8.03515625 C34.28385559 8.04453828 32.54817839 8.05363804 30.8125 8.0625 C29.51602539 8.07506836 29.51602539 8.07506836 28.19335938 8.08789062 C23.95588607 8.10412615 20.15330862 7.90289318 16 7 C13.78184754 7.08364845 13.78184754 7.08364845 11.6875 7.4375 C9.8621875 7.7159375 9.8621875 7.7159375 8 8 C8 6.02 8 4.04 8 2 C6.35 2 4.7 2 3 2 C3 2.66 3 3.32 3 4 C2.01 3.67 1.02 3.34 0 3 C0 2.01 0 1.02 0 0 Z " fill="#F70DC7" transform="translate(160,0)"/>
<path d="M0 0 C3.03978021 0.68164768 4.80055419 2.23591662 6.93359375 4.43359375 C8.53446002 7.63532629 8.43276464 10.95936434 7.93359375 14.43359375 C6.13995464 17.24362835 4.9147844 18.94299843 1.93359375 20.43359375 C-5.96263267 20.872273 -5.96263267 20.872273 -9.06640625 18.43359375 C-11.35788448 15.03588466 -12.06640625 12.98692522 -12.06640625 8.87109375 C-10.16590221 2.33811111 -6.67469828 -0.41638004 0 0 Z " fill="#FBF9FC" transform="translate(159.06640625,57.56640625)"/>
<path d="M0 0 C0.99 0.33 1.98 0.66 3 1 C3.02578125 2.258125 3.0515625 3.51625 3.078125 4.8125 C3.49981792 19.08561456 4.90979428 32.33891835 12 45 C12 45.66 12 46.32 12 47 C12.66 47 13.32 47 14 47 C15.15625 48.3203125 15.15625 48.3203125 16.5 50.125 C20.2262842 54.67625757 24.87898585 57.2370813 30 60 C27.07175348 60.97608217 25.04386724 61.08226668 22 61 C21.67 60.34 21.34 59.68 21 59 C19.02 59.66 17.04 60.32 15 61 C13.768606 57.30581799 14.35567236 54.7943739 15 51 C12.03 51.66 9.06 52.32 6 53 C6 48.05 6 43.1 6 38 C1.52297636 36.93462795 1.52297636 36.93462795 -1 37 C-0.505 34.03 -0.505 34.03 0 31 C-0.66 31 -1.32 31 -2 31 C-2.125 24.25 -2.125 24.25 -1 22 C-1 20.09632567 -1.00356312 18.19253548 -1.03125 16.2890625 C-0.9887745 13.17773194 -0.60166252 10.14011883 -0.22265625 7.0546875 C0.0332884 4.69281228 0.07657185 2.37372721 0 0 Z " fill="#F96506" transform="translate(26,131)"/>
<path d="M0 0 C0.66 0 1.32 0 2 0 C2 0.99 2 1.98 2 3 C2.66 3 3.32 3 4 3 C4 2.01 4 1.02 4 0 C4.99 0.33 5.98 0.66 7 1 C7 2.32 7 3.64 7 5 C7.01160156 6.05832031 7.02320313 7.11664063 7.03515625 8.20703125 C7.12529305 20.09221151 7.12529305 20.09221151 6 26 C5.01 26.33 4.02 26.66 3 27 C3.33 28.32 3.66 29.64 4 31 C4.99 30.01 5.98 29.02 7 28 C7 32 7 36 7 40 C5.00045254 40.04254356 2.99958364 40.04080783 1 40 C0.505 39.505 0.505 39.505 0 39 C-0.33 41.97 -0.66 44.94 -1 48 C-3.64 48.33 -6.28 48.66 -9 49 C-9 51.31 -9 53.62 -9 56 C-10.45792884 56.05399736 -11.91642712 56.09279177 -13.375 56.125 C-14.18710938 56.14820313 -14.99921875 56.17140625 -15.8359375 56.1953125 C-18 56 -18 56 -20 54 C-19.27296875 53.50693359 -19.27296875 53.50693359 -18.53125 53.00390625 C-7.58705622 45.23773797 -1.43234095 36.52988108 1.6171875 23.328125 C2.91278634 15.44876877 1.32786417 7.77749015 0 0 Z " fill="#FA116B" transform="translate(153,96)"/>
<path d="M0 0 C7.23373339 4.54235905 12.0097091 10.01703851 14 18.4375 C14.1875 21.9375 14.1875 21.9375 14 24.4375 C13.34 24.4375 12.68 24.4375 12 24.4375 C11.505 20.4775 11.505 20.4775 11 16.4375 C10.01 16.1075 9.02 15.7775 8 15.4375 C8 14.4475 8 13.4575 8 12.4375 C6.35 13.0975 4.7 13.7575 3 14.4375 C2.505 10.9725 2.505 10.9725 2 7.4375 C1.05125 7.6025 0.1025 7.7675 -0.875 7.9375 C-4 8.4375 -4 8.4375 -6 8.4375 C-5.814375 7.86 -5.62875 7.2825 -5.4375 6.6875 C-4.95976454 4.23057475 -5.24270636 2.79352466 -6 0.4375 C-7.2375 0.458125 -8.475 0.47875 -9.75 0.5 C-12.70737502 0.51041329 -15.13562338 0.15359416 -18 -0.5625 C-20.18703385 -0.18342718 -20.18703385 -0.18342718 -22 0.4375 C-21.979375 1.38625 -21.95875 2.335 -21.9375 3.3125 C-22 6.4375 -22 6.4375 -23 8.4375 C-25.64860427 9.03105614 -28.29197322 9.17959269 -31 9.4375 C-31 10.0975 -31 10.7575 -31 11.4375 C-32.98 12.0975 -34.96 12.7575 -37 13.4375 C-36.92835893 10.42857492 -36.63920806 8.21599817 -34.69140625 5.84375 C-24.96289999 -2.9635813 -12.13156817 -6.16495222 0 0 Z " fill="#F70791" transform="translate(126,87.5625)"/>
<path d="M0 0 C0.33 0 0.66 0 1 0 C1.08636719 1.05058594 1.17273437 2.10117188 1.26171875 3.18359375 C2.35975349 14.74809013 5.15424477 22.25758702 13 31 C10.33333333 31 7.66666667 31 5 31 C4.67 34.63 4.34 38.26 4 42 C0.42796392 40.21398196 -1.43350965 38.93313183 -4 36 C-4 35.34 -4 34.68 -4 34 C-4.66 34 -5.32 34 -6 34 C-8.93339701 29.8255504 -9.14374728 27.06076651 -8.3125 22.1875 C-7.73828125 19.29296875 -7.73828125 19.29296875 -7 17 C-6.34 16.67 -5.68 16.34 -5 16 C-5.52268466 18.76276177 -6.10869587 21.3260876 -7 24 C-6.34 24 -5.68 24 -5 24 C-5 23.34 -5 22.68 -5 22 C-4.34 22 -3.68 22 -3 22 C-3 21.34 -3 20.68 -3 20 C-2.34 20 -1.68 20 -1 20 C-1 18.68 -1 17.36 -1 16 C-0.34 16 0.32 16 1 16 C0.01 12.7 -0.98 9.4 -2 6 C-1.34 6 -0.68 6 0 6 C0 4.02 0 2.04 0 0 Z " fill="#FBFBF8" transform="translate(44,144)"/>
<path d="M0 0 C3 2 3 2 3.67842102 4.23799133 C4.02868837 7.24640149 4.13455118 10.16279644 4.14526367 13.19213867 C4.15164352 14.42079147 4.15802338 15.64944427 4.16459656 16.91532898 C4.16612601 18.24954183 4.16723956 19.58375522 4.16796875 20.91796875 C4.17118638 22.29934218 4.17455083 23.68071528 4.17805481 25.06208801 C4.18403344 27.95619495 4.18589614 30.85027209 4.18530273 33.74438477 C4.18520148 37.42807226 4.19882134 41.11156542 4.21607494 44.79520702 C4.2272728 47.64963127 4.22921953 50.5040098 4.22869301 53.35845375 C4.2304265 55.3689632 4.24122161 57.37945837 4.25224304 59.38993835 C4.2346526 66.50479581 3.77013251 73.09565921 2 80 C-0.45706557 77.82818742 -0.96315081 77.36112209 -1.3125 73.9375 C-1 71 -1 71 1 69 C2.31252706 63.14315754 2.09467739 56.96467548 2 51 C1.67 53.64 1.34 56.28 1 59 C0.34 58.67 -0.32 58.34 -1 58 C-1 50.08 -1 42.16 -1 34 C-0.67 34 -0.34 34 0 34 C0.020625 32.700625 0.04125 31.40125 0.0625 30.0625 C0.07410156 29.33160156 0.08570313 28.60070312 0.09765625 27.84765625 C0.20561184 25.98267859 0.20561184 25.98267859 -1 25 C-1.36669915 16.64141636 -1.09315403 8.29625828 0 0 Z " fill="#F90475" transform="translate(177,78)"/>
<path d="M0 0 C10.23 0 20.46 0 31 0 C31 0.66 31 1.32 31 2 C32.32 2.33 33.64 2.66 35 3 C33.49946106 6.11650396 31.93818042 9.13149298 30 12 C29.01 12.33 28.02 12.66 27 13 C27 11.68 27 10.36 27 9 C14.13 8.505 14.13 8.505 1 8 C0.67 8.66 0.34 9.32 0 10 C-1.03595522 5.97128525 -0.86988854 4.34944269 0 0 Z " fill="#FB06A1" transform="translate(45,80)"/>
<path d="M0 0 C1.32 0.66 2.64 1.32 4 2 C3.85691406 2.87011719 3.85691406 2.87011719 3.7109375 3.7578125 C3.01676069 8.64933746 2.61876408 12.46431253 5 17 C6.71380616 18.03557297 6.71380616 18.03557297 9 18 C10.11375 18.12375 11.2275 18.2475 12.375 18.375 C17.16816617 17.87915522 18.60725961 16.30999062 22 13 C22.59732819 15.76264289 23 18.16032769 23 21 C18.38 21 13.76 21 9 21 C6.89058205 25.84968412 6.89058205 25.84968412 8 30 C7.5625 32.75 7.5625 32.75 7 35 C4.7726238 32.27765131 2.7525064 29.60692193 0.875 26.625 C-2.41901609 21.89699584 -7.20981687 19.0601364 -12 16 C-11.67 15.01 -11.34 14.02 -11 13 C-9.906875 13.020625 -8.81375 13.04125 -7.6875 13.0625 C-4.05615809 13.18544452 -4.05615809 13.18544452 -1 12 C-1.01160156 11.30132812 -1.02320313 10.60265625 -1.03515625 9.8828125 C-1.04417969 8.97273438 -1.05320313 8.06265625 -1.0625 7.125 C-1.07410156 6.22007813 -1.08570313 5.31515625 -1.09765625 4.3828125 C-1 2 -1 2 0 0 Z " fill="#F5099C" transform="translate(145,59)"/>
<path d="M0 0 C0.66 0 1.32 0 2 0 C2 1.65 2 3.3 2 5 C4.64 5 7.28 5 10 5 C10 7.31 10 9.62 10 12 C12.97 12.33 15.94 12.66 19 13 C18.67 15.64 18.34 18.28 18 21 C21 22.33333333 21 22.33333333 24 21 C26.73865287 20.92948886 29.45027588 20.90642235 32.1875 20.9375 C32.93708984 20.94201172 33.68667969 20.94652344 34.45898438 20.95117188 C36.30602383 20.96293646 38.15302213 20.98087135 40 21 C39 23 39 23 36.84765625 24.09375 C29.0125608 26.58722345 20.89264368 25.89847551 13.5 22.4375 C7.605567 19.10518055 3.86568936 15.39216247 0.625 9.5 C-0.17919089 6.28323643 -0.12944022 3.30072556 0 0 Z " fill="#FA2027" transform="translate(86,115)"/>
<path d="M0 0 C0.66 0 1.32 0 2 0 C1.3503125 1.85625 1.3503125 1.85625 0.6875 3.75 C0.12074123 5.49862539 -0.44150979 7.24871621 -1 9 C-1.41185547 10.20076172 -1.41185547 10.20076172 -1.83203125 11.42578125 C-4.5851709 20.58030964 -4.53913673 29.90954511 -4.7890625 39.390625 C-4.92108366 43.99117401 -5.33559033 48.44715995 -6 53 C-6.99 53 -7.98 53 -9 53 C-9 45.74 -9 38.48 -9 31 C-8.67 31 -8.34 31 -8 31 C-8 29.35 -8 27.7 -8 26 C-8.66 26.99 -9.32 27.98 -10 29 C-10 21.08 -10 13.16 -10 5 C-8 5 -8 5 -6.375 6.5 C-5.92125 6.995 -5.4675 7.49 -5 8 C-5 7.01 -5 6.02 -5 5 C-4.01 5 -3.02 5 -2 5 C-1.34 3.35 -0.68 1.7 0 0 Z " fill="#F903DC" transform="translate(34,51)"/>
<path d="M0 0 C6.7541933 1.51969349 11.43423785 5.62637823 15.55078125 11.0390625 C20.58081916 19.19989097 21.36161109 28.59811171 21 38 C20.67 38 20.34 38 20 38 C18.68 31.07 17.36 24.14 16 17 C13.69 17.33 11.38 17.66 9 18 C8.67 20.31 8.34 22.62 8 25 C7.67 25 7.34 25 7 25 C6.87044922 23.98679687 6.87044922 23.98679687 6.73828125 22.953125 C6.06251757 17.17730479 6.06251757 17.17730479 2.375 13.0625 C0 11 0 11 -0.32421875 8.32421875 C-0.31358163 5.53374802 -0.21581969 2.781676 0 0 Z " fill="#F6139F" transform="translate(160,47)"/>
<path d="M0 0 C0.66 0.66 1.32 1.32 2 2 C1.72265625 5.1171875 1.72265625 5.1171875 1.0625 8.875 C0.33940925 13.02302955 -0.16115705 15.97571597 1 20 C1.06790675 22.24907152 1.08499984 24.50001605 1.0625 26.75 C1.05347656 27.92046875 1.04445313 29.0909375 1.03515625 30.296875 C1.02355469 31.18890625 1.01195312 32.0809375 1 33 C0.34 32.01 -0.32 31.02 -1 30 C-1.7115625 30.99 -1.7115625 30.99 -2.4375 32 C-2.953125 32.66 -3.46875 33.32 -4 34 C-4.33 34 -4.66 34 -5 34 C-5.33 36.64 -5.66 39.28 -6 42 C-6.33 42 -6.66 42 -7 42 C-7.61916858 12.65458453 -7.61916858 12.65458453 -4 1 C-2.125 0.375 -2.125 0.375 0 0 Z " fill="#BB0CE6" transform="translate(7,31)"/>
<path d="M0 0 C2.14781884 0.46024689 3.88809287 0.93622383 5.80566406 2.02905273 C8.48872441 3.21625022 10.43204436 3.21295329 13.359375 3.16015625 C14.91011719 3.1437207 14.91011719 3.1437207 16.4921875 3.12695312 C17.56726563 3.10568359 18.64234375 3.08441406 19.75 3.0625 C26.61283291 2.94978924 33.20805092 2.94183402 40 4 C40 2.68 40 1.36 40 0 C47.92 0 55.84 0 64 0 C63 2 62 4 61 6 C59.71722672 5.8934182 59.71722672 5.8934182 58.40853882 5.78468323 C50.12064033 5.13815504 41.91234329 4.86441103 33.6015625 4.90234375 C32.40058929 4.9037587 31.19961609 4.90517365 29.96224976 4.90663147 C26.18313951 4.91216148 22.40409187 4.92470016 18.625 4.9375 C16.03906336 4.94252407 13.45312579 4.94708537 10.8671875 4.95117188 C4.57810419 4.96210784 -1.71094343 4.97877433 -8 5 C-8 4.01 -8 3.02 -8 2 C-2.25 1 -2.25 1 0 1 C0 0.67 0 0.34 0 0 Z " fill="#F702D0" transform="translate(104,24)"/>
<path d="M0 0 C1.98 0 3.96 0 6 0 C5.57363906 11.0853844 -0.19797402 19.97920945 -7.67578125 27.86328125 C-10.89133488 30.81942888 -14.1703681 32.91110987 -18 35 C-18 31.25838897 -17.48661829 27.71046443 -17 24 C-14.36 24 -11.72 24 -9 24 C-9 21.36 -9 18.72 -9 16 C-6.36 16 -3.72 16 -1 16 C-0.34 14.35 0.32 12.7 1 11 C0.34 11 -0.32 11 -1 11 C-1 10.01 -1 9.02 -1 8 C-0.01 8 0.98 8 2 8 C1.34 5.36 0.68 2.72 0 0 Z " fill="#F70A92" transform="translate(217,184)"/>
<path d="M0 0 C1.6875 2.3125 1.6875 2.3125 3 5 C2.67 5.99 2.34 6.98 2 8 C-1.96 8 -5.92 8 -10 8 C-10 7.34 -10 6.68 -10 6 C-10.99 6.33 -11.98 6.66 -13 7 C-13.66 7 -14.32 7 -15 7 C-15.99 7.33 -16.98 7.66 -18 8 C-20.73865287 8.07051114 -23.45027588 8.09357765 -26.1875 8.0625 C-26.93708984 8.05798828 -27.68667969 8.05347656 -28.45898438 8.04882812 C-30.30602383 8.03706354 -32.15302213 8.01912865 -34 8 C-34 5.69 -34 3.38 -34 1 C-32.5459375 1.24169922 -32.5459375 1.24169922 -31.0625 1.48828125 C-26.70333701 2.10772971 -22.39727477 2.18381101 -18 2.1875 C-16.84757812 2.20586914 -16.84757812 2.20586914 -15.671875 2.22460938 C-10.22231371 2.23851132 -5.21652505 0 0 0 Z " fill="#F96808" transform="translate(130,152)"/>
<path d="M0 0 C2.31 0 4.62 0 7 0 C7.33 2.64 7.66 5.28 8 8 C10.31 8 12.62 8 15 8 C15.33 10.64 15.66 13.28 16 16 C17.918125 15.9690625 17.918125 15.9690625 19.875 15.9375 C23.75 15.875 23.75 15.875 26 17 C27.67654729 16.72057545 29.34608154 16.39171753 31 16 C32.125 19.75 32.125 19.75 31 22 C32.32 22.33 33.64 22.66 35 23 C28.97640537 24.97135824 23.53084398 22.17218037 18.03125 19.625 C9.99950501 15.31932227 4.7027952 9.97709236 -1 3 C-0.67 2.01 -0.34 1.02 0 0 Z " fill="#FABA07" transform="translate(9,200)"/>
<path d="M0 0 C2.64 0 5.28 0 8 0 C8 10 8 10 6.9375 13.25 C5.8992647 17.40294121 6.30115935 19.8069561 7 24 C7.3963964 34.20720721 7.3963964 34.20720721 6 37 C5.88273341 38.38817673 5.82318594 39.78148714 5.79467773 41.17431641 C5.77473251 42.03505768 5.75478729 42.89579895 5.73423767 43.78262329 C5.71752518 44.71287323 5.70081268 45.64312317 5.68359375 46.6015625 C5.66281265 47.55316254 5.64203156 48.50476257 5.62062073 49.48519897 C5.55511867 52.53172432 5.4962372 55.57833743 5.4375 58.625 C5.39431541 60.68750916 5.35070114 62.75000937 5.30664062 64.8125 C5.1994366 69.87490954 5.09817098 74.93740755 5 80 C4.67 80 4.34 80 4 80 C3.99413376 79.22707108 3.98826752 78.45414215 3.98222351 77.65779114 C3.92394641 70.31827651 3.85167492 62.97908792 3.76428509 55.63986683 C3.71985106 51.8680879 3.68053856 48.0964103 3.65356445 44.32446289 C3.62725848 40.67377802 3.58667203 37.02348901 3.53681374 33.3730526 C3.52032701 31.99109569 3.50870095 30.60907062 3.50238609 29.2270298 C3.46113119 21.0162998 2.7437212 13.55034949 0.63825989 5.59989929 C0 3 0 3 0 0 Z " fill="#FB1D83" transform="translate(192,56)"/>
<path d="M0 0 C1.51953125 1.33203125 1.51953125 1.33203125 3 3 C2.6875 5.6875 2.6875 5.6875 2 8 C3.32 8 4.64 8 6 8 C7.09487394 11.28462183 7.0664694 13.67689993 7 17.125 C6.96243697 19.08297305 6.95324716 21.04222483 7 23 C7.33 23.33 7.66 23.66 8 24 C8.12514928 25.97619447 8.1757276 27.95738173 8.1875 29.9375 C8.20167969 31.01902344 8.21585938 32.10054687 8.23046875 33.21484375 C8 36 8 36 6 38 C-0.39020654 26.36517016 -0.46465433 12.94148362 0 0 Z " fill="#FC6303" transform="translate(0,160)"/>
<path d="M0 0 C1 1 1 1 1.0625 3.5625 C1.041875 4.366875 1.02125 5.17125 1 6 C-3.59016699 7.53005566 -6.33795805 8.04210349 -11 7 C-13.101678 6.78640412 -15.2062183 6.59952167 -17.3125 6.4375 C-18.38113281 6.35371094 -19.44976562 6.26992187 -20.55078125 6.18359375 C-21.35902344 6.12300781 -22.16726562 6.06242188 -23 6 C-23 5.34 -23 4.68 -23 4 C-23.969375 4.33 -24.93875 4.66 -25.9375 5 C-30.29766837 6.26873752 -34.49554566 6.18385528 -39 6 C-39 5.01 -39 4.02 -39 3 C-37.98800537 2.970271 -37.98800537 2.970271 -36.95556641 2.93994141 C-33.84504139 2.8436189 -30.73509211 2.7343819 -27.625 2.625 C-26.03365234 2.57859375 -26.03365234 2.57859375 -24.41015625 2.53125 C-18.51640562 2.31430212 -12.97512341 1.78248729 -7.23193359 0.41552734 C-4.76244123 -0.0442272 -2.50652771 -0.13474801 0 0 Z " fill="#FC6F0B" transform="translate(167,193)"/>
<path d="M0 0 C0.99 0 1.98 0 3 0 C3.05422947 1.4370809 3.09289723 2.87475462 3.125 4.3125 C3.14820313 5.11300781 3.17140625 5.91351563 3.1953125 6.73828125 C3 9 3 9 1 12 C-2.125 12.1875 -2.125 12.1875 -5 12 C-5 14.31 -5 16.62 -5 19 C-9.90605299 20.66805802 -12.95981537 20.89603282 -18 20 C-20.31980946 20.82342532 -20.31980946 20.82342532 -22 22 C-22.66 21.34 -23.32 20.68 -24 20 C-23.21496094 19.63648438 -22.42992187 19.27296875 -21.62109375 18.8984375 C-12.41542219 14.49326951 -5.99391765 10.6646198 -1.140625 1.5390625 C-0.76421875 1.03117188 -0.3878125 0.52328125 0 0 Z " fill="#F71464" transform="translate(189,172)"/>
<path d="M0 0 C4.06033336 0.43503572 7.76216354 0.93604398 11.71875 2 C16.13920756 3.13400627 20.45334447 3.43588435 25 3.625 C25.77472656 3.66367188 26.54945312 3.70234375 27.34765625 3.7421875 C29.23143415 3.83521357 31.11568256 3.91863175 33 4 C32.67 4.99 32.34 5.98 32 7 C27.41701735 7.19683437 22.83360802 7.38085996 18.25 7.5625 C16.94804688 7.61857422 15.64609375 7.67464844 14.3046875 7.73242188 C12.42910156 7.80493164 12.42910156 7.80493164 10.515625 7.87890625 C9.36352539 7.9260376 8.21142578 7.97316895 7.02441406 8.02172852 C4.43687478 8.00313867 2.44649046 7.77962196 0 7 C0.66 6.01 1.32 5.02 2 4 C2 3.34 2 2.68 2 2 C1.34 2 0.68 2 0 2 C0 1.34 0 0.68 0 0 Z " fill="#FCB509" transform="translate(56,192)"/>
<path d="M0 0 C2.64 0 5.28 0 8 0 C8.33 2.64 8.66 5.28 9 8 C10.98 8 12.96 8 15 8 C15.1953125 10.05078125 15.390625 12.1015625 15.5859375 14.15234375 C15.72257812 14.76207031 15.85921875 15.37179688 16 16 C16.66 16.33 17.32 16.66 18 17 C16 18 16 18 12.8125 17 C7.20882443 14.45607197 2.27796214 9.76713342 0 4 C0 2.68 0 1.36 0 0 Z " fill="#FA8805" transform="translate(48,160)"/>
<path d="M0 0 C3.24992446 -0.05819424 6.49971435 -0.09366116 9.75 -0.125 C10.67039063 -0.14175781 11.59078125 -0.15851562 12.5390625 -0.17578125 C13.42851562 -0.18222656 14.31796875 -0.18867187 15.234375 -0.1953125 C16.05131836 -0.20578613 16.86826172 -0.21625977 17.70996094 -0.22705078 C20.21887518 0.02170084 21.83395625 0.74299871 24 2 C23.01 2.495 23.01 2.495 22 3 C22.66 3.33 23.32 3.66 24 4 C24 4.66 24 5.32 24 6 C24.66 6.33 25.32 6.66 26 7 C23.32468724 7.68793757 21.41208786 8.08910008 18.6875 7.5 C14.93092078 6.80110154 11.77155581 7.42467793 8 8 C8 6.02 8 4.04 8 2 C6.35 2 4.7 2 3 2 C3 2.66 3 3.32 3 4 C2.01 3.67 1.02 3.34 0 3 C0 2.01 0 1.02 0 0 Z " fill="#FA18DB" transform="translate(160,0)"/>
<path d="M0 0 C3.33009618 0.3032662 4.73855368 0.74653319 7.17578125 3.109375 C7.88089844 3.98078125 8.58601563 4.8521875 9.3125 5.75 C13.19645264 10.29865595 16.76824076 13.14631314 22 16 C19.00519083 16.8723412 16.36424089 17.10829766 13.25 17.0625 C12.45078125 17.05347656 11.6515625 17.04445312 10.828125 17.03515625 C10.22484375 17.02355469 9.6215625 17.01195312 9 17 C8.814375 15.8553125 8.814375 15.8553125 8.625 14.6875 C8.11897208 11.79732864 8.11897208 11.79732864 6 9 C2.91634129 8.7497843 2.91634129 8.7497843 0 9 C0 6.03 0 3.06 0 0 Z " fill="#F86113" transform="translate(72,135)"/>
<path d="M0 0 C1.32 0.66 2.64 1.32 4 2 C3.85691406 2.88751953 3.85691406 2.88751953 3.7109375 3.79296875 C3.05845515 8.44380225 2.65462721 11.72314374 5 16 C4.195625 16.268125 3.39125 16.53625 2.5625 16.8125 C1.716875 17.204375 0.87125 17.59625 0 18 C-0.33 18.99 -0.66 19.98 -1 21 C-1.99 21.33 -2.98 21.66 -4 22 C-6.04296875 20.78515625 -6.04296875 20.78515625 -8.1875 19.0625 C-8.90292969 18.49660156 -9.61835938 17.93070313 -10.35546875 17.34765625 C-10.89816406 16.90292969 -11.44085938 16.45820312 -12 16 C-11.67 15.01 -11.34 14.02 -11 13 C-9.906875 13.020625 -8.81375 13.04125 -7.6875 13.0625 C-4.05615809 13.18544452 -4.05615809 13.18544452 -1 12 C-1.01160156 11.30132812 -1.02320313 10.60265625 -1.03515625 9.8828125 C-1.04417969 8.97273438 -1.05320313 8.06265625 -1.0625 7.125 C-1.07410156 6.22007813 -1.08570313 5.31515625 -1.09765625 4.3828125 C-1 2 -1 2 0 0 Z " fill="#F80DAD" transform="translate(145,59)"/>
<path d="M0 0 C0 0.66 0 1.32 0 2 C0.86882812 1.84402344 1.73765625 1.68804687 2.6328125 1.52734375 C3.78523438 1.33269531 4.93765625 1.13804687 6.125 0.9375 C7.26195312 0.74027344 8.39890625 0.54304687 9.5703125 0.33984375 C12.9753892 0.00243866 15.67178131 0.27669412 19 1 C19 1.66 19 2.32 19 3 C4.70012517 5.45265847 -9.5327274 5.20640314 -24 5 C-24 4.67 -24 4.34 -24 4 C-17.565 3.505 -17.565 3.505 -11 3 C-11.66 2.34 -12.32 1.68 -13 1 C-8.60563789 0.14256349 -4.47427924 -0.08948558 0 0 Z " fill="#FB8710" transform="translate(141,176)"/>
<path d="M0 0 C1.65 0 3.3 0 5 0 C5.66 1.32 6.32 2.64 7 4 C7.53625 3.34 8.0725 2.68 8.625 2 C11 0 11 0 13.9375 -0.3125 C16.68659608 -0.03197999 19.3113594 0.36737868 22 1 C21.67 1.99 21.34 2.98 21 4 C14.22337258 6.97534743 7.37445212 8.5783884 0 8 C0 5.36 0 2.72 0 0 Z " fill="#F83B25" transform="translate(176,216)"/>
<path d="M0 0 C4.11956292 0.14414677 6.22414268 1.44873791 9.125 4.4375 C10.72586627 7.63923254 10.62417089 10.96327059 10.125 14.4375 C8.33136089 17.2475346 7.10619065 18.94690468 4.125 20.4375 C1.7920134 20.47772391 -0.54206666 20.48070247 -2.875 20.4375 C-2.875 20.1075 -2.875 19.7775 -2.875 19.4375 C-0.895 19.4375 1.085 19.4375 3.125 19.4375 C4.25980527 15.82756828 4.22515767 12.4532673 4.1875 8.6875 C4.17847656 7.51703125 4.16945312 6.3465625 4.16015625 5.140625 C4.14275391 3.80257812 4.14275391 3.80257812 4.125 2.4375 C0.495 2.7675 -3.135 3.0975 -6.875 3.4375 C-3.875 0.4375 -3.875 0.4375 0 0 Z " fill="#FAF3F8" transform="translate(156.875,57.5625)"/>
<path d="M0 0 C0.33 0 0.66 0 1 0 C1 11.88 1 23.76 1 36 C0.01 36.495 0.01 36.495 -1 37 C-2.13350534 39.01669827 -2.13350534 39.01669827 -3 41 C-3.74991986 36.01591727 -4.11443608 31.54573694 -3.32421875 26.52734375 C-2.85405066 22.86229855 -2.6558581 19.18751237 -2.4375 15.5 C-2.39383301 14.76837646 -2.35016602 14.03675293 -2.30517578 13.28295898 C-2.20146042 11.52208874 -2.10044879 9.7610596 -2 8 C-1.34 8 -0.68 8 0 8 C0 5.36 0 2.72 0 0 Z " fill="#FA1761" transform="translate(28,96)"/>
<path d="M0 0 C1.16337891 0.00966797 2.32675781 0.01933594 3.52539062 0.02929688 C4.74033203 0.05443359 5.95527344 0.07957031 7.20703125 0.10546875 C8.43357422 0.11900391 9.66011719 0.13253906 10.92382812 0.14648438 C13.95616789 0.18188134 16.98763121 0.23126115 20.01953125 0.29296875 C20.01953125 0.62296875 20.01953125 0.95296875 20.01953125 1.29296875 C18.88515625 1.58171875 17.75078125 1.87046875 16.58203125 2.16796875 C15.40640625 2.53921875 14.23078125 2.91046875 13.01953125 3.29296875 C12.68953125 3.95296875 12.35953125 4.61296875 12.01953125 5.29296875 C10.69953125 5.29296875 9.37953125 5.29296875 8.01953125 5.29296875 C8.01953125 5.95296875 8.01953125 6.61296875 8.01953125 7.29296875 C-0.55189732 7.57868304 -0.55189732 7.57868304 -3.98046875 5.29296875 C-3.98046875 4.63296875 -3.98046875 3.97296875 -3.98046875 3.29296875 C-5.63046875 3.29296875 -7.28046875 3.29296875 -8.98046875 3.29296875 C-6.35613804 -0.15967879 -4.19378209 -0.06137242 0 0 Z " fill="#9712F6" transform="translate(51.98046875,-0.29296875)"/>
<path d="M0 0 C1.53401848 1.58438924 2.82403514 3.30095473 4.17578125 5.04296875 C7.48162861 8.58949879 11.76782686 10.71663386 16 13 C13.07175348 13.97608217 11.04386724 14.08226668 8 14 C7.67 13.34 7.34 12.68 7 12 C5.02 12.66 3.04 13.32 1 14 C-0.231394 10.30581799 0.35567236 7.7943739 1 4 C-1.97 4.66 -4.94 5.32 -8 6 C-7.625 3.5625 -7.625 3.5625 -7 1 C-4.26760135 -0.36619933 -3.04371875 -0.55340341 0 0 Z " fill="#FA9C09" transform="translate(40,178)"/>
<path d="M0 0 C0.66 0 1.32 0 2 0 C2 0.99 2 1.98 2 3 C2.66 3 3.32 3 4 3 C4 2.01 4 1.02 4 0 C4.99 0.33 5.98 0.66 7 1 C7 2.32 7 3.64 7 5 C7.01160156 6.05832031 7.02320313 7.11664063 7.03515625 8.20703125 C7.13314448 21.12747875 7.13314448 21.12747875 6 26 C5.34 26.33 4.68 26.66 4 27 C3.32936905 23.06316446 2.66417499 19.12542943 2 15.1875 C1.80921875 14.06794922 1.6184375 12.94839844 1.421875 11.79492188 C1.24140625 10.72177734 1.0609375 9.64863281 0.875 8.54296875 C0.70742187 7.55321045 0.53984375 6.56345215 0.3671875 5.54370117 C0 3 0 3 0 0 Z " fill="#FC057E" transform="translate(153,96)"/>
<path d="M0 0 C4.79891057 1.41785994 8.44003072 2.69718821 11.3125 6.9375 C12.12563748 9.37691245 11.8531488 10.61118335 11 13 C8.03 12.505 8.03 12.505 5 12 C5 11.34 5 10.68 5 10 C3.35 10 1.7 10 0 10 C0 6.7 0 3.4 0 0 Z " fill="#F906AE" transform="translate(160,47)"/>
<path d="M0 0 C4 4.75 4 4.75 4 7 C1.36 7.33 -1.28 7.66 -4 8 C-4 10.31 -4 12.62 -4 15 C-5.45792884 15.05399736 -6.91642712 15.09279177 -8.375 15.125 C-9.18710938 15.14820313 -9.99921875 15.17140625 -10.8359375 15.1953125 C-13 15 -13 15 -15 13 C-14.50371094 12.64808594 -14.00742188 12.29617187 -13.49609375 11.93359375 C-8.54355036 8.334307 -4.20711632 4.44376661 0 0 Z " fill="#F91251" transform="translate(148,137)"/>
<path d="M0 0 C6.79298516 5.82255871 8.67106162 13.46681672 10 22 C7.61435923 21.42415568 5.33317216 20.77772405 3 20 C3.020625 19.195625 3.04125 18.39125 3.0625 17.5625 C3.29633621 15.06645115 3.29633621 15.06645115 2 14 C1.92794489 12.31391034 1.91613932 10.62499341 1.9375 8.9375 C1.94652344 8.01839844 1.95554688 7.09929688 1.96484375 6.15234375 C1.97644531 5.44207031 1.98804688 4.73179688 2 4 C0.35 4 -1.3 4 -3 4 C-2.67 3.34 -2.34 2.68 -2 2 C-1.34 2 -0.68 2 0 2 C0 1.34 0 0.68 0 0 Z " fill="#F709B3" transform="translate(214,20)"/>
<path d="M0 0 C0.99 0.33 1.98 0.66 3 1 C3.22556502 5.10341114 3.42750038 9.20764988 3.625 13.3125 C3.68945312 14.47974609 3.75390625 15.64699219 3.8203125 16.84960938 C3.871875 17.96787109 3.9234375 19.08613281 3.9765625 20.23828125 C4.02893066 21.26993408 4.08129883 22.30158691 4.13525391 23.36450195 C4 26 4 26 2 29 C1.34 29 0.68 29 0 29 C-1.24521784 21.52869294 -1.14313818 14.54818832 -0.22265625 7.0546875 C0.0332884 4.69281228 0.07657185 2.37372721 0 0 Z " fill="#FB5107" transform="translate(26,131)"/>
<path d="M0 0 C0.33 0.66 0.66 1.32 1 2 C3.32156597 2.40729228 5.6568787 2.74438677 8 3 C8 2.34 8 1.68 8 1 C16.91860465 -0.36046512 16.91860465 -0.36046512 21 1 C21.33 1.66 21.66 2.32 22 3 C22.66 3 23.32 3 24 3 C24 3.66 24 4.32 24 5 C0.78640777 5.26213592 0.78640777 5.26213592 -6 3 C-6 2.34 -6 1.68 -6 1 C-4 0 -4 0 0 0 Z " fill="#FCA216" transform="translate(72,176)"/>
<path d="M0 0 C1.485 0.99 1.485 0.99 3 2 C3.40843923 4.71203652 3.13336867 7.2437142 3 10 C4.65 10 6.3 10 8 10 C8 12.64 8 15.28 8 18 C7.34 17.01 6.68 16.02 6 15 C5.2884375 15.99 5.2884375 15.99 4.5625 17 C4.046875 17.66 3.53125 18.32 3 19 C2.67 19 2.34 19 2 19 C1.67 21.64 1.34 24.28 1 27 C0.67 27 0.34 27 0 27 C0 18.09 0 9.18 0 0 Z " fill="#EE14E0" transform="translate(0,46)"/>
<path d="M0 0 C0.66 0 1.32 0 2 0 C1.38024215 3.355762 0.15537152 5.52263528 -1.875 8.25 C-2.38804688 8.95640625 -2.90109375 9.6628125 -3.4296875 10.390625 C-3.94789062 10.92171875 -4.46609375 11.4528125 -5 12 C-5.99 12 -6.98 12 -8 12 C-8 12.66 -8 13.32 -8 14 C-8.66 14 -9.32 14 -10 14 C-10 9.71 -10 5.42 -10 1 C-8.35 1 -6.7 1 -5 1 C-4.67 1.66 -4.34 2.32 -4 3 C-2.68 2.34 -1.36 1.68 0 1 C0 0.67 0 0.34 0 0 Z " fill="#DE06E2" transform="translate(42,39)"/>
<path d="M0 0 C-0.63913067 5.43261068 -3.0586807 9.38223392 -7.25 12.875 C-8.11625 13.431875 -8.11625 13.431875 -9 14 C-10.9078584 10.8250906 -11.1609041 8.89414789 -10.625 5.25 C-10.51414063 4.45078125 -10.40328125 3.6515625 -10.2890625 2.828125 C-10.19367188 2.22484375 -10.09828125 1.6215625 -10 1 C-8.8553125 1.309375 -8.8553125 1.309375 -7.6875 1.625 C-4.17504101 2.11511056 -3.32502623 0 0 0 Z " fill="#FA0F43" transform="translate(178,159)"/>
<path d="M0 0 C0.33 0 0.66 0 1 0 C1.16852247 1.60397277 1.33474886 3.2081869 1.5 4.8125 C1.5928125 5.70582031 1.685625 6.59914063 1.78125 7.51953125 C2 10 2 10 2 13 C2.66 13.33 3.32 13.66 4 14 C4.02703381 15.93742341 4.04641125 17.87495479 4.0625 19.8125 C4.07410156 20.89144531 4.08570313 21.97039062 4.09765625 23.08203125 C4 26 4 26 3 29 C3.09406754 31.29453495 3.09406754 31.29453495 3.4375 33.6875 C3.53933594 34.49574219 3.64117187 35.30398437 3.74609375 36.13671875 C3.82988281 36.75160156 3.91367187 37.36648437 4 38 C3.34 38 2.68 38 2 38 C-0.49057093 25.36924742 -0.20534438 12.81664856 0 0 Z " fill="#FB3C13" transform="translate(44,120)"/>
<path d="M0 0 C2.31 0 4.62 0 7 0 C7.33 2.64 7.66 5.28 8 8 C10.31 8 12.62 8 15 8 C15 9.98 15 11.96 15 14 C8.64146596 11.97683008 4.15172572 9.87365189 -0.13671875 4.68359375 C-0.42160156 4.12800781 -0.70648438 3.57242188 -1 3 C-0.67 2.01 -0.34 1.02 0 0 Z " fill="#F9930E" transform="translate(9,200)"/>
<path d="M0 0 C0.33 0 0.66 0 1 0 C1.02934711 3.49998201 1.04691445 6.99993179 1.0625 10.5 C1.07087891 11.48226562 1.07925781 12.46453125 1.08789062 13.4765625 C1.10659124 19.08674757 0.838879 24.45150899 0 30 C-0.99 30 -1.98 30 -3 30 C-3 22.74 -3 15.48 -3 8 C-2.67 8.99 -2.34 9.98 -2 11 C-1.34 11 -0.68 11 0 11 C0 7.37 0 3.74 0 0 Z " fill="#FA049D" transform="translate(28,74)"/>
<path d="M0 0 C2.64 0 5.28 0 8 0 C8 5.48528163 7.96120386 10.59322829 7 16 C6.67 15.34 6.34 14.68 6 14 C5.34 14 4.68 14 4 14 C3.32739649 12.23141309 2.66211605 10.46003984 2 8.6875 C1.62875 7.70136719 1.2575 6.71523438 0.875 5.69921875 C0 3 0 3 0 0 Z " fill="#FA0495" transform="translate(192,56)"/>
<path d="M0 0 C0.33 0 0.66 0 1 0 C1.0498757 4.94383313 1.08594211 9.88751599 1.10986328 14.83154297 C1.11984803 16.50930334 1.13344057 18.18704664 1.15087891 19.86474609 C1.24171508 28.83615457 1.26370832 37.24818279 -1 46 C-3.45706557 43.82818742 -3.96315081 43.36112209 -4.3125 39.9375 C-4 37 -4 37 -2 35 C-0.83336484 27.52889934 -0.6923096 19.98571212 -0.4375 12.4375 C-0.39431641 11.23802734 -0.35113281 10.03855469 -0.30664062 8.80273438 C-0.20143198 5.86858207 -0.09929117 2.9343575 0 0 Z " fill="#F91470" transform="translate(180,112)"/>
<path d="M0 0 C1.485 0.99 1.485 0.99 3 2 C3.25273054 4.6296011 3.32810743 7.00248401 3.25 9.625 C3.23904297 10.346875 3.22808594 11.06875 3.21679688 11.8125 C3.11743016 16.59938346 2.7879035 21.27257901 2 26 C1.01 25.67 0.02 25.34 -1 25 C-1.10094304 16.58807963 -1.10102642 8.35600408 0 0 Z " fill="#FB018B" transform="translate(177,78)"/>
<path d="M0 0 C0.33 0 0.66 0 1 0 C1.144375 1.134375 1.28875 2.26875 1.4375 3.4375 C1.61171478 6.80777201 1.61171478 6.80777201 3 8 C3.12514928 9.97619447 3.1757276 11.95738173 3.1875 13.9375 C3.20167969 15.01902344 3.21585938 16.10054687 3.23046875 17.21484375 C3 20 3 20 1 22 C-1.63754853 17.20445722 -4.67968596 11.36327362 -3.546875 5.7578125 C-3.36640625 5.17773438 -3.1859375 4.59765625 -3 4 C-2.34 4.66 -1.68 5.32 -1 6 C-0.67 4.02 -0.34 2.04 0 0 Z " fill="#F8710A" transform="translate(5,176)"/>
<path d="M0 0 C0.99 0.66 1.98 1.32 3 2 C1.61211198 3.30020011 0.21430742 4.5898193 -1.1875 5.875 C-1.96480469 6.59429687 -2.74210938 7.31359375 -3.54296875 8.0546875 C-6 10 -6 10 -11 12 C-10.34 8.37 -9.68 4.74 -9 1 C-7.700625 1.020625 -6.40125 1.04125 -5.0625 1.0625 C-3.70834367 1.08399454 -2.35243917 1.07148199 -1 1 C-0.67 0.67 -0.34 0.34 0 0 Z " fill="#F90C6C" transform="translate(209,207)"/>
<path d="M0 0 C0.33 0 0.66 0 1 0 C1.11608726 3.27053517 1.18720711 6.5405418 1.25 9.8125 C1.30027344 11.2056543 1.30027344 11.2056543 1.3515625 12.62695312 C1.36445313 13.51962891 1.37734375 14.41230469 1.390625 15.33203125 C1.41157227 16.15421143 1.43251953 16.9763916 1.45410156 17.82348633 C1 20 1 20 -0.89941406 21.79174805 C-3 23 -3 23 -5 23 C-4.67 24.32 -4.34 25.64 -4 27 C-5.65 27.33 -7.3 27.66 -9 28 C-8.60167969 27.23558594 -8.20335937 26.47117188 -7.79296875 25.68359375 C-3.57001474 17.14521229 -1.47944829 9.38281677 0 0 Z " fill="#FCE5F4" transform="translate(224,177)"/>
<path d="M0 0 C1.6875 2.3125 1.6875 2.3125 3 5 C2.67 5.99 2.34 6.98 2 8 C-1.96 8 -5.92 8 -10 8 C-10 7.34 -10 6.68 -10 6 C-10.99 6.33 -11.98 6.66 -13 7 C-13 6.34 -13 5.68 -13 5 C-11.865625 4.71125 -10.73125 4.4225 -9.5625 4.125 C-8.386875 3.75375 -7.21125 3.3825 -6 3 C-5.67 2.34 -5.34 1.68 -5 1 C-2 0 -2 0 0 0 Z " fill="#FB5215" transform="translate(130,152)"/>
<path d="M0 0 C1.67299959 0.65061095 3.33859237 1.32033324 5 2 C5.70125 2.20625 6.4025 2.4125 7.125 2.625 C10.25551407 4.92071032 11.08164196 8.32656783 12 12 C12.1875 15.5 12.1875 15.5 12 18 C11.34 18 10.68 18 10 18 C9.67 15.36 9.34 12.72 9 10 C8.01 9.67 7.02 9.34 6 9 C6 8.01 6 7.02 6 6 C4.35 6.66 2.7 7.32 1 8 C0.67 5.36 0.34 2.72 0 0 Z " fill="#F90B86" transform="translate(128,94)"/>
<path d="M0 0 C1.89213369 2.38573379 3.02391783 4.07175348 4 7 C-0.90605299 8.66805802 -3.95981537 8.89603282 -9 8 C-11.31980946 8.82342532 -11.31980946 8.82342532 -13 10 C-13.66 9.34 -14.32 8.68 -15 8 C-14.16855469 7.59007812 -13.33710938 7.18015625 -12.48046875 6.7578125 C-11.39378906 6.21898437 -10.30710938 5.68015625 -9.1875 5.125 C-8.10855469 4.59132812 -7.02960938 4.05765625 -5.91796875 3.5078125 C-2.92161735 2.02778861 -2.92161735 2.02778861 0 0 Z " fill="#F72439" transform="translate(180,184)"/>
<path d="M0 0 C0 1.32 0 2.64 0 4 C0.99 4 1.98 4 3 4 C3 5.32 3 6.64 3 8 C3.66 8 4.32 8 5 8 C5.33 8.66 5.66 9.32 6 10 C6.99 9.01 7.98 8.02 9 7 C10.16063604 11.25566547 9.76173392 14.6835078 9 19 C6.05848596 15.37967503 3.24995458 11.67506604 0.4609375 7.9375 C-1.31206484 5.5861386 -3.14304811 3.28547925 -5 1 C-2 0 -2 0 0 0 Z " fill="#F608A4" transform="translate(183,37)"/>
<path d="M0 0 C2.09528 0.44898857 3.78943247 0.87041998 5.625 2 C9.07532157 3.45276698 12.55862767 3.46847538 16.25 3.625 C16.99507812 3.66367187 17.74015625 3.70234375 18.5078125 3.7421875 C20.3381524 3.83605108 22.16904143 3.91909718 24 4 C24 4.33 24 4.66 24 5 C13.44 5 2.88 5 -8 5 C-8 4.01 -8 3.02 -8 2 C-2.25 1 -2.25 1 0 1 C0 0.67 0 0.34 0 0 Z " fill="#EE0FDB" transform="translate(104,24)"/>
<path d="M0 0 C9.24 0 18.48 0 28 0 C26.68 0.33 25.36 0.66 24 1 C24 1.66 24 2.32 24 3 C21.36 3 18.72 3 16 3 C16 2.34 16 1.68 16 1 C15.030625 1.33 14.06125 1.66 13.0625 2 C8.70233163 3.26873752 4.50445434 3.18385528 0 3 C0 2.01 0 1.02 0 0 Z " fill="#F98F08" transform="translate(128,196)"/>
<path d="M0 0 C0.99 0.33 1.98 0.66 3 1 C3.33 2.98 3.66 4.96 4 7 C1.69 7.33 -0.62 7.66 -3 8 C-3.433125 9.6396875 -3.433125 9.6396875 -3.875 11.3125 C-5 15 -5 15 -7 18 C-8.01228554 14.78760254 -8.14045262 13.34657762 -6.85546875 10.17578125 C-6.02982422 8.75845703 -6.02982422 8.75845703 -5.1875 7.3125 C-4.37345703 5.88357422 -4.37345703 5.88357422 -3.54296875 4.42578125 C-2 2 -2 2 0 0 Z " fill="#9312F1" transform="translate(12,17)"/>
<path d="M0 0 C0.66 0 1.32 0 2 0 C2 1.65 2 3.3 2 5 C4.64 5 7.28 5 10 5 C9.67 6.65 9.34 8.3 9 10 C7.68 10 6.36 10 5 10 C5 10.99 5 11.98 5 13 C2 12 2 12 0.8125 9.875 C-0.14531259 6.48581699 -0.13746202 3.50528139 0 0 Z " fill="#F8133D" transform="translate(86,115)"/>
<path d="M0 0 C2 2 2 2 2.1953125 3.9453125 C2.13020833 5.96354167 2.06510417 7.98177083 2 10 C2.99 10 3.98 10 5 10 C4.67 12.64 4.34 15.28 4 18 C2.68 18 1.36 18 0 18 C-2.09350689 14.5980513 -2.17942163 11.94727588 -2 8 C-1.01 7.67 -0.02 7.34 1 7 C0.67 4.69 0.34 2.38 0 0 Z " fill="#D604E6" transform="translate(3,38)"/>
<path d="M0 0 C1.13998793 3.65277824 0.57532188 5.95290355 -0.453125 9.62890625 C-1.46566287 14.01898115 -1.68666203 18.51431963 -2 23 C-2.33 23 -2.66 23 -3 23 C-3.33 20.36 -3.66 17.72 -4 15 C-4.66 15.99 -5.32 16.98 -6 18 C-5.85764543 16.27054347 -5.71095618 14.54144346 -5.5625 12.8125 C-5.48128906 11.84957031 -5.40007813 10.88664062 -5.31640625 9.89453125 C-5.02333849 7.21350398 -4.57296246 4.6337014 -4 2 C-3.34 3.32 -2.68 4.64 -2 6 C-1.34 4.02 -0.68 2.04 0 0 Z " fill="#F903C5" transform="translate(30,62)"/>
<path d="M0 0 C6.6 0 13.2 0 20 0 C20.33 0.99 20.66 1.98 21 3 C20.01 3.495 20.01 3.495 19 4 C19 4.66 19 5.32 19 6 C18.38253906 5.80664062 17.76507813 5.61328125 17.12890625 5.4140625 C11.45651132 3.67003849 5.80806965 2.21782106 0 1 C0 0.67 0 0.34 0 0 Z " fill="#FAEEF9" transform="translate(180,0)"/>
<path d="M0 0 C2.97 0 5.94 0 9 0 C7.87548273 2.9719385 6.77706209 5.33440687 5 8 C3.35 7.67 1.7 7.34 0 7 C0 4.69 0 2.38 0 0 Z " fill="#F70A81" transform="translate(208,200)"/>
<path d="M0 0 C1.67649313 3.2516169 3.13901153 6.56786908 4.5625 9.9375 C4.99691406 10.95714844 5.43132813 11.97679687 5.87890625 13.02734375 C6.88793715 15.70285775 7.53867978 18.18542833 8 21 C6.02 21 4.04 21 2 21 C2.02320313 20.32453125 2.04640625 19.6490625 2.0703125 18.953125 C2.09738281 17.61507812 2.09738281 17.61507812 2.125 16.25 C2.15980469 14.92742187 2.15980469 14.92742187 2.1953125 13.578125 C1.98847415 10.84785874 1.25417341 9.39076806 0 7 C-0.0777346 4.66796188 -0.08967728 2.33160941 0 0 Z " fill="#F97A17" transform="translate(30,158)"/>
<path d="M0 0 C0.33 0 0.66 0 1 0 C1 2.31 1 4.62 1 7 C-0.11375 7.103125 -1.2275 7.20625 -2.375 7.3125 C-3.57125 7.539375 -4.7675 7.76625 -6 8 C-6.99 9.485 -6.99 9.485 -8 11 C-8.66 11 -9.32 11 -10 11 C-9.01 8.03 -8.02 5.06 -7 2 C-4.66666667 2 -2.33333333 2 0 2 C0 1.34 0 0.68 0 0 Z " fill="#F91271" transform="translate(95,97)"/>
<path d="M0 0 C0.66 0 1.32 0 2 0 C2.33 0.99 2.66 1.98 3 3 C3 2.01 3 1.02 3 0 C3.66 0.33 4.32 0.66 5 1 C4.85930804 3.12534659 4.71229079 5.25027529 4.5625 7.375 C4.48128906 8.55835937 4.40007813 9.74171875 4.31640625 10.9609375 C4 14 4 14 3 16 C2.34 16 1.68 16 1 16 C0.67 10.72 0.34 5.44 0 0 Z " fill="#FC113A" transform="translate(44,112)"/>
<path d="M0 0 C3.53677664 -0.32152515 5.3962104 -0.4131192 8.375 1.625 C10.4131192 4.6037896 10.32152515 6.46322336 10 10 C6.63820226 8.55922954 4.40843732 6.75249979 2 4 C2 3.34 2 2.68 2 2 C1.34 2 0.68 2 0 2 C0 1.34 0 0.68 0 0 Z " fill="#FBF4E9" transform="translate(38,176)"/>
<path d="M0 0 C0.99 0.99 1.98 1.98 3 3 C0.9785845 7.57478244 -1.31993178 10.61831569 -5 14 C-5.66 13.67 -6.32 13.34 -7 13 C-7.625 10.4375 -7.625 10.4375 -8 8 C-4.535 7.505 -4.535 7.505 -1 7 C-1.20625 6.401875 -1.4125 5.80375 -1.625 5.1875 C-2 3 -2 3 0 0 Z " fill="#F8F1F4" transform="translate(187,168)"/>
<path d="M0 0 C1.32 0.66 2.64 1.32 4 2 C3.67 2.66 3.34 3.32 3 4 C3.33 4.99 3.66 5.98 4 7 C2.00045254 7.04254356 -0.00041636 7.04080783 -2 7 C-2.33 6.67 -2.66 6.34 -3 6 C-3.66 7.65 -4.32 9.3 -5 11 C-5.99 10.01 -6.98 9.02 -8 8 C-5.52260398 3.16907776 -5.52260398 3.16907776 -2.875 2.3125 C-2.25625 2.209375 -1.6375 2.10625 -1 2 C-0.67 1.34 -0.34 0.68 0 0 Z " fill="#FC075F" transform="translate(156,129)"/>
<path d="M0 0 C3.48990809 3.48990809 3.43262017 4.44673513 3.6875 9.1875 C3.78611328 10.81751953 3.78611328 10.81751953 3.88671875 12.48046875 C3.94279297 13.72763672 3.94279297 13.72763672 4 15 C2.125 15.625 2.125 15.625 0 16 C-2 14 -2 14 -2.125 10.875 C-2.08375 9.92625 -2.0425 8.9775 -2 8 C-1.01 8.33 -0.02 8.66 1 9 C0.67 6.03 0.34 3.06 0 0 Z " fill="#FD0A52" transform="translate(66,104)"/>
<path d="M0 0 C1.65 0 3.3 0 5 0 C5.5534764 2.07553648 6 3.84365964 6 6 C6.66 6 7.32 6 8 6 C8 6.66 8 7.32 8 8 C5.36 8 2.72 8 0 8 C0 5.36 0 2.72 0 0 Z " fill="#FD5E12" transform="translate(176,216)"/>
<path d="M0 0 C0.99 0 1.98 0 3 0 C3.33 3.96 3.66 7.92 4 12 C3.01 12.495 3.01 12.495 2 13 C0.86649466 15.01669827 0.86649466 15.01669827 0 17 C-0.89316269 11.06390334 -0.97040422 5.93024803 0 0 Z " fill="#FB232A" transform="translate(25,120)"/>
<path d="M0 0 C4.62 0.66 9.24 1.32 14 2 C14 1.34 14 0.68 14 0 C14.99 0 15.98 0 17 0 C17 1.32 17 2.64 17 4 C19.475 4.495 19.475 4.495 22 5 C22 5.66 22 6.32 22 7 C22.66 7 23.32 7 24 7 C23.67 7.66 23.34 8.32 23 9 C22.24976563 8.66226563 21.49953125 8.32453125 20.7265625 7.9765625 C14.78902178 5.3891707 9.28467326 3.38900362 2.86328125 2.45703125 C2.24839844 2.30621094 1.63351563 2.15539062 1 2 C0.67 1.34 0.34 0.68 0 0 Z " fill="#F916C2" transform="translate(151,28)"/>
<path d="M0 0 C0.33 0 0.66 0 1 0 C1.66 5.94 2.32 11.88 3 18 C2.34 18 1.68 18 1 18 C0.7525 18.804375 0.505 19.60875 0.25 20.4375 C-1 23 -1 23 -3.125 23.8125 C-3.74375 23.874375 -4.3625 23.93625 -5 24 C-5 23.34 -5 22.68 -5 22 C-4.34 22 -3.68 22 -3 22 C-3 21.34 -3 20.68 -3 20 C-2.34 20 -1.68 20 -1 20 C-1 18.68 -1 17.36 -1 16 C-0.34 16 0.32 16 1 16 C0.01 12.7 -0.98 9.4 -2 6 C-1.34 6 -0.68 6 0 6 C0 4.02 0 2.04 0 0 Z " fill="#FCF3EC" transform="translate(44,144)"/>
<path d="M0 0 C2.1519437 3.22791555 2.20086443 4.28400809 2 8 C-2.75 9 -2.75 9 -5 9 C-4.67 6.36 -4.34 3.72 -4 1 C-2.68 0.67 -1.36 0.34 0 0 Z " fill="#FA1C2C" transform="translate(69,119)"/>
<path d="M0 0 C0.33 0.66 0.66 1.32 1 2 C0.525625 2.5775 0.05125 3.155 -0.4375 3.75 C-2.1093075 5.8298266 -2.1093075 5.8298266 -2.375 8 C-3.32217206 11.0309506 -5.48960263 12.19766343 -8 14 C-8.99 13.34 -9.98 12.68 -11 12 C-3.70159453 3.55353075 -3.70159453 3.55353075 0 0 Z " fill="#FAEBF7" transform="translate(87,77)"/>
<path d="M0 0 C2.64 0 5.28 0 8 0 C8 2.64 8 5.28 8 8 C7.21625 7.67 6.4325 7.34 5.625 7 C3.15667503 5.88133489 3.15667503 5.88133489 1 6 C0.67 4.02 0.34 2.04 0 0 Z " fill="#FA7409" transform="translate(48,160)"/>
<path d="M0 0 C0.99 0.33 1.98 0.66 3 1 C-2.05311193 5.42147293 -7.18327401 9 -14 9 C-13.67 8.01 -13.34 7.02 -13 6 C-12.34 6 -11.68 6 -11 6 C-10.67 5.34 -10.34 4.68 -10 4 C-10 4.66 -10 5.32 -10 6 C-9.34 6 -8.68 6 -8 6 C-8.33 5.01 -8.66 4.02 -9 3 C-6.69 3 -4.38 3 -2 3 C-2 2.34 -2 1.68 -2 1 C-1.34 0.67 -0.68 0.34 0 0 Z " fill="#CC0CE6" transform="translate(59,29)"/>
<path d="M0 0 C0.66 1.98 1.32 3.96 2 6 C1.01 6.66 0.02 7.32 -1 8 C-1.99 7.67 -2.98 7.34 -4 7 C-3.67 6.01 -3.34 5.02 -3 4 C-3.99 4.33 -4.98 4.66 -6 5 C-6.33 3.68 -6.66 2.36 -7 1 C-4.53721199 -0.231394 -2.7204945 -0.07159196 0 0 Z " fill="#F92633" transform="translate(167,168)"/>
<path d="M0 0 C0.66 0.66 1.32 1.32 2 2 C1.319375 3.670625 1.319375 3.670625 0.625 5.375 C-1.1782873 10.143883 -2.12719707 14.98908437 -3 20 C-3.33 20 -3.66 20 -4 20 C-4.05394705 17.39555652 -4.09364469 14.79223002 -4.125 12.1875 C-4.14175781 11.44951172 -4.15851562 10.71152344 -4.17578125 9.95117188 C-4.21074628 6.08753574 -4.19397555 4.29096332 -2 1 C-1.67 1.33 -1.34 1.66 -1 2 C-0.67 1.34 -0.34 0.68 0 0 Z " fill="#F8F1F9" transform="translate(4,26)"/>
<path d="M0 0 C1.60407328 -0.02708567 3.2082785 -0.04643483 4.8125 -0.0625 C5.70582031 -0.07410156 6.59914062 -0.08570312 7.51953125 -0.09765625 C10 0 10 0 13 1 C13.33 2.65 13.66 4.3 14 6 C9.545 5.01 9.545 5.01 5 4 C5 3.34 5 2.68 5 2 C3.35 1.67 1.7 1.34 0 1 C0 0.67 0 0.34 0 0 Z " fill="#F806D4" transform="translate(179,2)"/>
<path d="M0 0 C0 0.66 0 1.32 0 2 C-5.36095333 3.12862175 -10.55306686 3.09688221 -16 3 C-16 2.01 -16 1.02 -16 0 C-10.31302429 -0.91397824 -5.68697571 -0.91397824 0 0 Z " fill="#F8620F" transform="translate(160,177)"/>
<path d="M0 0 C3.3 0 6.6 0 10 0 C10 0.33 10 0.66 10 1 C11.65 1.33 13.3 1.66 15 2 C15 2.33 15 2.66 15 3 C13.2508503 3.33776684 11.50063855 3.67003671 9.75 4 C8.28820312 4.2784375 8.28820312 4.2784375 6.796875 4.5625 C4 5 4 5 0 5 C0 3.35 0 1.7 0 0 Z " fill="#F803D4" transform="translate(168,3)"/>
<path d="M0 0 C1.2065625 0.0309375 1.2065625 0.0309375 2.4375 0.0625 C2.4375 3.84160478 1.44046038 4.52356101 -1.0625 7.25 C-1.7121875 7.96542969 -2.361875 8.68085938 -3.03125 9.41796875 C-3.5365625 9.96066406 -4.041875 10.50335938 -4.5625 11.0625 C-5.2225 9.7425 -5.8825 8.4225 -6.5625 7.0625 C-5.9025 7.0625 -5.2425 7.0625 -4.5625 7.0625 C-4.418125 6.093125 -4.27375 5.12375 -4.125 4.125 C-3.3825 0.0825 -3.3825 0.0825 0 0 Z " fill="#F6F3F7" transform="translate(14.5625,9.9375)"/>
<path d="M0 0 C1.32 0 2.64 0 4 0 C4.12375 0.804375 4.2475 1.60875 4.375 2.4375 C4.684375 3.7059375 4.684375 3.7059375 5 5 C5.66 5.33 6.32 5.66 7 6 C6.67 6.99 6.34 7.98 6 9 C4.02 9 2.04 9 0 9 C0 6.03 0 3.06 0 0 Z " fill="#F94408" transform="translate(72,135)"/>
<path d="M0 0 C0.99 0.33 1.98 0.66 3 1 C3 1.66 3 2.32 3 3 C3.66 3 4.32 3 5 3 C5 3.99 5 4.98 5 6 C3.54207116 6.05399736 2.08357288 6.09279177 0.625 6.125 C-0.18710938 6.14820313 -0.99921875 6.17140625 -1.8359375 6.1953125 C-4 6 -4 6 -6 4 C-3.1875 1.9375 -3.1875 1.9375 0 0 Z " fill="#F81C30" transform="translate(139,146)"/>
<path d="M0 0 C0.598125 0.495 1.19625 0.99 1.8125 1.5 C3.97029994 3.28276418 3.97029994 3.28276418 7 3 C6.649375 3.7425 6.29875 4.485 5.9375 5.25 C4.95490707 8.1322726 4.9673198 9.21176345 6 12 C4.0625 11.1875 4.0625 11.1875 2 10 C1.67 9.01 1.34 8.02 1 7 C0.34 6.67 -0.32 6.34 -1 6 C-0.835 5.38125 -0.67 4.7625 -0.5 4.125 C0.07634644 2.03936614 0.07634644 2.03936614 0 0 Z " fill="#FB04A4" transform="translate(147,77)"/>
<path d="M0 0 C0.66 0 1.32 0 2 0 C1.57405412 1.44096586 1.13373367 2.87768712 0.6875 4.3125 C0.44386719 5.11300781 0.20023438 5.91351563 -0.05078125 6.73828125 C-1.06218424 9.14816739 -1.92836574 10.41941979 -4 12 C-4.99 12 -5.98 12 -7 12 C-7 11.01 -7 10.02 -7 9 C-6.34 9 -5.68 9 -5 9 C-5 7.68 -5 6.36 -5 5 C-4.01 5 -3.02 5 -2 5 C-1.34 3.35 -0.68 1.7 0 0 Z " fill="#F803D7" transform="translate(34,51)"/>
<path d="M0 0 C5.28 0 10.56 0 16 0 C16 0.33 16 0.66 16 1 C15.04738281 1.19335938 14.09476563 1.38671875 13.11328125 1.5859375 C11.23189453 1.97652344 11.23189453 1.97652344 9.3125 2.375 C7.45044922 2.75785156 7.45044922 2.75785156 5.55078125 3.1484375 C2.52596682 3.87386054 -0.16059255 4.75131221 -3 6 C-3 4 -3 4 -1 2 C-0.67 1.34 -0.34 0.68 0 0 Z " fill="#F7F1FB" transform="translate(30,0)"/>
<path d="M0 0 C2.97 0.495 2.97 0.495 6 1 C6.12375 1.804375 6.2475 2.60875 6.375 3.4375 C6.684375 4.7059375 6.684375 4.7059375 7 6 C7.66 6.33 8.32 6.66 9 7 C8.01 7.495 8.01 7.495 7 8 C4.64018187 7.06421005 2.30368736 6.06652192 0 5 C0 3.33333333 0 1.66666667 0 0 Z " fill="#FA9612" transform="translate(57,170)"/>
<path d="M0 0 C2.97 0.495 2.97 0.495 6 1 C6 2.98 6 4.96 6 7 C5.01 7.495 5.01 7.495 4 8 C2.35 6.35 0.7 4.7 -1 3 C-0.67 2.01 -0.34 1.02 0 0 Z " fill="#FA3C19" transform="translate(131,151)"/>
<path d="M0 0 C0.33 0 0.66 0 1 0 C1.05410687 1.77049689 1.09284119 3.54146849 1.125 5.3125 C1.14820313 6.29863281 1.17140625 7.28476563 1.1953125 8.30078125 C1 11 1 11 -1 14 C-3.33909307 10.4913604 -3.41291057 9.12910567 -3 5 C-1.5625 2.125 -1.5625 2.125 0 0 Z " fill="#F90A60" transform="translate(179,144)"/>
<path d="M0 0 C0.66 0.99 1.32 1.98 2 3 C1.34 3 0.68 3 0 3 C0 3.66 0 4.32 0 5 C-1.6875 6.6875 -1.6875 6.6875 -4 8 C-6.75 7.6875 -6.75 7.6875 -9 7 C-9 6.34 -9 5.68 -9 5 C-6.03 3.35 -3.06 1.7 0 0 Z " fill="#F9EFF2" transform="translate(204,215)"/>
<path d="M0 0 C0.99 0.33 1.98 0.66 3 1 C3.08133791 2.91595968 3.13934367 4.83291932 3.1875 6.75 C3.22230469 7.81734375 3.25710937 8.8846875 3.29296875 9.984375 C2.97082786 13.30027855 2.22851086 14.59016673 0 17 C-1.0154401 13.95367971 -0.98900876 12.7106066 -0.5625 9.625 C-0.15032955 6.38576301 0.1055525 3.27212741 0 0 Z " fill="#FD300D" transform="translate(26,131)"/>
<path d="M0 0 C3.63 0.33 7.26 0.66 11 1 C9.515 3.475 9.515 3.475 8 6 C3.67574907 4.59754024 2.927027 3.90270266 0 0 Z " fill="#F72E32" transform="translate(91,130)"/>
<path d="M0 0 C1.46573934 0.90477737 2.92235756 1.82434141 4.375 2.75 C5.18710938 3.26046875 5.99921875 3.7709375 6.8359375 4.296875 C9.10425327 6.0820477 10.08233157 7.28016344 11 10 C10.67 10.66 10.34 11.32 10 12 C9.34 12 8.68 12 8 12 C7.67 11.01 7.34 10.02 7 9 C7.33 8.34 7.66 7.68 8 7 C6.35 7.66 4.7 8.32 3 9 C3 7.68 3 6.36 3 5 C1.54166642 3.37485532 1.54166642 3.37485532 0 2 C0 1.34 0 0.68 0 0 Z " fill="#FAE8F6" transform="translate(134,75)"/>
<path d="M0 0 C0.66 0 1.32 0 2 0 C2 0.99 2 1.98 2 3 C2.66 3 3.32 3 4 3 C4 2.01 4 1.02 4 0 C4.99 0.33 5.98 0.66 7 1 C7 4.27275026 6.70074844 6.846632 6 10 C3 9 3 9 1 7 C0.59952556 4.67724823 0.2602896 2.34260643 0 0 Z " fill="#F60B87" transform="translate(153,96)"/>
<path d="M0 0 C-0.66 1.32 -1.32 2.64 -2 4 C-7.28 4 -12.56 4 -18 4 C-18 3.67 -18 3.34 -18 3 C-15.3754034 2.49779928 -12.75036631 1.99814643 -10.125 1.5 C-9.37863281 1.35691406 -8.63226563 1.21382812 -7.86328125 1.06640625 C-2.2265625 0 -2.2265625 0 0 0 Z " fill="#FCE7E6" transform="translate(194,221)"/>
<path d="M0 0 C2 4 2 4 2 7 C-2.19589427 8.16552619 -2.82091936 8.08954032 -7 6 C-4.69 4.02 -2.38 2.04 0 0 Z " fill="#F8F1F7" transform="translate(212,208)"/>
<path d="M0 0 C0.33 0 0.66 0 1 0 C1.05389087 1.95803507 1.09274217 3.91648909 1.125 5.875 C1.14820313 6.96554688 1.17140625 8.05609375 1.1953125 9.1796875 C1 12 1 12 -1 14 C-3.4294516 10.3558226 -3.16179575 8.28758728 -3 4 C-2.34 4 -1.68 4 -1 4 C-0.67 2.68 -0.34 1.36 0 0 Z " fill="#F67D0E" transform="translate(7,184)"/>
<path d="M0 0 C0.99 0.33 1.98 0.66 3 1 C3 1.66 3 2.32 3 3 C2.34 3 1.68 3 1 3 C1 3.66 1 4.32 1 5 C0.34 5 -0.32 5 -1 5 C-1 6.98 -1 8.96 -1 11 C-3 10 -3 10 -4 7 C-3.58789525 3.70316202 -2.48440102 2.16034872 0 0 Z " fill="#F6144B" transform="translate(185,179)"/>
<path d="M0 0 C0.33 1.32 0.66 2.64 1 4 C-1.97 4.66 -4.94 5.32 -8 6 C-7.625 3.5625 -7.625 3.5625 -7 1 C-4.53721199 -0.231394 -2.7204945 -0.07159196 0 0 Z " fill="#FA8A0B" transform="translate(40,178)"/>
<path d="M0 0 C0.33 0.66 0.66 1.32 1 2 C0.67 2.66 0.34 3.32 0 4 C-0.66 4 -1.32 4 -2 4 C-2.2475 4.598125 -2.495 5.19625 -2.75 5.8125 C-4.16370012 8.28647521 -5.65055383 9.43370255 -8 11 C-8 10.34 -8 9.68 -8 9 C-9.32 8.67 -10.64 8.34 -12 8 C-11.38511719 7.67386719 -10.77023438 7.34773437 -10.13671875 7.01171875 C-8.92435547 6.35623047 -8.92435547 6.35623047 -7.6875 5.6875 C-6.88699219 5.25824219 -6.08648437 4.82898438 -5.26171875 4.38671875 C-3.16212728 3.09940446 -1.64552279 1.81593292 0 0 Z " fill="#F8EFEA" transform="translate(172,170)"/>
<path d="M0 0 C-0.53069061 3.82097239 -1.49701566 6.06171403 -4 9 C-4 7.68 -4 6.36 -4 5 C-4.99 5 -5.98 5 -7 5 C-7 4.34 -7 3.68 -7 3 C-7.66 3 -8.32 3 -9 3 C-9 2.34 -9 1.68 -9 1 C-8.401875 1.20625 -7.80375 1.4125 -7.1875 1.625 C-4.0126065 2.16926746 -3.11147803 0 0 0 Z " fill="#F51155" transform="translate(178,159)"/>
<path d="M0 0 C-1.15585285 3.91211733 -2.35534962 6.8745041 -5 10 C-5.99 9.67 -6.98 9.34 -8 9 C-7.34 8.67 -6.68 8.34 -6 8 C-5.855625 7.030625 -5.71125 6.06125 -5.5625 5.0625 C-5.376875 4.051875 -5.19125 3.04125 -5 2 C-2 0 -2 0 0 0 Z " fill="#F7EBF1" transform="translate(152,129)"/>
<path d="M0 0 C0.68707555 2.49064888 1 4.37886292 1 7 C-3.75 8 -3.75 8 -6 8 C-4.55746343 4.63408134 -2.66735273 2.48952921 0 0 Z " fill="#F5E5F5" transform="translate(45,40)"/>
<path d="M0 0 C5.57707204 0.49573974 5.57707204 0.49573974 7.625 2.9375 C8.07875 3.618125 8.5325 4.29875 9 5 C11.08334635 6.2516467 11.08334635 6.2516467 13 7 C12.67 7.66 12.34 8.32 12 9 C10.37021552 8.07084243 8.74631725 7.13135466 7.125 6.1875 C5.76761719 5.40439453 5.76761719 5.40439453 4.3828125 4.60546875 C2 3 2 3 0 0 Z " fill="#F6AA21" transform="translate(16,211)"/>
<path d="M0 0 C0.99 0 1.98 0 3 0 C3 2.31 3 4.62 3 7 C2.34 7 1.68 7 1 7 C0.67 8.65 0.34 10.3 0 12 C-0.66 12 -1.32 12 -2 12 C-1 3.42857143 -1 3.42857143 0 0 Z " fill="#FB0870" transform="translate(195,155)"/>
<path d="M0 0 C0.33 0 0.66 0 1 0 C1 2.64 1 5.28 1 8 C1.66 8 2.32 8 3 8 C3 10.64 3 13.28 3 16 C2.01 16 1.02 16 0 16 C0 10.72 0 5.44 0 0 Z " fill="#FA0680" transform="translate(25,88)"/>
<path d="M0 0 C0.99 0.33 1.98 0.66 3 1 C2.34 2.32 1.68 3.64 1 5 C0.34 5 -0.32 5 -1 5 C-1.28875 5.639375 -1.5775 6.27875 -1.875 6.9375 C-3 9 -3 9 -5 10 C-4.56802365 5.2482602 -3.67230705 3.07999946 0 0 Z " fill="#F61889" transform="translate(94,91)"/>
<path d="M0 0 C0.66 0.33 1.32 0.66 2 1 C2.6328125 3.28515625 2.6328125 3.28515625 3.125 6.0625 C3.29257813 6.98160156 3.46015625 7.90070312 3.6328125 8.84765625 C3.75398437 9.55792969 3.87515625 10.26820312 4 11 C2.68 10.67 1.36 10.34 0 10 C-1.2380014 6.42355152 -0.74926071 3.66305234 0 0 Z " fill="#FA11AA" transform="translate(220,31)"/>
<path d="M0 0 C0 0.99 0 1.98 0 3 C-3.08809695 4.76462683 -4.23312136 5 -8 5 C-8 3.35 -8 1.7 -8 0 C-4.94736336 -0.98120464 -3.05263664 -0.98120464 0 0 Z " fill="#FB8415" transform="translate(160,195)"/>
<path d="M0 0 C0.33 0.99 0.66 1.98 1 3 C1.66 3.33 2.32 3.66 3 4 C3 4.66 3 5.32 3 6 C-0.66881155 5.29445932 -3.70450534 3.72264494 -7 2 C-7 1.34 -7 0.68 -7 0 C-3.98968256 -0.93423645 -3.13349732 -1.04449911 0 0 Z " fill="#F9F5E5" transform="translate(56,186)"/>
<path d="M0 0 C2.97 0.495 2.97 0.495 6 1 C4.52440331 5.42679007 2.09942632 5.91432696 -2 8 C-2.66 8 -3.32 8 -4 8 C-3.67 7.01 -3.34 6.02 -3 5 C-2.34 5.33 -1.68 5.66 -1 6 C-0.67 4.02 -0.34 2.04 0 0 Z " fill="#F8E9E4" transform="translate(133,144)"/>
<path d="M0 0 C-0.33 1.32 -0.66 2.64 -1 4 C-1.7425 3.79375 -2.485 3.5875 -3.25 3.375 C-6.32330841 2.95591249 -7.42786866 3.38050989 -10 5 C-10.66 4.34 -11.32 3.68 -12 3 C-10.5682384 2.30062798 -9.12932968 1.61587282 -7.6875 0.9375 C-6.48673828 0.36322266 -6.48673828 0.36322266 -5.26171875 -0.22265625 C-3 -1 -3 -1 0 0 Z " fill="#FA4833" transform="translate(177,189)"/>
<path d="M0 0 C0.33 0 0.66 0 1 0 C1.66 5.28 2.32 10.56 3 16 C2.01 16 1.02 16 0 16 C0 10.72 0 5.44 0 0 Z " fill="#FCE4DF" transform="translate(0,176)"/>
<path d="M0 0 C1.98 0 3.96 0 6 0 C4.12050295 3.57104439 2.82946843 5.54744301 -1 7 C-0.67 4.69 -0.34 2.38 0 0 Z " fill="#F2124A" transform="translate(129,128)"/>
<path d="M0 0 C-0.33 1.32 -0.66 2.64 -1 4 C-1.33 3.34 -1.66 2.68 -2 2 C-3.953125 2.06510417 -5.90625 2.13020833 -7.859375 2.1953125 C-10.30155975 1.97248542 -11.88636771 1.20915 -14 0 C-4.58997722 -1.33257403 -4.58997722 -1.33257403 0 0 Z " fill="#FA0DA2" transform="translate(122,86)"/>
<path d="M0 0 C6.0546875 -0.1953125 6.0546875 -0.1953125 8 0 C8.66 0.66 9.32 1.32 10 2 C9 3 9 3 6.93359375 3.09765625 C6.10988281 3.08605469 5.28617188 3.07445312 4.4375 3.0625 C3.61121094 3.05347656 2.78492188 3.04445312 1.93359375 3.03515625 C1.29550781 3.02355469 0.65742188 3.01195312 0 3 C0 2.01 0 1.02 0 0 Z " fill="#FDA403" transform="translate(128,196)"/>
<path d="M0 0 C0.33 0 0.66 0 1 0 C1 2.31 1 4.62 1 7 C-0.65 7 -2.3 7 -4 7 C-4 5.35 -4 3.7 -4 2 C-2.68 2 -1.36 2 0 2 C0 1.34 0 0.68 0 0 Z " fill="#F80777" transform="translate(95,97)"/>
<path d="M0 0 C1.32 1.65 2.64 3.3 4 5 C3.195625 5.12375 2.39125 5.2475 1.5625 5.375 C0.2940625 5.684375 0.2940625 5.684375 -1 6 C-1.33 6.66 -1.66 7.32 -2 8 C-2 7.34 -2 6.68 -2 6 C-2.99 5.67 -3.98 5.34 -5 5 C-3.35 3.35 -1.7 1.7 0 0 Z " fill="#F90CD5" transform="translate(57,50)"/>
<path d="M0 0 C1.12589131 3.37767394 0.72798234 4.60274909 0 8 C-0.0370279 9.6662553 -0.04759962 11.33401319 0 13 C-1.86551426 9.41247258 -3.42535928 5.72187807 -5 2 C-4.34 1.67 -3.68 1.34 -3 1 C-3 1.66 -3 2.32 -3 3 C-2.34 3 -1.68 3 -1 3 C-0.67 2.01 -0.34 1.02 0 0 Z " fill="#FBE9F4" transform="translate(223,23)"/>
<path d="M0 0 C0.99 0.33 1.98 0.66 3 1 C3.33 1.99 3.66 2.98 4 4 C3.01 5.485 3.01 5.485 2 7 C0.68 7 -0.64 7 -2 7 C-2 6.34 -2 5.68 -2 5 C-1.34 5 -0.68 5 0 5 C0 4.34 0 3.68 0 3 C-0.66 2.67 -1.32 2.34 -2 2 C-1.34 1.34 -0.68 0.68 0 0 Z " fill="#FD0B5D" transform="translate(188,177)"/>
<path d="M0 0 C0.66 0 1.32 0 2 0 C3.6875 2.375 3.6875 2.375 5 5 C4.67 5.66 4.34 6.32 4 7 C3.01 6.67 2.02 6.34 1 6 C0.01 6.33 -0.98 6.66 -2 7 C-1.34 4.69 -0.68 2.38 0 0 Z " fill="#FAEAF5" transform="translate(186,49)"/>
<path d="M0 0 C2.64 0.33 5.28 0.66 8 1 C7.67 1.99 7.34 2.98 7 4 C4.08517222 4.80967438 2.53886783 5.21845993 -0.3125 4.0625 C-0.869375 3.711875 -1.42625 3.36125 -2 3 C-0.68 3 0.64 3 2 3 C2 2.34 2 1.68 2 1 C1.34 0.67 0.68 0.34 0 0 Z " fill="#FA2646" transform="translate(190,216)"/>
<path d="M0 0 C0.99 0.99 1.98 1.98 3 3 C2.85546875 6.13671875 2.85546875 6.13671875 2.1875 9.6875 C1.97480469 10.86699219 1.76210938 12.04648438 1.54296875 13.26171875 C1.36378906 14.16535156 1.18460937 15.06898438 1 16 C0.67 16 0.34 16 0 16 C0 10.72 0 5.44 0 0 Z " fill="#FD622C" transform="translate(0,160)"/>
<path d="M0 0 C0.66 0 1.32 0 2 0 C3.80230168 3.82989106 4.19622241 6.78121808 4 11 C3.34 11 2.68 11 2 11 C1.67 8.36 1.34 5.72 1 3 C0.01 2.67 -0.98 2.34 -2 2 C-1.34 2 -0.68 2 0 2 C0 1.34 0 0.68 0 0 Z " fill="#F60979" transform="translate(136,101)"/>
<path d="M0 0 C1.32757546 3.98272639 0.3296542 6.0810192 -1 10 C-1.66 10.99 -2.32 11.98 -3 13 C-4.00821159 10.31143576 -4.22736824 8.58296785 -3.17578125 5.88671875 C-2.16604698 3.89205069 -1.11893353 1.9353228 0 0 Z " fill="#A113EE" transform="translate(8,22)"/>
<path d="M0 0 C1.98 0 3.96 0 6 0 C6.33 1.98 6.66 3.96 7 6 C3.535 4.02 3.535 4.02 0 2 C0 1.34 0 0.68 0 0 Z " fill="#F9F3ED" transform="translate(85,144)"/>
<path d="M0 0 C0.99 0.66 1.98 1.32 3 2 C2.01 3.98 1.02 5.96 0 8 C-0.99 7.01 -1.98 6.02 -3 5 C-2.01 3.35 -1.02 1.7 0 0 Z M3 0 C5 1 5 1 5 1 Z " fill="#F80C57" transform="translate(151,132)"/>
<path d="M0 0 C0.99 0 1.98 0 3 0 C3 2.64 3 5.28 3 8 C2.01 8 1.02 8 0 8 C0 5.36 0 2.72 0 0 Z " fill="#FD1237" transform="translate(25,120)"/>
<path d="M0 0 C1.24386556 3.73159669 0.77811718 6.18015204 0 10 C-0.99 10.495 -0.99 10.495 -2 11 C-2.33 7.7 -2.66 4.4 -3 1 C-2.01 0.67 -1.02 0.34 0 0 Z " fill="#F60673" transform="translate(159,112)"/>
<path d="M0 0 C0.99 0.33 1.98 0.66 3 1 C0.9375 3.5 0.9375 3.5 -2 6 C-5.8125 6.3125 -5.8125 6.3125 -9 6 C-9 5.67 -9 5.34 -9 5 C-7.02 5 -5.04 5 -3 5 C-3 4.01 -3 3.02 -3 2 C-2.01 2 -1.02 2 0 2 C0 1.34 0 0.68 0 0 Z " fill="#F8DCF0" transform="translate(163,72)"/>
<path d="M0 0 C0 0.66 0 1.32 0 2 C1.32 2.33 2.64 2.66 4 3 C-0.52092968 4.45606519 -3.51648796 3.27032841 -8 2 C-8 1.67 -8 1.34 -8 1 C-2.25 0 -2.25 0 0 0 Z " fill="#FCC82D" transform="translate(40,220)"/>
<path d="M0 0 C0.66 0 1.32 0 2 0 C2 0.99 2 1.98 2 3 C3.65 3 5.3 3 7 3 C5 6 5 6 2.375 6.6875 C1.199375 6.8421875 1.199375 6.8421875 0 7 C0 4.69 0 2.38 0 0 Z " fill="#FB7007" transform="translate(96,153)"/>
<path d="M0 0 C-3.76508495 2.51005664 -6.39461609 2.0258295 -10.6875 1.625 C-11.38939453 1.56828125 -12.09128906 1.5115625 -12.81445312 1.453125 C-14.54380285 1.31195359 -16.27204088 1.15728041 -18 1 C-18 0.67 -18 0.34 -18 0 C-15.75067773 -0.1954625 -13.50049858 -0.38108226 -11.25 -0.5625 C-9.99703125 -0.66691406 -8.7440625 -0.77132812 -7.453125 -0.87890625 C-4.60547636 -0.97876723 -2.65713933 -0.90584295 0 0 Z " fill="#FD753D" transform="translate(125,155)"/>
<path d="M0 0 C-1 2 -1 2 -3.375 3.125 C-6 4 -6 4 -9 4 C-9 3.34 -9 2.68 -9 2 C-9.66 1.67 -10.32 1.34 -11 1 C-7.26562152 0.12132271 -3.83225427 -0.08912219 0 0 Z " fill="#F9273C" transform="translate(126,136)"/>
<path d="M0 0 C0.66 0 1.32 0 2 0 C2 1.32 2 2.64 2 4 C0.02 4.66 -1.96 5.32 -4 6 C-4 5.34 -4 4.68 -4 4 C-4.99 4.33 -5.98 4.66 -7 5 C-7 4.34 -7 3.68 -7 3 C-4.69 2.34 -2.38 1.68 0 1 C0 0.67 0 0.34 0 0 Z " fill="#FC5707" transform="translate(124,154)"/>
<path d="M0 0 C2.86697492 1.28519565 4.97607712 2.57129254 7 5 C7 5.66 7 6.32 7 7 C4.625 6.3125 4.625 6.3125 2 5 C0.6875 2.375 0.6875 2.375 0 0 Z " fill="#F61E94" transform="translate(128,90)"/>
<path d="M0 0 C0.33 0 0.66 0 1 0 C1 1.65 1 3.3 1 5 C1.66 5 2.32 5 3 5 C3 5.99 3 6.98 3 8 C2.01 8 1.02 8 0 8 C0 9.65 0 11.3 0 13 C-0.33 13 -0.66 13 -1 13 C-1.07654536 8.48382401 -1.10228696 4.40914783 0 0 Z " fill="#FC2CB8" transform="translate(45,72)"/>
<path d="M0 0 C1.45792884 -0.05399736 2.91642712 -0.09279177 4.375 -0.125 C5.18710938 -0.14820313 5.99921875 -0.17140625 6.8359375 -0.1953125 C9 0 9 0 11 2 C8.03 2.66 5.06 3.32 2 4 C2 3.34 2 2.68 2 2 C1.34 2 0.68 2 0 2 C0 1.34 0 0.68 0 0 Z " fill="#F911AD" transform="translate(148,56)"/>
<path d="M0 0 C0.33 0.66 0.66 1.32 1 2 C2.98 1.67 4.96 1.34 7 1 C3.79663178 3.83374881 1.21912747 4.5205537 -3 5 C-2.67 4.01 -2.34 3.02 -2 2 C-1.34 2 -0.68 2 0 2 C0 1.34 0 0.68 0 0 Z " fill="#D70EF1" transform="translate(48,33)"/>
<path d="M0 0 C0.99 0.33 1.98 0.66 3 1 C3 1.66 3 2.32 3 3 C3.66 3 4.32 3 5 3 C5 3.99 5 4.98 5 6 C4.34 6 3.68 6 3 6 C2.67 5.34 2.34 4.68 2 4 C-0.3140622 3.26924352 -2.64828869 2.59861742 -5 2 C-4.360625 1.855625 -3.72125 1.71125 -3.0625 1.5625 C-1.02454854 1.18992819 -1.02454854 1.18992819 0 0 Z " fill="#F1FCF9" transform="translate(210,8)"/>
<path d="M0 0 C2 2 2 2 2 6 C2.66 6 3.32 6 4 6 C4 6.66 4 7.32 4 8 C2.35 8 0.7 8 -1 8 C-0.67 5.36 -0.34 2.72 0 0 Z " fill="#FC5621" transform="translate(180,216)"/>
<path d="M0 0 C1.98 0 3.96 0 6 0 C6 2.31 6 4.62 6 7 C4 5.625 4 5.625 2 4 C2 3.34 2 2.68 2 2 C1.34 2 0.68 2 0 2 C0 1.34 0 0.68 0 0 Z " fill="#FCEAD7" transform="translate(38,176)"/>
<path d="M0 0 C0.33 0.66 0.66 1.32 1 2 C1.66 2 2.32 2 3 2 C3 2.66 3 3.32 3 4 C3.99 4 4.98 4 6 4 C6 5.65 6 7.3 6 9 C5.34 8.67 4.68 8.34 4 8 C4 7.34 4 6.68 4 6 C3.01 5.67 2.02 5.34 1 5 C0.67 3.35 0.34 1.7 0 0 Z " fill="#FD084B" transform="translate(168,160)"/>
<path d="M0 0 C2.64752004 2.57784846 4.94432065 4.91648098 7 8 C6.01 8.495 6.01 8.495 5 9 C4.34 8.67 3.68 8.34 3 8 C3 7.01 3 6.02 3 5 C2.01 4.67 1.02 4.34 0 4 C0 2.68 0 1.36 0 0 Z " fill="#F74E23" transform="translate(76,136)"/>
<path d="M0 0 C0.66 0 1.32 0 2 0 C2 0.66 2 1.32 2 2 C2.99 1.67 3.98 1.34 5 1 C4.67 3.97 4.34 6.94 4 10 C2.33094759 6.66189518 1.1258614 3.53842155 0 0 Z " fill="#FBE6F6" transform="translate(176,59)"/>
<path d="M0 0 C1.98 0.495 1.98 0.495 4 1 C4 2.65 4 4.3 4 6 C2.35 5.01 0.7 4.02 -1 3 C-0.67 2.01 -0.34 1.02 0 0 Z " fill="#FCA203" transform="translate(20,208)"/>
<path d="M0 0 C3.96 1.98 3.96 1.98 8 4 C5.07175348 4.97608217 3.04386724 5.08226668 0 5 C0 3.35 0 1.7 0 0 Z " fill="#FAA715" transform="translate(48,187)"/>
<path d="M0 0 C0.66 0.66 1.32 1.32 2 2 C1.01 2.66 0.02 3.32 -1 4 C-1 4.99 -1 5.98 -1 7 C-1.66 7 -2.32 7 -3 7 C-3 6.34 -3 5.68 -3 5 C-3.66 5 -4.32 5 -5 5 C-4.1875 3.0625 -4.1875 3.0625 -3 1 C-2.01 0.67 -1.02 0.34 0 0 Z " fill="#F51845" transform="translate(145,142)"/>
<path d="M0 0 C0.33 0 0.66 0 1 0 C1.33 2.31 1.66 4.62 2 7 C0.68 7.33 -0.64 7.66 -2 8 C-2 6.35 -2 4.7 -2 3 C-1.34 3 -0.68 3 0 3 C0 2.01 0 1.02 0 0 Z " fill="#FD0C3E" transform="translate(68,112)"/>
<path d="M0 0 C1.32 0.66 2.64 1.32 4 2 C4 3.65 4 5.3 4 7 C2.35 5.68 0.7 4.36 -1 3 C-0.67 2.01 -0.34 1.02 0 0 Z " fill="#F88110" transform="translate(51,165)"/>
<path d="M0 0 C0.99 0 1.98 0 3 0 C3 0.99 3 1.98 3 3 C3.66 3 4.32 3 5 3 C4.67 3.99 4.34 4.98 4 6 C2.68 5.34 1.36 4.68 0 4 C0 2.68 0 1.36 0 0 Z " fill="#F95809" transform="translate(80,144)"/>
<path d="M0 0 C1.98 0 3.96 0 6 0 C4.35 1.65 2.7 3.3 1 5 C0.34 4.67 -0.32 4.34 -1 4 C-0.67 2.68 -0.34 1.36 0 0 Z " fill="#FAEDF5" transform="translate(91,89)"/>
<path d="M0 0 C0.66 0 1.32 0 2 0 C4.1875 2.75 4.1875 2.75 6 6 C5.61328125 8.203125 5.61328125 8.203125 5 10 C4.16121545 8.71186658 3.32913217 7.41936744 2.5 6.125 C2.0359375 5.40570313 1.571875 4.68640625 1.09375 3.9453125 C0 2 0 2 0 0 Z " fill="#F90B8D" transform="translate(146,84)"/>
<path d="M0 0 C0.99 1.32 1.98 2.64 3 4 C1.02 4.99 -0.96 5.98 -3 7 C-1.125 1.125 -1.125 1.125 0 0 Z " fill="#F62165" transform="translate(201,212)"/>
<path d="M0 0 C1.65 0 3.3 0 5 0 C5.33 1.32 5.66 2.64 6 4 C4.02 3.34 2.04 2.68 0 2 C0 1.34 0 0.68 0 0 Z " fill="#F86415" transform="translate(162,193)"/>
<path d="M0 0 C3.36720387 1.39332574 4.9859524 2.9789286 7 6 C4 6 4 6 2.4375 4.625 C1.963125 4.08875 1.48875 3.5525 1 3 C0.34 2.34 -0.32 1.68 -1 1 C-0.67 0.67 -0.34 0.34 0 0 Z " fill="#F6F4ED" transform="translate(50,169)"/>
<path d="M0 0 C1.85776765 3.13498292 2.20140476 5.37471432 2 9 C1.34 9 0.68 9 0 9 C-0.87890625 2.84765625 -0.87890625 2.84765625 -1 1 C-0.67 0.67 -0.34 0.34 0 0 Z " fill="#F9590E" transform="translate(46,149)"/>
<path d="M0 0 C2.9375 1.1875 2.9375 1.1875 3.9375 3.1875 C-1.60096154 3.55673077 -1.60096154 3.55673077 -3.9375 1.6875 C-4.30875 1.1925 -4.68 0.6975 -5.0625 0.1875 C-3.0625 -0.8125 -3.0625 -0.8125 0 0 Z " fill="#F2FDFA" transform="translate(105.0625,81.8125)"/>
<path d="M0 0 C0.66 0 1.32 0 2 0 C3.231394 3.69418201 2.64432764 6.2056261 2 10 C0 8 0 8 -0.1953125 6.0546875 C-0.13020833 4.03645833 -0.06510417 2.01822917 0 0 Z " fill="#F803B3" transform="translate(144,61)"/>
<path d="M0 0 C0.66 0.33 1.32 0.66 2 1 C2.625 4.0625 2.625 4.0625 3 7 C1.35 6.67 -0.3 6.34 -2 6 C-1.34 4.02 -0.68 2.04 0 0 Z " fill="#F7F0F7" transform="translate(37,49)"/>
<path d="M0 0 C0.66 0 1.32 0 2 0 C1.01 2.97 0.02 5.94 -1 9 C-1.66 8.67 -2.32 8.34 -3 8 C-2.45276317 4.62537285 -1.9451 2.91765 0 0 Z " fill="#F216DA" transform="translate(34,51)"/>
<path d="M0 0 C1.32 0 2.64 0 4 0 C4.33 1.32 4.66 2.64 5 4 C3.35 4 1.7 4 0 4 C0 2.68 0 1.36 0 0 Z " fill="#FAF4EE" transform="translate(0,192)"/>
<path d="M0 0 C0.66 0 1.32 0 2 0 C2 1.65 2 3.3 2 5 C0.68 5.33 -0.64 5.66 -2 6 C-1.125 1.125 -1.125 1.125 0 0 Z " fill="#F83E27" transform="translate(162,172)"/>
<path d="M0 0 C0.33 0 0.66 0 1 0 C1 3.96 1 7.92 1 12 C-2 8 -2 8 -2 6 C-1.34 6 -0.68 6 0 6 C0 4.02 0 2.04 0 0 Z " fill="#F8DED2" transform="translate(44,144)"/>
<path d="M0 0 C0.33 0.99 0.66 1.98 1 3 C0 4 0 4 -3.5625 4.0625 C-4.696875 4.041875 -5.83125 4.02125 -7 4 C-4.77810176 1.77810176 -2.91517292 1.07401108 0 0 Z " fill="#FAF2EA" transform="translate(127,136)"/>
<path d="M0 0 C0.66 0 1.32 0 2 0 C2 0.99 2 1.98 2 3 C2.66 3.66 3.32 4.32 4 5 C3.01 5.495 3.01 5.495 2 6 C-0.125 5.0625 -0.125 5.0625 -2 4 C-1.34 2.68 -0.68 1.36 0 0 Z " fill="#F7E2EF" transform="translate(126,84)"/>
<path d="M0 0 C0.66 0.99 1.32 1.98 2 3 C0.35 4.32 -1.3 5.64 -3 7 C-3.66 6.34 -4.32 5.68 -5 5 C-3.68 4.67 -2.36 4.34 -1 4 C-0.67 2.68 -0.34 1.36 0 0 Z " fill="#FEE5FB" transform="translate(54,49)"/>
</svg>
