<?xml version="1.0" encoding="UTF-8"?>
<svg version="1.1" xmlns="http://www.w3.org/2000/svg" width="626" height="626">
<path d="M0 0 C206.58 0 413.16 0 626 0 C626 206.58 626 413.16 626 626 C419.42 626 212.84 626 0 626 C0 419.42 0 212.84 0 0 Z " fill="#000000" transform="translate(0,0)"/>
<path d="M0 0 C206.58 0 413.16 0 626 0 C626 206.58 626 413.16 626 626 C419.42 626 212.84 626 0 626 C0 419.42 0 212.84 0 0 Z M139.6875 68.0625 C138.88771729 68.36486572 138.08793457 68.66723145 137.26391602 68.97875977 C124.99215076 73.78666859 113.88136505 80.25203869 104 89 C103.04738281 89.80953125 102.09476563 90.6190625 101.11328125 91.453125 C80.10960026 109.63465843 65.73278806 135.18247095 63 163 C62.49021766 172.09313293 62.56366867 181.20672134 62.5785079 190.31111956 C62.58120932 193.97859469 62.56658896 197.64601095 62.55441284 201.3134613 C62.53348807 208.4757383 62.52881042 215.63793414 62.53060073 222.80023812 C62.53191465 228.62824509 62.52807231 234.45622701 62.52067566 240.28422928 C62.5185762 241.97073734 62.5164786 243.6572454 62.51438284 245.34375346 C62.51333931 246.18348034 62.51229578 247.02320722 62.51122063 247.88838036 C62.49237136 263.72427668 62.49335242 279.56012655 62.50018996 295.39602943 C62.50576452 309.84457226 62.48493422 324.29293774 62.45182949 338.74143915 C62.41799997 353.6232176 62.40293545 368.50491131 62.40754652 383.38672888 C62.40978148 391.72334287 62.40469126 400.05979288 62.37965393 408.39637375 C62.35852089 415.49254517 62.3551669 422.58846263 62.37395352 429.68464492 C62.38303722 433.2963122 62.38448487 436.9075075 62.36359787 440.51913643 C62.2219809 466.76460971 66.30681056 491.24916858 82 513 C82.51949219 513.72960937 83.03898437 514.45921875 83.57421875 515.2109375 C102.31569861 540.35084027 127.93965846 557.33382213 159 563 C163.36700091 563.38186177 167.69758322 563.40661611 172.07931519 563.38095093 C173.32940624 563.3856309 174.5794973 563.39031087 175.86746991 563.39513266 C179.29810518 563.40753142 182.72848664 563.40152378 186.15912223 563.39217401 C189.87429667 563.38533749 193.58942991 563.39588745 197.30459595 563.40411377 C204.56769213 563.41740537 211.83069495 563.41459363 219.09379469 563.40587585 C225.00154434 563.39908057 230.90926797 563.39819053 236.81702042 563.4014473 C237.66018874 563.401907 238.50335707 563.40236669 239.37207595 563.40284032 C241.08537205 563.40379957 242.79866814 563.40477222 244.51196422 563.4057581 C260.55231547 563.41429887 276.59261516 563.40449905 292.63295795 563.388357 C306.37040274 563.3749599 320.10777144 563.37727945 333.84521484 563.39111328 C349.8279235 563.40720078 365.81058703 563.41346989 381.79330266 563.40427649 C383.50065111 563.40332093 385.20799958 563.40237781 386.91534805 563.4014473 C387.75522027 563.40098447 388.59509249 563.40052164 389.46041539 563.40004479 C395.35410308 563.39746403 401.24776194 563.4018062 407.14144516 563.40888596 C414.33403552 563.41733669 421.52652777 563.41494644 428.71910702 563.39904372 C432.38279256 563.391208 436.04631508 563.38798809 439.70999908 563.39799118 C457.45118812 563.44238064 473.54572614 563.25633852 490.125 556.3125 C491.3931958 555.79139648 491.3931958 555.79139648 492.68701172 555.25976562 C503.97276665 550.48659436 513.69111138 543.95292939 523 536 C523.79792969 535.34773438 524.59585937 534.69546875 525.41796875 534.0234375 C540.98353504 520.8087914 550.99390942 503.9463486 558 485 C558.47953125 483.76443359 558.47953125 483.76443359 558.96875 482.50390625 C562.77687342 472.12676994 563.29768609 461.10241761 563.26069641 450.15519714 C563.26452196 448.93031297 563.26834751 447.70542879 563.27228898 446.44342691 C563.28075198 443.08313998 563.28041245 439.72307469 563.27610838 436.36279476 C563.27362321 432.72327168 563.28267738 429.0837734 563.29014587 425.44425964 C563.30284557 418.32923975 563.30469249 411.21425767 563.30234561 404.09922834 C563.30055695 398.31115136 563.3023238 392.52308578 563.30657005 386.73501015 C563.30746284 385.49566899 563.30746284 385.49566899 563.30837366 384.23129064 C563.30958551 382.55238228 563.31079964 380.87347393 563.31201603 379.19456557 C563.32287339 363.47657693 563.32073766 347.75860979 563.31463119 332.04061995 C563.30946385 317.69007309 563.32071586 303.33959415 563.33972941 288.98906072 C563.35914403 274.22156344 563.36735745 259.45409823 563.36360615 244.68658811 C563.36169958 236.40873911 563.36412844 228.13094789 563.37832069 219.85310936 C563.3902818 212.80584662 563.39158672 205.75867724 563.37953053 198.71141311 C563.37367477 195.12253269 563.37244971 191.53382262 563.38453293 187.94495392 C563.49707749 152.06066255 555.46897527 122.30690799 530.0234375 95.99609375 C517.28325129 83.19531692 502.04105132 73.81706628 485 68 C484.36627433 67.77727885 483.73254865 67.5545577 483.07961917 67.32508743 C468.31453536 62.29233328 453.73842279 62.29266548 438.28425193 62.3903538 C434.59376218 62.4080738 430.90333778 62.39642381 427.21282959 62.38868713 C420.01130194 62.37809165 412.81007017 62.39383782 405.60858758 62.4188254 C397.20490842 62.44694021 388.80128687 62.44809901 380.39756851 62.44826841 C365.39763262 62.44945201 350.39783146 62.47431802 335.39794922 62.51293945 C320.87189111 62.55031616 306.34593088 62.57153845 291.81982422 62.57446289 C290.92411955 62.5746457 290.02841488 62.57482851 289.10556765 62.57501686 C288.21134566 62.57519583 287.31712367 62.5753748 286.39580405 62.5755592 C284.59497301 62.57592464 282.79414197 62.57629702 280.99331093 62.57667637 C279.66086216 62.57695464 279.66086216 62.57695464 278.30149523 62.57723853 C264.41201936 62.5808148 250.52255839 62.59926548 236.63309778 62.61916961 C231.61528552 62.62617002 226.5974768 62.63096538 221.57966073 62.63413096 C213.62278993 62.63919568 205.66598675 62.65071541 197.70915063 62.67543126 C194.07811465 62.6865928 190.44714438 62.6947711 186.81608963 62.69429779 C182.86949092 62.69392903 178.92303626 62.7091664 174.97647095 62.72584534 C173.84444988 62.72343025 172.71242881 62.72101517 171.54610407 62.7185269 C160.56039474 62.79085864 149.97647462 64.10780584 139.6875 68.0625 Z " fill="#FEFEFE" transform="translate(0,0)"/>
<path d="M0 0 C11.9000917 -0.37211024 23.79878237 -0.6556894 35.70352459 -0.82899475 C41.23291861 -0.91221534 46.75831038 -1.02488711 52.28540039 -1.20703125 C57.62855006 -1.38199438 62.96787461 -1.47676099 68.3136692 -1.51803589 C70.34382166 -1.54741027 72.37378387 -1.60478387 74.40228844 -1.69168091 C89.84780858 -2.32650079 89.84780858 -2.32650079 95.12839699 1.57088089 C98.98062744 5.34111478 101.99881739 9.57803292 104.83676815 14.14375591 C106.28353915 16.45246171 107.91948943 18.57902426 109.61328125 20.7109375 C110.51611361 21.93000725 111.41601956 23.1512516 112.3125 24.375 C116.05004959 29.41511215 119.85713879 34.37070778 123.80859375 39.24609375 C127.34975798 43.69621992 130.77513561 48.23461608 134.22021484 52.75927734 C137.12290545 56.5652145 140.04836994 60.34360466 143.0625 64.0625 C146.58841763 68.43403384 149.99199173 72.89257674 153.375 77.375 C153.899729 78.06601807 154.42445801 78.75703613 154.96508789 79.46899414 C155.45871826 80.12633545 155.95234863 80.78367676 156.4609375 81.4609375 C156.90228027 82.04665527 157.34362305 82.63237305 157.79833984 83.23583984 C159.05975676 85.08772904 160.04292953 86.97643198 161 89 C166.00825674 85.27591165 169.61720794 80.90235111 173.50390625 76.0390625 C176.11358315 72.86170941 178.83156776 69.82724626 181.625 66.8125 C182.09711914 66.30243408 182.56923828 65.79236816 183.05566406 65.2668457 C183.74547363 64.52180786 183.74547363 64.52180786 184.44921875 63.76171875 C190.19760827 57.53796471 195.66115122 51.06605861 201.17114258 44.63208008 C217.19190972 25.93086295 217.19190972 25.93086295 224.25 18.25 C228.41314318 13.71271813 232.33116765 9.01460027 236.1875 4.21484375 C238 2 238 2 240 0 C242.79684797 -0.17525055 245.4932808 -0.23143189 248.2890625 -0.1953125 C249.51669815 -0.19106766 249.51669815 -0.19106766 250.76913452 -0.18673706 C253.38790393 -0.17552532 256.00633364 -0.15041929 258.625 -0.125 C260.39843257 -0.11497147 262.17187049 -0.1058454 263.9453125 -0.09765625 C268.29700626 -0.07558278 272.6484455 -0.04104644 277 0 C273.45620298 4.86570786 269.81958866 9.43554683 265.6875 13.8125 C262.16513928 17.58334335 258.79264264 21.40863118 255.5625 25.4375 C251.19859541 30.85908343 246.5157847 35.92842117 241.7734375 41.015625 C237.45771049 45.64558998 233.33695457 50.43416182 229.2265625 55.24609375 C228.1928284 56.45583177 227.15897086 57.66546433 226.125 58.875 C225.60655518 59.48158447 225.08811035 60.08816895 224.55395508 60.71313477 C220.76766787 65.13195326 216.90750458 69.47685209 213 73.7890625 C209.01910066 78.18982232 205.13027993 82.6678627 201.28515625 87.1875 C200.27360296 88.37514095 199.2618791 89.56263664 198.25 90.75 C197.48695557 91.64634155 197.48695557 91.64634155 196.70849609 92.56079102 C192.30804523 97.70201435 187.7318499 102.65831606 183.08203125 107.57421875 C180.82522172 109.89448398 180.82522172 109.89448398 180 113 C181.0079705 114.98376699 181.0079705 114.98376699 182.61328125 116.9921875 C183.1964209 117.77255371 183.77956055 118.55291992 184.38037109 119.35693359 C185.01797363 120.18789551 185.65557617 121.01885742 186.3125 121.875 C187.28437256 123.16591553 187.28437256 123.16591553 188.27587891 124.48291016 C190.17311842 126.99704639 192.08393461 129.50019457 194 132 C194.45906738 132.60199219 194.91813477 133.20398438 195.39111328 133.82421875 C197.33767316 136.3765676 199.29636654 138.91912144 201.26171875 141.45703125 C210.7443677 153.70231346 220.07074472 166.06847573 229.34765625 178.4699707 C234.60145668 185.48630529 239.91127297 192.45895695 245.23046875 199.42578125 C249.65636045 205.22611979 254.04805614 211.0505027 258.41601562 216.89453125 C262.64022854 222.53821653 266.91131358 228.14563037 271.1875 233.75 C276.8257308 241.14165935 282.45870426 248.53519692 288 256 C288.47373047 256.63760254 288.94746094 257.27520508 289.43554688 257.93212891 C290.9809859 260.01496366 292.52236607 262.10074014 294.0625 264.1875 C294.55274658 264.84862793 295.04299316 265.50975586 295.5480957 266.19091797 C299 270.88461684 299 270.88461684 299 272 C287.30839898 272.278705 275.61759461 272.4915883 263.92334175 272.62174606 C258.49229291 272.68423534 253.06352503 272.76890296 247.63378906 272.90527344 C242.38807865 273.03618928 237.14455356 273.10751537 231.89733505 273.13852692 C229.90124993 273.16060856 227.90527742 273.20373482 225.91012955 273.26876068 C209.48024664 273.78267965 209.48024664 273.78267965 204.65228271 269.46398926 C202.00704621 266.57415738 200.01993829 263.35244872 198 260 C196.46447456 257.91642139 194.86169538 255.90137097 193.25 253.875 C192.42014915 252.79038079 191.5916482 251.7047246 190.765625 250.6171875 C187.54077082 246.38783161 184.26932114 242.19501459 181 238 C176.98512002 232.84460227 172.97898841 227.68315595 169 222.5 C160.31110804 211.18589274 151.53818043 199.93660155 142.71582031 188.72631836 C139.12608107 184.16464028 135.55619827 179.58785989 132 175 C126.69891473 179.17319479 122.65144533 183.73849208 118.453125 189.0078125 C115.90517226 192.11566569 113.23996194 195.06300068 110.5 198 C107.04790667 201.70815683 103.73475013 205.48509432 100.5625 209.4375 C96.71889943 214.21621628 92.63039836 218.69157687 88.44165039 223.16381836 C85.32446055 226.51099327 82.36426202 229.93005023 79.5 233.5 C74.71715667 239.45681396 69.52538096 244.99088056 64.3203125 250.57519531 C62.64597087 252.38204771 61.00200395 254.21293419 59.375 256.0625 C58.61364746 256.90349243 58.61364746 256.90349243 57.83691406 257.76147461 C55.88376717 260.04370176 55.88376717 260.04370176 54.13769531 262.9831543 C48.56586361 271.185852 48.56586361 271.185852 43.9932251 272.63674927 C38.46368914 273.49425226 32.93431189 273.09670743 27.375 272.75 C25.68638886 272.68970404 23.9975695 272.63496912 22.30859375 272.5859375 C18.20052231 272.45468263 14.10259038 272.24833311 10 272 C13.40362564 267.34627056 16.86283531 262.89916566 20.8125 258.6875 C24.98995893 254.15983493 28.9076797 249.48632513 32.77734375 244.6953125 C35.71140185 241.13731585 38.79261855 237.72797633 41.89453125 234.31640625 C45.94159895 229.86388093 49.87763771 225.31728945 53.78515625 220.7421875 C54.81507479 219.53643324 55.84502353 218.33070477 56.875 217.125 C57.65447998 216.2122229 57.65447998 216.2122229 58.44970703 215.28100586 C61.47892533 211.74376142 64.55148583 208.25607423 67.6875 204.8125 C70.71712868 201.47772886 73.60608092 198.06712361 76.4375 194.5625 C80.30058217 189.78571491 84.37911435 185.26053118 88.5390625 180.7421875 C90.91039895 178.09984117 93.15252997 175.39305833 95.375 172.625 C99.36458118 167.66478727 103.6156709 163.01009307 108.01513672 158.41455078 C110.51191313 155.77289054 112.63306097 153.39688443 114 150 C113.32195312 149.14019531 112.64390625 148.28039062 111.9453125 147.39453125 C105.99200128 139.83670506 100.08671894 132.24473169 94.23388672 124.60888672 C92.15907413 121.90350188 90.07927147 119.20195834 88 116.5 C87.16664307 115.41668482 86.33330973 114.33335149 85.5 113.25 C85.0875 112.71375 84.675 112.1775 84.25 111.625 C79.66666667 105.66666667 75.08333333 99.70833333 70.5 93.75 C70.0877417 93.21407227 69.6754834 92.67814453 69.25073242 92.12597656 C68.41492624 91.03941221 67.57915165 89.95282355 66.7434082 88.86621094 C64.69816364 86.20711452 62.65230009 83.5485006 60.60546875 80.890625 C57.05393096 76.27764215 53.50429718 71.6634001 49.97265625 67.03515625 C43.69796219 58.81248025 37.38660087 50.62043011 31.02929688 42.46142578 C25.99180345 35.99532629 20.9912914 29.50181379 16 23 C14.68490229 21.29274966 13.36907405 19.586064 12.05322266 17.87939453 C10.79145204 16.24131466 9.53200901 14.60147611 8.2734375 12.9609375 C6.86688476 11.12903548 5.4562383 9.30025885 4.0390625 7.4765625 C3.48992187 6.76242188 2.94078125 6.04828125 2.375 5.3125 C1.90835938 4.71050781 1.44171875 4.10851562 0.9609375 3.48828125 C0 2 0 2 0 0 Z " fill="#FCFCFC" transform="translate(164,177)"/>
<path d="M0 0 C24.21947989 -2.07004102 24.21947989 -2.07004102 29.53125 2.109375 C31.61985512 4.68532132 33.35249886 7.24601275 34.93945312 10.15673828 C36.8500058 13.47733512 39.28428921 16.41316151 41.625 19.4375 C42.6461264 20.80513326 43.66425842 22.17500633 44.6796875 23.546875 C48.33042932 28.4571779 52.03789541 33.32350232 55.75 38.1875 C56.42498535 39.07236084 57.0999707 39.95722168 57.79541016 40.86889648 C59.17527768 42.6775447 60.55532427 44.48605633 61.93554688 46.29443359 C65.29287541 50.69437622 68.64626265 55.0973199 72 59.5 C73.32941239 61.24480286 74.6588395 62.98959451 75.98828125 64.734375 C78.69442277 68.28614443 81.40010176 71.83826559 84.10546875 75.390625 C90.23021214 83.43227281 96.357149 91.47217238 102.5 99.5 C110.70467504 110.22233673 118.88160608 120.96580391 127.06152344 131.70703125 C133.86728545 140.64343325 140.67394642 149.57908334 147.5 158.5 C155.01427115 168.32247707 162.5199805 178.15140363 170 188 C170.58797363 188.7739209 171.17594727 189.5478418 171.78173828 190.34521484 C173.39943175 192.47769267 175.01305453 194.61317523 176.625 196.75 C177.08527588 197.35658447 177.54555176 197.96316895 178.01977539 198.58813477 C181.53811742 203.26743292 184.79075491 208.10454139 188 213 C163.88562924 215.24882941 163.88562924 215.24882941 158.10546875 210.4921875 C155.65094428 207.83428112 153.75686672 204.87331861 151.98681641 201.7265625 C150.55445924 199.22046902 148.80826267 196.98253069 147.0625 194.6875 C146.42699219 193.79546875 145.79148437 192.9034375 145.13671875 191.984375 C137.85530027 181.81434993 130.19347362 171.92279329 122.49584961 162.06640625 C115.88699331 153.59494748 109.39220464 145.03738352 102.89013672 136.48388672 C100.10013008 132.8174533 97.30047532 129.15843952 94.5 125.5 C74.20164236 98.96545695 74.20164236 98.96545695 64.375 85.8125 C59.09128052 78.74202547 53.71743226 71.75034511 48.27783203 64.79931641 C43.20444994 58.30052146 38.25673529 51.71158323 33.32202148 45.10717773 C28.76254132 39.00706759 24.14114857 32.96026221 19.48876953 26.93066406 C16.15277983 22.60449048 12.82326487 18.27345725 9.5 13.9375 C8.79238525 13.01976807 8.08477051 12.10203613 7.35571289 11.15649414 C6.69176514 10.28887451 6.02781738 9.42125488 5.34375 8.52734375 C4.44946289 7.36319946 4.44946289 7.36319946 3.53710938 6.17553711 C2.12368974 4.17506341 1.0229801 2.22056143 0 0 Z " fill="#010101" transform="translate(220,206)"/>
<path d="M0 0 C0.33 0 0.66 0 1 0 C1.06860495 38.82114086 1.12149764 77.64227261 1.15319599 116.46346178 C1.15694829 121.04237306 1.16083124 125.62128421 1.16479492 130.20019531 C1.16558185 131.1118082 1.16636878 132.02342108 1.16717956 132.9626586 C1.18024815 147.74057221 1.20390995 162.51845095 1.23145839 177.29634385 C1.25947224 192.44981762 1.27616772 207.60327308 1.28226548 222.75677168 C1.2863903 232.11398291 1.29943723 241.47109562 1.3237494 250.82827653 C1.33955702 257.23712326 1.3444117 263.64591874 1.34050413 270.05478357 C1.33857478 273.75728619 1.34161718 277.45961615 1.35761642 281.16208839 C1.37480282 285.16834398 1.36899741 289.17422772 1.36076355 293.18051147 C1.36950207 294.36142502 1.3782406 295.54233857 1.38724393 296.75903738 C1.38127078 297.82545512 1.37529764 298.89187287 1.36914349 299.99060631 C1.37028265 300.91636447 1.37142181 301.84212264 1.37259549 302.79593408 C1.24963898 303.52327583 1.12668247 304.25061759 1 305 C0.01 305.66 -0.98 306.32 -2 307 C-2.04575062 268.46768366 -2.08100556 229.93537141 -2.10213066 191.40303342 C-2.10463215 186.85674229 -2.10722079 182.31045121 -2.10986328 177.76416016 C-2.1103879 176.85905312 -2.11091252 175.95394609 -2.11145304 175.02141157 C-2.1201621 160.35479026 -2.13593482 145.68818459 -2.15430559 131.02157256 C-2.17299073 115.97882915 -2.18411378 100.93609394 -2.18817699 85.8933394 C-2.19092493 76.60678943 -2.19961254 67.32028365 -2.21583293 58.03374729 C-2.22638271 51.67067951 -2.22960519 45.30763466 -2.22700275 38.94455877 C-2.22571833 35.27019942 -2.22772475 31.59591743 -2.23841095 27.92157173 C-2.24989957 23.94237548 -2.24598956 19.9632809 -2.24050903 15.98406982 C-2.24633472 14.81676386 -2.2521604 13.64945789 -2.25816262 12.44677901 C-2.25418052 11.38334596 -2.25019842 10.31991291 -2.24609566 9.22425461 C-2.2468551 8.30533141 -2.24761454 7.38640821 -2.24839699 6.43963885 C-1.9855974 3.85854438 -1.30671568 2.22092793 0 0 Z " fill="#111111" transform="translate(65,159)"/>
<path d="M0 0 C-1.70825261 2.14128996 -2.58627443 2.93397274 -5.33467644 3.37259549 C-6.26309265 3.37145633 -7.19150886 3.37031717 -8.14805889 3.36914349 C-9.21995108 3.37511663 -10.29184327 3.38108978 -11.39621705 3.38724393 C-13.16905453 3.37413614 -13.16905453 3.37413614 -14.97770691 3.36076355 C-16.85590235 3.36460846 -16.85590235 3.36460846 -18.77204114 3.36853105 C-22.25424822 3.37525573 -25.73617976 3.36321639 -29.21835172 3.34819686 C-32.97089034 3.33526917 -36.72341279 3.33962364 -40.47596741 3.34190369 C-46.97973006 3.3434785 -53.48340258 3.33404766 -59.98714256 3.31719017 C-69.39050125 3.2928328 -78.79381626 3.28499825 -88.19720308 3.2812262 C-103.45270112 3.27465658 -118.70815111 3.2546816 -133.96362305 3.22631836 C-148.78490966 3.19879098 -163.60618323 3.17755094 -178.42749023 3.16479492 C-179.34072271 3.16400675 -180.25395519 3.16321858 -181.19486137 3.16240653 C-185.77617519 3.15849148 -190.3574891 3.15470034 -194.93880308 3.15097082 C-232.95923571 3.11985903 -270.97961468 3.06700937 -309 3 C-309 2.67 -309 2.34 -309 2 C-302.68814179 0.87751896 -296.49531366 0.84740328 -290.09536743 0.84178162 C-288.89925571 0.83684364 -287.70314399 0.83190566 -286.47078645 0.82681805 C-283.16330724 0.81414353 -279.85586979 0.80583534 -276.54837608 0.79939139 C-272.97636602 0.79136111 -269.40437704 0.77767173 -265.8323822 0.76467896 C-259.64578541 0.74294824 -253.45918645 0.72479042 -247.27257156 0.70907402 C-238.318022 0.68632281 -229.36349568 0.65818476 -220.40896587 0.62875474 C-205.86705531 0.58110958 -191.32513513 0.53784381 -176.78320312 0.49731445 C-162.68130729 0.45800248 -148.57942028 0.41657207 -134.47753906 0.37231445 C-133.60927705 0.36959018 -132.74101504 0.36686591 -131.84644206 0.36405908 C-127.48922367 0.3503758 -123.13200541 0.33665444 -118.77478719 0.32291877 C-92.15752146 0.23907619 -65.54024804 0.15803149 -38.92295885 0.08198678 C-36.83185154 0.07599853 -34.74074437 0.06996396 -32.64963722 0.06391716 C-28.81929191 0.05285402 -24.98894595 0.04202403 -21.15859985 0.03123474 C-20.04954241 0.02802591 -18.94048497 0.02481708 -17.79781973 0.02151102 C-11.86518402 0.00506695 -5.93265856 -0.0030966 0 0 Z " fill="#121212" transform="translate(468,560)"/>
<path d="M0 0 C0.33 0 0.66 0 1 0 C1 99 1 198 1 300 C0.67 300 0.34 300 0 300 C-0.33 301.65 -0.66 303.3 -1 305 C-1.33 305 -1.66 305 -2 305 C-1.89541962 266.57803238 -1.78564865 228.15608295 -1.66888306 189.73415036 C-1.65511292 185.20159189 -1.64138591 180.66903329 -1.62768555 176.13647461 C-1.62495724 175.23409588 -1.62222894 174.33171715 -1.61941796 173.40199361 C-1.57530206 158.77674456 -1.53468252 144.15148777 -1.49534739 129.52622517 C-1.4549304 114.52754422 -1.41077399 99.52887767 -1.36312145 84.53021795 C-1.33381858 75.26979326 -1.3074581 66.00936968 -1.28482103 56.74892626 C-1.26903442 50.40501417 -1.24962677 44.06111971 -1.22733159 37.71722718 C-1.21456261 34.05314929 -1.20342853 30.38908499 -1.19658089 26.72499084 C-1.18912671 22.75858625 -1.17406719 18.79223188 -1.15821838 14.82585144 C-1.15724028 13.65952358 -1.15626217 12.49319572 -1.15525442 11.29152459 C-1.14977998 10.23356598 -1.14430554 9.17560737 -1.1386652 8.08558941 C-1.13600716 7.16932425 -1.13334911 6.2530591 -1.13061053 5.30902833 C-1 3 -1 3 0 0 Z " fill="#111111" transform="translate(562,163)"/>
<path d="M0 0 C12.16962185 -0.11583012 24.33911265 -0.20468336 36.50917339 -0.25906086 C42.16020358 -0.28515893 47.81085674 -0.32056158 53.46166992 -0.37719727 C58.91465271 -0.43150841 64.36727277 -0.46141895 69.82050514 -0.47438622 C71.90137251 -0.48362762 73.98221994 -0.50167402 76.06293297 -0.52865028 C78.97688123 -0.5649282 81.88932919 -0.56994581 84.8034668 -0.56762695 C85.66445984 -0.58560333 86.52545288 -0.60357971 87.41253662 -0.62210083 C91.74697635 -0.58475832 93.444929 -0.44699175 96.93025208 2.35969543 C97.61326889 3.23099594 98.29628571 4.10229645 99 5 C99.763125 5.928125 100.52625 6.85625 101.3125 7.8125 C101.869375 8.534375 102.42625 9.25625 103 10 C102.34 10.66 101.68 11.32 101 12 C100.67488623 11.43303658 100.34977245 10.86607315 100.01480675 10.28192902 C97.25532836 5.8783844 97.25532836 5.8783844 92.94481277 3.2620697 C90.49522455 3.01644066 88.15064915 3.00925014 85.68994141 3.09179688 C84.77222961 3.09062866 83.85451782 3.08946045 82.90899658 3.08825684 C79.88828944 3.0938121 76.8715759 3.1559404 73.8515625 3.21875 C71.75265662 3.23367769 69.65372281 3.24506222 67.55477905 3.25305176 C62.04012595 3.28354395 56.52716842 3.36208308 51.01318359 3.45068359 C45.38272031 3.5326373 39.75198202 3.56908366 34.12109375 3.609375 C23.07998567 3.69507909 12.04013403 3.83155185 1 4 C0.67 2.68 0.34 1.36 0 0 Z " fill="#2E2E2E" transform="translate(162,174)"/>
<path d="M0 0 C4.78719262 4.65421505 4.78719262 4.65421505 6.62139893 7.63456726 C9.46958002 10.46698035 11.33420233 10.60748886 15.2726593 10.68556213 C16.1091954 10.67693649 16.94573151 10.66831085 17.80761719 10.65942383 C18.69577621 10.66990753 19.58393524 10.68039124 20.49900818 10.69119263 C23.43198452 10.71997289 26.36378257 10.71364762 29.296875 10.70703125 C31.33141563 10.72014448 33.36594323 10.73544754 35.40045166 10.75285339 C40.7533045 10.79276006 46.10581721 10.80289751 51.45880127 10.80688477 C56.92185827 10.81620549 62.38471452 10.85361239 67.84765625 10.88867188 C78.56509474 10.9533055 89.28238368 10.98649826 100 11 C96.99212268 14.00787732 93.58691739 13.35255598 89.54638672 13.40161133 C88.23386177 13.42855324 88.23386177 13.42855324 86.89482117 13.45603943 C83.98982129 13.51090379 81.085012 13.54876818 78.1796875 13.58203125 C76.69147177 13.59987451 76.69147177 13.59987451 75.17319107 13.61807823 C69.91856488 13.6774368 64.66402769 13.72124643 59.40917969 13.75512695 C55.06277749 13.78625221 50.71860434 13.8488565 46.37304688 13.93969727 C41.12494957 14.04933882 35.87889417 14.10473602 30.62970352 14.12152672 C28.63208059 14.1367812 26.63450709 14.17079298 24.63753891 14.22416115 C8.95668142 14.61994938 8.95668142 14.61994938 3.94830322 10.47348022 C1.92485115 7.71899819 0.35638107 5.13040056 -1 2 C-0.67 1.34 -0.34 0.68 0 0 Z " fill="#343434" transform="translate(363,438)"/>
<path d="M0 0 C2.99593621 2.86248693 5.48528375 5.85041493 7.9375 9.1875 C8.73349009 10.26367592 9.53042082 11.33915652 10.328125 12.4140625 C10.97104492 13.2807959 10.97104492 13.2807959 11.62695312 14.16503906 C14.11434605 17.48922918 16.65609611 20.77178912 19.1875 24.0625 C25.14349388 31.82262081 30.95438277 39.68433631 36.7421875 47.5703125 C40.78626004 53.07849567 44.88435702 58.54513986 49 64 C48.34 64.66 47.68 65.32 47 66 C45.7815625 64.37541667 44.56313129 62.75082862 43.34472656 61.1262207 C42.26345007 59.6845739 41.18206644 58.24300744 40.10058594 56.80151367 C37.42921171 53.24057953 34.75896308 49.67882973 32.09375 46.11328125 C26.32694748 38.40270194 20.52128728 30.72254563 14.6875 23.0625 C14.02975586 22.19858643 13.37201172 21.33467285 12.69433594 20.44458008 C12.05657227 19.60822021 11.41880859 18.77186035 10.76171875 17.91015625 C10.14216309 17.09434082 9.52260742 16.27852539 8.88427734 15.43798828 C7.60078235 13.77732735 6.29258627 12.13553398 4.96337891 10.51123047 C4.32190918 9.72248535 3.68043945 8.93374023 3.01953125 8.12109375 C2.14905151 7.07393188 2.14905151 7.07393188 1.26098633 6.00561523 C0 4 0 4 0 0 Z " fill="#161616" transform="translate(384,341)"/>
<path d="M0 0 C8.58 0 17.16 0 26 0 C26 0.66 26 1.32 26 2 C15.605 2.495 15.605 2.495 5 3 C6.98 5.64 8.96 8.28 11 11 C12.67354237 13.32840678 14.34256894 15.66009733 16 18 C15.34 18.66 14.68 19.32 14 20 C12.03636576 17.42065754 10.0800489 14.83585415 8.125 12.25 C7.56941406 11.52039063 7.01382813 10.79078125 6.44140625 10.0390625 C5.90644531 9.33007812 5.37148437 8.62109375 4.8203125 7.890625 C4.08192139 6.91657715 4.08192139 6.91657715 3.32861328 5.92285156 C2 4 2 4 0 0 Z " fill="#111111" transform="translate(220,206)"/>
<path d="M0 0 C7.62324222 7.43300088 15.3053851 15.97195199 21 25 C21 25.66 21 26.32 21 27 C21.66 27 22.32 27 23 27 C24.28006797 28.78398614 25.47660351 30.62853906 26.625 32.5 C27.25664062 33.5209375 27.88828125 34.541875 28.5390625 35.59375 C29.02117187 36.3878125 29.50328125 37.181875 30 38 C29.01 38.495 29.01 38.495 28 39 C27.47792969 38.29617187 26.95585937 37.59234375 26.41796875 36.8671875 C22.15652413 31.15043343 17.84497468 25.48010786 13.4375 19.875 C12.97714355 19.28855713 12.51678711 18.70211426 12.04248047 18.09790039 C9.8964817 15.37302168 7.73004471 12.67256212 5.5234375 9.99609375 C4.79382813 9.11050781 4.06421875 8.22492188 3.3125 7.3125 C2.66925781 6.54550781 2.02601563 5.77851563 1.36328125 4.98828125 C0 3 0 3 0 0 Z " fill="#141414" transform="translate(266,187)"/>
<path d="M0 0 C3.07533394 2.93053122 5.60974993 6.01731678 8.125 9.4375 C11.0237948 13.35517812 13.95116491 17.23945246 16.94921875 21.08154297 C20.95308316 26.21713032 24.69399279 31.37978775 28 37 C27.01 37.495 27.01 37.495 26 38 C25.60321045 37.46745605 25.2064209 36.93491211 24.79760742 36.38623047 C22.92941237 33.88110786 21.05863549 31.37792707 19.1875 28.875 C18.51130615 27.96878906 17.8351123 27.06257813 17.13842773 26.12890625 C13.99959086 21.93736774 10.84671272 17.76810122 7.5546875 13.6953125 C6.79055542 12.74809326 6.79055542 12.74809326 6.01098633 11.78173828 C5.066159 10.61953538 4.11319789 9.46388411 3.15112305 8.31591797 C0.58745218 5.16040369 0 4.24663815 0 0 Z " fill="#181818" transform="translate(285,289)"/>
<path d="M0 0 C4.46815078 4.21523659 8.14499326 8.87914521 11.875 13.75 C12.46152344 14.51054687 13.04804688 15.27109375 13.65234375 16.0546875 C14.83549426 17.58888266 16.01487461 19.12599284 17.19042969 20.66601562 C18.43903402 22.2764659 19.71225374 23.86802672 21.00488281 25.44335938 C21.96539551 26.62381836 21.96539551 26.62381836 22.9453125 27.828125 C23.53070801 28.53356445 24.11610352 29.23900391 24.71923828 29.96582031 C26 32 26 32 26 36 C22.28022018 32.53584486 19.37499471 28.63883238 16.375 24.5625 C13.28980542 20.39519207 10.20629643 16.23328181 6.9921875 12.1640625 C6.29730225 11.2812561 6.29730225 11.2812561 5.58837891 10.38061523 C4.31891802 8.77468469 3.04246725 7.17428679 1.765625 5.57421875 C0 3 0 3 0 0 Z " fill="#181818" transform="translate(434,408)"/>
<path d="M0 0 C0.99 0.33 1.98 0.66 3 1 C2.03900391 2.051875 2.03900391 2.051875 1.05859375 3.125 C-4.0222842 8.69806434 -9.05587033 14.30500951 -14 20 C-15.3119514 21.50047985 -16.62444233 23.00048814 -17.9375 24.5 C-18.52402344 25.1703125 -19.11054688 25.840625 -19.71484375 26.53125 C-20.13894531 27.0159375 -20.56304687 27.500625 -21 28 C-21.99 27.67 -22.98 27.34 -24 27 C-23.59910156 26.62230469 -23.19820312 26.24460937 -22.78515625 25.85546875 C-18.23760672 21.45228587 -14.25594785 16.72871615 -10.2890625 11.80078125 C-6.98295273 7.75559233 -3.50748486 3.87065768 0 0 Z " fill="#1C1C1C" transform="translate(242,411)"/>
<path d="M0 0 C2.36384804 0.38635885 3.69312142 0.69423502 5.4128418 2.40771484 C6.04959839 3.30031006 6.04959839 3.30031006 6.69921875 4.2109375 C7.18229492 4.87416016 7.66537109 5.53738281 8.16308594 6.22070312 C8.66614258 6.93162109 9.16919922 7.64253906 9.6875 8.375 C10.74672302 9.83216678 11.80793731 11.28788808 12.87109375 12.7421875 C13.39558105 13.46245117 13.92006836 14.18271484 14.46044922 14.92480469 C17.79817293 19.42379795 21.4002752 23.70941893 25 28 C24.34 28.66 23.68 29.32 23 30 C17.2527733 23.28642545 11.73815228 16.44680679 6.4375 9.375 C5.91317383 8.67632812 5.38884766 7.97765625 4.84863281 7.2578125 C1.1354612 2.27092241 1.1354612 2.27092241 0 0 Z " fill="#191919" transform="translate(330,398)"/>
<path d="M0 0 C4.3344683 4.13856013 8.06714281 8.64019822 11.8125 13.3125 C12.7087207 14.42334961 12.7087207 14.42334961 13.62304688 15.55664062 C15.0846418 17.36901834 16.54354027 19.183495 18 21 C17.34 21.66 16.68 22.32 16 23 C15.34 21.68 14.68 20.36 14 19 C13.34 19 12.68 19 12 19 C10.64482856 17.29870251 9.36477042 15.53714076 8.125 13.75 C5.63569949 10.17222208 3.17663209 6.99144726 0 4 C-1.32 5.32 -2.64 6.64 -4 8 C-4.99 7.67 -5.98 7.34 -7 7 C-4.69 4.69 -2.38 2.38 0 0 Z " fill="#1A1A1A" transform="translate(295,351)"/>
<path d="M0 0 C0.66 0.66 1.32 1.32 2 2 C-4.12766246 10.9307421 -10.49553912 19.17620035 -18 27 C-18.66 26.34 -19.32 25.68 -20 25 C-19.57589844 24.59910156 -19.15179687 24.19820312 -18.71484375 23.78515625 C-10.41047055 15.87337012 -10.41047055 15.87337012 -5 6 C-4.34 6 -3.68 6 -3 6 C-2.690625 5.195625 -2.38125 4.39125 -2.0625 3.5625 C-1 1 -1 1 0 0 Z " fill="#141414" transform="translate(546,505)"/>
<path d="M0 0 C4.06883233 1.53384876 5.81481595 4.08881153 8.3125 7.5625 C11.68746949 12.22897661 15.18318452 16.74526686 18.8828125 21.16015625 C19.25148438 21.76730469 19.62015625 22.37445313 20 23 C19.67 23.99 19.34 24.98 19 26 C14.06017992 20.04596566 9.19148607 14.04082206 4.4375 7.9375 C3.99615723 7.37780518 3.55481445 6.81811035 3.10009766 6.24145508 C0 2.23300541 0 2.23300541 0 0 Z " fill="#191919" transform="translate(246,287)"/>
<path d="M0 0 C9.86521751 1.82127092 16.99616145 13.66074883 23 21 C22.34 21.66 21.68 22.32 21 23 C20.21496094 22.07058594 19.42992187 21.14117187 18.62109375 20.18359375 C13.28275942 13.89180334 7.96931079 7.70977553 2 2 C1.34 1.34 0.68 0.68 0 0 Z " fill="#252525" transform="translate(520,90)"/>
<path d="M0 0 C3.1250627 1.56253135 3.71237785 4.26272856 5.1875 7.375 C8.33887141 13.89989558 11.95746885 19.97920893 16 26 C15.01 26 14.02 26 13 26 C11.37249854 23.83898977 9.96014122 21.74045808 8.5625 19.4375 C8.18029297 18.82841797 7.79808594 18.21933594 7.40429688 17.59179688 C6.24961443 15.73920789 5.12115061 13.87304689 4 12 C3.42209717 11.04782593 3.42209717 11.04782593 2.83251953 10.07641602 C0.72133548 6.5177099 -0.50811884 4.19198046 0 0 Z " fill="#1A1A1A" transform="translate(73,493)"/>
<path d="M0 0 C2.30807992 2.30807992 2.53353784 3.4814412 3.25390625 6.61328125 C3.46853516 7.53173828 3.68316406 8.45019531 3.90429688 9.39648438 C4.12150391 10.35876953 4.33871094 11.32105469 4.5625 12.3125 C4.78357422 13.26318359 5.00464844 14.21386719 5.23242188 15.19335938 C6.21737838 19.45158525 7.15680292 23.71123439 8 28 C7.34 28.33 6.68 28.66 6 29 C5.18428782 26.43848317 4.37233869 23.87587372 3.5625 21.3125 C3.21735352 20.2306543 3.21735352 20.2306543 2.86523438 19.12695312 C0.79308033 12.55011637 -0.11693565 6.8992035 0 0 Z " fill="#0E0E0E" transform="translate(64,462)"/>
<path d="M0 0 C9.9685816 -0.81376176 19.67140859 2.81392724 29 6 C28.67 6.66 28.34 7.32 28 8 C18.66666667 5.66666667 9.33333333 3.33333333 0 1 C0 0.67 0 0.34 0 0 Z " fill="#0F0F0F" transform="translate(462,64)"/>
<path d="M0 0 C5 5 5 5 7.375 7.4375 C12.72930874 12.82922586 12.72930874 12.82922586 19 17 C19 17.66 19 18.32 19 19 C19.66 19 20.32 19 21 19 C20.67 19.99 20.34 20.98 20 22 C3.64630553 8.62194016 3.64630553 8.62194016 0 3 C0 2.01 0 1.02 0 0 Z " fill="#212121" transform="translate(90,520)"/>
<path d="M0 0 C4.32448087 4.06773989 7.79990263 8.53656263 11.3125 13.3125 C12.13717773 14.42334961 12.13717773 14.42334961 12.97851562 15.55664062 C14.32272179 17.36839676 15.66308744 19.182859 17 21 C16.34 21.66 15.68 22.32 15 23 C14.43152344 22.23816406 13.86304688 21.47632813 13.27734375 20.69140625 C8.5805849 14.41076545 3.84423645 8.16822391 -1 2 C-0.67 1.34 -0.34 0.68 0 0 Z " fill="#151515" transform="translate(315,329)"/>
<path d="M0 0 C3.76811975 3.61928917 7.02666788 7.40703387 10.1875 11.5625 C10.62513672 12.12646484 11.06277344 12.69042969 11.51367188 13.27148438 C13.65488793 16.06650685 15.58490953 18.76663687 17 22 C16.34 22.33 15.68 22.66 15 23 C14.43152344 22.23816406 13.86304688 21.47632813 13.27734375 20.69140625 C8.5805849 14.41076545 3.84423645 8.16822391 -1 2 C-0.67 1.34 -0.34 0.68 0 0 Z " fill="#151515" transform="translate(267,266)"/>
<path d="M0 0 C3.8076765 3.6501647 7.07027024 7.48435423 10.25 11.6875 C10.69601562 12.26822266 11.14203125 12.84894531 11.6015625 13.44726562 C14.85679945 17.7135989 14.85679945 17.7135989 16 20 C13.40759444 19.62296763 12.21491562 19.21838714 10.35253906 17.32592773 C9.82885742 16.61895752 9.30517578 15.9119873 8.765625 15.18359375 C8.19199219 14.41982422 7.61835938 13.65605469 7.02734375 12.86914062 C6.14755859 11.66547852 6.14755859 11.66547852 5.25 10.4375 C4.64800781 9.63119141 4.04601562 8.82488281 3.42578125 7.99414062 C1.94110791 6.00279304 0.46644113 4.00479106 -1 2 C-0.67 1.34 -0.34 0.68 0 0 Z " fill="#1D1D1D" transform="translate(315,376)"/>
<path d="M0 0 C4.51107404 1.50369135 5.53170163 4.85127267 7.75 8.875 C8.17410156 9.60847656 8.59820313 10.34195313 9.03515625 11.09765625 C9.62876953 12.15919922 9.62876953 12.15919922 10.234375 13.2421875 C10.59756836 13.8904248 10.96076172 14.53866211 11.33496094 15.20654297 C12 17 12 17 11 20 C8.63737554 17.00264062 6.75604485 13.9158781 4.9375 10.5625 C4.43089844 9.63566406 3.92429687 8.70882812 3.40234375 7.75390625 C2.10684941 5.20982961 1.01186218 2.66763666 0 0 Z " fill="#202020" transform="translate(542,113)"/>
<path d="M0 0 C3.84725418 3.68088643 7.11385725 7.56185919 10.3125 11.8125 C10.76689453 12.40998047 11.22128906 13.00746094 11.68945312 13.62304688 C12.79633917 15.07947588 13.89865264 16.53937817 15 18 C14.34 18.66 13.68 19.32 13 20 C11.0356004 17.58820862 9.07958512 15.16974955 7.125 12.75 C6.56941406 12.06808594 6.01382812 11.38617188 5.44140625 10.68359375 C4.90644531 10.01972656 4.37148438 9.35585938 3.8203125 8.671875 C3.32805176 8.0644043 2.83579102 7.45693359 2.32861328 6.83105469 C0.97359289 4.96360652 -0.02821631 3.0887301 -1 1 C-0.67 0.67 -0.34 0.34 0 0 Z " fill="#1A1A1A" transform="translate(363,360)"/>
<path d="M0 0 C3.65878727 3.56649353 7.0399365 7.26527205 10.3125 11.1875 C10.76689453 11.72052734 11.22128906 12.25355469 11.68945312 12.80273438 C15 16.76045583 15 16.76045583 15 19 C12.01686524 17.68759628 10.21970606 16.40088424 8.203125 13.84765625 C7.71972656 13.23599609 7.23632812 12.62433594 6.73828125 11.99414062 C6.24714844 11.35669922 5.75601562 10.71925781 5.25 10.0625 C4.74339844 9.42892578 4.23679687 8.79535156 3.71484375 8.14257812 C0 3.38137003 0 3.38137003 0 0 Z " fill="#131313" transform="translate(346,370)"/>
<path d="M0 0 C3.68881485 3.53156519 6.77382244 7.18534092 9.8125 11.3125 C10.21919922 11.86228516 10.62589844 12.41207031 11.04492188 12.97851562 C12.03368611 14.31625547 13.01738585 15.65773623 14 17 C13.34 17.66 12.68 18.32 12 19 C10.1760468 16.77940459 8.36602677 14.54958834 6.5625 12.3125 C6.04623047 11.68666016 5.52996094 11.06082031 4.99804688 10.41601562 C2.27737418 7.0196203 0.33535141 4.49714835 0 0 Z " fill="#1A1A1A" transform="translate(300,230)"/>
<path d="M0 0 C8.91 3.96 8.91 3.96 18 8 C17.67 8.66 17.34 9.32 17 10 C10.48180123 8.10463724 4.82185199 5.4821006 -1 2 C-0.67 1.34 -0.34 0.68 0 0 Z " fill="#1C1C1C" transform="translate(120,546)"/>
<path d="M0 0 C0.99 0 1.98 0 3 0 C1.97192078 4.34956593 0.86457382 8.66121546 -0.4375 12.9375 C-0.66308594 13.68902344 -0.88867188 14.44054687 -1.12109375 15.21484375 C-1.41113281 15.80394531 -1.70117188 16.39304687 -2 17 C-2.99 17.33 -3.98 17.66 -5 18 C-3.36959185 11.98922864 -1.72852643 5.98336072 0 0 Z " fill="#171717" transform="translate(558,474)"/>
<path d="M0 0 C4.87072783 4.56630734 8.89156398 9.74976539 13 15 C12.34 15.66 11.68 16.32 11 17 C9.34221993 15.11356061 7.69917198 13.21711283 6.0625 11.3125 C5.35963867 10.51682617 5.35963867 10.51682617 4.64257812 9.70507812 C1.94602719 6.54293566 0.36458558 4.18109845 0 0 Z " fill="#1A1A1A" transform="translate(317,300)"/>
<path d="M0 0 C0.99 0.33 1.98 0.66 3 1 C1.41792503 2.75115168 -0.16561229 4.50094278 -1.75 6.25 C-2.63171875 7.22453125 -3.5134375 8.1990625 -4.421875 9.203125 C-6.56498967 11.5280797 -8.74365438 13.78582907 -11 16 C-10.4472637 11.84460746 -8.14719041 9.44975572 -5.5 6.3125 C-4.6853125 5.33925781 -3.870625 4.36601562 -3.03125 3.36328125 C-1 1 -1 1 0 0 Z " fill="#1A1A1A" transform="translate(439,179)"/>
<path d="M0 0 C0.66 0.66 1.32 1.32 2 2 C1.60167969 2.72445312 1.20335938 3.44890625 0.79296875 4.1953125 C-1.89005132 9.09133453 -4.55744288 13.97918814 -7 19 C-7.33 19 -7.66 19 -8 19 C-7.83112554 11.56952384 -3.86815652 6.15067185 0 0 Z " fill="#1B1B1B" transform="translate(80,116)"/>
<path d="M0 0 C4.87072783 4.56630734 8.89156398 9.74976539 13 15 C12.67 15.66 12.34 16.32 12 17 C11.34 17 10.68 17 10 17 C9.04590367 15.63700524 8.10263989 14.26500527 7.21875 12.85546875 C5.37541694 10.04911233 3.26323368 7.45658287 1.171875 4.83203125 C0 3 0 3 0 0 Z " fill="#1A1A1A" transform="translate(333,321)"/>
<path d="M0 0 C11.11868687 10.79166667 11.11868687 10.79166667 13 17 C12.34 17 11.68 17 11 17 C9.22207539 14.95287216 7.57069603 12.90757439 5.9375 10.75 C5.24817383 9.87021484 5.24817383 9.87021484 4.54492188 8.97265625 C2.27926194 6.01166163 0.7336077 3.64772929 0 0 Z " fill="#1B1B1B" transform="translate(314,249)"/>
<path d="M0 0 C0.66 0 1.32 0 2 0 C3.23681641 1.37695312 3.23681641 1.37695312 4.6015625 3.28125 C5.09140625 3.95800781 5.58125 4.63476562 6.0859375 5.33203125 C6.59382813 6.04746094 7.10171875 6.76289063 7.625 7.5 C8.3984375 8.57314453 8.3984375 8.57314453 9.1875 9.66796875 C10.46422959 11.44120429 11.73470027 13.21859948 13 15 C12.34 15.66 11.68 16.32 11 17 C9.15895764 14.54735411 7.32852207 12.08699041 5.5 9.625 C4.71302734 8.57699219 4.71302734 8.57699219 3.91015625 7.5078125 C3.41386719 6.8375 2.91757812 6.1671875 2.40625 5.4765625 C1.94541016 4.85861816 1.48457031 4.24067383 1.00976562 3.60400391 C0 2 0 2 0 0 Z " fill="#131313" transform="translate(420,390)"/>
<path d="M0 0 C2.96159433 2.88137055 5.68285521 5.87519745 8.3125 9.0625 C9.03050781 9.91972656 9.74851562 10.77695312 10.48828125 11.66015625 C10.98714844 12.43230469 11.48601562 13.20445312 12 14 C11.67 14.99 11.34 15.98 11 17 C8.22418977 14.29788385 5.67265054 11.52313657 3.25 8.5 C2.63640625 7.7471875 2.0228125 6.994375 1.390625 6.21875 C0 4 0 4 0 0 Z " fill="#151515" transform="translate(333,352)"/>
<path d="M0 0 C4.87072783 4.56630734 8.89156398 9.74976539 13 15 C12.34 15.66 11.68 16.32 11 17 C9.15767006 14.73596792 7.32612166 12.4645436 5.5 10.1875 C4.71302734 9.22360352 4.71302734 9.22360352 3.91015625 8.24023438 C3.41386719 7.61826172 2.91757812 6.99628906 2.40625 6.35546875 C1.94541016 5.78465576 1.48457031 5.21384277 1.00976562 4.62573242 C0 3 0 3 0 0 Z " fill="#171717" transform="translate(304,283)"/>
<path d="M0 0 C4.87072783 4.56630734 8.89156398 9.74976539 13 15 C12.34 15.66 11.68 16.32 11 17 C9.53998252 15.23055495 8.08204407 13.45939429 6.625 11.6875 C5.81289062 10.70136719 5.00078125 9.71523437 4.1640625 8.69921875 C0 3.50541516 0 3.50541516 0 0 Z " fill="#1A1A1A" transform="translate(177,196)"/>
<path d="M0 0 C3.04640463 2.86720436 5.78043089 5.83935407 8.375 9.125 C8.89835937 9.78757813 9.42171875 10.45015625 9.9609375 11.1328125 C10.30382812 11.74898437 10.64671875 12.36515625 11 13 C10.67 13.99 10.34 14.98 10 16 C8.5 14.625 8.5 14.625 7 13 C7 12.34 7 11.68 7 11 C6.34 11 5.68 11 5 11 C3.4921875 8.8125 3.4921875 8.8125 1.875 6 C1.33617187 5.071875 0.79734375 4.14375 0.2421875 3.1875 C-0.16773438 2.465625 -0.57765625 1.74375 -1 1 C-0.67 0.67 -0.34 0.34 0 0 Z " fill="#1C1C1C" transform="translate(270,238)"/>
<path d="M0 0 C6.39205856 0.72362927 12.68027076 1.80343362 19 3 C19 3.33 19 3.66 19 4 C12.50448709 5.20287276 7.39014027 4.58444052 1 3 C0.67 2.01 0.34 1.02 0 0 Z " fill="#161616" transform="translate(145,557)"/>
<path d="M0 0 C4.54109672 4.26587874 8.24735246 9.03612328 12 14 C11.34 14.66 10.68 15.32 10 16 C8.3243583 13.90245565 6.65949806 11.79775361 5 9.6875 C4.52304687 9.09259766 4.04609375 8.49769531 3.5546875 7.88476562 C0 3.33984375 0 3.33984375 0 0 Z " fill="#1A1A1A" transform="translate(362,391)"/>
<path d="M0 0 C2.85215083 2.75118973 5.34358701 5.60315225 7.75 8.75 C8.36359375 9.54921875 8.9771875 10.3484375 9.609375 11.171875 C10.06828125 11.77515625 10.5271875 12.3784375 11 13 C10.34 13.66 9.68 14.32 9 15 C7.70376621 13.42040347 6.41318673 11.83616587 5.125 10.25 C4.40570313 9.36828125 3.68640625 8.4865625 2.9453125 7.578125 C1.31557412 5.41823076 0.09215995 3.460234 -1 1 C-0.67 0.67 -0.34 0.34 0 0 Z " fill="#1C1C1C" transform="translate(389,394)"/>
<path d="M0 0 C0.66 0.66 1.32 1.32 2 2 C-1.56320845 7.09210286 -5.04741286 11.22660027 -10 15 C-9.53234153 10.2809009 -7.65065406 8.08167683 -4.4375 4.6875 C-3.61121094 3.80449219 -2.78492188 2.92148438 -1.93359375 2.01171875 C-1.29550781 1.34785156 -0.65742188 0.68398437 0 0 Z " fill="#1C1C1C" transform="translate(425,195)"/>
<path d="M0 0 C0.99 0.33 1.98 0.66 3 1 C2.46890625 1.45890625 1.9378125 1.9178125 1.390625 2.390625 C-2.18324699 5.49493717 -5.71854059 8.58181312 -9 12 C-9.99 11.67 -10.98 11.34 -12 11 C-10.56564079 9.5385774 -9.12739414 8.08096951 -7.6875 6.625 C-6.88699219 5.81289062 -6.08648437 5.00078125 -5.26171875 4.1640625 C-3 2 -3 2 0 0 Z " fill="#212121" transform="translate(103,90)"/>
<path d="M0 0 C0.66 0.66 1.32 1.32 2 2 C-1.63 5.96 -5.26 9.92 -9 14 C-9.33 13.34 -9.66 12.68 -10 12 C-8.52149287 10.18696196 -7.04217625 8.37458402 -5.5625 6.5625 C-4.32693359 5.04849609 -4.32693359 5.04849609 -3.06640625 3.50390625 C-1 1 -1 1 0 0 Z " fill="#1B1B1B" transform="translate(263,387)"/>
<path d="M0 0 C0.66 0 1.32 0 2 0 C0.3718356 3.75730247 -2.01401917 6.616823 -4.625 9.75 C-5.85089844 11.22726562 -5.85089844 11.22726562 -7.1015625 12.734375 C-7.72804688 13.48203125 -8.35453125 14.2296875 -9 15 C-9.33 14.01 -9.66 13.02 -10 12 C-8.46673161 9.78461995 -6.94625767 7.8330484 -5.1875 5.8125 C-4.72279297 5.25369141 -4.25808594 4.69488281 -3.77929688 4.11914062 C-2.57161268 2.70006838 -1.29024826 1.34444285 0 0 Z " fill="#1C1C1C" transform="translate(368,260)"/>
<path d="M0 0 C0.33 0.99 0.66 1.98 1 3 C-2.63 6.96 -6.26 10.92 -10 15 C-10 10.84469116 -8.2148551 9.51148232 -5.5625 6.375 C-4.73878906 5.39273438 -3.91507812 4.41046875 -3.06640625 3.3984375 C-1 1 -1 1 0 0 Z " fill="#191919" transform="translate(383,243)"/>
<path d="M0 0 C0.33 0.99 0.66 1.98 1 3 C-0.87109375 5.69921875 -0.87109375 5.69921875 -3.4375 8.6875 C-4.28183594 9.68136719 -5.12617188 10.67523438 -5.99609375 11.69921875 C-6.98802734 12.83810547 -6.98802734 12.83810547 -8 14 C-8.33 13.01 -8.66 12.02 -9 11 C-7.12890625 8.30078125 -7.12890625 8.30078125 -4.5625 5.3125 C-3.71816406 4.31863281 -2.87382812 3.32476562 -2.00390625 2.30078125 C-1.01197266 1.16189453 -1.01197266 1.16189453 0 0 Z " fill="#1B1B1B" transform="translate(275,373)"/>
<path d="M0 0 C3.67056937 1.47797262 5.41085783 3.47615477 7.75 6.625 C8.67039062 7.85089844 8.67039062 7.85089844 9.609375 9.1015625 C10.29773438 10.04128906 10.29773438 10.04128906 11 11 C10.34 11.66 9.68 12.32 9 13 C7.68227638 11.40012144 6.37098863 9.79494034 5.0625 8.1875 C4.33160156 7.29417969 3.60070312 6.40085938 2.84765625 5.48046875 C1 3 1 3 0 0 Z " fill="#1B1B1B" transform="translate(248,211)"/>
<path d="M0 0 C-0.66 0 -1.32 0 -2 0 C-2 0.66 -2 1.32 -2 2 C-3.45706726 2.50367757 -4.91570096 3.00282556 -6.375 3.5 C-7.59316406 3.91765625 -7.59316406 3.91765625 -8.8359375 4.34375 C-11 5 -11 5 -13 5 C-13 4.01 -13 3.02 -13 2 C-11.39935157 1.46845258 -9.79431126 0.95011647 -8.1875 0.4375 C-7.29417969 0.14746094 -6.40085937 -0.14257812 -5.48046875 -0.44140625 C-3 -1 -3 -1 0 0 Z " fill="#1A1A1A" transform="translate(487,556)"/>
<path d="M0 0 C2.9008605 0.35298081 3.89516676 0.88728296 5.921875 3.06640625 C6.52515625 3.89011719 7.1284375 4.71382812 7.75 5.5625 C8.36359375 6.38878906 8.9771875 7.21507812 9.609375 8.06640625 C10.06828125 8.70449219 10.5271875 9.34257812 11 10 C10.34 10.66 9.68 11.32 9 12 C7.49707257 10.18992669 5.99772829 8.37687764 4.5 6.5625 C3.6646875 5.55316406 2.829375 4.54382813 1.96875 3.50390625 C0 1 0 1 0 0 Z " fill="#191919" transform="translate(258,225)"/>
<path d="M0 0 C0.66 0 1.32 0 2 0 C3.7265625 1.828125 3.7265625 1.828125 5.625 4.25 C6.25664062 5.03890625 6.88828125 5.8278125 7.5390625 6.640625 C9 9 9 9 9 13 C5.48026899 9.74098981 2.47239725 6.1139069 0 2 C0 1.34 0 0.68 0 0 Z " fill="#141414" transform="translate(451,431)"/>
<path d="M0 0 C0.82638376 2.89234315 1 4.88742431 1 8 C1.33 8.99 1.66 9.98 2 11 C1.01 11.495 1.01 11.495 0 12 C-1.98 8.535 -1.98 8.535 -4 5 C-2.68 3.35 -1.36 1.7 0 0 Z " fill="#1F1F1F" transform="translate(347,284)"/>
<path d="M0 0 C3.66161578 1.22053859 4.16270474 2.36782304 6.1875 5.5625 C6.71730469 6.38878906 7.24710938 7.21507812 7.79296875 8.06640625 C8.19128906 8.70449219 8.58960938 9.34257812 9 10 C8.34 10.66 7.68 11.32 7 12 C5.82455195 10.56967163 4.65989738 9.13046758 3.5 7.6875 C2.8503125 6.88699219 2.200625 6.08648437 1.53125 5.26171875 C0 3 0 3 0 0 Z " fill="#1A1A1A" transform="translate(246,239)"/>
<path d="M0 0 C0.33 0.66 0.66 1.32 1 2 C-1.97 5.63 -4.94 9.26 -8 13 C-8.66 12.34 -9.32 11.68 -10 11 C-6.7 7.37 -3.4 3.74 0 0 Z " fill="#1C1C1C" transform="translate(400,179)"/>
<path d="M0 0 C3.9036874 3.46994436 6.36588975 7.55224006 9 12 C8.01 12 7.02 12 6 12 C4.39453125 10.390625 4.39453125 10.390625 2.8125 8.25 C2.01779297 7.20585937 2.01779297 7.20585937 1.20703125 6.140625 C0 4 0 4 0 0 Z " fill="#1F1F1F" transform="translate(443,419)"/>
<path d="M0 0 C1.32 1.32 2.64 2.64 4 4 C0.55384615 9.78461538 0.55384615 9.78461538 -2.25 10.875 C-2.8275 10.91625 -3.405 10.9575 -4 11 C-4 10.34 -4 9.68 -4 9 C-2 7.375 -2 7.375 0 6 C-0.2784375 4.7934375 -0.2784375 4.7934375 -0.5625 3.5625 C-0.706875 2.716875 -0.85125 1.87125 -1 1 C-0.67 0.67 -0.34 0.34 0 0 Z " fill="#222222" transform="translate(275,323)"/>
<path d="M0 0 C0.99 0.33 1.98 0.66 3 1 C0.03 4.3 -2.94 7.6 -6 11 C-6.66 10.34 -7.32 9.68 -8 9 C-5.36 6.03 -2.72 3.06 0 0 Z " fill="#191919" transform="translate(404,219)"/>
<path d="M0 0 C5.70709064 0.46588495 9.15939723 1.93757784 14 5 C13.34 5.66 12.68 6.32 12 7 C8 5 4 3 0 1 C0 0.67 0 0.34 0 0 Z " fill="#191919" transform="translate(493,73)"/>
<path d="M0 0 C3.63559661 3.43361902 6.36113346 6.7973607 9 11 C6.1157546 10.65514457 5.1792182 10.21744593 3.296875 7.93359375 C2.78640625 7.10988281 2.2759375 6.28617187 1.75 5.4375 C1.22921875 4.61121094 0.7084375 3.78492188 0.171875 2.93359375 C-0.21484375 2.29550781 -0.6015625 1.65742188 -1 1 C-0.67 0.67 -0.34 0.34 0 0 Z " fill="#1C1C1C" transform="translate(363,438)"/>
<path d="M0 0 C6.24675325 6.07792208 6.24675325 6.07792208 8 9 C7.67 9.99 7.34 10.98 7 12 C4.36 8.7 1.72 5.4 -1 2 C-0.67 1.34 -0.34 0.68 0 0 Z " fill="#1C1C1C" transform="translate(379,381)"/>
<path d="M0 0 C0.66 0.66 1.32 1.32 2 2 C-0.64 4.97 -3.28 7.94 -6 11 C-6.99 10.67 -7.98 10.34 -9 10 C-6.03 6.7 -3.06 3.4 0 0 Z " fill="#151515" transform="translate(247,361)"/>
<path d="M0 0 C3.9036874 3.46994436 6.36588975 7.55224006 9 12 C8.01 12.495 8.01 12.495 7 13 C5.82157218 11.59310148 4.65762602 10.17406375 3.5 8.75 C2.8503125 7.96109375 2.200625 7.1721875 1.53125 6.359375 C0 4 0 4 0 0 Z " fill="#1E1E1E" transform="translate(362,312)"/>
<path d="M0 0 C3.9036874 3.46994436 6.36588975 7.55224006 9 12 C8.01 12.495 8.01 12.495 7 13 C5.82157218 11.59310148 4.65762602 10.17406375 3.5 8.75 C2.8503125 7.96109375 2.200625 7.1721875 1.53125 6.359375 C0 4 0 4 0 0 Z " fill="#1C1C1C" transform="translate(256,251)"/>
<path d="M0 0 C3.59478807 3.32850747 6.22364768 6.98971331 9 11 C8.34 11.66 7.68 12.32 7 13 C5.82157218 11.59310148 4.65762602 10.17406375 3.5 8.75 C2.8503125 7.96109375 2.200625 7.1721875 1.53125 6.359375 C0 4 0 4 0 0 Z " fill="#141414" transform="translate(237,226)"/>
<path d="M0 0 C3.93548431 3.06093224 6.68116787 5.49115974 9 10 C6 10 6 10 4.39453125 8.57421875 C3.61142578 7.64029297 3.61142578 7.64029297 2.8125 6.6875 C2.01779297 5.76517578 2.01779297 5.76517578 1.20703125 4.82421875 C0 3 0 3 0 0 Z " fill="#1B1B1B" transform="translate(534,102)"/>
<path d="M0 0 C3.28788824 3.11016455 5.83735988 6.01618925 8 10 C7.01 10 6.02 10 5 10 C3.39453125 8.03125 3.39453125 8.03125 1.8125 5.5 C1.28269531 4.6646875 0.75289063 3.829375 0.20703125 2.96875 C-0.19128906 2.3190625 -0.58960938 1.669375 -1 1 C-0.67 0.67 -0.34 0.34 0 0 Z " fill="#1F1F1F" transform="translate(315,329)"/>
<path d="M0 0 C3.28788824 3.11016455 5.83735988 6.01618925 8 10 C7.01 10 6.02 10 5 10 C3.39453125 8.03125 3.39453125 8.03125 1.8125 5.5 C1.28269531 4.6646875 0.75289063 3.829375 0.20703125 2.96875 C-0.19128906 2.3190625 -0.58960938 1.669375 -1 1 C-0.67 0.67 -0.34 0.34 0 0 Z " fill="#1D1D1D" transform="translate(267,266)"/>
<path d="M0 0 C0.33 0.99 0.66 1.98 1 3 C-0.21484375 4.82421875 -0.21484375 4.82421875 -1.9375 6.6875 C-2.50339844 7.31011719 -3.06929688 7.93273437 -3.65234375 8.57421875 C-4.09707031 9.04472656 -4.54179687 9.51523438 -5 10 C-5.99 9.67 -6.98 9.34 -8 9 C-5.36 6.03 -2.72 3.06 0 0 Z " fill="#212121" transform="translate(395,229)"/>
<path d="M0 0 C0.66 0 1.32 0 2 0 C3.5078125 1.6796875 3.5078125 1.6796875 5.125 3.875 C5.66382813 4.59429687 6.20265625 5.31359375 6.7578125 6.0546875 C8 8 8 8 8 10 C4.20401451 8.50871999 2.28279601 6.34266559 0 3 C0 2.01 0 1.02 0 0 Z " fill="#131313" transform="translate(375,408)"/>
<path d="M0 0 C3.15330554 0.60694155 5.18888867 1.6416665 7.75 3.5625 C8.67039062 4.24505859 8.67039062 4.24505859 9.609375 4.94140625 C10.29773438 5.46541016 10.29773438 5.46541016 11 6 C10.34 6.66 9.68 7.32 9 8 C7.49460339 7.05016642 5.99579653 6.08988109 4.5 5.125 C3.6646875 4.59132813 2.829375 4.05765625 1.96875 3.5078125 C1.3190625 3.01023437 0.669375 2.51265625 0 2 C0 1.34 0 0.68 0 0 Z " fill="#1A1A1A" transform="translate(509,81)"/>
<path d="M0 0 C0.33 0.99 0.66 1.98 1 3 C-2.85756507 5.15305957 -5.55129785 6.39253254 -10 6 C-6.87567603 3.47650757 -3.61939504 1.72743854 0 0 Z " fill="#252525" transform="translate(132,71)"/>
<path d="M0 0 C0.66 0.66 1.32 1.32 2 2 C-0.31 4.64 -2.62 7.28 -5 10 C-5.66 9.34 -6.32 8.68 -7 8 C-4.69 5.36 -2.38 2.72 0 0 Z " fill="#1B1B1B" transform="translate(207,407)"/>
<path d="M0 0 C0.33 0.99 0.66 1.98 1 3 C-1.31 4.98 -3.62 6.96 -6 9 C-6 6 -6 6 -4.6875 4.39453125 C-4.130625 3.87246094 -3.57375 3.35039063 -3 2.8125 C-2.443125 2.28269531 -1.88625 1.75289062 -1.3125 1.20703125 C-0.6628125 0.60955078 -0.6628125 0.60955078 0 0 Z " fill="#2B2B2B" transform="translate(533,523)"/>
<path d="M0 0 C0.33 0.99 0.66 1.98 1 3 C-0.21484375 4.82421875 -0.21484375 4.82421875 -1.9375 6.6875 C-2.50339844 7.31011719 -3.06929688 7.93273437 -3.65234375 8.57421875 C-4.09707031 9.04472656 -4.54179687 9.51523437 -5 10 C-5.66 9.34 -6.32 8.68 -7 8 C-4.69 5.36 -2.38 2.72 0 0 Z " fill="#1A1A1A" transform="translate(283,364)"/>
<path d="M0 0 C4.75 1.875 4.75 1.875 7 3 C7 3.66 7 4.32 7 5 C7.66 5 8.32 5 9 5 C8.67 5.99 8.34 6.98 8 8 C6.66372225 6.85760183 5.33104612 5.71098945 4 4.5625 C3.2575 3.92441406 2.515 3.28632812 1.75 2.62890625 C1.1725 2.09136719 0.595 1.55382812 0 1 C0 0.67 0 0.34 0 0 Z " fill="#121212" transform="translate(102,534)"/>
<path d="M0 0 C3.82946843 1.45255699 5.12050295 3.42895561 7 7 C6.01 7 5.02 7 4 7 C0 2.65714286 0 2.65714286 0 0 Z " fill="#1F1F1F" transform="translate(281,254)"/>
<path d="M0 0 C-2.76223278 2.76223278 -5.20706617 2.57856291 -9 3 C-8.67 2.01 -8.34 1.02 -8 0 C-4.71023192 -1.09658936 -3.28696233 -0.79953138 0 0 Z " fill="#252525" transform="translate(154,66)"/>
<path d="M0 0 C0.33 0.99 0.66 1.98 1 3 C-0.65 4.65 -2.3 6.3 -4 8 C-4.66 7.67 -5.32 7.34 -6 7 C-4.02 4.69 -2.04 2.38 0 0 Z " fill="#1C1C1C" transform="translate(223,389)"/>
<path d="M0 0 C2.5625 2.25 2.5625 2.25 5 5 C4.67 6.32 4.34 7.64 4 9 C2.35 6.69 0.7 4.38 -1 2 C-0.67 1.34 -0.34 0.68 0 0 Z " fill="#1A1A1A" transform="translate(231,266)"/>
<path d="M0 0 C0.66 0.66 1.32 1.32 2 2 C0.02 3.98 -1.96 5.96 -4 8 C-4.66 7.67 -5.32 7.34 -6 7 C-4.02 4.69 -2.04 2.38 0 0 Z " fill="#181818" transform="translate(344,243)"/>
<path d="M0 0 C0.99 0.495 0.99 0.495 2 1 C2.73075648 3.3140622 3.40138258 5.64828869 4 8 C3.01 8.495 3.01 8.495 2 9 C0.14223235 5.86501708 -0.20140476 3.62528568 0 0 Z " fill="#1D1D1D" transform="translate(73,493)"/>
<path d="M0 0 C0.99 0.66 1.98 1.32 3 2 C0.36 4.31 -2.28 6.62 -5 9 C-5 4.61031544 -2.87194899 3.23094261 0 0 Z " fill="#DBDBDB" transform="translate(210,406)"/>
<path d="M0 0 C2.66735273 2.48952921 4.55746343 4.63408134 6 8 C5.01 8 4.02 8 3 8 C0.19744677 5.0936485 0 4.21174952 0 0 Z " fill="#222222" transform="translate(333,352)"/>
<path d="M0 0 C2.5 2.3125 2.5 2.3125 5 5 C5 5.99 5 6.98 5 8 C2.5 5.6875 2.5 5.6875 0 3 C0 2.01 0 1.02 0 0 Z " fill="#1E1E1E" transform="translate(346,338)"/>
<path d="M0 0 C2.5625 2.25 2.5625 2.25 5 5 C4.8125 7.3125 4.8125 7.3125 4 9 C0 4.5 0 4.5 0 0 Z " fill="#212121" transform="translate(356,304)"/>
<path d="M0 0 C2.66735273 2.48952921 4.55746343 4.63408134 6 8 C5.01 8 4.02 8 3 8 C0.19744677 5.0936485 0 4.21174952 0 0 Z " fill="#1E1E1E" transform="translate(285,289)"/>
<path d="M0 0 C3.99996286 1.33332095 4.83782337 3.4957827 7 7 C6.01 7 5.02 7 4 7 C0 2.65714286 0 2.65714286 0 0 Z " fill="#1B1B1B" transform="translate(294,271)"/>
<path d="M0 0 C5.57142857 5.14285714 5.57142857 5.14285714 6 9 C5.34 8.67 4.68 8.34 4 8 C4 7.34 4 6.68 4 6 C3.34 6 2.68 6 2 6 C0 3 0 3 0 0 Z " fill="#171717" transform="translate(210,239)"/>
<path d="M0 0 C2.5 2.3125 2.5 2.3125 5 5 C5 5.99 5 6.98 5 8 C2.5 5.6875 2.5 5.6875 0 3 C0 2.01 0 1.02 0 0 Z " fill="#1B1B1B" transform="translate(190,213)"/>
<path d="M0 0 C4.875 4.625 4.875 4.625 6 8 C5.01 8.495 5.01 8.495 4 9 C0 4.5 0 4.5 0 0 Z " fill="#1C1C1C" transform="translate(259,177)"/>
<path d="M0 0 C0.66 0 1.32 0 2 0 C5.11450382 4.15267176 5.11450382 4.15267176 4.6875 7.3125 C4.460625 7.869375 4.23375 8.42625 4 9 C0 2.25 0 2.25 0 0 Z " fill="#0E0E0E" transform="translate(76,501)"/>
<path d="M0 0 C3.40424844 1.13474948 4.21653709 1.96811304 6 5 C5.67 5.99 5.34 6.98 5 8 C4.67 7.01 4.34 6.02 4 5 C3.34 5 2.68 5 2 5 C1.34 3.35 0.68 1.7 0 0 Z " fill="#141414" transform="translate(400,410)"/>
<path d="M0 0 C2.5 2.3125 2.5 2.3125 5 5 C5 5.99 5 6.98 5 8 C2.5 5.6875 2.5 5.6875 0 3 C0 2.01 0 1.02 0 0 Z " fill="#222222" transform="translate(362,391)"/>
<path d="M0 0 C2.5 2.3125 2.5 2.3125 5 5 C5 5.99 5 6.98 5 8 C2.5 5.6875 2.5 5.6875 0 3 C0 2.01 0 1.02 0 0 Z " fill="#242424" transform="translate(372,372)"/>
<path d="M0 0 C2.5 2.3125 2.5 2.3125 5 5 C5 5.99 5 6.98 5 8 C2.5 5.6875 2.5 5.6875 0 3 C0 2.01 0 1.02 0 0 Z " fill="#212121" transform="translate(346,370)"/>
<path d="M0 0 C0.33 0.99 0.66 1.98 1 3 C-0.40445835 5.2636564 -2.1967913 7.0208685 -4 9 C-4.66 8.34 -5.32 7.68 -6 7 C-4.02 4.69 -2.04 2.38 0 0 Z " fill="#171717" transform="translate(355,230)"/>
<path d="M0 0 C2.66735273 2.48952921 4.55746343 4.63408134 6 8 C5.01 8.495 5.01 8.495 4 9 C0 4.5 0 4.5 0 0 Z " fill="#1E1E1E" transform="translate(290,217)"/>
<path d="M0 0 C0.33 0 0.66 0 1 0 C1 2.64 1 5.28 1 8 C0.01 8.495 0.01 8.495 -1 9 C-1.80967438 6.08517222 -2.21845993 4.53886783 -1.0625 1.6875 C-0.711875 1.130625 -0.36125 0.57375 0 0 Z " fill="#131313" transform="translate(65,159)"/>
<path d="M0 0 C2 3 2 3 1.625 6.1875 C1.41875 7.115625 1.2125 8.04375 1 9 C-1.14809171 5.77786243 -1.29386153 4.72224599 -1 1 C-0.67 0.67 -0.34 0.34 0 0 Z " fill="#1D1D1D" transform="translate(559,147)"/>
<path d="M0 0 C3 1 3 1 5 4 C5 4.99 5 5.98 5 7 C4.34 7 3.68 7 3 7 C0 2.61538462 0 2.61538462 0 0 Z " fill="#181818" transform="translate(542,113)"/>
<path d="M0 0 C0.66 0.33 1.32 0.66 2 1 C2 1.66 2 2.32 2 3 C1.34 3 0.68 3 0 3 C-0.66 4.32 -1.32 5.64 -2 7 C-2.66 7 -3.32 7 -4 7 C-2.79618552 4.50638429 -1.54571278 2.31856917 0 0 Z " fill="#202020" transform="translate(87,106)"/>
</svg>
