<?xml version="1.0" encoding="UTF-8"?>
<svg version="1.1" xmlns="http://www.w3.org/2000/svg" width="512" height="512">
<path d="M0 0 C1.45108658 0.00273422 1.45108658 0.00273422 2.93148804 0.00552368 C17.25630027 0.05092604 31.22187311 0.52723749 45.3125 3.3125 C46.72184814 3.57788574 46.72184814 3.57788574 48.15966797 3.84863281 C58.31840203 5.7882559 68.11195756 8.15012446 77.875 11.5625 C88.18164482 15.14476208 98.48701213 15.2920938 109.3125 15.3125 C109.3125 18.2825 109.3125 21.2525 109.3125 24.3125 C110.10914063 24.54066406 110.90578125 24.76882812 111.7265625 25.00390625 C116.30378852 26.67424472 120.42999994 28.8949607 124.6875 31.25 C125.56873535 31.73726562 126.4499707 32.22453125 127.35791016 32.7265625 C146.05971659 43.23387819 162.90803425 56.43244159 178.3125 71.3125 C178.93334473 71.91143066 179.55418945 72.51036133 180.19384766 73.12744141 C188.09500259 80.79126503 195.64016955 88.53248394 202.3125 97.3125 C202.72918945 97.85277832 203.14587891 98.39305664 203.57519531 98.94970703 C211.2584873 108.9447116 218.00092968 119.40459036 224.3125 130.3125 C224.70679199 130.98974121 225.10108398 131.66698242 225.50732422 132.36474609 C238.68961173 155.2833756 247.29510918 180.85822563 252.625 206.6875 C252.77243652 207.39817627 252.91987305 208.10885254 253.07177734 208.84106445 C256.05304174 224.46212097 256.68886786 240.07829009 256.625 255.9375 C256.62284485 256.9039444 256.6206897 257.87038879 256.61846924 258.86611938 C256.36042837 331.08996718 225.94245487 393.90404286 175.42529297 444.45092773 C169.11585805 450.64968385 162.44868142 456.10255671 155.3125 461.3125 C154.66732422 461.79138672 154.02214844 462.27027344 153.35742188 462.76367188 C119.16462403 488.07094959 80.22818313 503.61398451 38.3125 510.3125 C37.2620752 510.49055176 36.21165039 510.66860352 35.12939453 510.85205078 C23.78092317 512.59617102 12.52350339 512.70952986 1.0625 512.6875 C0.04737335 512.68728851 -0.9677533 512.68707703 -2.01364136 512.68685913 C-18.23978792 512.65316942 -33.7724224 511.70174529 -49.6875 508.3125 C-50.61127441 508.12526367 -51.53504883 507.93802734 -52.48681641 507.74511719 C-72.40391643 503.65212662 -91.34826102 497.04223276 -109.6875 488.3125 C-110.69756104 487.83925293 -110.69756104 487.83925293 -111.72802734 487.35644531 C-128.97189662 479.24118862 -144.76563279 469.14361049 -159.6875 457.3125 C-160.49550049 456.68021484 -160.49550049 456.68021484 -161.31982422 456.03515625 C-176.15776934 444.34040819 -190.40178974 430.47836605 -201.6875 415.3125 C-202.54784837 414.19245576 -203.40854995 413.07268278 -204.26953125 411.953125 C-211.45142709 402.49852545 -217.72658479 392.57355452 -223.6875 382.3125 C-224.0494043 381.6947168 -224.41130859 381.07693359 -224.78417969 380.44042969 C-246.49010652 342.98991669 -256.16787412 299.66833468 -256 256.6875 C-255.99817719 255.71761139 -255.99635437 254.74772278 -255.99447632 253.7484436 C-255.94908309 239.39693945 -255.4437347 225.43307082 -252.6875 211.3125 C-252.44604248 209.96696045 -252.44604248 209.96696045 -252.19970703 208.59423828 C-241.37712011 148.78411096 -207.31935543 91.27004171 -158.6875 54.3125 C-158.14722168 53.89581055 -157.60694336 53.47912109 -157.05029297 53.04980469 C-144.49257486 43.39652096 -131.12689347 35.13069636 -117.1875 27.625 C-116.24390625 27.11610229 -116.24390625 27.11610229 -115.28125 26.59692383 C-110.94126855 24.3125 -110.94126855 24.3125 -108.6875 24.3125 C-108.6875 21.3425 -108.6875 18.3725 -108.6875 15.3125 C-106.70556641 15.32603516 -106.70556641 15.32603516 -104.68359375 15.33984375 C-93.21349409 15.22562922 -83.33299112 13.71957843 -72.45019531 10.11425781 C-65.48857023 7.81722718 -58.55288147 5.99255642 -51.375 4.5 C-50.01785889 4.20851074 -50.01785889 4.20851074 -48.63330078 3.91113281 C-32.50653899 0.64850972 -16.41145713 -0.06439186 0 0 Z " fill="#016CC0" transform="translate(255.6875,-0.3125)"/>
<path d="M0 0 C1.45108658 0.00273422 1.45108658 0.00273422 2.93148804 0.00552368 C17.25630027 0.05092604 31.22187311 0.52723749 45.3125 3.3125 C46.72184814 3.57788574 46.72184814 3.57788574 48.15966797 3.84863281 C58.31840203 5.7882559 68.11195756 8.15012446 77.875 11.5625 C88.18164482 15.14476208 98.48701213 15.2920938 109.3125 15.3125 C109.3125 18.2825 109.3125 21.2525 109.3125 24.3125 C110.10914063 24.54066406 110.90578125 24.76882812 111.7265625 25.00390625 C116.30378852 26.67424472 120.42999994 28.8949607 124.6875 31.25 C125.56873535 31.73726562 126.4499707 32.22453125 127.35791016 32.7265625 C146.05971659 43.23387819 162.90803425 56.43244159 178.3125 71.3125 C178.93334473 71.91143066 179.55418945 72.51036133 180.19384766 73.12744141 C188.09500259 80.79126503 195.64016955 88.53248394 202.3125 97.3125 C202.72918945 97.85277832 203.14587891 98.39305664 203.57519531 98.94970703 C211.2584873 108.9447116 218.00092968 119.40459036 224.3125 130.3125 C224.70679199 130.98974121 225.10108398 131.66698242 225.50732422 132.36474609 C238.68961173 155.2833756 247.29510918 180.85822563 252.625 206.6875 C252.77243652 207.39817627 252.91987305 208.10885254 253.07177734 208.84106445 C256.05304174 224.46212097 256.68886786 240.07829009 256.625 255.9375 C256.62284485 256.9039444 256.6206897 257.87038879 256.61846924 258.86611938 C256.35984504 331.25323899 225.83679842 393.92401889 175.24951172 444.56518555 C160.31402519 459.3125 160.31402519 459.3125 157.3125 459.3125 C157.15982487 450.80672645 157.60580908 442.48035346 158.4140625 434.015625 C158.59333747 432.06085417 158.77260625 430.10608277 158.95165157 428.15129089 C159.14349182 426.06678269 159.33786462 423.98252431 159.53292847 421.89831543 C160.16454782 415.14369522 160.77827365 408.38743758 161.39200401 401.63117218 C161.53494543 400.05760456 161.67805527 398.48405222 161.82132912 396.91051483 C163.32576723 380.37595627 164.70840397 363.83223548 166.06736755 347.28518295 C168.31039232 319.98700565 170.67586997 292.70163188 173.12017822 265.42077637 C174.96162517 244.85960293 176.74725823 224.29457274 178.46484375 203.72265625 C178.55516121 202.64220472 178.64547867 201.5617532 178.73853302 200.44856071 C179.6303466 189.77890454 180.51911838 179.10901264 181.39700603 168.43820095 C181.72293001 164.48477815 182.05179323 160.53160318 182.38125801 156.57847404 C182.53305969 154.74838454 182.68352821 152.91818385 182.83250237 151.08786201 C183.03894044 148.55241703 183.25008275 146.01740073 183.4621582 143.48242188 C183.51879324 142.77195174 183.57542828 142.06148161 183.63377953 141.32948208 C184.26173698 133.935953 185.32757261 126.69945541 186.3125 119.3125 C63.5525 119.3125 -59.2075 119.3125 -185.6875 119.3125 C-184.6975 126.7375 -184.6975 126.7375 -183.6875 134.3125 C-183.23304085 139.1020435 -182.80731649 143.88469913 -182.42578125 148.6796875 C-182.3138714 150.04850784 -182.20157435 151.41729657 -182.08892822 152.78605652 C-181.84838571 155.71602701 -181.60999156 158.64616073 -181.37332153 161.57644653 C-180.79030256 168.78997022 -180.19395234 176.00240006 -179.59878349 183.21492958 C-179.45937973 184.90481848 -179.32010501 186.59471803 -179.18095589 188.28462791 C-177.65559558 206.80917307 -176.07221864 225.32854684 -174.46891022 243.84649277 C-174.24895073 246.38711953 -174.02921881 248.92776591 -173.80950928 251.46841431 C-172.19439474 270.13714566 -170.5606107 288.80414821 -168.8984375 307.46875 C-168.82483316 308.29540476 -168.75122883 309.12205952 -168.67539406 309.97376442 C-168.08617253 316.59056581 -167.49676712 323.20735092 -166.9065361 329.82406235 C-164.41378984 357.76936349 -162.03209673 385.72284479 -159.73771 413.68513393 C-159.4987692 416.59612915 -159.25903815 419.50705911 -159.0193119 422.41798973 C-158.85745343 424.38919435 -158.69715278 426.3605267 -158.53691101 428.3318634 C-158.12177561 433.38207511 -157.69576331 438.42443221 -157.12084961 443.45922852 C-156.72556939 446.97399339 -156.58439101 450.3420178 -156.625 453.875 C-156.63402344 454.90753906 -156.64304687 455.94007813 -156.65234375 457.00390625 C-156.66394531 457.76574219 -156.67554688 458.52757812 -156.6875 459.3125 C-173.43111119 447.39877665 -189.30137286 431.67582392 -201.6875 415.3125 C-202.31035889 414.50425781 -202.31035889 414.50425781 -202.94580078 413.6796875 C-210.63142599 403.68249073 -217.35588246 393.21167747 -223.6875 382.3125 C-224.0494043 381.6947168 -224.41130859 381.07693359 -224.78417969 380.44042969 C-246.49010652 342.98991669 -256.16787412 299.66833468 -256 256.6875 C-255.99817719 255.71761139 -255.99635437 254.74772278 -255.99447632 253.7484436 C-255.94908309 239.39693945 -255.4437347 225.43307082 -252.6875 211.3125 C-252.44604248 209.96696045 -252.44604248 209.96696045 -252.19970703 208.59423828 C-241.37712011 148.78411096 -207.31935543 91.27004171 -158.6875 54.3125 C-158.14722168 53.89581055 -157.60694336 53.47912109 -157.05029297 53.04980469 C-144.49257486 43.39652096 -131.12689347 35.13069636 -117.1875 27.625 C-116.24390625 27.11610229 -116.24390625 27.11610229 -115.28125 26.59692383 C-110.94126855 24.3125 -110.94126855 24.3125 -108.6875 24.3125 C-108.6875 21.3425 -108.6875 18.3725 -108.6875 15.3125 C-106.70556641 15.32603516 -106.70556641 15.32603516 -104.68359375 15.33984375 C-93.21349409 15.22562922 -83.33299112 13.71957843 -72.45019531 10.11425781 C-65.48857023 7.81722718 -58.55288147 5.99255642 -51.375 4.5 C-50.01785889 4.20851074 -50.01785889 4.20851074 -48.63330078 3.91113281 C-32.50653899 0.64850972 -16.41145713 -0.06439186 0 0 Z " fill="#F0F1F1" transform="translate(255.6875,-0.3125)"/>
<path d="M0 0 C76.56 0 153.12 0 232 0 C230.68 15.51 229.36 31.02 228 47 C206.56081081 58.28378378 206.56081081 58.28378378 196 63.5 C188.45268015 67.24945569 180.94307563 71.04747018 173.5 75 C161.75930675 81.17931224 149.86685393 87.06657303 138 93 C180.57 93.495 180.57 93.495 224 94 C221.27746003 129.85974081 221.27746003 129.85974081 220.4375 140.67578125 C220.3799353 141.41705072 220.32237061 142.1583202 220.26306152 142.92205238 C219.00318333 159.11953485 217.67696593 175.31100764 216.3125 191.5 C216.21031158 192.72337067 216.10812317 193.94674133 216.00283813 195.20718384 C214.88992701 208.50180518 213.69143844 221.76527677 212 235 C200.19350192 238.88338997 188.32598257 242.29871372 176.30105591 245.44790649 C167.74915429 247.69100852 159.25630806 250.06401974 150.8125 252.6875 C143.7598559 254.87506001 136.6984098 256.97429078 129.5625 258.875 C128.81137939 259.07826904 128.06025879 259.28153809 127.28637695 259.4909668 C114.11279449 262.93306275 114.11279449 262.93306275 107.9375 260.4375 C102.09905626 258.29575933 96.21634165 256.70815755 90.1875 255.1875 C81.25498281 252.91312078 72.45114802 250.35380352 63.65185547 247.61279297 C55.79353104 245.18751675 47.87081685 243.0998864 39.90209961 241.07177734 C33.14604111 239.33890947 26.56816757 237.35361916 20 235 C18.31170232 221.90717198 17.17115652 208.78930498 16.14013672 195.62988281 C15.8721652 192.21386282 15.59853195 188.79832853 15.32421875 185.3828125 C15.15071263 183.19794277 14.97752369 181.01304783 14.8046875 178.828125 C14.68285599 177.30629608 14.68285599 177.30629608 14.55856323 175.75372314 C14.48493561 174.80793396 14.41130798 173.86214478 14.33544922 172.88769531 C14.27042206 172.06182922 14.2053949 171.23596313 14.13839722 170.3850708 C13.99576888 167.92708294 14 165.46212249 14 163 C30.17 163 46.34 163 63 163 C63.33 174.88 63.66 186.76 64 199 C71.30126688 201.04552202 71.30126688 201.04552202 78.60498047 203.08227539 C84.39966763 204.69476006 90.1808292 206.3410431 95.9453125 208.05859375 C97.05527588 208.38400146 98.16523926 208.70940918 99.30883789 209.04467773 C101.43405124 209.66867112 103.55586128 210.30440837 105.67358398 210.95336914 C115.37897111 213.77478651 122.34708176 212.0959323 131.875 209.25 C133.72644742 208.7105424 135.57801224 208.17148753 137.4296875 207.6328125 C138.35620117 207.36114258 139.28271484 207.08947266 140.23730469 206.80957031 C144.48678691 205.5643173 148.74047338 204.33542508 153 203.125 C153.73460449 202.91004883 154.46920898 202.69509766 155.22607422 202.47363281 C158.94125562 201.42159221 162.15390057 200.90649543 166 201 C166.04487549 200.24307861 166.08975098 199.48615723 166.13598633 198.70629883 C166.35510423 195.07461752 166.58386887 191.44359441 166.8125 187.8125 C166.91788086 186.03069336 166.91788086 186.03069336 167.02539062 184.21289062 C167.92942002 170.07387093 169.53778898 156.1347065 171 142 C118.53 142 66.06 142 12 142 C10.41480004 125.35540038 9.15036512 108.68029423 8 92 C36.38 77.81 64.76 63.62 94 49 C64.3 48.67 34.6 48.34 4 48 C0 5 0 5 0 0 Z " fill="#FDFEFE" transform="translate(140,196)"/>
<path d="M0 0 C49.17 0 98.34 0 149 0 C149 13.47124464 149 13.47124464 148.51953125 17.9921875 C148.35517578 19.61991089 148.35517578 19.61991089 148.1875 21.28051758 C148.06375 22.46669678 147.94 23.65287598 147.8125 24.875 C146.2176193 40.8165256 144.93667618 56.78261219 143.6641922 72.752491 C143.1746062 78.89499695 142.68289236 85.03733334 142.19140625 91.1796875 C142.08669006 92.48891678 141.98197388 93.79814606 141.87408447 95.14704895 C140.82453022 108.24108803 139.7105679 121.32885429 138.57077026 134.41529846 C137.78754523 143.41854894 137.02578409 152.42363619 136.26098633 161.4284668 C135.83222751 166.47450489 135.40234694 171.52044744 134.97265625 176.56640625 C134.43952352 182.82773036 133.9074482 189.08914034 133.37826538 195.35079956 C133.12417217 198.35486718 132.86895907 201.35883906 132.61352539 204.36279297 C132.45034959 206.28604949 132.28859078 208.20942609 132.12695312 210.1328125 C131.56438033 216.73872867 130.97057499 223.3403838 130.3371582 229.93994141 C128.50590863 249.05553627 126.91659863 268.17995029 125.47619629 287.32879639 C125.19651591 291.03836763 124.91351359 294.74768563 124.63085938 298.45703125 C124.08413959 305.63778814 123.54084752 312.81879816 123 320 C98.53519747 326.85107544 98.53519747 326.85107544 90.58203125 329.07421875 C81.32899373 331.66115522 72.07851478 334.25468388 62.84375 336.90625 C56.29407283 338.76997928 49.73384855 340.59612781 43.17553711 342.42919922 C37.63338119 343.97928334 32.09396831 345.53720396 26.5625 347.125 C21.12906867 348.68127547 15.6918239 350.22335386 10.25 351.75 C9.46181885 351.97316895 8.6736377 352.19633789 7.86157227 352.42626953 C2.22969733 354 2.22969733 354 0 354 C0 338.49 0 322.98 0 307 C8.52244108 304.15918631 16.12569907 301.65658422 24.70288086 299.59570312 C30.56658386 298.18332986 36.30495106 296.41587253 42.0625 294.625 C50.92454 291.87240224 59.82817406 289.42650917 68.8215332 287.14257812 C75.97885843 285.31026314 83.00037986 283.19697013 90.015625 280.8828125 C93 280 93 280 96 280 C96.03669296 279.41542023 96.07338593 278.83084045 96.1111908 278.22854614 C97.72606295 252.92972399 99.85354084 227.6704704 101.94116211 202.40722656 C102.46508786 196.06491865 102.98371869 189.72218909 103.5011301 183.37934685 C103.90263372 178.46710239 104.3075079 173.55514011 104.71336174 168.64325333 C104.90633487 166.30131971 105.09810253 163.95928644 105.28863716 161.61715317 C105.55290732 158.37320917 105.82186138 155.12968687 106.09204102 151.88623047 C106.1694603 150.9233461 106.24687958 149.96046173 106.3266449 148.96839905 C106.40085663 148.0890419 106.47506836 147.20968475 106.55152893 146.30368042 C106.64580343 145.15862187 106.64580343 145.15862187 106.74198246 143.99043083 C107 142 107 142 108 139 C79.29 139 50.58 139 21 139 C23.51522231 136.48477769 24.85783583 135.38718711 27.89453125 133.89038086 C28.6738501 133.50244858 29.45316895 133.1145163 30.25610352 132.71482849 C31.09971436 132.30233353 31.9433252 131.88983856 32.8125 131.46484375 C33.69542725 131.02668839 34.57835449 130.58853302 35.48803711 130.13710022 C38.32257506 128.73152555 41.16101755 127.33407286 44 125.9375 C47.68911513 124.11653261 51.37606904 122.29123753 55.0625 120.46484375 C55.97809189 120.01331436 56.89368378 119.56178497 57.83702087 119.09657288 C62.30714284 116.88156387 66.74102598 114.62268604 71.12329102 112.23803711 C84.71144666 104.84773564 84.71144666 104.84773564 92.40234375 102.76171875 C103.15838719 99.60530653 103.15838719 99.60530653 111 92 C115.88468972 78.72777006 115.07973415 62.81260033 114.90284729 48.86140442 C115 47 115 47 116 45 C39.44 45 -37.12 45 -116 45 C-116 44.67 -116 44.34 -116 44 C-77.72 44 -39.44 44 0 44 C0 29.48 0 14.96 0 0 Z " fill="#0196DC" transform="translate(256,151)"/>
<path d="M0 0 C0.11183141 6.8217163 -0.37518395 13.12702349 -1 20 C-16.84 20 -32.68 20 -49 20 C-49 22.64 -49 25.28 -49 28 C-33.16 28 -17.32 28 -1 28 C-1 41.86 -1 55.72 -1 70 C-22.78 70 -44.56 70 -67 70 C-67 64.06 -67 58.12 -67 52 C-51.16 52 -35.32 52 -19 52 C-19 49.36 -19 46.72 -19 44 C-34.51 44 -50.02 44 -66 44 C-66 29.81 -66 15.62 -66 1 C-59.81514132 0.85544571 -53.63028024 0.71237157 -47.4453125 0.57275391 C-45.35089275 0.52506617 -43.25649072 0.47659189 -41.16210938 0.42724609 C-27.43850819 0.10457025 -13.72742671 -0.06850393 0 0 Z " fill="#242325" transform="translate(365,15)"/>
<path d="M0 0 C21.78 0 43.56 0 66 0 C66 6.27 66 12.54 66 19 C50.16 19 34.32 19 18 19 C18 21.64 18 24.28 18 27 C33.51 27 49.02 27 65 27 C65 40.86 65 54.72 65 69 C43.55 69 22.1 69 0 69 C0 63.06 0 57.12 0 51 C15.51 51 31.02 51 47 51 C47 48.36 47 45.72 47 43 C31.49 43 15.98 43 0 43 C0 28.81 0 14.62 0 0 Z " fill="#242325" transform="translate(224,16)"/>
<path d="M0 0 C18.15 0 36.3 0 55 0 C53.84652266 20.7625922 53.84652266 20.7625922 53.28125 27.45703125 C53.21844849 28.21876144 53.15564697 28.98049164 53.09094238 29.76530457 C52.96110161 31.33167527 52.83005959 32.8979469 52.69775391 34.46411133 C52.49628509 36.85661571 52.30070856 39.24955818 52.10546875 41.64257812 C51.97690907 43.18492476 51.84801589 44.72724364 51.71875 46.26953125 C51.661427 46.9747139 51.604104 47.67989655 51.54504395 48.40644836 C51.23718189 51.9986184 50.79382995 55.48185127 50 59 C49.29206299 59.18062988 48.58412598 59.36125977 47.85473633 59.54736328 C44.50653972 60.40354537 41.15938716 61.26371318 37.8125 62.125 C35.98706665 62.59389648 35.98706665 62.59389648 34.12475586 63.07226562 C25.51053283 65.30255809 16.95082921 67.67609842 8.45043945 70.30908203 C7.653396 70.54739746 6.85635254 70.78571289 6.03515625 71.03125 C5.00467163 71.34932617 5.00467163 71.34932617 3.95336914 71.67382812 C1.68883706 72.05195772 0.16847 71.69546125 -2 71 C-1.34 71 -0.68 71 0 71 C0 47.57 0 24.14 0 0 Z " fill="#0096DC" transform="translate(256,338)"/>
<path d="M0 0 C22.98543969 0 22.98543969 0 32.234375 0.21875 C33.24929016 0.24094604 34.26420532 0.26314209 35.30987549 0.28601074 C38.45663349 0.355288 41.60331323 0.42756738 44.75 0.5 C46.92317259 0.54837931 49.09634967 0.59655743 51.26953125 0.64453125 C56.51307525 0.76071187 61.75655175 0.87957876 67 1 C67 6.94 67 12.88 67 19 C51.16 19 35.32 19 19 19 C19 29.89 19 40.78 19 52 C34.84 52 50.68 52 67 52 C67 57.94 67 63.88 67 70 C45.22 70 23.44 70 1 70 C0.67 46.9 0.34 23.8 0 0 Z " fill="#262527" transform="translate(147,15)"/>
</svg>
