<?xml version="1.0" encoding="UTF-8"?>
<svg version="1.1" xmlns="http://www.w3.org/2000/svg" width="225" height="225">
<path d="M0 0 C74.25 0 148.5 0 225 0 C225 74.25 225 148.5 225 225 C150.75 225 76.5 225 0 225 C0 150.75 0 76.5 0 0 Z " fill="#FDFDFD" transform="translate(0,0)"/>
<path d="M0 0 C47.19 0 94.38 0 143 0 C140 42 140 42 138 60 C137.70211074 63.02059541 137.40972032 66.03761509 137.14624023 69.06079102 C137.07927948 69.80974136 137.01231873 70.55869171 136.94332886 71.33033752 C136.72996237 73.72137203 136.51927144 76.1126335 136.30859375 78.50390625 C136.15710519 80.20541629 136.00541315 81.90690823 135.85353088 83.60838318 C135.45937588 88.0285103 135.06736421 92.44882441 134.67602539 96.86920166 C134.04698941 103.97193209 133.41523611 111.07442015 132.78227425 118.17680168 C132.56366887 120.63435205 132.34638718 123.09201677 132.1292572 125.54969788 C131.49414585 132.70898098 130.84077936 139.86127849 130 147 C128.98353394 147.27094482 128.98353394 147.27094482 127.9465332 147.54736328 C115.21880006 150.94471621 102.50330697 154.36939889 89.8527832 158.04541016 C87.57109391 158.70637109 85.28591722 159.35384603 83 160 C82.32614258 160.20157715 81.65228516 160.4031543 80.95800781 160.61083984 C71.54158772 163.25848285 63.5806142 161.69126309 54.32421875 159.0078125 C53.23663773 158.70181122 52.1490567 158.39580994 51.02851868 158.08053589 C48.74361165 157.43531637 46.46027494 156.78451244 44.1784668 156.12841797 C40.6842078 155.12405372 37.18547053 154.13676625 33.68554688 153.15234375 C31.46065794 152.52181896 29.23603869 151.89034162 27.01171875 151.2578125 C25.96690842 150.96190216 24.92209808 150.66599182 23.84562683 150.3611145 C22.87394058 150.08097504 21.90225433 149.80083557 20.90112305 149.51220703 C20.04890671 149.26793976 19.19669037 149.02367249 18.31864929 148.77200317 C17.17091789 148.3898616 17.17091789 148.3898616 16 148 C15.26277206 147.81269821 14.52554413 147.62539642 13.76597595 147.43241882 C12 146 12 146 11.22872925 142.37016296 C11.08065858 140.77149876 10.95387812 139.17078346 10.84326172 137.5690918 C10.76786163 136.69544983 10.69246155 135.82180786 10.61477661 134.92169189 C10.36844071 132.01538299 10.14913415 129.10767163 9.9296875 126.19921875 C9.76252683 124.16716246 9.59364662 122.13524696 9.42312622 120.10346985 C8.97653449 114.7287195 8.55255369 109.35241627 8.13342285 103.97546387 C7.70973621 98.58481692 7.26663026 93.1957778 6.82421875 87.80664062 C6.32405361 81.7073578 5.82548543 75.60801531 5.34371948 69.50724792 C4.41018141 57.71852532 3.35833973 45.94637481 2.20964813 34.17669296 C1.72872049 29.183413 1.29644295 24.1860898 0.875 19.1875 C0.78863281 18.20458984 0.70226563 17.22167969 0.61328125 16.20898438 C0.53207031 15.24669922 0.45085938 14.28441406 0.3671875 13.29296875 C0.29612793 12.4630542 0.22506836 11.63313965 0.15185547 10.77807617 C-0.04425534 7.19038346 0 3.59304863 0 0 Z " fill="#E44D26" transform="translate(41,51)"/>
<path d="M0 0 C29.37 0 58.74 0 89 0 C89 9 89 9 88 18 C65.23 18 42.46 18 19 18 C19.33 18.99 19.66 19.98 20 21 C20 25.95 20 30.9 20 36 C41.78 36 63.56 36 86 36 C86 46.12580478 86 46.12580478 85.64868164 49.58251953 C85.53339867 50.74885422 85.53339867 50.74885422 85.41578674 51.93875122 C85.28924965 53.14856155 85.28924965 53.14856155 85.16015625 54.3828125 C85.07374374 55.24131805 84.98733124 56.09982361 84.89830017 56.98434448 C84.71627899 58.78453531 84.53213539 60.58451271 84.34594727 62.38427734 C84.06258037 65.12422289 83.78560227 67.86475585 83.50976562 70.60546875 C83.33109969 72.364621 83.15207547 74.12373691 82.97265625 75.8828125 C82.8491555 77.09869553 82.8491555 77.09869553 82.72315979 78.33914185 C82.24885551 82.91131691 81.68141237 87.45396816 81 92 C80.4016333 92.16081055 79.8032666 92.32162109 79.18676758 92.48730469 C76.39469662 93.23915016 73.60363846 93.9947004 70.8125 94.75 C69.80614502 95.02005859 68.79979004 95.29011719 67.76293945 95.56835938 C61.31597036 97.31266317 61.31597036 97.31266317 54.9609375 99.359375 C53.34058594 99.92398438 53.34058594 99.92398438 51.6875 100.5 C50.78386719 100.8403125 49.88023438 101.180625 48.94921875 101.53125 C44.63762014 102.2165372 41.1728351 101.12540444 37 100 C35.41433228 99.5985376 35.41433228 99.5985376 33.79663086 99.18896484 C30.23531332 98.28706787 26.67987509 97.36444324 23.125 96.4375 C21.90296875 96.12103516 20.6809375 95.80457031 19.421875 95.47851562 C10.40125705 93.13375235 10.40125705 93.13375235 7 92 C6.65896535 88.85495307 6.32862537 85.70886583 6 82.5625 C5.90460938 81.68400391 5.80921875 80.80550781 5.7109375 79.90039062 C5.62070313 79.02705078 5.53046875 78.15371094 5.4375 77.25390625 C5.35371094 76.46314697 5.26992187 75.6723877 5.18359375 74.85766602 C4.93014976 70.91276994 5 66.95302908 5 63 C10.94 63 16.88 63 23 63 C23.65984723 66.95908338 24.12125692 69.99704338 24.0625 73.875 C24.05347656 74.65617187 24.04445313 75.43734375 24.03515625 76.2421875 C24.02355469 76.82226562 24.01195313 77.40234375 24 78 C25.01707031 78.18175781 25.01707031 78.18175781 26.0546875 78.3671875 C26.98539063 78.53476563 27.91609375 78.70234375 28.875 78.875 C29.89335938 79.04902344 30.91171875 79.22304687 31.9609375 79.40234375 C35 80 35 80 37.2890625 80.75390625 C46.37233369 83.56233816 55.24012501 79.59094894 64 77 C64.66 69.41 65.32 61.82 66 54 C45.54 54 25.08 54 4 54 C2.5625 38.875 2.5625 38.875 2.11547852 34.13623047 C1.99615967 32.89244629 1.87684082 31.64866211 1.75390625 30.3671875 C1.63345947 29.09987793 1.5130127 27.83256836 1.38891602 26.52685547 C1.03716214 23.33700201 0.52758747 20.16552481 0 17 C0 11.39 0 5.78 0 0 Z " fill="#FEFDFC" transform="translate(68,81)"/>
<path d="M0 0 C19.47 0 38.94 0 59 0 C57.85087675 19.53509532 57.85087675 19.53509532 57.07617188 28.09033203 C56.98985001 29.06668106 56.90352814 30.04303009 56.81459045 31.04896545 C56.53514464 34.20214279 56.25207448 37.35498151 55.96875 40.5078125 C55.7706233 42.73117592 55.57266917 44.95455471 55.37487793 47.177948 C54.96296207 51.80204643 54.54929361 56.42598352 54.13427734 61.04980469 C53.60334996 66.9661304 53.07639947 72.88280229 52.55068207 78.79959297 C52.14373446 83.37566647 51.73494624 87.95157407 51.32557678 92.52743149 C51.13050962 94.70981174 50.9359539 96.89223777 50.7419281 99.07471085 C50.47106124 102.11784587 50.19777287 105.16075399 49.92382812 108.20361328 C49.8448378 109.09616318 49.76584747 109.98871307 49.6844635 110.90830994 C49.25634109 115.63270127 48.71817793 120.3106827 48 125 C42.46927415 127.15494509 36.96142412 128.94501442 31.23046875 130.48046875 C30.42764969 130.69818436 29.62483063 130.91589996 28.79768372 131.14021301 C27.11669696 131.59498206 25.43518549 132.04781571 23.75317383 132.4987793 C21.17564964 133.19068107 18.60046478 133.89083845 16.02539062 134.59179688 C14.38554959 135.03434701 12.74558008 135.47642141 11.10546875 135.91796875 C9.95234444 136.23195869 9.95234444 136.23195869 8.77592468 136.55229187 C5.76609594 137.35462872 3.12974309 138 0 138 C0 132.06 0 126.12 0 120 C7.38179985 117.16862472 14.77371231 114.89868258 22.421875 112.9296875 C24.86201563 112.29567716 27.28941434 111.61099947 29.703125 110.8828125 C33 110 33 110 37 110 C37.05478516 109.18442627 37.10957031 108.36885254 37.16601562 107.52856445 C37.76982929 98.78737991 38.49975492 90.06396268 39.30224609 81.33911133 C39.50140693 79.1721922 39.69811401 77.00505999 39.89453125 74.83789062 C40.52939156 67.88189898 41.22849564 60.94353922 42 54 C20.22 54 -1.56 54 -24 54 C-24.33 48.06 -24.66 42.12 -25 36 C-2.23 36 20.54 36 44 36 C44 33.03 44 30.06 44 27 C44.33 24.03 44.66 21.06 45 18 C30.15 18 15.3 18 0 18 C0 12.06 0 6.12 0 0 Z " fill="#F06529" transform="translate(112,63)"/>
<path d="M0 0 C29.37 0 58.74 0 89 0 C89 9 89 9 88 18 C65.23 18 42.46 18 19 18 C19.33 18.99 19.66 19.98 20 21 C20 25.95 20 30.9 20 36 C41.78 36 63.56 36 86 36 C86 36.33 86 36.66 86 37 C72.14 37 58.28 37 44 37 C44 42.61 44 48.22 44 54 C30.8 54 17.6 54 4 54 C2.5625 38.875 2.5625 38.875 2.11547852 34.13623047 C1.99615967 32.89244629 1.87684082 31.64866211 1.75390625 30.3671875 C1.63345947 29.09987793 1.5130127 27.83256836 1.38891602 26.52685547 C1.03716214 23.33700201 0.52758747 20.16552481 0 17 C0 11.39 0 5.78 0 0 Z " fill="#EBE9E9" transform="translate(68,81)"/>
<path d="M0 0 C5.94 0 11.88 0 18 0 C18.65984723 3.95908338 19.12125692 6.99704338 19.0625 10.875 C19.05347656 11.65617188 19.04445313 12.43734375 19.03515625 13.2421875 C19.02355469 13.82226562 19.01195313 14.40234375 19 15 C19.68964844 15.10957031 20.37929687 15.21914062 21.08984375 15.33203125 C27.31885282 16.38301632 33.05792388 17.85695615 39 20 C39 25.94 39 31.88 39 38 C39.99 38.495 39.99 38.495 41 39 C33.31801905 37.35622128 25.7260281 35.41948851 18.125 33.4375 C16.90296875 33.12103516 15.6809375 32.80457031 14.421875 32.47851562 C5.40125705 30.13375235 5.40125705 30.13375235 2 29 C1.65896535 25.85495307 1.32862537 22.70886583 1 19.5625 C0.90460938 18.68400391 0.80921875 17.80550781 0.7109375 16.90039062 C0.62070313 16.02705078 0.53046875 15.15371094 0.4375 14.25390625 C0.35371094 13.46314697 0.26992187 12.6723877 0.18359375 11.85766602 C-0.06985024 7.91276994 0 3.95302908 0 0 Z " fill="#EAE7E7" transform="translate(73,144)"/>
<path d="M0 0 C14.85 0 29.7 0 45 0 C45 9 45 9 44 18 C29.48 18 14.96 18 0 18 C0 12.06 0 6.12 0 0 Z " fill="#FEFEFD" transform="translate(112,81)"/>
<path d="M0 0 C9 0 9 0 10.97265625 1.4609375 C11.33230469 2.09257812 11.69195312 2.72421875 12.0625 3.375 C12.44535156 4.00148438 12.82820313 4.62796875 13.22265625 5.2734375 C14 7 14 7 14 9 C16.06084194 7.13542872 17.02004651 5.94929411 18.0625 3.3125 C18.701875 2.549375 19.34125 1.78625 20 1 C23.3 1 26.6 1 30 1 C30 9.58 30 18.16 30 27 C27.36 27 24.72 27 22 27 C21.67 23.04 21.34 19.08 21 15 C20.21625 16.32 19.4325 17.64 18.625 19 C17.2890625 21.25 17.2890625 21.25 16 23 C15.34 23 14.68 23 14 23 C12.12422691 20.45349592 10.61674188 17.72293369 9 15 C8.67 18.96 8.34 22.92 8 27 C5.36 27 2.72 27 0 27 C0 18.09 0 9.18 0 0 Z " fill="#020202" transform="translate(114,11)"/>
<path d="M0 0 C20.46 0 40.92 0 62 0 C61.67 7.59 61.34 15.18 61 23 C56.14345963 25.08137444 52.27013411 26.59513347 47.25 27.75 C45.58710937 28.14445312 45.58710937 28.14445312 43.890625 28.546875 C41 29 41 29 38 28 C38.66 28 39.32 28 40 28 C40 19.09 40 10.18 40 1 C26.8 1 13.6 1 0 1 C0 0.67 0 0.34 0 0 Z " fill="#F06830" transform="translate(72,135)"/>
<path d="M0 0 C2.97 0 5.94 0 9 0 C9 2.97 9 5.94 9 9 C11.97 9 14.94 9 18 9 C18 6.36 18 3.72 18 1 C20.64 1 23.28 1 26 1 C26 9.58 26 18.16 26 27 C23.36 27 20.72 27 18 27 C18 24.03 18 21.06 18 18 C15.03 18 12.06 18 9 18 C9 21.3 9 24.6 9 28 C6.03 28 3.06 28 0 28 C0 18.76 0 9.52 0 0 Z " fill="#050505" transform="translate(54,11)"/>
<path d="M0 0 C22.77 0 45.54 0 69 0 C69 0.33 69 0.66 69 1 C54.48 1 39.96 1 25 1 C25 6.28 25 11.56 25 17 C38.86 17 52.72 17 67 17 C67 17.33 67 17.66 67 18 C45.22 18 23.44 18 1 18 C0.67 12.06 0.34 6.12 0 0 Z " fill="#E54E1E" transform="translate(87,99)"/>
<path d="M0 0 C8.58 0 17.16 0 26 0 C26 2.97 26 5.94 26 9 C23.03 9 20.06 9 17 9 C17 14.94 17 20.88 17 27 C14.36 27 11.72 27 9 27 C9 21.06 9 15.12 9 9 C6.03 9 3.06 9 0 9 C0 6.03 0 3.06 0 0 Z " fill="#0B0B0B" transform="translate(84,11)"/>
<path d="M0 0 C2.97 0 5.94 0 9 0 C9 6.27 9 12.54 9 19 C13.29 19 17.58 19 22 19 C22 21.64 22 24.28 22 27 C14.74 27 7.48 27 0 27 C0 18.09 0 9.18 0 0 Z " fill="#020202" transform="translate(149,11)"/>
</svg>
