<?xml version="1.0" encoding="UTF-8"?>
<svg version="1.1" xmlns="http://www.w3.org/2000/svg" width="3840" height="2160">
<path d="M0 0 C4.25332569 0.00647572 8.50665142 0.01292622 12.75997715 0.01937756 C105.84108867 0.16059801 198.92217906 0.31318832 336.30500795 0.56734159 C336.30500795 2.54734159 336.30500795 4.52734159 336.30500795 6.56734159 C337.62500795 6.89734159 338.94500795 7.22734159 340.30500795 7.56734159 C340.62620011 20.89817055 339.61628474 34.01479928 338.47785951 47.28853299 C338.28161329 49.63310256 338.08590614 51.97771731 337.89069368 54.32237317 C337.36164906 60.65382395 336.82392385 66.9845093 336.28418256 73.31505611 C335.94231952 77.33284561 335.60279863 81.35082532 335.26436616 85.36890485 C330.5307221 141.55897059 325.60298146 197.73184539 320.59387356 253.89798244 C320.04234512 260.0828804 319.49178596 266.2678645 318.94128127 272.45285364 C310.98176423 361.87884271 302.91432738 451.29510445 223.68743755 1312.18192174 C223.37351505 1315.50377584 223.05978439 1318.825648 222.74612047 1322.14752652 C218.32519163 1368.9639803 213.82154842 1415.77172202 209.1969154 1462.56852414 C208.86764144 1465.90145111 208.53882812 1469.23442327 208.21008493 1472.56740262 C207.69479812 1477.78933407 207.17764341 1483.01107742 206.65901686 1488.2326782 C206.46974231 1490.14018535 206.2809511 1492.04774054 206.09270741 1493.95534971 C205.19476077 1503.04885014 204.2715107 1512.13894303 203.23849489 1521.21822049 C203.11989159 1522.29188902 203.11989159 1522.29188902 202.99889226 1523.38724782 C202.42223926 1528.33287897 202.42223926 1528.33287897 201.30500795 1530.56734159 C199.08901348 1531.41003547 196.91780308 1532.12529468 194.64875795 1532.79781034 C193.9184839 1533.02032468 193.18820985 1533.24283902 192.43580629 1533.47209623 C189.89487659 1534.24218237 187.35020202 1534.99897524 184.80500795 1535.75484159 C183.89633974 1536.02722654 182.98767152 1536.29961149 182.05146791 1536.58025052 C149.79062305 1546.24666099 117.33652323 1555.27383623 84.9247141 1564.41737058 C79.30771965 1566.00196677 73.69117499 1567.58814482 68.07502748 1569.17574003 C21.74391146 1582.27187253 -24.62708701 1595.22455845 -71.00708483 1608.14636209 C-77.9007301 1610.06709655 -84.79402826 1611.98907343 -91.68717955 1613.91157987 C-144.82148489 1628.7303452 -197.97164003 1643.48842629 -251.1754608 1658.05580594 C-256.05229686 1659.39117126 -260.9288384 1660.72760955 -265.8053398 1662.06419637 C-294.02143381 1669.79744139 -322.24521151 1677.50183118 -350.48332213 1685.15431669 C-353.79538541 1686.05198287 -357.10710936 1686.9508773 -360.41838072 1687.85146024 C-368.00844954 1689.91563657 -375.60124448 1691.96812335 -383.20359801 1693.98674466 C-385.24307864 1694.53031724 -387.28119344 1695.07904709 -389.31773375 1695.63353422 C-391.99442782 1696.3610146 -394.67550972 1697.06875575 -397.35905455 1697.77046659 C-398.45784941 1698.07599706 -398.45784941 1698.07599706 -399.57884215 1698.38769986 C-408.91069581 1700.76278518 -417.67535967 1698.00870156 -426.79655455 1695.70796659 C-427.98745696 1695.41198072 -429.17835936 1695.11599485 -430.40534972 1694.81103971 C-433.68636793 1693.99297068 -436.96577523 1693.16900613 -440.24432372 1692.34112623 C-442.34336969 1691.81144236 -444.44288957 1691.28367414 -446.54252623 1690.75633695 C-531.48924539 1669.40677498 -615.87145266 1645.80491645 -804.70471381 1593.15819814 C-824.81911222 1587.53059145 -844.93707547 1581.91579294 -865.05577086 1576.30357053 C-900.20421992 1566.49866839 -935.34845692 1556.67875292 -970.49026106 1546.8500612 C-974.30225099 1545.78391758 -978.11427062 1544.71788019 -981.9262924 1543.65185048 C-984.50814243 1542.92978004 -987.08994195 1542.20752921 -989.67173766 1541.48526456 C-1000.3428437 1538.50065819 -1011.01764208 1535.52953168 -1021.69499205 1532.56734159 C-1024.43382078 1519.13447039 -1026.56387289 1505.82579536 -1027.8942108 1492.18452909 C-1028.09888724 1490.15242539 -1028.30387591 1488.12035313 -1028.50912474 1486.08830716 C-1029.2598536 1478.58343083 -1029.98057064 1471.07574368 -1030.69499205 1463.56734159 C-1030.76544265 1462.82700744 -1030.83589325 1462.08667329 -1030.90847872 1461.32390478 C-1033.61732369 1432.82945997 -1036.23718154 1404.32675203 -1038.85289 1375.82363584 C-1039.52024182 1368.55199394 -1040.18876709 1361.28046014 -1040.85734557 1354.00893094 C-1048.37572217 1272.22309265 -1055.81287694 1190.42983433 -1154.19125579 87.35984149 C-1154.66969799 81.80539586 -1155.15065145 76.25117184 -1155.63273619 70.6970413 C-1156.24247752 63.67015304 -1156.84566205 56.64273059 -1157.4436302 49.61483075 C-1157.65314981 47.1617257 -1157.86456376 44.70878147 -1158.07815932 42.25602796 C-1160.63220707 12.8813252 -1160.63220707 12.8813252 -1159.69499205 7.56734159 C-1157.67182921 5.39656522 -1157.67182921 5.39656522 -1155.69499205 3.56734159 C-1155.69499205 2.57734159 -1155.69499205 1.58734159 -1155.69499205 0.56734159 C-1066.54365947 0.39149776 -977.39230195 0.23119382 -842.22095834 0.01452919 C-838.12976948 0.00808911 -834.03858066 0.00163304 -829.94739185 -0.00483838 C-724.25898431 -0.17199131 -618.57053079 -0.31800648 0 0 Z " fill="#E4A124" transform="translate(2329.6949920505285,436.43265841156244)"/>
<path d="M0 0 C4.77888245 0.00232591 9.55776173 -0.0012124 14.3366435 -0.00390494 C23.70467402 -0.00826924 33.07269653 -0.0073097 42.44072733 -0.0044357 C50.15372978 -0.00220235 57.86672961 -0.00218075 65.57973222 -0.00358832 C66.69359067 -0.00379056 67.80744912 -0.0039928 68.95506085 -0.00420117 C71.22365621 -0.00462174 73.49225158 -0.0050464 75.76084694 -0.00547509 C98.39535596 -0.00946213 121.02986006 -0.00601612 143.66436832 0.00016594 C159.68682954 0.00451341 175.70928988 0.0070532 191.73175164 0.00815436 C295.87707635 0.01553929 400.02221734 0.04849775 550.1177495 0.63073099 C550.78473991 0.63369255 551.45173033 0.63665411 552.13893257 0.63970542 C584.77780171 0.78485727 617.41658058 0.94586583 650.0552495 1.13073099 C651.20783448 3.43590095 651.33220144 5.09907854 651.55920915 7.66614759 C651.6462182 8.62746141 651.73322724 9.58877522 651.82287292 10.57921976 C651.91498566 11.64338536 652.0070984 12.70755097 652.10200243 13.80396402 C652.20267912 14.92963027 652.30335581 16.05529653 652.40708332 17.21507388 C652.7461566 21.01743631 653.07937533 24.82028976 653.41267137 28.62316263 C653.65355963 31.34295633 653.89568449 34.0626396 654.13776903 36.78232706 C654.66145704 42.6728454 655.18218103 48.56361985 655.70098619 54.45457017 C656.46044343 63.07758208 657.2248518 71.70014977 657.99047886 80.32261579 C659.24491894 94.45117609 660.49599352 108.58003223 661.74470262 122.70910013 C661.81953231 123.55578453 661.894362 124.40246892 661.97145925 125.27481043 C662.04632966 126.1219587 662.12120006 126.96910697 662.19833927 127.8419264 C662.34953491 129.55267629 662.50073154 131.26342609 662.65192918 132.97417581 C662.76411466 134.24351666 662.76411466 134.24351666 662.87856652 135.53850076 C665.20827689 161.89639446 667.54384238 188.25377069 669.88170169 214.61094273 C670.30991927 219.43887105 670.73790637 224.26681973 671.16571902 229.09478394 C675.06832332 273.13488194 679.03317454 317.16819266 683.18380098 361.18576038 C683.53116556 364.87088174 683.87729418 368.55611882 684.22342233 372.24135649 C684.45205804 374.66776443 684.68305951 377.0939377 684.91433458 379.52009523 C685.7836762 388.71642267 686.49340547 397.91014098 687.0552495 407.13073099 C665.85279671 407.15417173 644.65034609 407.17176477 623.44788294 407.18254316 C613.6015059 407.18768249 603.75513696 407.19467977 593.90876512 407.20617044 C585.31893669 407.21618989 576.72911412 407.22260157 568.13928001 407.22481948 C563.59808521 407.22611434 559.05690717 407.22912161 554.51571779 407.23646104 C550.22628104 407.24333629 545.93686767 407.245325 541.64742593 407.24383867 C540.08757966 407.2441099 538.52773247 407.24604588 536.96789102 407.24993646 C528.73749005 407.2694277 520.54041034 407.1218969 512.32072191 406.67832315 C511.20068236 406.6185588 511.20068236 406.6185588 510.05801575 406.55758709 C497.38339136 405.80699313 497.38339136 405.80699313 493.39509325 402.93541849 C490.24873388 398.69746505 490.78533392 392.28523216 490.45515184 387.15807474 C490.34494293 385.54379395 490.23438109 383.92953724 490.12351732 382.3153013 C490.06574743 381.46311014 490.00797754 380.61091897 489.94845705 379.73290384 C488.40055198 357.10351079 486.26012947 334.54916619 483.96864061 311.98473489 C483.58431208 308.1813059 483.20738291 304.3771578 482.83027773 300.57300699 C480.26243757 274.71195262 477.30683467 248.91437988 474.0552495 223.13073099 C473.72128479 220.46414279 473.38821549 217.79744415 473.0552495 215.13073099 C399.1256402 206.64179602 324.38305996 206.13332428 250.0552495 204.13073099 C250.0552495 203.47073099 250.0552495 202.81073099 250.0552495 202.13073099 C249.17247835 202.19498773 248.2897072 202.25924448 247.38018541 202.32544839 C236.21188735 203.08543663 225.04961519 203.44599709 213.86010675 203.73091829 C210.48899235 203.81691168 207.11799745 203.90674051 203.7470067 203.99744546 C195.34874236 204.22273608 186.95033598 204.44250086 178.55189256 204.66100442 C151.77534883 205.35790348 125.00378645 206.10440766 98.23884325 207.16588724 C97.17432499 207.20681434 96.10980673 207.24774145 95.01303034 207.28990877 C92.04047223 207.40524379 89.06823763 207.52671875 86.09602098 207.65050638 C85.21783394 207.68413089 84.33964689 207.71775541 83.43484811 207.75239885 C80.10097361 207.89780057 77.23811587 208.06977553 74.0552495 209.13073099 C69.47213384 251.42562591 65.18456713 293.73922471 61.21343009 336.09578443 C60.63005467 342.31675468 60.04321258 348.5373942 59.45564257 354.75796956 C58.33775445 366.59354755 57.2221393 378.4293359 56.1102557 390.26547953 C54.73335829 404.92216974 53.35473 419.57869688 51.97527818 434.23514688 C51.84421496 435.62767395 51.84421496 435.62767395 51.710504 437.04833288 C51.17861015 442.69953742 50.64668126 448.35073865 50.11474232 454.00193894 C49.65448204 458.89169771 49.19424934 463.78145908 48.73401384 468.67122018 C47.84111833 478.15772623 46.94819399 487.64422955 46.0552495 497.13073099 C47.49485427 497.13016141 47.49485427 497.13016141 48.96354197 497.12958032 C106.50597481 497.10690723 164.04840759 497.08991682 221.59084397 497.07966566 C228.57987434 497.07841918 235.56890469 497.07712251 242.55793504 497.07579935 C243.25313528 497.07566859 243.94833552 497.07553783 244.66460244 497.07540311 C264.82833877 497.07158945 284.99207298 497.06539203 305.15580791 497.05699451 C521.45118542 496.96696272 521.45118542 496.96696272 594.32239108 497.48225844 C598.0846075 497.50903983 601.84683204 497.53283325 605.60907297 497.55588472 C661.97255122 497.91464703 661.97255122 497.91464703 680.65334825 500.94861734 C681.85413499 501.14274383 681.85413499 501.14274383 683.07918005 501.34079206 C685.0552495 502.13073099 685.0552495 502.13073099 686.3444026 503.90998209 C687.16569788 506.47578155 687.1314801 508.1717731 686.83070116 510.84482706 C686.73033807 511.79210861 686.62997499 512.73939016 686.5265706 513.71537721 C686.40487253 514.75019542 686.28317445 515.78501363 686.15778856 516.85118997 C686.03895059 517.94831623 685.92011263 519.04544248 685.79767351 520.17581499 C685.53683689 522.57580989 685.27076802 524.97524039 685.00018816 527.37415636 C684.33329122 533.30064867 683.70130672 539.23086607 683.06808071 545.16103053 C682.84386128 547.25819505 682.61835045 549.35521827 682.39278536 551.45223844 C680.87609532 565.59818656 679.53317831 579.75946442 678.22860627 593.92643654 C678.03754267 596.00099157 677.84597042 598.07549912 677.65428858 600.14999712 C676.91246162 608.18243098 676.17538562 616.21529433 675.44081758 624.24839503 C674.93644904 629.76312053 674.43018854 635.27767009 673.92301683 640.79213846 C670.06184664 682.78221964 666.27151268 724.77844833 662.52790575 766.77916849 C662.43221835 767.85258784 662.33653095 768.92600719 662.23794393 770.03195441 C661.36431308 779.83233377 660.49095012 789.63273701 659.61765032 799.43314588 C659.03442572 805.978181 658.45112135 812.523209 657.8677495 819.06823099 C657.77162024 820.14677331 657.67549099 821.22531563 657.57644872 822.33654106 C652.77152147 876.24187623 647.94235629 930.14280655 642.6802495 984.00573099 C642.57132497 985.12384542 642.46240045 986.24195985 642.35017519 987.39395654 C640.38815879 1007.53201825 638.38626887 1027.66634855 636.14687471 1047.77575433 C635.97953087 1049.28125973 635.81391725 1050.78695871 635.65023927 1052.29286706 C635.42736519 1054.33349023 635.19644748 1056.37303623 634.96296434 1058.41246927 C634.77146303 1060.11658472 634.77146303 1060.11658472 634.576093 1061.85512674 C633.0810691 1071.25738789 633.0810691 1071.25738789 630.43665819 1073.50873697 C629.76455309 1073.75242517 629.09244798 1073.99611337 628.39997606 1074.24718606 C627.59048509 1074.55105234 626.78099413 1074.85491861 625.94697313 1075.16799295 C624.99270433 1075.4856965 624.03843553 1075.80340005 623.0552495 1076.13073099 C621.9350139 1076.51876901 620.81477831 1076.90680704 619.66059618 1077.30660379 C615.63304691 1078.66966849 611.59047695 1079.97581454 607.5396245 1081.26744974 C606.79716226 1081.50580734 606.05470003 1081.74416494 605.28973894 1081.9897455 C589.75232267 1086.97754599 574.13929522 1091.69792477 558.48446397 1096.30210245 C556.24193052 1096.96185954 553.99981565 1097.6230246 551.75776415 1098.28441751 C514.61834335 1109.23462613 477.36075175 1119.76208639 440.0552495 1130.13073099 C438.71752363 1130.50253992 438.71752363 1130.50253992 437.352773 1130.88186014 C393.51305384 1143.06297766 349.62494827 1155.05901407 305.64472322 1166.7232908 C303.84567953 1167.20043812 302.04669051 1167.67779161 300.24775819 1168.15535867 C295.16953814 1169.50346915 290.0905722 1170.84869889 285.01035623 1172.18926942 C283.49168575 1172.59021931 281.97318821 1172.99182506 280.45489435 1173.39419878 C275.66102067 1174.6637937 270.86147882 1175.90876229 266.0552495 1177.13073099 C265.31685083 1177.32009099 264.57845216 1177.509451 263.81767778 1177.70454919 C261.55323399 1178.28088142 259.28565974 1178.84283538 257.01667528 1179.40099466 C256.33688553 1179.57516318 255.65709577 1179.7493317 254.95670633 1179.92877805 C247.73387549 1181.67105691 241.54008456 1181.53592962 234.34821825 1179.57286966 C233.72294237 1179.4052116 233.09766649 1179.23755353 232.45344286 1179.06481493 C230.38050566 1178.50644331 228.31177732 1177.93387234 226.2427495 1177.36119974 C224.74535096 1176.95472558 223.24770371 1176.54916668 221.74982958 1176.14444864 C218.53234517 1175.27315694 215.31663233 1174.39569157 212.1021245 1173.51348245 C207.01678352 1172.11830683 201.92700963 1170.73981686 196.8364995 1169.36364114 C186.86107273 1166.66449813 176.89049778 1163.94773805 166.92128496 1161.22574365 C164.0010665 1160.42843742 161.08074569 1159.63150689 158.16041307 1158.83461893 C131.84865349 1151.65354768 105.55208965 1144.42476897 79.30303697 1137.01728189 C70.40472983 1134.50727539 61.50173525 1132.01417585 52.59804659 1129.52334535 C-66.49221466 1096.20683333 -66.49221466 1096.20683333 -115.76994582 1081.3778013 C-118.48194235 1080.56228182 -121.19900221 1079.77089518 -123.92424269 1079.00084817 C-125.69396437 1078.48892923 -125.69396437 1078.48892923 -127.499438 1077.96666849 C-128.51247999 1077.68098001 -129.52552199 1077.39529153 -130.56926222 1077.10094583 C-132.9447505 1076.13073099 -132.9447505 1076.13073099 -134.9447505 1073.13073099 C-135.94823506 1069.33623841 -136.49587767 1065.43908251 -137.1322505 1061.56823099 C-137.23701704 1060.9323002 -137.34178358 1060.29636941 -137.44972487 1059.641168 C-150.60158695 978.88958687 -157.71898616 895.68020851 -162.3197505 814.00573099 C-162.3924214 812.72343606 -162.4650923 811.44114114 -162.53996535 810.1199888 C-163.0495471 799.76361223 -162.9447505 789.53465433 -162.9447505 779.13073099 C-99.9147505 779.13073099 -36.8847505 779.13073099 28.0552495 779.13073099 C34.93482364 847.92647237 34.93482364 847.92647237 37.65388231 880.97124612 C38.23978787 888.08588535 38.83215888 895.19997927 39.42872934 902.31373155 C39.63130141 904.74263071 39.83015841 907.17181243 40.02859239 909.60105264 C40.15037292 911.06334986 40.27228778 912.5256359 40.39436083 913.98790872 C40.49839723 915.25255456 40.60243364 916.51720041 40.70962267 917.82016885 C41.00516198 920.65097126 41.43541818 923.35574818 42.0552495 926.13073099 C69.17635651 933.57324923 96.30131097 941.00164029 123.43077593 948.41363657 C125.91264218 949.09176587 128.39444642 949.77012163 130.87623338 950.44854105 C158.86341063 958.09794909 186.86573401 965.68998782 214.99055223 972.82036722 C217.25033253 973.39381313 219.50931407 973.97041772 221.7674077 974.55046976 C224.8476467 975.33968319 227.93115243 976.11441395 231.016187 976.88463724 C231.90683855 977.11493127 232.7974901 977.34522531 233.71513109 977.58249795 C240.89010465 979.34373734 247.74489251 979.90259118 255.01228075 978.27526224 C255.92952928 978.07271829 256.84677782 977.87017435 257.79182176 977.66149271 C258.80687792 977.42446634 259.82193407 977.18743997 260.8677495 976.94323099 C262.01493456 976.68042337 263.16211961 976.41761575 264.34406786 976.14684427 C268.58602428 975.16116814 272.82129591 974.15012471 277.0552495 973.13073099 C278.30084642 972.83165842 278.30084642 972.83165842 279.57160692 972.52654397 C363.15554312 952.53939987 363.15554312 952.53939987 445.27009325 927.35338724 C449.0552495 926.13073099 449.0552495 926.13073099 452.0552495 926.13073099 C455.82916155 897.22394763 458.89814825 868.28837558 461.4927495 839.25573099 C461.56488413 838.44975976 461.63701875 837.64378854 461.71133928 836.81339395 C462.53032303 827.65942951 463.34218147 818.50484105 464.15095262 809.34996927 C465.4399976 794.76143321 466.74452229 780.17431533 468.07190542 765.58921564 C468.43924377 761.5507544 468.80419985 757.51211623 469.16239671 753.47283304 C473.72586075 702.03539747 473.72586075 702.03539747 477.0552495 689.13073099 C476.26605277 689.13165278 475.47685604 689.13257457 474.66374426 689.1335243 C446.23175288 689.16598665 417.79975707 689.18301628 389.3677495 689.19323099 C388.19679845 689.19366529 387.0258474 689.19409959 385.81941299 689.19454706 C287.19078505 689.23004671 188.56284544 689.02198731 32.94413064 688.63975245 C29.35721185 688.63070441 25.77029303 688.62166608 22.18337421 688.61262882 C-39.52601413 688.45708532 -101.2353888 688.2964988 -162.9447505 688.13073099 C-162.95267365 685.41428372 -162.95845207 682.69785986 -162.9630105 679.98140657 C-162.96545849 679.2175987 -162.96790647 678.45379084 -162.97042863 677.66683728 C-162.97765185 671.9213617 -162.73712085 666.24237324 -162.23308058 660.51793802 C-162.11761114 659.10728271 -162.11761114 659.10728271 -161.99980898 657.66812932 C-161.74475144 654.5743264 -161.47964614 651.48147802 -161.21428175 648.38854349 C-161.02594926 646.13361903 -160.83817142 643.8786482 -160.65089674 641.62363565 C-160.13772476 635.47015306 -159.61505577 629.3175113 -159.09013243 623.1650213 C-158.75217653 619.1961434 -158.41664413 615.22706513 -158.08211012 611.25789773 C-152.51417284 545.2170423 -146.6658197 479.20080538 -140.75571026 413.18982089 C-140.08817849 405.73385873 -139.42115824 398.27785089 -138.75425978 390.82183206 C-135.95768346 359.55844046 -133.15364762 328.29572376 -130.3440416 297.03350049 C-129.56390133 288.35166907 -128.7852005 279.66970936 -128.00709791 270.9876951 C-123.18346501 217.17785511 -118.25684017 163.37934518 -113.108813 109.59948099 C-112.99562082 108.41615497 -112.88242864 107.23282896 -112.76580639 106.01364458 C-112.43334187 102.53869053 -112.10056631 99.06376648 -111.76759596 95.58886087 C-111.60592485 93.90122841 -111.60592485 93.90122841 -111.44098766 92.17950237 C-110.91179472 86.66515768 -110.37828042 81.15128627 -109.83596869 75.63821542 C-109.62450681 73.48590975 -109.41314751 71.333594 -109.20189162 69.1812681 C-109.09788971 68.12195439 -108.9938878 67.06264069 -108.88673432 65.97122657 C-108.21940305 59.11576376 -107.59758923 52.25739098 -107.00187095 45.39534652 C-106.59246171 40.70972274 -106.16545011 36.02578861 -105.73605104 31.34195936 C-105.53659415 29.11590293 -105.34541723 26.88908755 -105.1629314 24.66157568 C-104.91137905 21.59922799 -104.63158119 18.54069941 -104.34523268 15.48143899 C-104.27808239 14.57318022 -104.2109321 13.66492145 -104.14174695 12.72913969 C-103.52948269 6.62312191 -103.52948269 6.62312191 -100.50715323 4.07808053 C-87.38246345 -0.77426715 -69.92095231 0.97670604 -55.99573012 0.58413064 C-54.87969104 0.55220505 -54.87969104 0.55220505 -53.74110573 0.5196345 C-35.82804123 0.01927196 -17.91881652 -0.01293592 0 0 Z " fill="#EBEAEB" transform="translate(1669.9447505027056,628.8692690134048)"/>
<path d="M0 0 C200.97 0 401.94 0 609 0 C611.21905842 11.09529212 609.67421288 22.59695814 608.875 33.8125 C608.81330627 34.69597107 608.75161255 35.57944214 608.68804932 36.48968506 C607.1412706 58.5248792 605.2034988 80.52973149 603.26840591 102.53360462 C602.94587796 106.20197827 602.62476673 109.87047441 602.3046875 113.5390625 C602.24340164 114.24111502 602.18211578 114.94316753 602.11897278 115.66649437 C601.34239859 124.59801805 600.67557846 133.52311564 600.20654297 142.47607422 C599.84860013 148.58310369 599.22886142 154.66323473 598.625 160.75 C597.51379417 172.20072781 596.52566333 183.65593492 595.625 195.125 C594.39175362 210.78442525 592.96504109 226.42319309 591.5 242.0625 C590.10396689 256.97432241 588.71634344 271.88483031 587.5 286.8125 C585.54723283 310.75864 583.41171278 334.68894732 581.29815674 358.62133789 C581.0196959 361.77680936 580.74185899 364.93233484 580.46435547 368.08789062 C578.4126967 391.41572638 576.28741776 414.73578539 574.11187744 438.05239868 C572.68092383 453.40663119 571.29864712 468.76268224 570.07592773 484.13500977 C569.27157628 494.14233636 568.34168293 504.1363827 567.39860535 514.13150024 C566.01405177 528.81014237 564.65220497 543.49086875 563.29296875 558.171875 C563.23159587 558.83475053 563.170223 559.49762606 563.10699034 560.18058872 C562.20006868 569.97686601 561.29427177 579.77324714 560.38899326 589.5696764 C560.18640071 591.76189526 559.98376463 593.95411009 559.7811203 596.14632416 C556.55049127 631.09760945 553.33089708 666.04933382 550.28607178 701.01739502 C548.36138827 723.11831415 546.31669568 745.20639059 544.22989559 767.29245472 C542.80747795 782.34704727 541.4141175 797.40246618 540.11035156 812.46777344 C538.8935517 826.42393879 537.55920231 840.36894688 536.2361145 854.31536865 C534.75055284 869.97828009 533.2912857 885.64317016 531.875 901.3125 C530.4015139 917.609249 528.89643513 933.90251721 527.35888672 950.19335938 C526.81557859 955.95612149 526.2757006 961.71920392 525.73594666 967.4822998 C525.54628051 969.50615761 525.35642965 971.52999811 525.16651917 973.55383301 C524.5523721 980.09946908 523.93948456 986.64521286 523.33129883 993.19140625 C521.97781763 1007.73519147 520.59270005 1022.27551851 519.16796875 1036.8125 C519.04951631 1038.0211396 519.04951631 1038.0211396 518.92867088 1039.25419617 C518.5190118 1043.43275962 518.10895023 1047.61128349 517.69876099 1051.78979492 C515.21355469 1077.11054191 512.75269289 1102.43271265 510.40805054 1127.76690674 C507.94144063 1154.41448459 505.33411404 1181.04667522 502.67008591 1207.67520142 C502.38131764 1210.56184627 502.09287843 1213.44852387 501.80447388 1216.33520508 C500.54923054 1228.89145751 499.28106134 1241.44635575 498 1254 C497.90991165 1254.88423141 497.8198233 1255.76846283 497.727005 1256.67948914 C497.19152342 1261.93190419 496.65195272 1267.18387277 496.10670853 1272.43528366 C495.93998298 1274.04483519 495.77428662 1275.65449375 495.60975266 1277.26427078 C495.10652447 1282.18043946 494.56778871 1287.0908455 494 1292 C493.86164734 1293.26821594 493.72329468 1294.53643188 493.58074951 1295.84307861 C493.4334137 1297.0107074 493.28607788 1298.17833618 493.13427734 1299.38134766 C493.01176605 1300.39879059 492.88925476 1301.41623352 492.76303101 1302.46450806 C491.82401519 1305.58478368 490.78400146 1306.39263478 488 1308 C485.84226839 1308.83897026 483.64960847 1309.58980042 481.44140625 1310.28515625 C480.77171814 1310.49773071 480.10203003 1310.71030518 479.41204834 1310.92932129 C477.13160464 1311.64944788 474.84735753 1312.35651075 472.5625 1313.0625 C470.88761129 1313.58519662 469.21272532 1314.10790201 467.5378418 1314.63061523 C422.47352812 1328.62939605 377.0590811 1341.4834904 331.64242363 1354.28092289 C323.91292517 1356.45902005 316.18615398 1358.64660631 308.4609375 1360.83984375 C305.39911824 1361.70834177 302.33725044 1362.57666838 299.27536011 1363.44491577 C297.44444048 1363.9643369 295.61364124 1364.48418263 293.7829895 1365.00454712 C282.56436256 1368.19214331 271.32051331 1371.27317349 260.0556488 1374.2933197 C249.02885401 1377.25248794 238.02462251 1380.29120702 227.02166748 1383.33761597 C220.76777378 1385.06884731 214.51304819 1386.79706219 208.2578125 1388.5234375 C207.60483814 1388.70365133 206.95186378 1388.88386517 206.27910233 1389.06954002 C195.75111128 1391.97415035 185.21709753 1394.8563236 174.6796875 1397.7265625 C173.95637993 1397.92361219 173.23307236 1398.12066189 172.48784637 1398.32368279 C165.43102344 1400.24598678 158.37373176 1402.16655294 151.315382 1404.08324337 C135.81076998 1408.2945414 120.32562159 1412.56670431 104.8687439 1416.95005798 C95.49905397 1419.60125132 86.10005104 1422.11200022 76.6640625 1424.515625 C72.07199788 1425.70082472 67.50433414 1426.96787144 62.9375 1428.24609375 C51.11442598 1431.55111223 39.24316284 1434.67415008 27.375 1437.8125 C25.09632792 1438.41591651 22.81768192 1439.01943151 20.5390625 1439.62304688 C15.02634101 1441.08316384 9.51330189 1442.54207621 4 1444 C1.83768773 1440.45084101 1.61826794 1437.34600001 1.37405396 1433.23454285 C1.33293196 1432.56328405 1.29180997 1431.89202524 1.24944186 1431.20042527 C1.11779711 1428.97677609 1.00132198 1426.75269014 0.88720703 1424.52807617 C0.84518732 1423.75441723 0.80316761 1422.98075829 0.75987458 1422.18365514 C-0.15746984 1405.10788765 -0.26521447 1388.05581682 -0.20278788 1370.95991921 C-0.1899465 1366.82144683 -0.18908461 1362.6829686 -0.18673706 1358.54447937 C-0.18061726 1350.77181202 -0.16434101 1342.99920358 -0.14403808 1335.22656173 C-0.12137574 1326.3504739 -0.1106109 1317.47438266 -0.10064721 1308.59827292 C-0.07996153 1290.39881569 -0.04497908 1272.19941265 0 1254 C-2.31 1253.67 -4.62 1253.34 -7 1253 C-7 1252.67 -7 1252.34 -7 1252 C-5.73921631 1251.74275146 -4.47843262 1251.48550293 -3.17944336 1251.22045898 C14.04109058 1247.630201 31.02032038 1243.20933987 48.01771927 1238.70357132 C50.47850118 1238.05163758 52.93973772 1237.40144566 55.40109253 1236.75167847 C92.7064603 1226.89986464 129.91238541 1216.69074403 167.08868408 1206.3638916 C171.14435919 1205.23735777 175.20049863 1204.11250676 179.25679588 1202.98821545 C234.08331119 1187.7907641 288.8840823 1172.40884185 343.25 1155.625 C344.04834259 1155.37927246 344.84668518 1155.13354492 345.66921997 1154.88037109 C350.02857493 1153.53454312 354.37387374 1152.15220036 358.71020508 1150.73400879 C361.28730168 1149.90790356 363.87682506 1149.1275279 366.46679688 1148.34277344 C368.30644489 1147.75859333 370.14564678 1147.17300627 371.984375 1146.5859375 C372.85322327 1146.33244537 373.72207153 1146.07895325 374.61724854 1145.81777954 C375.42128113 1145.55355194 376.22531372 1145.28932434 377.05371094 1145.01708984 C377.76815369 1144.79628754 378.48259644 1144.57548523 379.21868896 1144.34799194 C382.45857091 1141.89623889 382.77696998 1137.44706442 383.3702575 1133.59769356 C383.7240312 1130.76566629 384.03440993 1127.93178271 384.3313446 1125.0932312 C384.44796735 1124.02336196 384.56459009 1122.95349272 384.68474686 1121.8512032 C385.0667798 1118.32708831 385.43939563 1114.80205479 385.8112793 1111.27685547 C386.07794364 1108.78665016 386.34480864 1106.29646632 386.61186504 1103.80630302 C389.12726309 1080.23053184 391.4516414 1056.63709633 393.69073844 1033.03366613 C394.02947805 1029.46553745 394.36957101 1025.89753966 394.70990944 1022.32956314 C401.48800597 951.21642566 407.77842773 880.05813341 414.13114929 808.90603638 C416.24563826 785.22344246 418.36239931 761.54105438 420.48687154 737.85935366 C420.69865108 735.49851562 420.91036588 733.13767178 421.12207937 730.77682781 C425.3924254 683.16667526 429.81764965 635.57554136 434.69147682 588.02276993 C435.13446989 583.68252511 435.56853084 579.34140392 436 575 C431.30884787 572.7071874 426.68524693 572.38481655 421.5625 571.9375 C420.34143555 571.82051758 420.34143555 571.82051758 419.09570312 571.70117188 C417.39259034 571.54203933 415.68863888 571.39166705 413.98402119 571.24955845 C412.08756212 571.09095455 410.19175853 570.92413439 408.29700756 570.74628353 C395.98755738 569.70626422 383.65667552 569.77807295 371.31176758 569.70336914 C369.32875118 569.68909959 367.3457348 569.67482266 365.36272134 569.6601506 C357.26794481 569.60035547 349.17312483 569.54979696 341.07827353 569.50135684 C336.27833193 569.47256459 331.47840441 569.44173758 326.67847633 569.41078377 C229.7721346 568.79006068 132.86322392 568.66814826 35.95530427 568.48259032 C17.61367279 568.44740971 -0.72795449 568.4104363 -19.06958008 568.37231445 C-20.38055628 568.36959018 -21.69153248 568.36686591 -23.04223523 568.36405908 C-29.62571096 568.35036935 -36.20918663 568.33665112 -42.79266226 568.32291877 C-96.52843298 568.21086854 -150.26421253 568.10368369 -204 568 C-204.07006375 561.96148872 -203.93404635 556.04601523 -203.3704834 550.03326416 C-203.30262398 549.29571199 -203.23476457 548.55815982 -203.1648488 547.79825759 C-202.93915716 545.35758721 -202.70690952 542.9175886 -202.47460938 540.47753906 C-202.30986421 538.71105499 -202.14551792 536.94453368 -201.98153687 535.17797852 C-201.53489972 530.37968807 -201.08242556 525.58196448 -200.62872887 520.78433704 C-200.14637143 515.67484163 -199.66882534 510.56489608 -199.19055176 505.45501709 C-198.37996079 496.80271123 -197.56562557 488.15076391 -196.74902344 479.49902344 C-195.92690114 470.78843575 -195.10835335 462.07752329 -194.29394531 453.36621094 C-190.17452205 409.30635858 -185.99853432 365.25419527 -181.46875 321.234375 C-181.33965524 319.97926353 -181.33965524 319.97926353 -181.2079525 318.69879627 C-180.64599826 313.23868353 -180.08099948 307.77889282 -179.51367188 302.31933594 C-179.44257957 301.63347129 -179.37148727 300.94760664 -179.29824066 300.24095821 C-178.59695245 293.48477445 -177.87939154 286.73551429 -177 280 C-171.8233643 277.93522845 -167.16165968 277.60430232 -161.6706543 277.42431641 C-160.28261439 277.36859529 -160.28261439 277.36859529 -158.86653328 277.3117485 C-155.79019913 277.19099904 -152.7135622 277.0834883 -149.63671875 276.9765625 C-147.44763 276.89446716 -145.25855862 276.81190734 -143.06950378 276.72891235 C-118.51378994 275.81579633 -93.95032657 275.13334855 -69.38677979 274.47198486 C-64.54291191 274.34055087 -59.69915681 274.20518719 -54.85539722 274.06982994 C-50.1222897 273.93791986 -45.38912982 273.80797671 -40.65595055 273.67866898 C-38.43184748 273.6177656 -36.20775764 273.556377 -33.98368263 273.49445724 C-22.65305771 273.18042059 -11.33600319 272.89595826 0 273 C0 273.66 0 274.32 0 275 C0.75949951 274.98952637 1.51899902 274.97905273 2.30151367 274.96826172 C64.68134629 274.25348809 127.61986007 276.76806474 189.8125 281.5 C190.54516083 281.55380829 191.27782166 281.60761658 192.03268433 281.66305542 C202.49299431 282.44690527 212.70739605 284.02780273 223 286 C224.50525262 291.61703603 225.53345975 297.1017414 226.2265625 302.87109375 C226.33517105 303.74846695 226.4437796 304.62584015 226.55567932 305.52980042 C226.91936785 308.49820616 227.27320243 311.46766244 227.625 314.4375 C227.75016998 315.48478271 227.87533997 316.53206543 228.00430298 317.61108398 C230.67094427 340.04521476 232.95829385 362.51885689 235.1875 385 C235.31831215 386.3189753 235.31831215 386.3189753 235.45176697 387.66459656 C237.69254161 410.30448766 239.85773948 432.94121939 241.16479492 455.65820312 C241.23329399 456.7912664 241.23329399 456.7912664 241.30317688 457.94721985 C241.41817256 459.88062019 241.52196622 461.81467865 241.62451172 463.7487793 C242.01180742 467.10223631 242.69716143 469.88747219 244 473 C249.87026607 476.33177264 256.89909138 476.26832696 263.48461914 476.54272461 C264.47839349 476.58454581 265.47216784 476.62636702 266.49605656 476.66945553 C281.53672744 477.23728446 296.59135848 477.230942 311.64071536 477.30332303 C316.06356033 477.32553288 320.48637479 477.35274652 324.90919495 477.37937927 C333.24533081 477.42884201 341.58148403 477.47394843 349.91765314 477.51740164 C359.4246764 477.56717676 368.93166899 477.62194248 378.43866241 477.67708123 C397.95907966 477.79018651 417.47952602 477.89717466 437 478 C436.90139144 477.18489456 436.80278288 476.36978912 436.70118618 475.52998352 C433.66381371 450.20986855 431.24672646 424.85152711 428.98289132 399.45183897 C428.48107561 393.83200886 427.97435208 388.21262077 427.4683075 382.59317017 C426.49540497 371.78078169 425.52702715 360.96799289 424.56035966 350.15504539 C423.78244579 341.45482801 423.00254041 332.7547911 422.22131348 324.05487061 C422.11015823 322.8169985 421.99900299 321.57912639 421.8844794 320.303743 C421.65956143 317.79900398 421.43464238 315.29426506 421.20972228 312.78952622 C414.06384219 233.19977176 406.99101889 153.60350649 400 74 C395.32069668 72.81508572 390.78661239 72.85018003 385.99427795 72.84851074 C385.08018199 72.84427957 384.16608603 72.8400484 383.22429019 72.83568901 C380.14049195 72.82262913 377.05671974 72.81662332 373.97290039 72.81054688 C371.74175172 72.80256814 369.51060456 72.79415878 367.279459 72.78535557 C361.11318563 72.76229616 354.94690812 72.74542467 348.78061271 72.72952008 C342.77522275 72.71307481 336.76985007 72.69201675 330.76447446 72.67109958 C318.37633969 72.62812177 305.9881944 72.5898417 293.60003662 72.5541687 C281.24590289 72.51858495 268.89177808 72.48097159 256.53765869 72.44070435 C255.38161788 72.43693927 255.38161788 72.43693927 254.2022227 72.43309813 C251.06658192 72.42288067 247.93094118 72.41265124 244.79530048 72.40240576 C207.3621318 72.28013201 169.92893495 72.1680284 132.49572957 72.05766509 C112.35079673 71.99826537 92.20586776 71.93760276 72.06093895 71.87685561 C-20.03323745 71.5991861 -112.12743704 71.33010869 -229 71 C-229 70.67 -229 70.34 -229 70 C-153.43 70 -77.86 70 0 70 C0 46.9 0 23.8 0 0 Z " fill="#EEBE24" transform="translate(1920,558)"/>
<path d="M0 0 C1.29643433 0.00853626 2.59286865 0.01707253 3.92858887 0.02586746 C9.37791055 0.0620384 14.82722447 0.09912517 20.27651978 0.13908958 C27.84564074 0.19457786 35.41474609 0.24376134 42.98396015 0.28470552 C48.46061163 0.31484652 53.93718877 0.35212383 59.41376019 0.39435256 C62.62315843 0.41893277 65.83250241 0.439927 69.04196167 0.45490646 C82.3341244 0.51945313 95.56401718 0.84656417 108.828125 1.75244141 C110.56748322 1.86777253 110.56748322 1.86777253 112.34197998 1.98543358 C118.30347372 2.43221351 123.81852173 3.18201639 129.5625 4.8515625 C128.62848004 15.00490893 127.65193208 25.15113508 126.53775024 35.28646851 C124.78949542 51.21813852 123.30013153 67.16839242 121.87486649 83.13171005 C121.35265357 88.97031559 120.8244211 94.80838269 120.2976017 100.64657402 C120.09819525 102.85730555 119.8990783 105.06806302 119.69999695 107.27882385 C118.6305981 119.14576757 117.52976858 131.00965636 116.42068481 142.87295532 C114.29919019 165.58930402 112.26103354 188.31272198 110.25 211.0390625 C110.17717049 211.86209618 110.10434097 212.68512985 110.0293045 213.53310394 C108.19239903 234.29728291 106.36758363 255.0625203 104.546875 275.828125 C99.07106357 338.27559656 93.46981377 400.70925593 87.57286072 463.11853027 C86.86289722 470.63933056 86.16360001 478.16102507 85.47265625 485.68359375 C83.43358228 507.78721023 81.20951738 529.87582124 78.39961243 551.89686584 C77.91621922 555.69152566 77.50365407 559.45599607 77.28613281 563.27587891 C77.2330899 563.96474686 77.180047 564.65361481 77.12539673 565.36335754 C76.98716308 567.19907038 76.88958804 569.03772113 76.79541016 570.8762207 C75.40680358 574.22729959 74.97929235 574.50884899 71.84716797 575.99584961 C65.55056365 578.37710763 59.06306608 580.20824961 52.59375 582.0546875 C51.21533657 582.45313197 49.83707496 582.85210199 48.45895386 583.2515564 C44.76322615 584.32085989 41.06516027 585.38184809 37.36650848 586.44098663 C34.27122487 587.32842679 31.17734079 588.22069324 28.08341789 589.11286354 C2.01540878 596.62840834 -24.09892277 603.97624665 -50.22944641 611.27122498 C-61.03959675 614.29266788 -71.83215699 617.37488489 -82.61376953 620.49658203 C-91.6627893 623.10339066 -100.74695139 625.56533494 -109.84220886 628.00517273 C-122.25804832 631.33586309 -134.66013957 634.71666918 -147.06149292 638.10079956 C-150.58839559 639.06321751 -154.1155201 640.02482001 -157.6426878 640.98626614 C-172.09550638 644.92620963 -186.54561537 648.87559162 -200.98644257 652.85928535 C-231.06297438 661.15605942 -261.16618985 669.29041611 -291.4375 676.8515625 C-292.47587006 677.1329155 -292.47587006 677.1329155 -293.53521729 677.41995239 C-297.28601199 678.41917497 -300.56934636 678.94506563 -304.4375 678.8515625 C-306.29852833 670.91749969 -307.04874052 663.06250585 -307.55029297 654.93920898 C-307.59231268 654.27378802 -307.63433239 653.60836706 -307.67762542 652.92278183 C-308.67044963 636.89281614 -308.69973479 620.87752502 -308.64028788 604.82284474 C-308.62748549 600.75775344 -308.62658748 596.69265657 -308.62423706 592.62754822 C-308.61810651 584.98578638 -308.6018144 577.34408416 -308.58153808 569.70234817 C-308.55891088 560.97870821 -308.5481194 552.25506487 -308.53814721 543.53140271 C-308.51743693 525.63808927 -308.48243165 507.74483074 -308.4375 489.8515625 C-307.01632252 489.37316017 -305.59473261 488.89598292 -304.17297363 488.41931152 C-303.38137093 488.15344994 -302.58976822 487.88758835 -301.77417755 487.61367035 C-298.51306208 486.55005689 -295.21894469 485.64658425 -291.90625 484.7578125 C-290.86149002 484.47628578 -290.86149002 484.47628578 -289.79562378 484.18907166 C-287.51027752 483.57394804 -285.22391969 482.96268297 -282.9375 482.3515625 C-281.30414151 481.91305669 -279.67084203 481.47433104 -278.03759766 481.03540039 C-274.59607315 480.11091879 -271.15412589 479.18803224 -267.71191406 478.26611328 C-262.51192041 476.87267842 -257.31444529 475.47000404 -252.1171875 474.06640625 C-236.46545718 469.8437461 -220.80660649 465.66426719 -205.09567261 461.66687012 C-191.99890351 458.33287874 -178.97721617 454.83098822 -166.03564453 450.93115234 C-162.4784159 449.86383893 -158.91755941 448.80954776 -155.35571289 447.75778198 C-132.63505395 441.10811425 -132.63505395 441.10811425 -110.125 433.7890625 C-108.96339355 433.39557617 -108.96339355 433.39557617 -107.77832031 432.99414062 C-102.89908865 431.37209999 -102.89908865 431.37209999 -99.4375 427.8515625 C-98.65074849 425.23731731 -98.0630768 422.77451604 -97.5625 420.1015625 C-97.39596924 419.22040771 -97.22943848 418.33925293 -97.05786133 417.43139648 C-88.16806252 368.11408185 -85.60391506 317.47497346 -81.37036133 267.59521484 C-81.16360677 265.15982797 -80.95682029 262.7244438 -80.75 260.2890625 C-80.6498056 259.10838196 -80.54961121 257.92770142 -80.44638062 256.71124268 C-79.2018068 242.09451477 -77.86751914 227.49462322 -76.25 212.9140625 C-76.13164291 211.83667313 -76.13164291 211.83667313 -76.01089478 210.73751831 C-75.1163335 202.67011379 -73.89428498 194.86387989 -72.4375 186.8515625 C-150.3175 186.5215625 -228.1975 186.1915625 -308.4375 185.8515625 C-308.4375 124.8015625 -308.4375 63.7515625 -308.4375 0.8515625 C-254.10900987 0.60078806 -254.10900987 0.60078806 -230.99609375 0.49609375 C-225.71858716 0.47218462 -220.44108063 0.44826353 -215.16357422 0.42431641 C-214.50252878 0.42131747 -213.84148335 0.41831854 -213.16040623 0.41522872 C-203.27050896 0.37034176 -193.38061501 0.3247668 -183.49072266 0.27880859 C-171.94799132 0.22517082 -160.40525634 0.17240428 -148.86251664 0.12059546 C-142.77652332 0.09325079 -136.69053235 0.06553036 -130.60454559 0.03675842 C-87.06990577 -0.16852736 -43.53454496 -0.29102166 0 0 Z " fill="#FEFEFE" transform="translate(2223.4375,1126.1484375)"/>
<path d="M0 0 C1.15924449 -0.00260775 2.31848898 -0.00521549 3.51286209 -0.00790226 C4.80278159 -0.00567154 6.09270109 -0.00344082 7.42170906 -0.0011425 C8.79338756 -0.00229342 10.16506575 -0.00388074 11.53674328 -0.00586975 C15.32469601 -0.01006846 19.11262374 -0.0079698 22.90057659 -0.00488353 C26.98018824 -0.00263128 31.05979543 -0.00610854 35.1394062 -0.00886345 C43.14609351 -0.01332513 51.15277148 -0.01234202 59.15945916 -0.00945081 C65.67903727 -0.00719424 72.19861276 -0.00688538 78.71819115 -0.00797462 C80.10923974 -0.00820447 80.10923974 -0.00820447 81.52839033 -0.00843897 C83.41254305 -0.0087587 85.29669577 -0.00908292 87.18084849 -0.00941156 C104.88537203 -0.01226856 122.58989041 -0.00897803 140.2944131 -0.00361119 C155.43809485 0.0008379 170.58176891 0.00009708 185.72545052 -0.00452995 C203.32546589 -0.00990502 220.9254767 -0.01197369 238.52549279 -0.00891769 C240.41073998 -0.00859917 242.29598717 -0.0082848 244.18123436 -0.00797462 C245.1086453 -0.00782035 246.03605625 -0.00766607 246.99157055 -0.00750712 C253.47909664 -0.00664929 259.9666198 -0.00808933 266.45414543 -0.01045418 C274.39727172 -0.01328587 282.34038816 -0.01244477 290.28351335 -0.00717343 C294.3252525 -0.00457827 298.36697534 -0.00345827 302.40871429 -0.00682259 C321.18907037 -0.02115666 339.92500243 0.25986091 358.6893177 1.12584114 C360.02507115 1.18578054 360.02507115 1.18578054 361.38780951 1.24693084 C386.75024915 2.39604073 386.75024915 2.39604073 391.6893177 7.12584114 C392.35101509 9.76432991 392.35101509 9.76432991 392.58311653 13.00572395 C392.72938232 14.84992676 392.72938232 14.84992676 392.87860298 16.73138618 C392.96807588 18.0972315 393.05731667 19.46309203 393.14634895 20.82896614 C393.25407126 22.26604394 393.36358812 23.70298818 393.47476387 25.13980293 C393.71177265 28.24490743 393.93750697 31.350553 394.15464973 34.45710945 C394.50348005 39.43879002 394.87857892 44.41826167 395.2596302 49.39756966 C395.32425642 50.24278584 395.38888264 51.08800203 395.45546722 51.95883083 C395.58767593 53.68743911 395.71996194 55.41604148 395.85232353 57.14463806 C396.05455724 59.79604675 396.25444959 62.44762376 396.45387459 65.09924507 C397.80036606 82.94120611 399.36435137 100.76203438 400.96651649 118.58259392 C401.26594295 121.91651371 401.56368054 125.25058346 401.86141396 128.58465481 C402.52206597 135.9826961 403.18503527 143.38052667 403.84996223 150.77818489 C404.57183601 158.80981961 405.28911218 166.84185729 406.0043602 174.87408447 C407.48367515 191.48516604 408.97473752 208.09517869 410.47122383 224.70472145 C410.699825 227.24248552 410.92828575 229.7802622 411.15672493 232.31804085 C418.03457746 314.87410845 418.03457746 314.87410845 427.6893177 397.12584114 C422.75575816 397.92966733 418.06661894 398.24961469 413.05200386 398.24609566 C412.31506701 398.24695008 411.57813017 398.24780451 410.8188619 398.24868482 C408.36688243 398.25032271 405.91497244 398.24484614 403.46299934 398.23936653 C401.69844248 398.23908427 399.93388549 398.23924316 398.16932869 398.23980904 C393.39095964 398.24009548 388.6126158 398.23422339 383.8342526 398.22723508 C378.83610808 398.22097615 373.83796297 398.22039573 368.83981514 398.21920967 C359.38043783 398.21610384 349.92107211 398.20790054 340.4616999 398.19786018 C329.69028097 398.18667581 318.91886147 398.18118273 308.14743817 398.17616475 C285.99472489 398.16571731 263.84202203 398.14813235 241.6893177 398.12584114 C241.04588633 394.20806929 240.4090707 390.28924794 239.77330208 386.37022591 C239.59377998 385.27763718 239.41425789 384.18504845 239.22929573 383.05935097 C237.73497724 373.81587186 236.62444814 364.5594881 235.76329231 355.23643684 C235.62284996 353.72927605 235.62284996 353.72927605 235.47957039 352.19166756 C235.383787 351.15931984 235.28800362 350.12697212 235.1893177 349.06334114 C234.97813431 346.84740857 234.76661944 344.63150756 234.55479622 342.41563606 C232.68461102 322.69162882 231.02435902 302.95032077 229.427248 283.20257759 C228.82655366 275.78140524 228.21056367 268.36159497 227.5877552 260.94224739 C227.45080994 259.30933502 227.45080994 259.30933502 227.3110981 257.64343452 C226.9560722 253.41119118 226.60090564 249.17895987 226.24495125 244.94679451 C226.00292887 242.06644073 225.76210451 239.18598854 225.52134895 236.30552864 C225.44579277 235.41212273 225.37023659 234.51871681 225.29239082 233.59823799 C224.96379378 229.66660602 224.65440167 225.73747137 224.42515755 221.7986927 C224.35119759 220.54797981 224.27723763 219.29726692 224.20103645 218.00865364 C224.12115486 216.42528206 224.12115486 216.42528206 224.0396595 214.80992317 C223.58820436 211.1612662 223.58820436 211.1612662 221.6893177 208.12584114 C218.58097858 207.22388932 218.58097858 207.22388932 214.8143177 206.93052864 C214.11132545 206.85278206 213.40833321 206.77503548 212.68403816 206.69493294 C210.35406506 206.44370647 208.02238736 206.22132074 205.6893177 206.00084114 C204.04814047 205.83366181 202.40702787 205.66584683 200.76597786 205.49742317 C185.20154798 203.93944551 169.61505932 202.98175983 153.99345589 202.23655891 C151.60889413 202.12197665 149.22453467 202.00377301 146.84019661 201.8846302 C135.36431738 201.31198168 123.88697015 200.77532334 112.40880013 200.25084114 C109.72293456 200.12738633 107.03716757 200.00198545 104.35142708 199.87584114 C78.54023393 198.66405984 52.72604326 197.6651161 26.90001106 196.82310677 C25.72727638 196.78391624 24.5545417 196.74472572 23.34626961 196.70434761 C21.1699315 196.63165728 18.99352347 196.56101341 16.81703377 196.49301338 C11.30325588 196.30717041 5.81016084 196.01117535 0.30758858 195.60925484 C-0.93667428 195.51883698 -2.18093714 195.42841913 -3.46290493 195.33526134 C-4.40267146 195.26615268 -5.34243799 195.19704401 -6.3106823 195.12584114 C-6.33400823 169.84865517 -6.35165997 144.5714708 -6.36249447 119.29427624 C-6.36765808 107.55852143 -6.374702 95.8227733 -6.38612175 84.08702278 C-6.39606661 73.86212279 -6.40253525 63.63722763 -6.40477079 53.41232294 C-6.40607824 47.99473595 -6.4091662 42.5771628 -6.41641235 37.15958023 C-6.42316946 32.06665792 -6.42529989 26.97375522 -6.42378998 21.88082886 C-6.42406645 20.00584367 -6.4260734 18.13085787 -6.42988777 16.25587654 C-6.43482019 13.70758842 -6.43368227 11.15937554 -6.43093681 8.61108589 C-6.43384965 7.85915476 -6.4367625 7.10722364 -6.43976361 6.33250672 C-6.42171573 0.1888578 -6.03890445 0.00097196 0 0 Z " fill="#FFFFFF" transform="translate(1926.310682296753,632.8741588592529)"/>
<path d="M0 0 C86.46 0 172.92 0 262 0 C262 25.08 262 50.16 262 76 C231.12928102 77.14335996 231.12928102 77.14335996 216.4629612 77.44555664 C213.71554343 77.50241055 210.96820703 77.56237771 208.22087097 77.62304688 C200.43517771 77.79456975 192.64939358 77.96161436 184.86352539 78.125 C180.04071345 78.22641553 175.2180022 78.33183112 170.39533043 78.43969727 C168.5793964 78.47950598 166.76342813 78.51778583 164.94742775 78.55444336 C162.42294379 78.60546036 159.89861823 78.66156153 157.37426758 78.71875 C156.64128448 78.73228516 155.90830139 78.74582031 155.15310669 78.75976562 C150.37482977 78.87488066 145.73510297 79.34294661 141 80 C141.71285156 80.70125 142.42570312 81.4025 143.16015625 82.125 C144.12774323 83.08319293 145.09518313 84.04153439 146.0625 85 C146.52849609 85.45761719 146.99449219 85.91523437 147.47460938 86.38671875 C150.87440064 89.76338219 154.03587611 93.29892409 157.17211914 96.92041016 C160.25426211 100.42698071 163.47441461 103.8012873 166.6875 107.1875 C171.52742457 112.30851722 176.35471945 117.43899457 181.125 122.625 C185.39689312 127.2686778 189.69102732 131.89070142 194 136.5 C198.83965385 141.67770334 203.65905871 146.87320277 208.4609375 152.0859375 C212.29051457 156.23971157 216.14208969 160.37254137 220 164.5 C224.83960796 169.67774651 229.65905839 174.87320243 234.4609375 180.0859375 C238.87370683 184.8722746 243.31683782 189.62990838 247.76269531 194.38549805 C252.28552047 199.22643278 256.78503549 204.08838692 261.26953125 208.96484375 C263.15101884 211.00879963 265.03533304 213.03533304 267 215 C267 237.44 267 259.88 267 283 C178.89 283 90.78 283 0 283 C0 257.59 0 232.18 0 206 C7.6828125 205.93941406 15.365625 205.87882813 23.28125 205.81640625 C28.17578624 205.77586657 33.07031769 205.7350703 37.96484375 205.69335938 C45.71759299 205.62731494 53.47034183 205.56217217 61.22314453 205.50268555 C67.48017402 205.45461608 73.73715491 205.40226394 79.99412537 205.34705925 C82.37005894 205.32682673 84.74600574 205.30808482 87.1219635 205.29092598 C99.78187501 205.19849368 112.37530266 205.00552714 125 204 C115.24328536 191.59649998 104.93050012 179.81957329 94.1171875 168.33203125 C91.25379228 165.28512842 88.48338864 162.17120035 85.75390625 159.00390625 C82.06103267 154.78465425 78.23280603 150.68482363 74.43505859 146.56005859 C72.59255675 144.55706662 70.75485065 142.54971137 68.91723633 140.54223633 C63.13431087 134.22572684 57.32785899 127.93109972 51.51611328 121.64111328 C49.00985896 118.92822414 46.50499554 116.21405141 44 113.5 C43.00000676 112.41666043 42.00000676 111.33332709 41 110.25 C23 90.75 23 90.75 21.49755859 89.12231445 C20.50575078 88.04788294 19.51388952 86.97350076 18.52197266 85.89916992 C15.89617319 83.05505818 13.27153012 80.20988985 10.6484375 77.36328125 C10.10058594 76.76902344 9.55273438 76.17476563 8.98828125 75.5625 C7.93585693 74.42088717 6.88375819 73.27897408 5.83203125 72.13671875 C3.91653406 70.05942206 1.9982768 67.9982768 0 66 C0 44.22 0 22.44 0 0 Z " fill="#0E0E0E" transform="translate(1925,24)"/>
<path d="M0 0 C74.91 0 149.82 0 227 0 C225 18 225 18 224.12084961 25.72460938 C221.95003206 45.03362189 220.10406864 64.3649992 218.37890625 83.71875 C218.26486828 84.99760071 218.15083031 86.27645142 218.03333664 87.59405518 C217.08602609 98.23291047 216.14565297 108.87237772 215.20935059 119.51220703 C210.26324654 175.7171264 210.26324654 175.7171264 207.27734375 202.53125 C207.12481738 203.90717567 207.12481738 203.90717567 206.96920967 205.31089783 C203.84598693 233.30802613 203.84598693 233.30802613 202 237 C198.56078715 238.53461602 194.89961474 239.55119778 191.3125 240.6875 C190.09973389 241.07341309 188.88696777 241.45932617 187.63745117 241.85693359 C137.858485 257.48728324 86.96297993 270.04560339 36.375 282.75 C34.8931723 283.12347061 34.8931723 283.12347061 33.38140869 283.50448608 C2.53831428 291.263516 2.53831428 291.263516 -5 291 C-4.80083984 289.7625 -4.80083984 289.7625 -4.59765625 288.5 C-3.19619583 279.33424427 -2.43425419 270.26171233 -2 261 C-1.95914339 260.14897516 -1.91828678 259.29795033 -1.87619209 258.42113686 C-0.70956841 233.03199765 -0.78053843 207.62233079 -0.69667697 182.21202636 C-0.67452222 175.78727811 -0.6472805 169.36255128 -0.62062073 162.93782043 C-0.57668405 152.18894354 -0.53578619 141.44005981 -0.49731445 130.69116211 C-0.45774081 119.63679138 -0.41625506 108.58243044 -0.37231445 97.52807617 C-0.36956495 96.83578739 -0.36681544 96.14349862 -0.36398262 95.43023139 C-0.3400367 89.40505167 -0.31594935 83.37987252 -0.29184818 77.35469341 C-0.18888881 51.56981481 -0.09519212 25.78491116 0 0 Z " fill="#EFBE24" transform="translate(1920,1318)"/>
<path d="M0 0 C0 97.35 0 194.7 0 295 C-67.32 295 -134.64 295 -204 295 C-204 288.81441573 -203.94102533 283.12047522 -203.3704834 277.03326416 C-203.30262398 276.29571199 -203.23476457 275.55815982 -203.1648488 274.79825759 C-202.93915716 272.35758721 -202.70690952 269.9175886 -202.47460938 267.47753906 C-202.30986421 265.71105499 -202.14551792 263.94453368 -201.98153687 262.17797852 C-201.53489972 257.37968807 -201.08242556 252.58196448 -200.62872887 247.78433704 C-200.14637143 242.67484163 -199.66882534 237.56489608 -199.19055176 232.45501709 C-198.37996079 223.80271123 -197.56562557 215.15076391 -196.74902344 206.49902344 C-195.92690114 197.78843575 -195.10835335 189.07752329 -194.29394531 180.36621094 C-190.17452205 136.30635858 -185.99853432 92.25419527 -181.46875 48.234375 C-181.38268682 47.39763402 -181.29662365 46.56089304 -181.2079525 45.69879627 C-180.64599826 40.23868353 -180.08099948 34.77889282 -179.51367188 29.31933594 C-179.44257957 28.63347129 -179.37148727 27.94760664 -179.29824066 27.24095821 C-178.59695245 20.48477445 -177.87939154 13.73551429 -177 7 C-171.81213028 4.92862909 -167.13474224 4.60397079 -161.63110352 4.42431641 C-160.70262793 4.387169 -159.77415234 4.35002159 -158.81754112 4.3117485 C-155.73409815 4.19106072 -152.65035313 4.08354035 -149.56640625 3.9765625 C-147.37502755 3.89449781 -145.18366735 3.81193769 -142.99232483 3.72891235 C-118.80986209 2.82937053 -94.62029685 2.13820541 -70.43048096 1.47198486 C-65.69936216 1.34062231 -60.96836245 1.20520876 -56.23735714 1.06982994 C-51.60539952 0.93771981 -46.97338123 0.80784806 -42.34134102 0.67866898 C-40.16912683 0.6178866 -37.99692933 0.55650429 -35.8247509 0.49445724 C-32.80632003 0.40862951 -29.78782095 0.32576891 -26.76928711 0.24365234 C-25.91261444 0.21874222 -25.05594177 0.19383209 -24.17330933 0.16816711 C-16.10790407 -0.04566625 -8.07911278 0 0 0 Z " fill="#E4A124" transform="translate(1920,831)"/>
<path d="M0 0 C31.68 0 63.36 0 96 0 C96 93.06 96 186.12 96 282 C88.12495459 283.12500649 88.12495459 283.12500649 84.6431675 283.12584114 C83.45276562 283.12975276 83.45276562 283.12975276 82.23831522 283.13374341 C81.38781482 283.13151268 80.53731441 283.12928196 79.66104126 283.12698364 C78.74105012 283.12854363 77.82105899 283.13010362 76.87318933 283.13171089 C73.80167355 283.13568804 70.73020752 283.13254404 67.65869141 283.12939453 C65.45241263 283.13074997 63.24613408 283.13253071 61.03985596 283.13470459 C55.05691742 283.13926032 49.07399614 283.13749742 43.0910573 283.1343255 C36.83482345 283.13179422 30.57859108 283.13414141 24.32235718 283.13571167 C13.15041142 283.13764677 1.97847201 283.13454074 -9.19347222 283.12945233 C-19.33097104 283.12497823 -29.46845842 283.12576642 -39.60595703 283.13037109 C-51.37971343 283.13571648 -63.15346425 283.13771839 -74.92722189 283.13475883 C-81.15959741 283.13319636 -87.39196504 283.13300164 -93.62434006 283.13629532 C-99.47657562 283.13917225 -105.32878944 283.13720165 -111.18102264 283.13140106 C-113.33498473 283.13007287 -115.48894863 283.13046857 -117.64291 283.13266373 C-120.56961287 283.1353727 -123.49624484 283.13199733 -126.42294312 283.12698364 C-127.71877022 283.13032973 -127.71877022 283.13032973 -129.04077566 283.13374341 C-134.88584961 283.11415039 -134.88584961 283.11415039 -136 282 C-136.09528328 279.01698418 -136.12550869 276.05726813 -136.11352539 273.07397461 C-136.11364593 272.12228425 -136.11376646 271.17059389 -136.11389065 270.19006443 C-136.11314128 267.09413417 -136.10551195 263.99826331 -136.09765625 260.90234375 C-136.09618691 258.9971113 -136.09516615 257.09187844 -136.09460449 255.18664551 C-136.08935074 248.10359087 -136.07538967 241.02054486 -136.0625 233.9375 C-136.041875 218.118125 -136.02125 202.29875 -136 186 C-91.12 186 -46.24 186 0 186 C0 124.62 0 63.24 0 0 Z " fill="#0E0E0E" transform="translate(1784,24)"/>
<path d="M0 0 C0.33 0 0.66 0 1 0 C1 1.98 1 3.96 1 6 C2.32 6.33 3.64 6.66 5 7 C5.32119216 20.33082897 4.31127679 33.4474577 3.17285156 46.72119141 C2.97660534 49.06576097 2.78089819 51.41037572 2.58568573 53.75503159 C2.05664111 60.08648237 1.5189159 66.41716771 0.97917461 72.74771452 C0.63731157 76.76550402 0.29779068 80.78348373 -0.04064178 84.80156326 C-4.77428585 140.991629 -9.70202649 197.16450381 -14.71113439 253.33064086 C-15.26266283 259.51553881 -15.81322199 265.70052291 -16.36372668 271.88551205 C-24.32324372 361.31150112 -32.39068057 450.72776286 -111.6175704 1311.61458015 C-111.9314929 1314.93643425 -112.24522356 1318.25830641 -112.55888748 1321.58018494 C-116.97981631 1368.39663872 -121.48345953 1415.20438043 -126.10809255 1462.00118256 C-126.43736651 1465.33410952 -126.76617983 1468.66708168 -127.09492302 1472.00006104 C-127.61020983 1477.22199248 -128.12736454 1482.44373583 -128.64599109 1487.66533661 C-128.83526564 1489.57284376 -129.02405685 1491.48039896 -129.21230054 1493.38800812 C-130.11024718 1502.48150855 -131.03349725 1511.57160144 -132.06651306 1520.65087891 C-132.18511636 1521.72454743 -132.18511636 1521.72454743 -132.30611569 1522.81990623 C-132.88276869 1527.76553738 -132.88276869 1527.76553738 -134 1530 C-136.21599447 1530.84269388 -138.38720487 1531.55795309 -140.65625 1532.23046875 C-141.38652405 1532.45298309 -142.1167981 1532.67549744 -142.86920166 1532.90475464 C-145.41013135 1533.67484078 -147.95480593 1534.43163365 -150.5 1535.1875 C-151.40866821 1535.45988495 -152.31733643 1535.7322699 -153.25354004 1536.01290894 C-185.5143849 1545.67931941 -217.96848472 1554.70649464 -250.38029385 1563.85002899 C-255.9972883 1565.43462518 -261.61383295 1567.02080323 -267.22998047 1568.60839844 C-313.56109649 1581.70453094 -359.93209496 1594.65721687 -406.31209278 1607.5790205 C-413.20573805 1609.49975496 -420.09903621 1611.42173184 -426.9921875 1613.34423828 C-480.12649284 1628.16300361 -533.27664798 1642.9210847 -586.48046875 1657.48846436 C-591.35730481 1658.82382967 -596.23384635 1660.16026796 -601.11034775 1661.49685478 C-629.32644176 1669.2300998 -657.55021946 1676.93448959 -685.78833008 1684.5869751 C-689.10039336 1685.48464129 -692.41211731 1686.38353571 -695.72338867 1687.28411865 C-703.31345749 1689.34829498 -710.90625243 1691.40078177 -718.50860596 1693.41940308 C-720.54808659 1693.96297565 -722.58620139 1694.5117055 -724.6227417 1695.06619263 C-727.29943577 1695.79367301 -729.98051767 1696.50141416 -732.6640625 1697.203125 C-733.76285736 1697.50865547 -733.76285736 1697.50865547 -734.8838501 1697.82035828 C-744.21570376 1700.19544359 -752.98036762 1697.44135998 -762.1015625 1695.140625 C-763.2924649 1694.84463913 -764.48336731 1694.54865326 -765.71035767 1694.24369812 C-768.99137588 1693.42562909 -772.27078318 1692.60166454 -775.54933167 1691.77378464 C-777.64837764 1691.24410077 -779.74789752 1690.71633255 -781.84753418 1690.18899536 C-866.79425334 1668.83943339 -951.17646061 1645.23757486 -1140.00972176 1592.59085655 C-1160.12412017 1586.96324986 -1180.24208342 1581.34845135 -1200.36077881 1575.73622894 C-1235.50922787 1565.93132681 -1270.65346487 1556.11141133 -1305.79526901 1546.28271961 C-1309.60725894 1545.216576 -1313.41927857 1544.1505386 -1317.23130035 1543.0845089 C-1319.81315038 1542.36243845 -1322.3949499 1541.64018762 -1324.97674561 1540.91792297 C-1335.64785165 1537.9333166 -1346.32265003 1534.96219009 -1357 1532 C-1359.73882873 1518.5671288 -1361.86888084 1505.25845377 -1363.19921875 1491.6171875 C-1363.40389519 1489.5850838 -1363.60888386 1487.55301154 -1363.81413269 1485.52096558 C-1364.56486155 1478.01608924 -1365.28557859 1470.50840209 -1366 1463 C-1366.0704506 1462.25966585 -1366.1409012 1461.5193317 -1366.21348667 1460.75656319 C-1368.92233164 1432.26211838 -1371.54218949 1403.75941045 -1374.15789795 1375.25629425 C-1374.82524977 1367.98465235 -1375.49377504 1360.71311855 -1376.16235352 1353.44158936 C-1383.68073012 1271.65575107 -1391.11788489 1189.86249274 -1489.49626374 86.7924999 C-1489.97470594 81.23805427 -1490.4556594 75.68383025 -1490.93774414 70.12969971 C-1491.54748547 63.10281146 -1492.15067 56.075389 -1492.74863815 49.04748917 C-1492.95815776 46.59438411 -1493.16957171 44.14143989 -1493.38316727 41.68868637 C-1494.39048249 30.10331754 -1495.35749655 18.63994626 -1495 7 C-1493.35 6.34 -1491.7 5.68 -1490 5 C-1489.93446647 6.1941301 -1489.93446647 6.1941301 -1489.86760902 7.41238403 C-1488.62643582 29.68559682 -1486.93239387 51.89890147 -1485.01091981 74.12282705 C-1484.68164343 77.93879779 -1484.35538645 81.7550248 -1484.02903348 85.5712465 C-1483.01752536 97.39813856 -1481.99753116 109.22429015 -1480.97542191 121.05027008 C-1480.46880269 126.91233659 -1479.96332567 132.77450095 -1479.45822638 138.6366986 C-1472.1976888 222.90219797 -1464.78016685 307.1538671 -1403.33165724 996.93463411 C-1401.58155114 1016.49850511 -1399.8315955 1036.06238957 -1398.08172607 1055.62628174 C-1397.95617653 1057.02994973 -1397.83062698 1058.43361771 -1397.70507742 1059.8372857 C-1397.19663771 1065.52174016 -1396.68819854 1071.20619467 -1396.17975983 1076.89064923 C-1389.72969074 1149.00378168 -1383.27922926 1221.11687903 -1356 1526 C-1353.43010324 1526.8055696 -1350.86001905 1527.61053239 -1348.28982353 1528.41514778 C-1347.565553 1528.64224884 -1346.84128247 1528.86934991 -1346.09506434 1529.10333282 C-1341.2783302 1530.61057099 -1336.45358084 1532.05458607 -1331.59033203 1533.40576172 C-1330.87904648 1533.60415398 -1330.16776093 1533.80254623 -1329.43492126 1534.00695038 C-1327.12653098 1534.65021099 -1324.81718363 1535.28995815 -1322.5078125 1535.9296875 C-1320.82894326 1536.39686511 -1319.15014278 1536.86428984 -1317.47140503 1537.3319397 C-1313.89277882 1538.32839222 -1310.31374754 1539.32337043 -1306.734375 1540.31713867 C-1298.04846326 1542.72881403 -1289.36476631 1545.14844763 -1280.6807785 1547.56703949 C-1277.68098233 1548.40242819 -1274.68110274 1549.23751681 -1271.68121338 1550.0725708 C-1252.95169408 1555.28708563 -1234.23220276 1560.53706862 -1215.51451492 1565.7938652 C-1184.23836318 1574.57694254 -1152.95235888 1583.32430584 -1121.66047668 1592.05116081 C-1117.16035374 1593.3061848 -1112.66024848 1594.56127216 -1108.16015625 1595.81640625 C-1107.26220589 1596.0668507 -1106.36425552 1596.31729515 -1105.43909454 1596.57532883 C-1091.10225646 1600.57419749 -1076.76738923 1604.5800835 -1062.43359375 1608.58984375 C-1061.45124315 1608.86464506 -1060.46889256 1609.13944637 -1059.45677376 1609.422575 C-1055.48715345 1610.53304082 -1051.51753761 1611.64352262 -1047.547925 1612.75401592 C-1006.18367941 1624.32533845 -964.81188079 1635.86872684 -923.41717529 1647.3306427 C-920.91756596 1648.0228274 -918.41800685 1648.71519321 -915.91845703 1649.40759277 C-874.6616764 1660.83549545 -833.39150279 1672.21072923 -792.0625 1683.375 C-791.26356575 1683.59087769 -790.4646315 1683.80675537 -789.64148712 1684.0291748 C-785.09109072 1685.25860597 -780.54037718 1686.48685175 -775.98915291 1687.71321487 C-774.62707557 1688.08025084 -773.2650475 1688.44746971 -771.90307426 1688.81489182 C-768.92218011 1689.61875861 -765.94035679 1690.41817609 -762.95510864 1691.20574951 C-761.19014233 1691.68012305 -759.43004205 1692.17430829 -757.68234253 1692.70880127 C-748.86816139 1695.30804018 -740.44711221 1692.53645272 -731.828125 1690.28125 C-730.16639 1689.85381248 -730.16639 1689.85381248 -728.47108459 1689.41773987 C-725.38543319 1688.6216643 -722.30145074 1687.81949597 -719.21829605 1687.01381302 C-717.22338206 1686.49305153 -715.22791172 1685.97447495 -713.23226929 1685.45651245 C-643.78442454 1667.42515317 -574.59327446 1648.4070723 -505.42840767 1629.32478142 C-498.85942619 1627.5125349 -492.28997122 1625.70201337 -485.72021484 1623.89257812 C-484.79085649 1623.63661362 -483.86149813 1623.38064911 -482.90397739 1623.1169281 C-481.5117441 1622.73347984 -481.5117441 1622.73347984 -480.09138489 1622.34228516 C-432.70978083 1609.29243876 -385.33900264 1596.20362786 -338 1583 C-337.17411629 1582.76967827 -336.34823257 1582.53935654 -335.49732208 1582.30205536 C-271.63486042 1564.54794554 -271.63486042 1564.54794554 -208 1546 C-207.11644836 1545.73592346 -206.23289673 1545.47184692 -205.3225708 1545.19976807 C-180.60932405 1537.8316259 -180.60932405 1537.8316259 -156.1875 1529.5625 C-155.37071777 1529.26875488 -154.55393555 1528.97500977 -153.71240234 1528.67236328 C-142.83476141 1524.91407765 -142.83476141 1524.91407765 -134 1518 C-133.38004467 1515.70244406 -133.38004467 1515.70244406 -133.20150185 1513.07587337 C-133.10025135 1512.05884535 -132.99900086 1511.04181733 -132.89468217 1509.99397027 C-132.79751963 1508.87866013 -132.7003571 1507.76334998 -132.60025024 1506.61424255 C-132.48735334 1505.44022404 -132.37445644 1504.26620553 -132.25813842 1503.0566107 C-131.95003677 1499.82360742 -131.65403782 1496.58976417 -131.36333439 1493.3551584 C-131.05044218 1489.90536537 -130.72228822 1486.45702101 -130.39606667 1483.00846767 C-129.78183842 1476.48894315 -129.18180832 1469.96819648 -128.58806045 1463.44677768 C-128.03342683 1457.35653904 -127.46990675 1451.2671593 -126.90470898 1445.17789096 C-125.48910217 1429.91845992 -124.10418024 1414.65632224 -122.7277837 1399.39331821 C-122.06059547 1391.99562317 -121.39059215 1384.59818359 -120.72059222 1377.20074277 C-119.51121059 1363.84713466 -118.30398602 1350.49333251 -117.09814453 1337.1394043 C-115.96151912 1324.55203821 -114.82362361 1311.96478798 -113.68408203 1299.37768555 C-113.61466587 1298.6109166 -113.5452497 1297.84414766 -113.47373002 1297.05414329 C-113.19361759 1293.96004509 -112.91350191 1290.86594719 -112.63338154 1287.77184971 C-105.79401082 1212.22514513 -98.9980828 1136.67458288 -90 1036 C-89.86512712 1034.49017367 -89.86512712 1034.49017367 -89.72752953 1032.94984579 C-87.83062187 1011.71464253 -85.93735239 990.47911806 -84.04830933 969.24321365 C-83.66758443 964.96339073 -83.28668102 960.6835837 -82.90576172 956.40377808 C-75.42603779 872.36382515 -67.96188449 788.32247845 -50.0689618 586.10150057 C-49.41216826 578.66582445 -48.75530191 571.23015478 -48.09832764 563.79449463 C-37.39064871 442.61010401 -37.39064871 442.61010401 -14.86305308 184.93618196 C-14.30107805 178.46387513 -13.73854616 171.99161686 -13.17578125 165.51937866 C-11.17586451 142.51548354 -9.18537905 119.51079648 -7.21454811 96.50438976 C-7.07050825 94.82303285 -6.92641754 93.14168029 -6.78227806 91.46033192 C-5.85222589 80.61101178 -4.92806201 69.76121609 -4.01324081 58.91060066 C-3.75445111 55.84248238 -3.49380802 52.77453142 -3.23135757 49.70672417 C-1.81614028 33.14815998 -0.57218818 16.61253927 0 0 Z " fill="#EBE8E3" transform="translate(2665,437)"/>
<path d="M0 0 C0.33 0 0.66 0 1 0 C1.32397902 9.90891667 0.3212619 19.65078247 -0.63305664 29.49731445 C-0.80932807 31.3557374 -0.98514745 33.21420326 -1.16055298 35.07270813 C-1.6377073 40.11424269 -2.12129829 45.15514107 -2.60613179 50.19594216 C-3.12024716 55.55201686 -3.62865665 60.9086335 -4.13780212 66.2651825 C-4.99945413 75.32173433 -5.86498657 84.37790844 -6.7331543 93.43383789 C-7.60999308 102.58035029 -8.483941 111.72713131 -9.35424805 120.87426758 C-9.45991329 121.9848 -9.56557853 123.09533242 -9.67444575 124.23951733 C-9.88717744 126.47539014 -10.09990773 128.71126309 -10.31263661 130.94713616 C-12.57008602 154.66837687 -14.84805091 178.38760038 -17.14110935 202.10542428 C-17.79200161 208.83985983 -18.4395637 215.57460945 -19.08563232 222.30950928 C-19.82285635 229.99221187 -20.56626069 237.67428404 -21.31855363 245.35552639 C-21.69199237 249.16905228 -22.06291431 252.98277394 -22.42668343 256.79723549 C-22.81610676 260.8790351 -23.21863909 264.95942856 -23.62280273 269.03979492 C-23.73401144 270.22589293 -23.84522015 271.41199093 -23.95979881 272.6340313 C-24.06812853 273.70489542 -24.17645824 274.77575954 -24.28807068 275.8790741 C-24.37801017 276.803212 -24.46794966 277.72734991 -24.56061459 278.679492 C-25 281 -25 281 -27 284 C-24.51775127 253.31963429 -21.74779081 222.66604022 -18.96484375 192.01171875 C-18.78537517 190.03386469 -18.60590664 188.05601062 -18.42644818 186.07815563 C-17.36964802 174.43146505 -16.31193537 162.78485761 -15.25189877 151.13846111 C-14.99596597 148.32643919 -14.74004141 145.51441652 -14.48413086 142.70239258 C-14.42055846 142.00384865 -14.35698606 141.30530471 -14.29148722 140.58559278 C-13.25391158 129.18282732 -12.22195376 117.77956035 -11.19218009 106.37608793 C-10.12812662 94.5940747 -9.05898997 82.81253134 -7.984891 71.03142959 C-7.38454963 64.44524951 -6.78658317 57.85886846 -6.19407463 51.27197838 C-5.6393221 45.10608606 -5.07820908 38.94080579 -4.51216698 32.77593994 C-4.30584172 30.51664681 -4.10182688 28.25714131 -3.90029526 25.99741554 C-3.62494534 22.91394445 -3.34127991 19.83134693 -3.05552673 16.74882507 C-2.97779791 15.85605273 -2.90006909 14.9632804 -2.81998485 14.04345435 C-2.35459654 9.13215534 -1.51781001 4.69742193 0 0 Z " fill="#EBE4D6" transform="translate(2559,1667)"/>
</svg>
