<?xml version="1.0" encoding="UTF-8"?>
<svg version="1.1" xmlns="http://www.w3.org/2000/svg" width="225" height="225">
<path d="M0 0 C74.25 0 148.5 0 225 0 C225 74.25 225 148.5 225 225 C150.75 225 76.5 225 0 225 C0 150.75 0 76.5 0 0 Z " fill="#F8F8F8" transform="translate(0,0)"/>
<path d="M0 0 C74.25 0 148.5 0 225 0 C225 74.25 225 148.5 225 225 C150.75 225 76.5 225 0 225 C0 150.75 0 76.5 0 0 Z M54 25 C48.27866669 33.74703843 47.81820587 41.29791117 47.8125 51.5 C47.79413086 53.18222656 47.79413086 53.18222656 47.77539062 54.8984375 C47.76229403 62.45954075 48.51463403 69.5874768 50 77 C49.16339844 77.268125 48.32679687 77.53625 47.46484375 77.8125 C33.02101833 82.67509461 17.49955712 88.98320332 8.9375 102.3125 C6.39463728 107.45138634 5.95433552 112.38162817 7 118 C8.29827263 121.01056134 9.95578073 123.45010543 12 126 C12.598125 126.80953125 13.19625 127.6190625 13.8125 128.453125 C22.5069365 138.57593321 37.96160322 146.03488553 51 148 C50.78851318 148.71470459 50.57702637 149.42940918 50.35913086 150.16577148 C48.22427743 157.91127289 47.5103647 165.04788219 47.5625 173.0625 C47.5325293 174.7031543 47.5325293 174.7031543 47.50195312 176.37695312 C47.5071294 185.07826764 49.21506877 192.48649077 53.8125 199.9375 C58.98409223 204.81357267 62.53866599 206.27904664 69.625 206.5625 C86.54700235 206.02415422 99.63609322 195.54638857 112 185 C115.49359035 186.529452 118.01047665 188.62616048 120.875 191.125 C130.39522157 199.03509014 141.28182611 206.2706639 154 206.3125 C155.7634375 206.33763672 155.7634375 206.33763672 157.5625 206.36328125 C162.69571644 205.8207936 166.71275095 203.89971321 170.125 200 C176.65727972 191.58133208 177.60571357 182.34568214 177.375 172 C177.37371094 170.90171875 177.37242187 169.8034375 177.37109375 168.671875 C177.295622 161.5943021 176.50504397 154.91384985 175 148 C176.01578125 147.64808594 177.0315625 147.29617187 178.078125 146.93359375 C192.61222442 141.77627547 208.34980224 135.13758106 216.125 120.9375 C218.44380125 115.5711314 219.34076573 111.4021192 217.11328125 105.75 C209.70297636 91.17557975 195.08500618 84.26894471 180.3359375 79.03125 C177.1042541 77.8523283 177.1042541 77.8523283 174 78 C174.13277344 77.45472656 174.26554688 76.90945312 174.40234375 76.34765625 C177.91617414 61.34334398 179.85995568 43.3016035 173 29 C169.76233085 24.08211865 166.71980694 20.75541799 161 19 C145.90597872 17.27840076 134.55892248 23.27198104 122.96875 32.3828125 C121.07184149 33.93528236 119.18526703 35.50052305 117.3125 37.08203125 C115 39 115 39 112 41 C111.51273437 40.52691406 111.02546875 40.05382812 110.5234375 39.56640625 C99.23132534 29.03394528 85.10416844 19.15952874 69.25 18.3125 C62.86620281 18.6131861 58.41856327 20.3236872 54 25 Z " fill="#000000" transform="translate(0,0)"/>
<path d="M0 0 C5.10587334 1.72361561 7.68720956 5.3418792 10.03381348 9.97796631 C11.21422668 12.69589049 12.23020627 15.39055406 13.13342285 18.21234131 C14.25779083 21.50419721 15.90010448 24.06231238 17.78381348 26.97796631 C19.59284221 29.96261035 19.97786459 31.37894151 19.89709473 34.91156006 C18.74201432 39.59524053 16.7610163 43.2698703 14.34631348 47.41546631 C13.72562988 48.51761475 13.72562988 48.51761475 13.09240723 49.64202881 C12.22053779 51.17376295 11.32015648 52.68954905 10.39489746 54.18963623 C8.88528755 56.68892752 8.88528755 56.68892752 7.75280762 59.63543701 C6.14551999 63.05728755 4.8341145 65.17232162 1.97131348 67.66546631 C-3.36768685 69.57096869 -9.06803647 69.45726421 -14.67004395 69.37420654 C-17.33486288 69.35301659 -19.96728729 69.47529395 -22.6282959 69.60882568 C-34.54837711 69.83514924 -34.54837711 69.83514924 -38.76708984 66.14477539 C-41.89898855 62.31484826 -44.05197901 58.04955705 -46.11288452 53.57382202 C-47.26109581 51.18116992 -48.69596976 49.08955589 -50.25524902 46.94671631 C-56.36478772 37.66782487 -56.36478772 37.66782487 -55.80310059 32.65032959 C-54.43089104 28.19668629 -51.94375801 24.61108478 -49.30847168 20.81439209 C-47.91382594 18.47260045 -47.17418542 16.26562287 -46.38415527 13.66156006 C-39.79324538 -5.05330242 -16.73176438 -3.94362031 0 0 Z " fill="#020202" transform="translate(130.0286865234375,78.33453369140625)"/>
<path d="M0 0 C1.48006002 3.93716478 2.95889497 7.87478859 4.4375 11.8125 C4.85837891 12.93205078 5.27925781 14.05160156 5.71289062 15.20507812 C6.11572266 16.27822266 6.51855469 17.35136719 6.93359375 18.45703125 C7.30540771 19.44678955 7.67722168 20.43654785 8.06030273 21.45629883 C9.62694457 25.69709938 10.16565368 27.27539317 8.41796875 31.45703125 C8.06283203 32.32263672 7.70769531 33.18824219 7.34179688 34.08007812 C6.96087891 34.98177734 6.57996094 35.88347656 6.1875 36.8125 C5.45031042 38.58921694 4.7145958 40.3665467 3.98046875 42.14453125 C3.46105713 43.3987085 3.46105713 43.3987085 2.93115234 44.67822266 C1.83317327 47.4159733 0.8794657 50.18477912 0 53 C-12.63461824 51.19505454 -27.32615921 43.98318866 -35.4375 34 C-37.4283325 30.17760159 -38.58934905 27.43868574 -37.546875 23.125 C-33.92685109 14.0394498 -23.98819131 9.08095583 -15.5625 5.09765625 C-3.66192171 0 -3.66192171 0 0 0 Z " fill="#010101" transform="translate(54,86)"/>
<path d="M0 0 C2.94823386 0.30743615 5.86603067 0.7360483 8.79394531 1.19628906 C12.1272309 1.69526518 15.11321474 1.99570391 18.5 1.8671875 C26.32817293 1.58492165 26.32817293 1.58492165 29.51660156 4.28369141 C32.65717837 7.67621364 35.23037859 11.43999458 37.79394531 15.27636719 C39.88598806 18.26620965 42.42303196 20.83208122 44.953125 23.44921875 C45.29859375 23.96097656 45.6440625 24.47273438 46 25 C44.72071854 28.83784439 42.41797222 30.38471776 39.3125 32.75 C38.74031738 33.18884521 38.16813477 33.62769043 37.57861328 34.07983398 C28.22626142 41.02754889 16.99998934 47.70606877 5 46 C0.32590378 42.59180484 -1.40108155 38.92901723 -2.53515625 33.3828125 C-3.0914938 29.33417117 -3.19137216 25.39418673 -3.1875 21.3125 C-3.18741943 20.52174072 -3.18733887 19.73098145 -3.18725586 18.91625977 C-3.03330414 3.03330414 -3.03330414 3.03330414 0 0 Z " fill="#020202" transform="translate(60,151)"/>
<path d="M0 0 C4.31485341 3.69844578 6.30781651 9.3427683 7.1875 14.875 C8.00316752 25.53493069 6.30251198 35.47619112 4.1875 45.875 C-23.21422235 44.28765622 -23.21422235 44.28765622 -28.71875 38.7734375 C-31.27737807 35.40798503 -32.99908284 31.67978647 -34.8125 27.875 C-36.83953727 25.20884042 -36.83953727 25.20884042 -38.9375 23 C-39.49695313 22.38382813 -40.05640625 21.76765625 -40.6328125 21.1328125 C-41.21675781 20.51019531 -41.21675781 20.51019531 -41.8125 19.875 C-38.34745128 15.42548884 -34.85815919 12.04834348 -30.25 8.8125 C-29.6401123 8.38275879 -29.03022461 7.95301758 -28.40185547 7.51025391 C-20.04429783 1.79329425 -10.18657193 -4.07462877 0 0 Z " fill="#020202" transform="translate(160.8125,29.125)"/>
<path d="M0 0 C5.72823242 8.59234863 5.02260796 22.54338769 3.46484375 32.37890625 C2.26230801 37.73446159 1.13323262 42.13342755 -3 46 C-7.02091676 48.01045838 -11.35925782 47.41142478 -15.5859375 46.3515625 C-26.72113552 42.61855915 -35.56150779 36.02177655 -44 28 C-43.41021617 24.63823216 -42.33160554 22.96113918 -40 20.5 C-37.69757536 18.04469807 -35.85775334 15.7669141 -34.09765625 12.8828125 C-28.91230233 4.58226515 -28.91230233 4.58226515 -23.25390625 2.859375 C-19.18610635 2.26135533 -15.10455528 2.16127919 -11 2 C-8.8263524 1.66784711 -6.65766638 1.29872777 -4.5 0.875 C-3.6234375 0.70742187 -2.746875 0.53984375 -1.84375 0.3671875 C-0.93109375 0.18542969 -0.93109375 0.18542969 0 0 Z " fill="#010101" transform="translate(164,150)"/>
<path d="M0 0 C10.4344646 4.04046413 18.76811958 10.72834587 27.05859375 18.09765625 C22.92829928 23.75049064 18.57126618 29.18768959 14.109375 34.58203125 C12.08660684 36.96019341 12.08660684 36.96019341 10.73632812 39.19165039 C8.58959644 41.63046503 7.35484303 41.74766828 4.1640625 42.109375 C2.73030273 42.28629883 2.73030273 42.28629883 1.26757812 42.46679688 C0.27048828 42.57185547 -0.72660156 42.67691406 -1.75390625 42.78515625 C-3.71880593 43.01775719 -5.6836513 43.25081747 -7.6484375 43.484375 C-8.56705566 43.5879834 -9.48567383 43.6915918 -10.43212891 43.79833984 C-13.28648354 44.13881842 -16.1132353 44.58387986 -18.94140625 45.09765625 C-21.41677664 37.15584291 -22.2853059 29.62763079 -22.37890625 21.34765625 C-22.40082031 20.47343018 -22.42273437 19.5992041 -22.4453125 18.69848633 C-22.42483697 11.92300447 -21.06278456 5.59198501 -16.43139648 0.40722656 C-11.82575437 -3.64072761 -5.38349625 -1.6515108 0 0 Z " fill="#010101" transform="translate(78.94140625,29.90234375)"/>
<path d="M0 0 C13.81119157 4.17241408 28.65864246 9.48796369 37 22 C37.45240318 26.59943231 37.50967761 28.98064478 35.4375 33.125 C26.49129698 43.67693176 13.29955823 49.73858117 0 53 C-0.38671875 51.865625 -0.7734375 50.73125 -1.171875 49.5625 C-1.69762949 48.04156737 -2.22368746 46.52073961 -2.75 45 C-3.00265625 44.25621094 -3.2553125 43.51242188 -3.515625 42.74609375 C-5.09508908 38.20513453 -6.9032238 34.07489977 -9.33691406 29.921875 C-10.79456635 25.6970448 -8.50099493 21.4320858 -6.93359375 17.48046875 C-6.3293457 15.9480957 -6.3293457 15.9480957 -5.71289062 14.38476562 C-5.29201172 13.32966797 -4.87113281 12.27457031 -4.4375 11.1875 C-4.01275391 10.11306641 -3.58800781 9.03863281 -3.15039062 7.93164062 C-2.10399344 5.28625448 -1.05374756 2.64246489 0 0 Z " fill="#010101" transform="translate(171,86)"/>
<path d="M0 0 C4.79744574 2.60406102 8.49537595 6.55325191 10.9375 11.4375 C11.66899191 18.22992488 11.74469153 24.12947147 7.53515625 29.74609375 C2.8228795 34.73488552 -1.26123499 36.7339353 -8.1875 37 C-14.09131997 36.72523102 -17.2973794 35.26458408 -21.45703125 31.01171875 C-25.08702869 26.9632778 -26.76787944 23.58402123 -27.5 18.25 C-26.81232276 12.25738404 -24.73911123 6.72355512 -20.0546875 2.72265625 C-13.59951667 -1.38626245 -7.32251942 -3.2825087 0 0 Z " fill="#FBFBFB" transform="translate(120.0625,94.5625)"/>
<path d="M0 0 C3.05566461 2.96306871 5.97135828 6.01720161 8.8125 9.1875 C9.41707031 9.86167969 10.02164063 10.53585938 10.64453125 11.23046875 C12 13 12 13 12 15 C4.08 15 -3.84 15 -12 15 C-8.07205456 9.76273941 -4.27498403 4.88569603 0 0 Z " fill="#131313" transform="translate(112,55)"/>
<path d="M0 0 C3.11999182 1.55999591 3.45116846 4.12779497 4.6875 7.3125 C5.14511719 8.46363281 5.60273438 9.61476562 6.07421875 10.80078125 C6.96030566 13.86282842 7.176686 15.11177073 6 18 C4.10507994 18.33848652 2.20901534 18.67056911 0.3125 19 C-0.74324219 19.185625 -1.79898438 19.37125 -2.88671875 19.5625 C-5.64904062 19.95068074 -8.21742043 20.08259976 -11 20 C-7.68254299 13.10086374 -4.02965319 6.50837456 0 0 Z " fill="#050505" transform="translate(155,124)"/>
<path d="M0 0 C2.90786226 3.67011741 5.28136133 7.61860643 7.6875 11.625 C8.10322266 12.305625 8.51894531 12.98625 8.94726562 13.6875 C12 18.76035252 12 18.76035252 12 21 C9.93728361 20.6889315 7.87483534 20.37608484 5.8125 20.0625 C4.66394531 19.88847656 3.51539062 19.71445313 2.33203125 19.53515625 C-0.46325212 19.08620687 -3.22933586 18.57917838 -6 18 C-4.83805848 11.53287812 -2.8751252 5.90377651 0 0 Z " fill="#060606" transform="translate(69,124)"/>
<path d="M0 0 C-3.63566563 6.68412752 -7.29224236 13.35556707 -11 20 C-14.16074764 18.41962618 -14.54298175 15.23621052 -15.625 12.0625 C-15.85445313 11.41603516 -16.08390625 10.76957031 -16.3203125 10.10351562 C-18 5.28941127 -18 5.28941127 -18 3 C-16.12743583 2.49095343 -14.25180659 1.99317545 -12.375 1.5 C-11.33085938 1.2215625 -10.28671875 0.943125 -9.2109375 0.65625 C-6.04312582 0.00881404 -3.22258533 -0.1161292 0 0 Z " fill="#050505" transform="translate(81,81)"/>
<path d="M0 0 C7.59 0 15.18 0 23 0 C20.4448065 3.83279025 18.25405601 7.02432214 15.25 10.375 C14.63640625 11.06335938 14.0228125 11.75171875 13.390625 12.4609375 C12.70226562 13.22277344 12.70226562 13.22277344 12 14 C6.99345667 10.51059101 3.48289714 5.94832361 0 1 C0 0.67 0 0.34 0 0 Z " fill="#030303" transform="translate(101,156)"/>
<path d="M0 0 C6.2054142 0.48320848 11.99945246 1.33318124 18 3 C17.21563093 5.4608831 16.42291109 7.91850969 15.625 10.375 C15.40328125 11.07367188 15.1815625 11.77234375 14.953125 12.4921875 C13.2265625 17.7734375 13.2265625 17.7734375 11 20 C9.16318536 16.85618694 7.3311356 13.70962371 5.5 10.5625 C4.97535156 9.66466797 4.45070312 8.76683594 3.91015625 7.84179688 C3.16572266 6.56079102 3.16572266 6.56079102 2.40625 5.25390625 C1.94541016 4.46314697 1.48457031 3.6723877 1.00976562 2.85766602 C0 1 0 1 0 0 Z " fill="#030303" transform="translate(144,81)"/>
</svg>
